M48
;DRILL file {KiCad (5.0.2)-1} date 23.03.2019 11:15:46
;FORMAT={-:-/ absolute / inch / decimal}
FMAT,2
INCH,TZ
T1C0.0157
T2C0.0374
T3C0.0400
T4C0.0472
T5C0.0984
%
G90
G05
T1
X5.14Y-3.52
X5.14Y-4.
X5.24Y-3.28
X5.24Y-3.38
X5.25Y-3.86
X5.2544Y-3.76
X5.27Y-4.04
X5.27Y-4.0794
X5.2702Y-4.0002
X5.41Y-3.73
X5.48Y-3.81
X5.51Y-3.68
X5.63Y-3.65
X5.63Y-3.7
T2
X4.9231Y-4.36
X5.0216Y-4.36
X5.12Y-4.36
X5.3431Y-4.36
X5.4416Y-4.36
X5.54Y-4.36
T3
X5.78Y-3.62
X5.78Y-3.72
X5.78Y-3.82
X5.78Y-3.92
X5.78Y-4.02
X5.78Y-4.12
T4
X5.32Y-3.36
X5.42Y-3.36
X5.52Y-3.36
T5
X4.9Y-3.34
X5.75Y-3.34
X5.75Y-4.36
T0
M30
