G04 #@! TF.GenerationSoftware,KiCad,Pcbnew,(5.0.2)-1*
G04 #@! TF.CreationDate,2019-03-23T11:15:38+03:00*
G04 #@! TF.ProjectId,galvo-schematic,67616c76-6f2d-4736-9368-656d61746963,rev?*
G04 #@! TF.SameCoordinates,Original*
G04 #@! TF.FileFunction,Soldermask,Top*
G04 #@! TF.FilePolarity,Negative*
%FSLAX46Y46*%
G04 Gerber Fmt 4.6, Leading zero omitted, Abs format (unit mm)*
G04 Created by KiCad (PCBNEW (5.0.2)-1) date 23.03.2019 11:15:38*
%MOMM*%
%LPD*%
G01*
G04 APERTURE LIST*
%ADD10C,0.100000*%
G04 APERTURE END LIST*
D10*
G36*
X146589625Y-108965095D02*
X146589627Y-108965096D01*
X146589628Y-108965096D01*
X146926303Y-109104552D01*
X147229306Y-109307011D01*
X147486989Y-109564694D01*
X147689448Y-109867697D01*
X147828905Y-110204375D01*
X147900000Y-110561791D01*
X147900000Y-110926209D01*
X147842539Y-111215081D01*
X147828904Y-111283628D01*
X147792534Y-111371432D01*
X147689448Y-111620303D01*
X147486989Y-111923306D01*
X147229306Y-112180989D01*
X146926303Y-112383448D01*
X146589628Y-112522904D01*
X146589627Y-112522904D01*
X146589625Y-112522905D01*
X146232209Y-112594000D01*
X145867791Y-112594000D01*
X145510375Y-112522905D01*
X145510373Y-112522904D01*
X145510372Y-112522904D01*
X145173697Y-112383448D01*
X144870694Y-112180989D01*
X144613011Y-111923306D01*
X144410552Y-111620303D01*
X144307466Y-111371432D01*
X144271096Y-111283628D01*
X144257461Y-111215081D01*
X144200000Y-110926209D01*
X144200000Y-110561791D01*
X144271095Y-110204375D01*
X144410552Y-109867697D01*
X144613011Y-109564694D01*
X144870694Y-109307011D01*
X145173697Y-109104552D01*
X145510372Y-108965096D01*
X145510373Y-108965096D01*
X145510375Y-108965095D01*
X145867791Y-108894000D01*
X146232209Y-108894000D01*
X146589625Y-108965095D01*
X146589625Y-108965095D01*
G37*
G36*
X125224429Y-109732022D02*
X125394081Y-109783486D01*
X125550434Y-109867058D01*
X125687475Y-109979525D01*
X125799942Y-110116566D01*
X125799943Y-110116568D01*
X125883514Y-110272919D01*
X125934977Y-110442570D01*
X125934977Y-110442572D01*
X125948000Y-110574789D01*
X125948000Y-110913212D01*
X125934978Y-111045429D01*
X125883514Y-111215081D01*
X125799942Y-111371434D01*
X125687475Y-111508475D01*
X125550434Y-111620942D01*
X125394080Y-111704514D01*
X125224428Y-111755978D01*
X125048000Y-111773355D01*
X124871571Y-111755978D01*
X124701919Y-111704514D01*
X124545566Y-111620942D01*
X124408525Y-111508475D01*
X124296058Y-111371434D01*
X124212486Y-111215080D01*
X124161022Y-111045428D01*
X124148000Y-110913211D01*
X124148000Y-110574788D01*
X124161022Y-110442571D01*
X124212486Y-110272919D01*
X124296057Y-110116568D01*
X124408525Y-109979525D01*
X124485451Y-109916394D01*
X124545567Y-109867058D01*
X124701920Y-109783486D01*
X124871572Y-109732022D01*
X125048000Y-109714645D01*
X125224429Y-109732022D01*
X125224429Y-109732022D01*
G37*
G36*
X138392429Y-109732022D02*
X138562081Y-109783486D01*
X138718434Y-109867058D01*
X138855475Y-109979525D01*
X138967942Y-110116566D01*
X138967943Y-110116568D01*
X139051514Y-110272919D01*
X139102977Y-110442570D01*
X139102977Y-110442572D01*
X139116000Y-110574789D01*
X139116000Y-110913212D01*
X139102978Y-111045429D01*
X139051514Y-111215081D01*
X138967942Y-111371434D01*
X138855475Y-111508475D01*
X138718434Y-111620942D01*
X138562080Y-111704514D01*
X138392428Y-111755978D01*
X138216000Y-111773355D01*
X138039571Y-111755978D01*
X137869919Y-111704514D01*
X137713566Y-111620942D01*
X137576525Y-111508475D01*
X137464058Y-111371434D01*
X137380486Y-111215080D01*
X137329022Y-111045428D01*
X137316000Y-110913211D01*
X137316000Y-110574788D01*
X137329022Y-110442571D01*
X137380486Y-110272919D01*
X137464057Y-110116568D01*
X137576525Y-109979525D01*
X137653451Y-109916394D01*
X137713567Y-109867058D01*
X137869920Y-109783486D01*
X138039572Y-109732022D01*
X138216000Y-109714645D01*
X138392429Y-109732022D01*
X138392429Y-109732022D01*
G37*
G36*
X135892429Y-109732022D02*
X136062081Y-109783486D01*
X136218434Y-109867058D01*
X136355475Y-109979525D01*
X136467942Y-110116566D01*
X136467943Y-110116568D01*
X136551514Y-110272919D01*
X136602977Y-110442570D01*
X136602977Y-110442572D01*
X136616000Y-110574789D01*
X136616000Y-110913212D01*
X136602978Y-111045429D01*
X136551514Y-111215081D01*
X136467942Y-111371434D01*
X136355475Y-111508475D01*
X136218434Y-111620942D01*
X136062080Y-111704514D01*
X135892428Y-111755978D01*
X135716000Y-111773355D01*
X135539571Y-111755978D01*
X135369919Y-111704514D01*
X135213566Y-111620942D01*
X135076525Y-111508475D01*
X134964058Y-111371434D01*
X134880486Y-111215080D01*
X134829022Y-111045428D01*
X134816000Y-110913211D01*
X134816000Y-110574788D01*
X134829022Y-110442571D01*
X134880486Y-110272919D01*
X134964057Y-110116568D01*
X135076525Y-109979525D01*
X135153451Y-109916394D01*
X135213567Y-109867058D01*
X135369920Y-109783486D01*
X135539572Y-109732022D01*
X135716000Y-109714645D01*
X135892429Y-109732022D01*
X135892429Y-109732022D01*
G37*
G36*
X127724429Y-109732022D02*
X127894081Y-109783486D01*
X128050434Y-109867058D01*
X128187475Y-109979525D01*
X128299942Y-110116566D01*
X128299943Y-110116568D01*
X128383514Y-110272919D01*
X128434977Y-110442570D01*
X128434977Y-110442572D01*
X128448000Y-110574789D01*
X128448000Y-110913212D01*
X128434978Y-111045429D01*
X128383514Y-111215081D01*
X128299942Y-111371434D01*
X128187475Y-111508475D01*
X128050434Y-111620942D01*
X127894080Y-111704514D01*
X127724428Y-111755978D01*
X127548000Y-111773355D01*
X127371571Y-111755978D01*
X127201919Y-111704514D01*
X127045566Y-111620942D01*
X126908525Y-111508475D01*
X126796058Y-111371434D01*
X126712486Y-111215080D01*
X126661022Y-111045428D01*
X126648000Y-110913211D01*
X126648000Y-110574788D01*
X126661022Y-110442571D01*
X126712486Y-110272919D01*
X126796057Y-110116568D01*
X126908525Y-109979525D01*
X126985451Y-109916394D01*
X127045567Y-109867058D01*
X127201920Y-109783486D01*
X127371572Y-109732022D01*
X127548000Y-109714645D01*
X127724429Y-109732022D01*
X127724429Y-109732022D01*
G37*
G36*
X141459660Y-109723205D02*
X141495980Y-109734222D01*
X141529459Y-109752118D01*
X141558802Y-109776198D01*
X141582882Y-109805541D01*
X141600778Y-109839020D01*
X141611795Y-109875340D01*
X141616000Y-109918035D01*
X141616000Y-111569965D01*
X141611795Y-111612660D01*
X141600778Y-111648980D01*
X141582882Y-111682459D01*
X141558802Y-111711802D01*
X141529459Y-111735882D01*
X141495980Y-111753778D01*
X141459660Y-111764795D01*
X141416965Y-111769000D01*
X140015035Y-111769000D01*
X139972340Y-111764795D01*
X139936020Y-111753778D01*
X139902541Y-111735882D01*
X139873198Y-111711802D01*
X139849118Y-111682459D01*
X139831222Y-111648980D01*
X139820205Y-111612660D01*
X139816000Y-111569965D01*
X139816000Y-109918035D01*
X139820205Y-109875340D01*
X139831222Y-109839020D01*
X139849118Y-109805541D01*
X139873198Y-109776198D01*
X139902541Y-109752118D01*
X139936020Y-109734222D01*
X139972340Y-109723205D01*
X140015035Y-109719000D01*
X141416965Y-109719000D01*
X141459660Y-109723205D01*
X141459660Y-109723205D01*
G37*
G36*
X130791660Y-109723205D02*
X130827980Y-109734222D01*
X130861459Y-109752118D01*
X130890802Y-109776198D01*
X130914882Y-109805541D01*
X130932778Y-109839020D01*
X130943795Y-109875340D01*
X130948000Y-109918035D01*
X130948000Y-111569965D01*
X130943795Y-111612660D01*
X130932778Y-111648980D01*
X130914882Y-111682459D01*
X130890802Y-111711802D01*
X130861459Y-111735882D01*
X130827980Y-111753778D01*
X130791660Y-111764795D01*
X130748965Y-111769000D01*
X129347035Y-111769000D01*
X129304340Y-111764795D01*
X129268020Y-111753778D01*
X129234541Y-111735882D01*
X129205198Y-111711802D01*
X129181118Y-111682459D01*
X129163222Y-111648980D01*
X129152205Y-111612660D01*
X129148000Y-111569965D01*
X129148000Y-109918035D01*
X129152205Y-109875340D01*
X129163222Y-109839020D01*
X129181118Y-109805541D01*
X129205198Y-109776198D01*
X129234541Y-109752118D01*
X129268020Y-109734222D01*
X129304340Y-109723205D01*
X129347035Y-109719000D01*
X130748965Y-109719000D01*
X130791660Y-109723205D01*
X130791660Y-109723205D01*
G37*
G36*
X147743293Y-103796895D02*
X147906085Y-103846278D01*
X148056114Y-103926470D01*
X148187612Y-104034388D01*
X148295530Y-104165886D01*
X148375722Y-104315915D01*
X148425105Y-104478707D01*
X148441779Y-104648000D01*
X148425105Y-104817293D01*
X148375722Y-104980085D01*
X148295530Y-105130114D01*
X148187612Y-105261612D01*
X148056114Y-105369530D01*
X147906085Y-105449722D01*
X147743293Y-105499105D01*
X147616426Y-105511600D01*
X146007574Y-105511600D01*
X145880707Y-105499105D01*
X145717915Y-105449722D01*
X145567886Y-105369530D01*
X145436388Y-105261612D01*
X145328470Y-105130114D01*
X145248278Y-104980085D01*
X145198895Y-104817293D01*
X145182221Y-104648000D01*
X145198895Y-104478707D01*
X145248278Y-104315915D01*
X145328470Y-104165886D01*
X145436388Y-104034388D01*
X145567886Y-103926470D01*
X145717915Y-103846278D01*
X145880707Y-103796895D01*
X146007574Y-103784400D01*
X147616426Y-103784400D01*
X147743293Y-103796895D01*
X147743293Y-103796895D01*
G37*
G36*
X132498000Y-104520000D02*
X131198000Y-104520000D01*
X131198000Y-103220000D01*
X132498000Y-103220000D01*
X132498000Y-104520000D01*
X132498000Y-104520000D01*
G37*
G36*
X129398000Y-103720000D02*
X127798000Y-103720000D01*
X127798000Y-102020000D01*
X129398000Y-102020000D01*
X129398000Y-103720000D01*
X129398000Y-103720000D01*
G37*
G36*
X137005000Y-103612000D02*
X135455000Y-103612000D01*
X135455000Y-101112000D01*
X137005000Y-101112000D01*
X137005000Y-103612000D01*
X137005000Y-103612000D01*
G37*
G36*
X141405000Y-103612000D02*
X139855000Y-103612000D01*
X139855000Y-101112000D01*
X141405000Y-101112000D01*
X141405000Y-103612000D01*
X141405000Y-103612000D01*
G37*
G36*
X147743293Y-101256895D02*
X147906085Y-101306278D01*
X148056114Y-101386470D01*
X148187612Y-101494388D01*
X148295530Y-101625886D01*
X148375722Y-101775915D01*
X148425105Y-101938707D01*
X148441779Y-102108000D01*
X148425105Y-102277293D01*
X148375722Y-102440085D01*
X148295530Y-102590114D01*
X148187612Y-102721612D01*
X148056114Y-102829530D01*
X147906085Y-102909722D01*
X147743293Y-102959105D01*
X147616426Y-102971600D01*
X146007574Y-102971600D01*
X145880707Y-102959105D01*
X145717915Y-102909722D01*
X145567886Y-102829530D01*
X145436388Y-102721612D01*
X145328470Y-102590114D01*
X145248278Y-102440085D01*
X145198895Y-102277293D01*
X145182221Y-102108000D01*
X145198895Y-101938707D01*
X145248278Y-101775915D01*
X145328470Y-101625886D01*
X145436388Y-101494388D01*
X145567886Y-101386470D01*
X145717915Y-101306278D01*
X145880707Y-101256895D01*
X146007574Y-101244400D01*
X147616426Y-101244400D01*
X147743293Y-101256895D01*
X147743293Y-101256895D01*
G37*
G36*
X132498000Y-102520000D02*
X131198000Y-102520000D01*
X131198000Y-101220000D01*
X132498000Y-101220000D01*
X132498000Y-102520000D01*
X132498000Y-102520000D01*
G37*
G36*
X147743293Y-98716895D02*
X147906085Y-98766278D01*
X148056114Y-98846470D01*
X148187612Y-98954388D01*
X148295530Y-99085886D01*
X148375722Y-99235915D01*
X148425105Y-99398707D01*
X148441779Y-99568000D01*
X148425105Y-99737293D01*
X148375722Y-99900085D01*
X148295530Y-100050114D01*
X148187612Y-100181612D01*
X148056114Y-100289530D01*
X147906085Y-100369722D01*
X147743293Y-100419105D01*
X147616426Y-100431600D01*
X146007574Y-100431600D01*
X145880707Y-100419105D01*
X145717915Y-100369722D01*
X145567886Y-100289530D01*
X145436388Y-100181612D01*
X145328470Y-100050114D01*
X145248278Y-99900085D01*
X145198895Y-99737293D01*
X145182221Y-99568000D01*
X145198895Y-99398707D01*
X145248278Y-99235915D01*
X145328470Y-99085886D01*
X145436388Y-98954388D01*
X145567886Y-98846470D01*
X145717915Y-98766278D01*
X145880707Y-98716895D01*
X146007574Y-98704400D01*
X147616426Y-98704400D01*
X147743293Y-98716895D01*
X147743293Y-98716895D01*
G37*
G36*
X132498000Y-98424000D02*
X131198000Y-98424000D01*
X131198000Y-97124000D01*
X132498000Y-97124000D01*
X132498000Y-98424000D01*
X132498000Y-98424000D01*
G37*
G36*
X147743293Y-96176895D02*
X147906085Y-96226278D01*
X148056114Y-96306470D01*
X148187612Y-96414388D01*
X148295530Y-96545886D01*
X148375722Y-96695915D01*
X148425105Y-96858707D01*
X148441779Y-97028000D01*
X148425105Y-97197293D01*
X148375722Y-97360085D01*
X148295530Y-97510114D01*
X148187612Y-97641612D01*
X148056114Y-97749530D01*
X147906085Y-97829722D01*
X147743293Y-97879105D01*
X147616426Y-97891600D01*
X146007574Y-97891600D01*
X145880707Y-97879105D01*
X145717915Y-97829722D01*
X145567886Y-97749530D01*
X145436388Y-97641612D01*
X145328470Y-97510114D01*
X145248278Y-97360085D01*
X145198895Y-97197293D01*
X145182221Y-97028000D01*
X145198895Y-96858707D01*
X145248278Y-96695915D01*
X145328470Y-96545886D01*
X145436388Y-96414388D01*
X145567886Y-96306470D01*
X145717915Y-96226278D01*
X145880707Y-96176895D01*
X146007574Y-96164400D01*
X147616426Y-96164400D01*
X147743293Y-96176895D01*
X147743293Y-96176895D01*
G37*
G36*
X129398000Y-97624000D02*
X127798000Y-97624000D01*
X127798000Y-95924000D01*
X129398000Y-95924000D01*
X129398000Y-97624000D01*
X129398000Y-97624000D01*
G37*
G36*
X136509000Y-96967000D02*
X134959000Y-96967000D01*
X134959000Y-92517000D01*
X136509000Y-92517000D01*
X136509000Y-96967000D01*
X136509000Y-96967000D01*
G37*
G36*
X142409000Y-96967000D02*
X140859000Y-96967000D01*
X140859000Y-92517000D01*
X142409000Y-92517000D01*
X142409000Y-96967000D01*
X142409000Y-96967000D01*
G37*
G36*
X132498000Y-96424000D02*
X131198000Y-96424000D01*
X131198000Y-95124000D01*
X132498000Y-95124000D01*
X132498000Y-96424000D01*
X132498000Y-96424000D01*
G37*
G36*
X147743293Y-93636895D02*
X147906085Y-93686278D01*
X148056114Y-93766470D01*
X148187612Y-93874388D01*
X148295530Y-94005886D01*
X148375722Y-94155915D01*
X148425105Y-94318707D01*
X148441779Y-94488000D01*
X148425105Y-94657293D01*
X148375722Y-94820085D01*
X148295530Y-94970114D01*
X148187612Y-95101612D01*
X148056114Y-95209530D01*
X147906085Y-95289722D01*
X147743293Y-95339105D01*
X147616426Y-95351600D01*
X146007574Y-95351600D01*
X145880707Y-95339105D01*
X145717915Y-95289722D01*
X145567886Y-95209530D01*
X145436388Y-95101612D01*
X145328470Y-94970114D01*
X145248278Y-94820085D01*
X145198895Y-94657293D01*
X145182221Y-94488000D01*
X145198895Y-94318707D01*
X145248278Y-94155915D01*
X145328470Y-94005886D01*
X145436388Y-93874388D01*
X145567886Y-93766470D01*
X145717915Y-93686278D01*
X145880707Y-93636895D01*
X146007574Y-93624400D01*
X147616426Y-93624400D01*
X147743293Y-93636895D01*
X147743293Y-93636895D01*
G37*
G36*
X147743293Y-91096895D02*
X147906085Y-91146278D01*
X148056114Y-91226470D01*
X148187612Y-91334388D01*
X148295530Y-91465886D01*
X148375722Y-91615915D01*
X148425105Y-91778707D01*
X148441779Y-91948000D01*
X148425105Y-92117293D01*
X148375722Y-92280085D01*
X148295530Y-92430114D01*
X148187612Y-92561612D01*
X148056114Y-92669530D01*
X147906085Y-92749722D01*
X147743293Y-92799105D01*
X147616426Y-92811600D01*
X146007574Y-92811600D01*
X145880707Y-92799105D01*
X145717915Y-92749722D01*
X145567886Y-92669530D01*
X145436388Y-92561612D01*
X145328470Y-92430114D01*
X145248278Y-92280085D01*
X145198895Y-92117293D01*
X145182221Y-91948000D01*
X145198895Y-91778707D01*
X145248278Y-91615915D01*
X145328470Y-91465886D01*
X145436388Y-91334388D01*
X145567886Y-91226470D01*
X145717915Y-91146278D01*
X145880707Y-91096895D01*
X146007574Y-91084400D01*
X147616426Y-91084400D01*
X147743293Y-91096895D01*
X147743293Y-91096895D01*
G37*
G36*
X132498000Y-92328000D02*
X131198000Y-92328000D01*
X131198000Y-91028000D01*
X132498000Y-91028000D01*
X132498000Y-92328000D01*
X132498000Y-92328000D01*
G37*
G36*
X129398000Y-91528000D02*
X127798000Y-91528000D01*
X127798000Y-89828000D01*
X129398000Y-89828000D01*
X129398000Y-91528000D01*
X129398000Y-91528000D01*
G37*
G36*
X132498000Y-90328000D02*
X131198000Y-90328000D01*
X131198000Y-89028000D01*
X132498000Y-89028000D01*
X132498000Y-90328000D01*
X132498000Y-90328000D01*
G37*
G36*
X146589625Y-83057095D02*
X146589627Y-83057096D01*
X146589628Y-83057096D01*
X146926303Y-83196552D01*
X147229306Y-83399011D01*
X147486989Y-83656694D01*
X147689448Y-83959697D01*
X147822159Y-84280087D01*
X147828905Y-84296375D01*
X147900000Y-84653791D01*
X147900000Y-85018209D01*
X147828905Y-85375625D01*
X147828904Y-85375628D01*
X147689448Y-85712303D01*
X147486989Y-86015306D01*
X147229306Y-86272989D01*
X147074379Y-86376507D01*
X146926303Y-86475448D01*
X146589628Y-86614904D01*
X146589627Y-86614904D01*
X146589625Y-86614905D01*
X146232209Y-86686000D01*
X145867791Y-86686000D01*
X145510375Y-86614905D01*
X145510373Y-86614904D01*
X145510372Y-86614904D01*
X145173697Y-86475448D01*
X145025621Y-86376507D01*
X144870694Y-86272989D01*
X144613011Y-86015306D01*
X144410552Y-85712303D01*
X144271096Y-85375628D01*
X144271095Y-85375625D01*
X144200000Y-85018209D01*
X144200000Y-84653791D01*
X144271095Y-84296375D01*
X144277842Y-84280087D01*
X144410552Y-83959697D01*
X144613011Y-83656694D01*
X144870694Y-83399011D01*
X145173697Y-83196552D01*
X145510372Y-83057096D01*
X145510373Y-83057096D01*
X145510375Y-83057095D01*
X145867791Y-82986000D01*
X146232209Y-82986000D01*
X146589625Y-83057095D01*
X146589625Y-83057095D01*
G37*
G36*
X124999625Y-83057095D02*
X124999627Y-83057096D01*
X124999628Y-83057096D01*
X125336303Y-83196552D01*
X125639306Y-83399011D01*
X125896989Y-83656694D01*
X126099448Y-83959697D01*
X126232159Y-84280087D01*
X126238905Y-84296375D01*
X126310000Y-84653791D01*
X126310000Y-85018209D01*
X126238905Y-85375625D01*
X126238904Y-85375628D01*
X126099448Y-85712303D01*
X125896989Y-86015306D01*
X125639306Y-86272989D01*
X125484379Y-86376507D01*
X125336303Y-86475448D01*
X124999628Y-86614904D01*
X124999627Y-86614904D01*
X124999625Y-86614905D01*
X124642209Y-86686000D01*
X124277791Y-86686000D01*
X123920375Y-86614905D01*
X123920373Y-86614904D01*
X123920372Y-86614904D01*
X123583697Y-86475448D01*
X123435621Y-86376507D01*
X123280694Y-86272989D01*
X123023011Y-86015306D01*
X122820552Y-85712303D01*
X122681096Y-85375628D01*
X122681095Y-85375625D01*
X122610000Y-85018209D01*
X122610000Y-84653791D01*
X122681095Y-84296375D01*
X122687842Y-84280087D01*
X122820552Y-83959697D01*
X123023011Y-83656694D01*
X123280694Y-83399011D01*
X123583697Y-83196552D01*
X123920372Y-83057096D01*
X123920373Y-83057096D01*
X123920375Y-83057095D01*
X124277791Y-82986000D01*
X124642209Y-82986000D01*
X124999625Y-83057095D01*
X124999625Y-83057095D01*
G37*
G36*
X140388348Y-84207311D02*
X140561772Y-84259919D01*
X140721598Y-84345348D01*
X140736037Y-84357198D01*
X140861686Y-84460314D01*
X140976653Y-84600403D01*
X141005189Y-84653791D01*
X141062081Y-84760227D01*
X141114689Y-84933651D01*
X141128000Y-85068802D01*
X141128000Y-85619197D01*
X141118829Y-85712303D01*
X141114688Y-85754351D01*
X141062081Y-85927772D01*
X140976653Y-86087597D01*
X140861686Y-86227686D01*
X140721597Y-86342653D01*
X140661817Y-86374606D01*
X140561773Y-86428081D01*
X140388349Y-86480689D01*
X140208000Y-86498452D01*
X140027652Y-86480689D01*
X139854228Y-86428081D01*
X139754184Y-86374606D01*
X139694404Y-86342653D01*
X139554315Y-86227686D01*
X139439348Y-86087597D01*
X139399583Y-86013202D01*
X139353919Y-85927773D01*
X139301311Y-85754349D01*
X139288000Y-85619198D01*
X139288000Y-85068803D01*
X139301311Y-84933652D01*
X139353919Y-84760228D01*
X139439348Y-84600402D01*
X139469296Y-84563910D01*
X139554314Y-84460314D01*
X139694403Y-84345347D01*
X139816496Y-84280087D01*
X139854227Y-84259919D01*
X140027651Y-84207311D01*
X140208000Y-84189548D01*
X140388348Y-84207311D01*
X140388348Y-84207311D01*
G37*
G36*
X137848348Y-84207311D02*
X138021772Y-84259919D01*
X138181598Y-84345348D01*
X138196037Y-84357198D01*
X138321686Y-84460314D01*
X138436653Y-84600403D01*
X138465189Y-84653791D01*
X138522081Y-84760227D01*
X138574689Y-84933651D01*
X138588000Y-85068802D01*
X138588000Y-85619197D01*
X138578829Y-85712303D01*
X138574688Y-85754351D01*
X138522081Y-85927772D01*
X138436653Y-86087597D01*
X138321686Y-86227686D01*
X138181597Y-86342653D01*
X138121817Y-86374606D01*
X138021773Y-86428081D01*
X137848349Y-86480689D01*
X137668000Y-86498452D01*
X137487652Y-86480689D01*
X137314228Y-86428081D01*
X137214184Y-86374606D01*
X137154404Y-86342653D01*
X137014315Y-86227686D01*
X136899348Y-86087597D01*
X136859583Y-86013202D01*
X136813919Y-85927773D01*
X136761311Y-85754349D01*
X136748000Y-85619198D01*
X136748000Y-85068803D01*
X136761311Y-84933652D01*
X136813919Y-84760228D01*
X136899348Y-84600402D01*
X136929296Y-84563910D01*
X137014314Y-84460314D01*
X137154403Y-84345347D01*
X137276496Y-84280087D01*
X137314227Y-84259919D01*
X137487651Y-84207311D01*
X137668000Y-84189548D01*
X137848348Y-84207311D01*
X137848348Y-84207311D01*
G37*
G36*
X135892474Y-84198185D02*
X135928606Y-84209145D01*
X135961913Y-84226948D01*
X135991099Y-84250901D01*
X136015052Y-84280087D01*
X136032855Y-84313394D01*
X136043815Y-84349526D01*
X136048000Y-84392011D01*
X136048000Y-86295989D01*
X136043815Y-86338474D01*
X136032855Y-86374606D01*
X136015052Y-86407913D01*
X135991099Y-86437099D01*
X135961913Y-86461052D01*
X135928606Y-86478855D01*
X135892474Y-86489815D01*
X135849989Y-86494000D01*
X134406011Y-86494000D01*
X134363526Y-86489815D01*
X134327394Y-86478855D01*
X134294087Y-86461052D01*
X134264901Y-86437099D01*
X134240948Y-86407913D01*
X134223145Y-86374606D01*
X134212185Y-86338474D01*
X134208000Y-86295989D01*
X134208000Y-84392011D01*
X134212185Y-84349526D01*
X134223145Y-84313394D01*
X134240948Y-84280087D01*
X134264901Y-84250901D01*
X134294087Y-84226948D01*
X134327394Y-84209145D01*
X134363526Y-84198185D01*
X134406011Y-84194000D01*
X135849989Y-84194000D01*
X135892474Y-84198185D01*
X135892474Y-84198185D01*
G37*
G36*
X132498000Y-86232000D02*
X131198000Y-86232000D01*
X131198000Y-84932000D01*
X132498000Y-84932000D01*
X132498000Y-86232000D01*
X132498000Y-86232000D01*
G37*
G36*
X129398000Y-85432000D02*
X127798000Y-85432000D01*
X127798000Y-83732000D01*
X129398000Y-83732000D01*
X129398000Y-85432000D01*
X129398000Y-85432000D01*
G37*
G36*
X132498000Y-84232000D02*
X131198000Y-84232000D01*
X131198000Y-82932000D01*
X132498000Y-82932000D01*
X132498000Y-84232000D01*
X132498000Y-84232000D01*
G37*
M02*
