G04 #@! TF.GenerationSoftware,KiCad,Pcbnew,(5.0.2)-1*
G04 #@! TF.CreationDate,2019-03-23T11:15:38+03:00*
G04 #@! TF.ProjectId,galvo-schematic,67616c76-6f2d-4736-9368-656d61746963,rev?*
G04 #@! TF.SameCoordinates,Original*
G04 #@! TF.FileFunction,Copper,L1,Top*
G04 #@! TF.FilePolarity,Positive*
%FSLAX46Y46*%
G04 Gerber Fmt 4.6, Leading zero omitted, Abs format (unit mm)*
G04 Created by KiCad (PCBNEW (5.0.2)-1) date 23.03.2019 11:15:38*
%MOMM*%
%LPD*%
G01*
G04 APERTURE LIST*
G04 #@! TA.AperFunction,SMDPad,CuDef*
%ADD10R,1.200000X1.200000*%
G04 #@! TD*
G04 #@! TA.AperFunction,SMDPad,CuDef*
%ADD11R,1.500000X1.600000*%
G04 #@! TD*
G04 #@! TA.AperFunction,Conductor*
%ADD12C,0.100000*%
G04 #@! TD*
G04 #@! TA.AperFunction,ComponentPad*
%ADD13C,1.740000*%
G04 #@! TD*
G04 #@! TA.AperFunction,ComponentPad*
%ADD14O,1.740000X2.200000*%
G04 #@! TD*
G04 #@! TA.AperFunction,ComponentPad*
%ADD15O,1.700000X1.950000*%
G04 #@! TD*
G04 #@! TA.AperFunction,ComponentPad*
%ADD16C,1.700000*%
G04 #@! TD*
G04 #@! TA.AperFunction,ComponentPad*
%ADD17C,3.600000*%
G04 #@! TD*
G04 #@! TA.AperFunction,ComponentPad*
%ADD18O,3.048000X1.524000*%
G04 #@! TD*
G04 #@! TA.AperFunction,SMDPad,CuDef*
%ADD19R,1.450000X0.450000*%
G04 #@! TD*
G04 #@! TA.AperFunction,ViaPad*
%ADD20C,0.800000*%
G04 #@! TD*
G04 #@! TA.AperFunction,Conductor*
%ADD21C,0.250000*%
G04 #@! TD*
G04 APERTURE END LIST*
D10*
G04 #@! TO.P,X-GAIN,A*
G04 #@! TO.N,Net-(X-GAIN1-PadA)*
X131848000Y-103870000D03*
D11*
G04 #@! TO.P,X-GAIN,S*
G04 #@! TO.N,/ILDAX+15V*
X128598000Y-102870000D03*
D10*
G04 #@! TO.P,X-GAIN,E*
G04 #@! TO.N,Net-(R5-Pad2)*
X131848000Y-101870000D03*
G04 #@! TD*
G04 #@! TO.P,Y-GAIN,A*
G04 #@! TO.N,Net-(Y-GAIN1-PadA)*
X131848000Y-91678000D03*
D11*
G04 #@! TO.P,Y-GAIN,S*
G04 #@! TO.N,/ILDAY+15V*
X128598000Y-90678000D03*
D10*
G04 #@! TO.P,Y-GAIN,E*
G04 #@! TO.N,Net-(R1-Pad2)*
X131848000Y-89678000D03*
G04 #@! TD*
G04 #@! TO.P,X-OFFS,A*
G04 #@! TO.N,Net-(R6-Pad2)*
X131848000Y-97774000D03*
D11*
G04 #@! TO.P,X-OFFS,S*
G04 #@! TO.N,Net-(U1-Pad3)*
X128598000Y-96774000D03*
D10*
G04 #@! TO.P,X-OFFS,E*
G04 #@! TO.N,GND*
X131848000Y-95774000D03*
G04 #@! TD*
G04 #@! TO.P,Y-OFFS,A*
G04 #@! TO.N,Net-(R2-Pad2)*
X131848000Y-85582000D03*
D11*
G04 #@! TO.P,Y-OFFS,S*
G04 #@! TO.N,Net-(U1-Pad10)*
X128598000Y-84582000D03*
D10*
G04 #@! TO.P,Y-OFFS,E*
G04 #@! TO.N,GND*
X131848000Y-83582000D03*
G04 #@! TD*
D12*
G04 #@! TO.N,/+V15*
G04 #@! TO.C,J1*
G36*
X135772505Y-84245204D02*
X135796773Y-84248804D01*
X135820572Y-84254765D01*
X135843671Y-84263030D01*
X135865850Y-84273520D01*
X135886893Y-84286132D01*
X135906599Y-84300747D01*
X135924777Y-84317223D01*
X135941253Y-84335401D01*
X135955868Y-84355107D01*
X135968480Y-84376150D01*
X135978970Y-84398329D01*
X135987235Y-84421428D01*
X135993196Y-84445227D01*
X135996796Y-84469495D01*
X135998000Y-84493999D01*
X135998000Y-86194001D01*
X135996796Y-86218505D01*
X135993196Y-86242773D01*
X135987235Y-86266572D01*
X135978970Y-86289671D01*
X135968480Y-86311850D01*
X135955868Y-86332893D01*
X135941253Y-86352599D01*
X135924777Y-86370777D01*
X135906599Y-86387253D01*
X135886893Y-86401868D01*
X135865850Y-86414480D01*
X135843671Y-86424970D01*
X135820572Y-86433235D01*
X135796773Y-86439196D01*
X135772505Y-86442796D01*
X135748001Y-86444000D01*
X134507999Y-86444000D01*
X134483495Y-86442796D01*
X134459227Y-86439196D01*
X134435428Y-86433235D01*
X134412329Y-86424970D01*
X134390150Y-86414480D01*
X134369107Y-86401868D01*
X134349401Y-86387253D01*
X134331223Y-86370777D01*
X134314747Y-86352599D01*
X134300132Y-86332893D01*
X134287520Y-86311850D01*
X134277030Y-86289671D01*
X134268765Y-86266572D01*
X134262804Y-86242773D01*
X134259204Y-86218505D01*
X134258000Y-86194001D01*
X134258000Y-84493999D01*
X134259204Y-84469495D01*
X134262804Y-84445227D01*
X134268765Y-84421428D01*
X134277030Y-84398329D01*
X134287520Y-84376150D01*
X134300132Y-84355107D01*
X134314747Y-84335401D01*
X134331223Y-84317223D01*
X134349401Y-84300747D01*
X134369107Y-84286132D01*
X134390150Y-84273520D01*
X134412329Y-84263030D01*
X134435428Y-84254765D01*
X134459227Y-84248804D01*
X134483495Y-84245204D01*
X134507999Y-84244000D01*
X135748001Y-84244000D01*
X135772505Y-84245204D01*
X135772505Y-84245204D01*
G37*
D13*
G04 #@! TD*
G04 #@! TO.P,J1,1*
G04 #@! TO.N,/+V15*
X135128000Y-85344000D03*
D14*
G04 #@! TO.P,J1,2*
G04 #@! TO.N,GND*
X137668000Y-85344000D03*
G04 #@! TO.P,J1,3*
G04 #@! TO.N,/-V15*
X140208000Y-85344000D03*
G04 #@! TD*
D15*
G04 #@! TO.P,X2,3*
G04 #@! TO.N,GND*
X135716000Y-110744000D03*
G04 #@! TO.P,X2,2*
G04 #@! TO.N,/ILDAX+15V*
X138216000Y-110744000D03*
D12*
G04 #@! TD*
G04 #@! TO.N,/ILDAX-15V*
G04 #@! TO.C,X2*
G36*
X141340504Y-109770204D02*
X141364773Y-109773804D01*
X141388571Y-109779765D01*
X141411671Y-109788030D01*
X141433849Y-109798520D01*
X141454893Y-109811133D01*
X141474598Y-109825747D01*
X141492777Y-109842223D01*
X141509253Y-109860402D01*
X141523867Y-109880107D01*
X141536480Y-109901151D01*
X141546970Y-109923329D01*
X141555235Y-109946429D01*
X141561196Y-109970227D01*
X141564796Y-109994496D01*
X141566000Y-110019000D01*
X141566000Y-111469000D01*
X141564796Y-111493504D01*
X141561196Y-111517773D01*
X141555235Y-111541571D01*
X141546970Y-111564671D01*
X141536480Y-111586849D01*
X141523867Y-111607893D01*
X141509253Y-111627598D01*
X141492777Y-111645777D01*
X141474598Y-111662253D01*
X141454893Y-111676867D01*
X141433849Y-111689480D01*
X141411671Y-111699970D01*
X141388571Y-111708235D01*
X141364773Y-111714196D01*
X141340504Y-111717796D01*
X141316000Y-111719000D01*
X140116000Y-111719000D01*
X140091496Y-111717796D01*
X140067227Y-111714196D01*
X140043429Y-111708235D01*
X140020329Y-111699970D01*
X139998151Y-111689480D01*
X139977107Y-111676867D01*
X139957402Y-111662253D01*
X139939223Y-111645777D01*
X139922747Y-111627598D01*
X139908133Y-111607893D01*
X139895520Y-111586849D01*
X139885030Y-111564671D01*
X139876765Y-111541571D01*
X139870804Y-111517773D01*
X139867204Y-111493504D01*
X139866000Y-111469000D01*
X139866000Y-110019000D01*
X139867204Y-109994496D01*
X139870804Y-109970227D01*
X139876765Y-109946429D01*
X139885030Y-109923329D01*
X139895520Y-109901151D01*
X139908133Y-109880107D01*
X139922747Y-109860402D01*
X139939223Y-109842223D01*
X139957402Y-109825747D01*
X139977107Y-109811133D01*
X139998151Y-109798520D01*
X140020329Y-109788030D01*
X140043429Y-109779765D01*
X140067227Y-109773804D01*
X140091496Y-109770204D01*
X140116000Y-109769000D01*
X141316000Y-109769000D01*
X141340504Y-109770204D01*
X141340504Y-109770204D01*
G37*
D16*
G04 #@! TO.P,X2,1*
G04 #@! TO.N,/ILDAX-15V*
X140716000Y-110744000D03*
G04 #@! TD*
D15*
G04 #@! TO.P,X3,3*
G04 #@! TO.N,GND*
X125048000Y-110744000D03*
G04 #@! TO.P,X3,2*
G04 #@! TO.N,/ILDAY+15V*
X127548000Y-110744000D03*
D12*
G04 #@! TD*
G04 #@! TO.N,/ILDAY-15V*
G04 #@! TO.C,X3*
G36*
X130672504Y-109770204D02*
X130696773Y-109773804D01*
X130720571Y-109779765D01*
X130743671Y-109788030D01*
X130765849Y-109798520D01*
X130786893Y-109811133D01*
X130806598Y-109825747D01*
X130824777Y-109842223D01*
X130841253Y-109860402D01*
X130855867Y-109880107D01*
X130868480Y-109901151D01*
X130878970Y-109923329D01*
X130887235Y-109946429D01*
X130893196Y-109970227D01*
X130896796Y-109994496D01*
X130898000Y-110019000D01*
X130898000Y-111469000D01*
X130896796Y-111493504D01*
X130893196Y-111517773D01*
X130887235Y-111541571D01*
X130878970Y-111564671D01*
X130868480Y-111586849D01*
X130855867Y-111607893D01*
X130841253Y-111627598D01*
X130824777Y-111645777D01*
X130806598Y-111662253D01*
X130786893Y-111676867D01*
X130765849Y-111689480D01*
X130743671Y-111699970D01*
X130720571Y-111708235D01*
X130696773Y-111714196D01*
X130672504Y-111717796D01*
X130648000Y-111719000D01*
X129448000Y-111719000D01*
X129423496Y-111717796D01*
X129399227Y-111714196D01*
X129375429Y-111708235D01*
X129352329Y-111699970D01*
X129330151Y-111689480D01*
X129309107Y-111676867D01*
X129289402Y-111662253D01*
X129271223Y-111645777D01*
X129254747Y-111627598D01*
X129240133Y-111607893D01*
X129227520Y-111586849D01*
X129217030Y-111564671D01*
X129208765Y-111541571D01*
X129202804Y-111517773D01*
X129199204Y-111493504D01*
X129198000Y-111469000D01*
X129198000Y-110019000D01*
X129199204Y-109994496D01*
X129202804Y-109970227D01*
X129208765Y-109946429D01*
X129217030Y-109923329D01*
X129227520Y-109901151D01*
X129240133Y-109880107D01*
X129254747Y-109860402D01*
X129271223Y-109842223D01*
X129289402Y-109825747D01*
X129309107Y-109811133D01*
X129330151Y-109798520D01*
X129352329Y-109788030D01*
X129375429Y-109779765D01*
X129399227Y-109773804D01*
X129423496Y-109770204D01*
X129448000Y-109769000D01*
X130648000Y-109769000D01*
X130672504Y-109770204D01*
X130672504Y-109770204D01*
G37*
D16*
G04 #@! TO.P,X3,1*
G04 #@! TO.N,/ILDAY-15V*
X130048000Y-110744000D03*
G04 #@! TD*
D17*
G04 #@! TO.P,REF\002A\002A,*
G04 #@! TO.N,*
X124460000Y-84836000D03*
G04 #@! TD*
G04 #@! TO.P,REF\002A\002A,*
G04 #@! TO.N,*
X146050000Y-110744000D03*
G04 #@! TD*
D18*
G04 #@! TO.P,SV4,6*
G04 #@! TO.N,+5V*
X146812000Y-104648000D03*
G04 #@! TO.P,SV4,5*
G04 #@! TO.N,/CS*
X146812000Y-102108000D03*
G04 #@! TO.P,SV4,4*
G04 #@! TO.N,/SCK*
X146812000Y-99568000D03*
G04 #@! TO.P,SV4,3*
G04 #@! TO.N,/SDI*
X146812000Y-97028000D03*
G04 #@! TO.P,SV4,2*
G04 #@! TO.N,GND*
X146812000Y-94488000D03*
G04 #@! TO.P,SV4,1*
G04 #@! TO.N,/LATCH*
X146812000Y-91948000D03*
G04 #@! TD*
D17*
G04 #@! TO.P,REF\002A\002A,*
G04 #@! TO.N,*
X146050000Y-84836000D03*
G04 #@! TD*
D19*
G04 #@! TO.P,U2,1*
G04 #@! TO.N,+5V*
X140630000Y-103337000D03*
G04 #@! TO.P,U2,2*
G04 #@! TO.N,/CS*
X140630000Y-102687000D03*
G04 #@! TO.P,U2,3*
G04 #@! TO.N,/SCK*
X140630000Y-102037000D03*
G04 #@! TO.P,U2,4*
G04 #@! TO.N,/SDI*
X140630000Y-101387000D03*
G04 #@! TO.P,U2,5*
G04 #@! TO.N,/LATCH*
X136230000Y-101387000D03*
G04 #@! TO.P,U2,6*
G04 #@! TO.N,Net-(DAC1-Pad6)*
X136230000Y-102037000D03*
G04 #@! TO.P,U2,7*
G04 #@! TO.N,GND*
X136230000Y-102687000D03*
G04 #@! TO.P,U2,8*
G04 #@! TO.N,Net-(DAC1-Pad8)*
X136230000Y-103337000D03*
G04 #@! TD*
G04 #@! TO.P,U1,1*
G04 #@! TO.N,/ILDAX+15V*
X135734000Y-92792000D03*
G04 #@! TO.P,U1,2*
G04 #@! TO.N,Net-(R5-Pad2)*
X135734000Y-93442000D03*
G04 #@! TO.P,U1,3*
G04 #@! TO.N,Net-(U1-Pad3)*
X135734000Y-94092000D03*
G04 #@! TO.P,U1,4*
G04 #@! TO.N,/+V15*
X135734000Y-94742000D03*
G04 #@! TO.P,U1,5*
G04 #@! TO.N,GND*
X135734000Y-95392000D03*
G04 #@! TO.P,U1,6*
G04 #@! TO.N,Net-(R11-Pad1)*
X135734000Y-96042000D03*
G04 #@! TO.P,U1,7*
G04 #@! TO.N,/ILDAX-15V*
X135734000Y-96692000D03*
G04 #@! TO.P,U1,8*
G04 #@! TO.N,/ILDAY+15V*
X141634000Y-96692000D03*
G04 #@! TO.P,U1,9*
G04 #@! TO.N,Net-(R1-Pad2)*
X141634000Y-96042000D03*
G04 #@! TO.P,U1,10*
G04 #@! TO.N,Net-(U1-Pad10)*
X141634000Y-95392000D03*
G04 #@! TO.P,U1,11*
G04 #@! TO.N,Net-(U1-Pad11)*
X141634000Y-94742000D03*
G04 #@! TO.P,U1,12*
G04 #@! TO.N,GND*
X141634000Y-94092000D03*
G04 #@! TO.P,U1,13*
G04 #@! TO.N,Net-(R12-Pad1)*
X141634000Y-93442000D03*
G04 #@! TO.P,U1,14*
G04 #@! TO.N,/ILDAY-15V*
X141634000Y-92792000D03*
G04 #@! TD*
D20*
G04 #@! TO.N,GND*
X143002000Y-93980000D03*
X133858000Y-102616000D03*
X133462000Y-95503999D03*
X133096000Y-83312000D03*
G04 #@! TO.N,Net-(R2-Pad2)*
X133096000Y-85852000D03*
G04 #@! TO.N,/+V15*
X137414000Y-94742000D03*
G04 #@! TO.N,/ILDAY-15V*
X143002000Y-92710000D03*
G04 #@! TO.N,Net-(R6-Pad2)*
X133350000Y-98044000D03*
G04 #@! TO.N,Net-(DAC1-Pad6)*
X133862653Y-101604653D03*
G04 #@! TO.N,Net-(DAC1-Pad8)*
X133858000Y-103616003D03*
G04 #@! TO.N,Net-(R1-Pad2)*
X130556000Y-89408000D03*
G04 #@! TO.N,Net-(R12-Pad1)*
X139954000Y-93472000D03*
G04 #@! TO.N,Net-(R5-Pad2)*
X130556000Y-101600000D03*
G04 #@! TO.N,Net-(R11-Pad1)*
X139192000Y-96774000D03*
G04 #@! TD*
D21*
G04 #@! TO.N,GND*
X133462000Y-95392000D02*
X133350000Y-95504000D01*
X141634000Y-94092000D02*
X142890000Y-94092000D01*
X142890000Y-94092000D02*
X143002000Y-93980000D01*
X136230000Y-102687000D02*
X133929000Y-102687000D01*
X133929000Y-102687000D02*
X133858000Y-102616000D01*
X133080000Y-95774000D02*
X133350000Y-95504000D01*
X131848000Y-95774000D02*
X133080000Y-95774000D01*
X133573999Y-95392000D02*
X133462000Y-95503999D01*
X135734000Y-95392000D02*
X133573999Y-95392000D01*
X133462000Y-95503999D02*
X133462000Y-95392000D01*
X132826000Y-83582000D02*
X133096000Y-83312000D01*
X131848000Y-83582000D02*
X132826000Y-83582000D01*
X133032500Y-83375500D02*
X133096000Y-83312000D01*
G04 #@! TO.N,+5V*
X140630000Y-103812000D02*
X140630000Y-103337000D01*
X141466000Y-104648000D02*
X140630000Y-103812000D01*
X146050000Y-104648000D02*
X141466000Y-104648000D01*
G04 #@! TO.N,/LATCH*
X140208000Y-100330000D02*
X143764000Y-96774000D01*
X145288000Y-91948000D02*
X146050000Y-91948000D01*
X143764000Y-93472000D02*
X145288000Y-91948000D01*
X143764000Y-96774000D02*
X143764000Y-93472000D01*
X138938000Y-100330000D02*
X136398000Y-100330000D01*
X138938000Y-100330000D02*
X140208000Y-100330000D01*
X137320000Y-100330000D02*
X138938000Y-100330000D01*
X136230000Y-100498000D02*
X136230000Y-101387000D01*
X136398000Y-100330000D02*
X136230000Y-100498000D01*
G04 #@! TO.N,/SDI*
X146050000Y-97028000D02*
X144146410Y-97028000D01*
X140630000Y-100544410D02*
X140630000Y-101387000D01*
X144146410Y-97028000D02*
X140630000Y-100544410D01*
G04 #@! TO.N,/SCK*
X141605000Y-102037000D02*
X140630000Y-102037000D01*
X142819000Y-102037000D02*
X141605000Y-102037000D01*
X145288000Y-99568000D02*
X142819000Y-102037000D01*
X146050000Y-99568000D02*
X145288000Y-99568000D01*
G04 #@! TO.N,/CS*
X141605000Y-102687000D02*
X140630000Y-102687000D01*
X143697000Y-102687000D02*
X141605000Y-102687000D01*
X144276000Y-102108000D02*
X143697000Y-102687000D01*
X146050000Y-102108000D02*
X144276000Y-102108000D01*
G04 #@! TO.N,Net-(R2-Pad2)*
X132016500Y-85852000D02*
X131953000Y-85788500D01*
X133096000Y-85852000D02*
X132016500Y-85852000D01*
G04 #@! TO.N,/+V15*
X137414000Y-94742000D02*
X135734000Y-94742000D01*
G04 #@! TO.N,/ILDAY+15V*
X127206500Y-90678000D02*
X125476000Y-92408500D01*
X128206500Y-90678000D02*
X127206500Y-90678000D01*
X127548000Y-110619000D02*
X127548000Y-110744000D01*
X125476000Y-108547000D02*
X127548000Y-110619000D01*
X125476000Y-92408500D02*
X125476000Y-108547000D01*
X140659000Y-96692000D02*
X141634000Y-96692000D01*
X137160000Y-93193000D02*
X140659000Y-96692000D01*
X137160000Y-92682998D02*
X137160000Y-93193000D01*
X135155002Y-90678000D02*
X137160000Y-92682998D01*
X128206500Y-90678000D02*
X135155002Y-90678000D01*
G04 #@! TO.N,/ILDAY-15V*
X142920000Y-92792000D02*
X143002000Y-92710000D01*
X141634000Y-92792000D02*
X142920000Y-92792000D01*
G04 #@! TO.N,Net-(R6-Pad2)*
X133080000Y-97774000D02*
X133350000Y-98044000D01*
X131848000Y-97774000D02*
X133080000Y-97774000D01*
G04 #@! TO.N,/ILDAX+15V*
X138216000Y-110619000D02*
X138216000Y-110744000D01*
X134277000Y-106680000D02*
X138216000Y-110619000D01*
X132530512Y-92991990D02*
X127480010Y-92991990D01*
X135734000Y-92792000D02*
X132730502Y-92792000D01*
X132730502Y-92792000D02*
X132530512Y-92991990D01*
X127480010Y-92991990D02*
X125984000Y-94488000D01*
X125984000Y-94488000D02*
X125984000Y-101854000D01*
X127000000Y-102870000D02*
X128206500Y-102870000D01*
X125984000Y-101854000D02*
X127000000Y-102870000D01*
X131358000Y-106680000D02*
X131572000Y-106680000D01*
X128598000Y-103920000D02*
X131358000Y-106680000D01*
X128598000Y-102870000D02*
X128598000Y-103920000D01*
X131572000Y-106680000D02*
X134277000Y-106680000D01*
G04 #@! TO.N,/ILDAX-15V*
X140716000Y-109220000D02*
X140716000Y-110744000D01*
X135734000Y-96692000D02*
X135734000Y-98708000D01*
X135734000Y-98708000D02*
X133096000Y-101346000D01*
X133096000Y-101346000D02*
X133096000Y-104197002D01*
X133096000Y-104197002D02*
X135070998Y-106172000D01*
X135070998Y-106172000D02*
X137668000Y-106172000D01*
X137668000Y-106172000D02*
X140716000Y-109220000D01*
G04 #@! TO.N,Net-(DAC1-Pad6)*
X134295000Y-102037000D02*
X133862653Y-101604653D01*
X136230000Y-102037000D02*
X134295000Y-102037000D01*
G04 #@! TO.N,Net-(DAC1-Pad8)*
X136230000Y-103337000D02*
X134137003Y-103337000D01*
X134137003Y-103337000D02*
X133858000Y-103616003D01*
G04 #@! TO.N,Net-(R1-Pad2)*
X130826000Y-89678000D02*
X130556000Y-89408000D01*
X131848000Y-89678000D02*
X130826000Y-89678000D01*
X140659000Y-96042000D02*
X141634000Y-96042000D01*
X137610010Y-92993010D02*
X140659000Y-96042000D01*
X137610010Y-92496598D02*
X137610010Y-92993010D01*
X134791412Y-89678000D02*
X137610010Y-92496598D01*
X131848000Y-89678000D02*
X134791412Y-89678000D01*
G04 #@! TO.N,Net-(R12-Pad1)*
X139984000Y-93442000D02*
X139954000Y-93472000D01*
X141634000Y-93442000D02*
X139984000Y-93442000D01*
G04 #@! TO.N,Net-(R5-Pad2)*
X126746000Y-97790000D02*
X130556000Y-101600000D01*
X126746000Y-94488000D02*
X126746000Y-97790000D01*
X135734000Y-93442000D02*
X127792000Y-93442000D01*
X127792000Y-93442000D02*
X126746000Y-94488000D01*
X130826000Y-101870000D02*
X130556000Y-101600000D01*
X131848000Y-101870000D02*
X130826000Y-101870000D01*
G04 #@! TO.N,Net-(R11-Pad1)*
X135734000Y-96042000D02*
X138460000Y-96042000D01*
X138460000Y-96042000D02*
X139192000Y-96774000D01*
G04 #@! TO.N,Net-(U1-Pad3)*
X134759000Y-94092000D02*
X135734000Y-94092000D01*
X128598000Y-95542000D02*
X130048000Y-94092000D01*
X128598000Y-96774000D02*
X128598000Y-95542000D01*
X130048000Y-94092000D02*
X134759000Y-94092000D01*
G04 #@! TO.N,Net-(U1-Pad10)*
X140659000Y-95392000D02*
X141634000Y-95392000D01*
X133125822Y-87376000D02*
X138060020Y-92310198D01*
X138060020Y-92310198D02*
X138060020Y-92793020D01*
X138060020Y-92793020D02*
X140659000Y-95392000D01*
X130342000Y-87376000D02*
X130810000Y-87376000D01*
X128598000Y-85632000D02*
X130342000Y-87376000D01*
X128598000Y-84582000D02*
X128598000Y-85632000D01*
X130810000Y-87376000D02*
X133125822Y-87376000D01*
G04 #@! TD*
M02*
