  0
SECTION
  2
HEADER
  9
$ANGBASE
  50
0.0
  9
$ANGDIR
  70
  1
  9
$MEASUREMENT
  70
0
  0
ENDSEC
  0
SECTION
  2
TABLES
  0
TABLE
  2
LTYPE
  70
4
  0
LTYPE
  5
40F
  2
CONTINUOUS
  70
0
  3
Solid line
  72
65
  73
0
  40
0.0
  0
LTYPE
  5
410
  2
DASHDOT
 70
0
  3
Dash Dot ____ _ ____ _
 72
65
 73
4
 40
2.0
 49
1.25
 49
-0.25
 49
0.25
 49
-0.25
  0
LTYPE
  5
411
  2
DASHED
 70
0
  3
Dashed __ __ __ __ __
 72
65
 73
2
 40
0.75
 49
0.5
 49
-0.25
  0
LTYPE
  5
43B
  2
DOTTED
 70
0
  3
Dotted .  .  .  .
 72
65
 73
2
 40
0.2
 49
0.0
 49
-0.2
  0
ENDTAB
  0
TABLE
  2
STYLE
  70
4
  0
STYLE
  2
KICAD
  70
0
  40
0
  41
1
  42
1
  50
0
  71
0
  3
isocp.shx
  0
STYLE
  2
KICADB
  70
0
  40
0
  41
1
  42
1
  50
0
  71
0
  3
isocp.shx
  0
STYLE
  2
KICADI
  70
0
  40
0
  41
1
  42
1
  50
15
  71
0
  3
isocp.shx
  0
STYLE
  2
KICADBI
  70
0
  40
0
  41
1
  42
1
  50
15
  71
0
  3
isocp.shx
  0
ENDTAB
  0
TABLE
  2
LAYER
  70
30
  0
LAYER
  2
BLACK
  70
0
  62
7
  6
CONTINUOUS
  0
LAYER
  2
GRAY1
  70
0
  62
251
  6
CONTINUOUS
  0
LAYER
  2
GRAY2
  70
0
  62
8
  6
CONTINUOUS
  0
LAYER
  2
GRAY3
  70
0
  62
9
  6
CONTINUOUS
  0
LAYER
  2
WHITE
  70
0
  62
7
  6
CONTINUOUS
  0
LAYER
  2
LYELLOW
  70
0
  62
51
  6
CONTINUOUS
  0
LAYER
  2
BLUE1
  70
0
  62
178
  6
CONTINUOUS
  0
LAYER
  2
GREEN1
  70
0
  62
98
  6
CONTINUOUS
  0
LAYER
  2
CYAN1
  70
0
  62
138
  6
CONTINUOUS
  0
LAYER
  2
RED1
  70
0
  62
18
  6
CONTINUOUS
  0
LAYER
  2
MAGENTA1
  70
0
  62
228
  6
CONTINUOUS
  0
LAYER
  2
BROWN1
  70
0
  62
58
  6
CONTINUOUS
  0
LAYER
  2
BLUE2
  70
0
  62
5
  6
CONTINUOUS
  0
LAYER
  2
GREEN2
  70
0
  62
3
  6
CONTINUOUS
  0
LAYER
  2
CYAN2
  70
0
  62
4
  6
CONTINUOUS
  0
LAYER
  2
RED2
  70
0
  62
1
  6
CONTINUOUS
  0
LAYER
  2
MAGENTA2
  70
0
  62
6
  6
CONTINUOUS
  0
LAYER
  2
BROWN2
  70
0
  62
54
  6
CONTINUOUS
  0
LAYER
  2
BLUE3
  70
0
  62
171
  6
CONTINUOUS
  0
LAYER
  2
GREEN3
  70
0
  62
91
  6
CONTINUOUS
  0
LAYER
  2
CYAN3
  70
0
  62
131
  6
CONTINUOUS
  0
LAYER
  2
RED3
  70
0
  62
11
  6
CONTINUOUS
  0
LAYER
  2
MAGENTA3
  70
0
  62
221
  6
CONTINUOUS
  0
LAYER
  2
YELLOW3
  70
0
  62
2
  6
CONTINUOUS
  0
LAYER
  2
BLUE4
  70
0
  62
5
  6
CONTINUOUS
  0
LAYER
  2
GREEN4
  70
0
  62
3
  6
CONTINUOUS
  0
LAYER
  2
CYAN4
  70
0
  62
4
  6
CONTINUOUS
  0
LAYER
  2
RED4
  70
0
  62
1
  6
CONTINUOUS
  0
LAYER
  2
MAGENTA4
  70
0
  62
6
  6
CONTINUOUS
  0
LAYER
  2
YELLOW4
  70
0
  62
2
  6
CONTINUOUS
  0
ENDTAB
  0
ENDSEC
  0
SECTION
  2
ENTITIES
0
LINE
8
BLACK
6
CONTINUOUS
10
154.886
20
-119.85
11
155.954
21
-120.467
0
LINE
8
BLACK
6
CONTINUOUS
10
155.954
20
-120.467
11
156.748
21
-121.413
0
LINE
8
BLACK
6
CONTINUOUS
10
156.748
20
-121.413
11
157.17
21
-122.573
0
LINE
8
BLACK
6
CONTINUOUS
10
157.17
20
-122.573
11
157.17
21
-123.807
0
LINE
8
BLACK
6
CONTINUOUS
10
157.17
20
-123.807
11
156.748
21
-124.967
0
LINE
8
BLACK
6
CONTINUOUS
10
156.748
20
-124.967
11
155.954
21
-125.913
0
LINE
8
BLACK
6
CONTINUOUS
10
155.954
20
-125.913
11
154.886
21
-126.53
0
LINE
8
BLACK
6
CONTINUOUS
10
154.886
20
-126.53
11
153.67
21
-126.744
0
LINE
8
BLACK
6
CONTINUOUS
10
153.67
20
-126.744
11
152.454
21
-126.53
0
LINE
8
BLACK
6
CONTINUOUS
10
152.454
20
-126.53
11
151.386
21
-125.913
0
LINE
8
BLACK
6
CONTINUOUS
10
151.386
20
-125.913
11
150.592
21
-124.967
0
LINE
8
BLACK
6
CONTINUOUS
10
150.592
20
-124.967
11
150.17
21
-123.807
0
LINE
8
BLACK
6
CONTINUOUS
10
150.17
20
-123.807
11
150.17
21
-122.573
0
LINE
8
BLACK
6
CONTINUOUS
10
150.17
20
-122.573
11
150.592
21
-121.413
0
LINE
8
BLACK
6
CONTINUOUS
10
150.592
20
-121.413
11
151.386
21
-120.467
0
LINE
8
BLACK
6
CONTINUOUS
10
151.386
20
-120.467
11
152.454
21
-119.85
0
LINE
8
BLACK
6
CONTINUOUS
10
152.454
20
-119.85
11
153.67
21
-119.636
0
LINE
8
BLACK
6
CONTINUOUS
10
153.67
20
-119.636
11
154.886
21
-119.85
0
LINE
8
BLACK
6
CONTINUOUS
10
92.6555
20
-119.85
11
93.7245
21
-120.467
0
LINE
8
BLACK
6
CONTINUOUS
10
93.7245
20
-120.467
11
94.5178
21
-121.413
0
LINE
8
BLACK
6
CONTINUOUS
10
94.5178
20
-121.413
11
94.94
21
-122.573
0
LINE
8
BLACK
6
CONTINUOUS
10
94.94
20
-122.573
11
94.94
21
-123.807
0
LINE
8
BLACK
6
CONTINUOUS
10
94.94
20
-123.807
11
94.5178
21
-124.967
0
LINE
8
BLACK
6
CONTINUOUS
10
94.5178
20
-124.967
11
93.7245
21
-125.913
0
LINE
8
BLACK
6
CONTINUOUS
10
93.7245
20
-125.913
11
92.6555
21
-126.53
0
LINE
8
BLACK
6
CONTINUOUS
10
92.6555
20
-126.53
11
91.44
21
-126.744
0
LINE
8
BLACK
6
CONTINUOUS
10
91.44
20
-126.744
11
90.2245
21
-126.53
0
LINE
8
BLACK
6
CONTINUOUS
10
90.2245
20
-126.53
11
89.1555
21
-125.913
0
LINE
8
BLACK
6
CONTINUOUS
10
89.1555
20
-125.913
11
88.3622
21
-124.967
0
LINE
8
BLACK
6
CONTINUOUS
10
88.3622
20
-124.967
11
87.94
21
-123.807
0
LINE
8
BLACK
6
CONTINUOUS
10
87.94
20
-123.807
11
87.94
21
-122.573
0
LINE
8
BLACK
6
CONTINUOUS
10
87.94
20
-122.573
11
88.3622
21
-121.413
0
LINE
8
BLACK
6
CONTINUOUS
10
88.3622
20
-121.413
11
89.1555
21
-120.467
0
LINE
8
BLACK
6
CONTINUOUS
10
89.1555
20
-120.467
11
90.2245
21
-119.85
0
LINE
8
BLACK
6
CONTINUOUS
10
90.2245
20
-119.85
11
91.44
21
-119.636
0
LINE
8
BLACK
6
CONTINUOUS
10
91.44
20
-119.636
11
92.6555
21
-119.85
0
LINE
8
BLACK
6
CONTINUOUS
10
84.8023
20
-80.1734
11
85.1077
21
-80.3497
0
LINE
8
BLACK
6
CONTINUOUS
10
85.1077
20
-80.3497
11
85.3344
21
-80.6199
0
LINE
8
BLACK
6
CONTINUOUS
10
85.3344
20
-80.6199
11
85.455
21
-80.9513
0
LINE
8
BLACK
6
CONTINUOUS
10
85.455
20
-80.9513
11
85.455
21
-81.3039
0
LINE
8
BLACK
6
CONTINUOUS
10
85.455
20
-81.3039
11
85.3344
21
-81.6353
0
LINE
8
BLACK
6
CONTINUOUS
10
85.3344
20
-81.6353
11
85.1077
21
-81.9055
0
LINE
8
BLACK
6
CONTINUOUS
10
85.1077
20
-81.9055
11
84.8023
21
-82.0818
0
LINE
8
BLACK
6
CONTINUOUS
10
84.8023
20
-82.0818
11
84.455
21
-82.143
0
LINE
8
BLACK
6
CONTINUOUS
10
84.455
20
-82.143
11
84.1077
21
-82.0818
0
LINE
8
BLACK
6
CONTINUOUS
10
84.1077
20
-82.0818
11
83.9247
21
-81.9761
0
LINE
8
BLACK
6
CONTINUOUS
10
83.9247
20
-81.9761
11
82.605
21
-83.2958
0
LINE
8
BLACK
6
CONTINUOUS
10
82.605
20
-83.2958
11
82.605
21
-111.157
0
LINE
8
BLACK
6
CONTINUOUS
10
82.605
20
-111.157
11
83.9732
21
-112.525
0
LINE
8
BLACK
6
CONTINUOUS
10
83.9732
20
-112.525
11
91.3702
21
-112.525
0
LINE
8
BLACK
6
CONTINUOUS
10
91.3702
20
-112.525
11
91.3999
21
-112.522
0
LINE
8
BLACK
6
CONTINUOUS
10
91.3999
20
-112.522
11
91.4287
21
-112.53
0
LINE
8
BLACK
6
CONTINUOUS
10
91.4287
20
-112.53
11
91.4581
21
-112.535
0
LINE
8
BLACK
6
CONTINUOUS
10
91.4581
20
-112.535
11
91.4668
21
-112.54
0
LINE
8
BLACK
6
CONTINUOUS
10
91.4668
20
-112.54
11
91.4766
21
-112.543
0
LINE
8
BLACK
6
CONTINUOUS
10
91.4766
20
-112.543
11
91.501
21
-112.56
0
LINE
8
BLACK
6
CONTINUOUS
10
91.501
20
-112.56
11
91.5269
21
-112.575
0
LINE
8
BLACK
6
CONTINUOUS
10
91.5269
20
-112.575
11
91.546
21
-112.598
0
LINE
8
BLACK
6
CONTINUOUS
10
91.546
20
-112.598
11
103.473
21
-124.525
0
LINE
8
BLACK
6
CONTINUOUS
10
103.473
20
-124.525
11
125.684
21
-124.525
0
LINE
8
BLACK
6
CONTINUOUS
10
125.684
20
-124.525
11
129.302
21
-120.907
0
LINE
8
BLACK
6
CONTINUOUS
10
129.302
20
-120.907
11
129.302
21
-95.3302
0
LINE
8
BLACK
6
CONTINUOUS
10
129.302
20
-95.3302
11
127.384
21
-93.4121
0
LINE
8
BLACK
6
CONTINUOUS
10
127.384
20
-93.4121
11
127.278
21
-93.4734
0
LINE
8
BLACK
6
CONTINUOUS
10
127.278
20
-93.4734
11
127.07
21
-93.51
0
LINE
8
BLACK
6
CONTINUOUS
10
127.07
20
-93.51
11
126.93
21
-93.51
0
LINE
8
BLACK
6
CONTINUOUS
10
126.93
20
-93.51
11
126.722
21
-93.4734
0
LINE
8
BLACK
6
CONTINUOUS
10
126.722
20
-93.4734
11
126.478
21
-93.3323
0
LINE
8
BLACK
6
CONTINUOUS
10
126.478
20
-93.3323
11
126.296
21
-93.1162
0
LINE
8
BLACK
6
CONTINUOUS
10
126.296
20
-93.1162
11
126.2
21
-92.8511
0
LINE
8
BLACK
6
CONTINUOUS
10
126.2
20
-92.8511
11
126.2
21
-92.5689
0
LINE
8
BLACK
6
CONTINUOUS
10
126.2
20
-92.5689
11
126.296
21
-92.3038
0
LINE
8
BLACK
6
CONTINUOUS
10
126.296
20
-92.3038
11
126.478
21
-92.0877
0
LINE
8
BLACK
6
CONTINUOUS
10
126.478
20
-92.0877
11
126.722
21
-91.9466
0
LINE
8
BLACK
6
CONTINUOUS
10
126.722
20
-91.9466
11
126.93
21
-91.91
0
LINE
8
BLACK
6
CONTINUOUS
10
126.93
20
-91.91
11
127.07
21
-91.91
0
LINE
8
BLACK
6
CONTINUOUS
10
127.07
20
-91.91
11
127.278
21
-91.9466
0
LINE
8
BLACK
6
CONTINUOUS
10
127.278
20
-91.9466
11
127.384
21
-92.0079
0
LINE
8
BLACK
6
CONTINUOUS
10
127.384
20
-92.0079
11
137.248
21
-82.1438
0
LINE
8
BLACK
6
CONTINUOUS
10
137.248
20
-82.1438
11
137.267
21
-82.121
0
LINE
8
BLACK
6
CONTINUOUS
10
137.267
20
-82.121
11
137.293
21
-82.1061
0
LINE
8
BLACK
6
CONTINUOUS
10
137.293
20
-82.1061
11
137.317
21
-82.0889
0
LINE
8
BLACK
6
CONTINUOUS
10
137.317
20
-82.0889
11
137.327
21
-82.0863
0
LINE
8
BLACK
6
CONTINUOUS
10
137.327
20
-82.0863
11
137.336
21
-82.0813
0
LINE
8
BLACK
6
CONTINUOUS
10
137.336
20
-82.0813
11
137.365
21
-82.0761
0
LINE
8
BLACK
6
CONTINUOUS
10
137.365
20
-82.0761
11
137.394
21
-82.0684
0
LINE
8
BLACK
6
CONTINUOUS
10
137.394
20
-82.0684
11
137.424
21
-82.071
0
LINE
8
BLACK
6
CONTINUOUS
10
137.424
20
-82.071
11
150.148
21
-82.071
0
LINE
8
BLACK
6
CONTINUOUS
10
150.148
20
-82.071
11
150.251
21
-81.7883
0
LINE
8
BLACK
6
CONTINUOUS
10
150.251
20
-81.7883
11
150.477
21
-81.5181
0
LINE
8
BLACK
6
CONTINUOUS
10
150.477
20
-81.5181
11
150.783
21
-81.3418
0
LINE
8
BLACK
6
CONTINUOUS
10
150.783
20
-81.3418
11
151.13
21
-81.2806
0
LINE
8
BLACK
6
CONTINUOUS
10
151.13
20
-81.2806
11
151.477
21
-81.3418
0
LINE
8
BLACK
6
CONTINUOUS
10
151.477
20
-81.3418
11
151.783
21
-81.5181
0
LINE
8
BLACK
6
CONTINUOUS
10
151.783
20
-81.5181
11
152.009
21
-81.7883
0
LINE
8
BLACK
6
CONTINUOUS
10
152.009
20
-81.7883
11
152.13
21
-82.1197
0
LINE
8
BLACK
6
CONTINUOUS
10
152.13
20
-82.1197
11
152.13
21
-82.4723
0
LINE
8
BLACK
6
CONTINUOUS
10
152.13
20
-82.4723
11
152.009
21
-82.8037
0
LINE
8
BLACK
6
CONTINUOUS
10
152.009
20
-82.8037
11
151.783
21
-83.0739
0
LINE
8
BLACK
6
CONTINUOUS
10
151.783
20
-83.0739
11
151.477
21
-83.2502
0
LINE
8
BLACK
6
CONTINUOUS
10
151.477
20
-83.2502
11
151.13
21
-83.3114
0
LINE
8
BLACK
6
CONTINUOUS
10
151.13
20
-83.3114
11
150.783
21
-83.2502
0
LINE
8
BLACK
6
CONTINUOUS
10
150.783
20
-83.2502
11
150.477
21
-83.0739
0
LINE
8
BLACK
6
CONTINUOUS
10
150.477
20
-83.0739
11
150.251
21
-82.8037
0
LINE
8
BLACK
6
CONTINUOUS
10
150.251
20
-82.8037
11
150.148
21
-82.521
0
LINE
8
BLACK
6
CONTINUOUS
10
150.148
20
-82.521
11
137.507
21
-82.521
0
LINE
8
BLACK
6
CONTINUOUS
10
137.507
20
-82.521
11
127.709
21
-92.3191
0
LINE
8
BLACK
6
CONTINUOUS
10
127.709
20
-92.3191
11
127.8
21
-92.5689
0
LINE
8
BLACK
6
CONTINUOUS
10
127.8
20
-92.5689
11
127.8
21
-92.8511
0
LINE
8
BLACK
6
CONTINUOUS
10
127.8
20
-92.8511
11
127.709
21
-93.1009
0
LINE
8
BLACK
6
CONTINUOUS
10
127.709
20
-93.1009
11
129.679
21
-95.0709
0
LINE
8
BLACK
6
CONTINUOUS
10
129.679
20
-95.0709
11
129.702
21
-95.0901
0
LINE
8
BLACK
6
CONTINUOUS
10
129.702
20
-95.0901
11
129.717
21
-95.116
0
LINE
8
BLACK
6
CONTINUOUS
10
129.717
20
-95.116
11
129.734
21
-95.1404
0
LINE
8
BLACK
6
CONTINUOUS
10
129.734
20
-95.1404
11
129.737
21
-95.1501
0
LINE
8
BLACK
6
CONTINUOUS
10
129.737
20
-95.1501
11
129.742
21
-95.1588
0
LINE
8
BLACK
6
CONTINUOUS
10
129.742
20
-95.1588
11
129.747
21
-95.1882
0
LINE
8
BLACK
6
CONTINUOUS
10
129.747
20
-95.1882
11
129.755
21
-95.2171
0
LINE
8
BLACK
6
CONTINUOUS
10
129.755
20
-95.2171
11
129.752
21
-95.2468
0
LINE
8
BLACK
6
CONTINUOUS
10
129.752
20
-95.2468
11
129.752
21
-120.99
0
LINE
8
BLACK
6
CONTINUOUS
10
129.752
20
-120.99
11
129.755
21
-121.02
0
LINE
8
BLACK
6
CONTINUOUS
10
129.755
20
-121.02
11
129.747
21
-121.049
0
LINE
8
BLACK
6
CONTINUOUS
10
129.747
20
-121.049
11
129.742
21
-121.078
0
LINE
8
BLACK
6
CONTINUOUS
10
129.742
20
-121.078
11
129.737
21
-121.087
0
LINE
8
BLACK
6
CONTINUOUS
10
129.737
20
-121.087
11
129.734
21
-121.097
0
LINE
8
BLACK
6
CONTINUOUS
10
129.734
20
-121.097
11
129.717
21
-121.121
0
LINE
8
BLACK
6
CONTINUOUS
10
129.717
20
-121.121
11
129.702
21
-121.147
0
LINE
8
BLACK
6
CONTINUOUS
10
129.702
20
-121.147
11
129.679
21
-121.166
0
LINE
8
BLACK
6
CONTINUOUS
10
129.679
20
-121.166
11
125.943
21
-124.902
0
LINE
8
BLACK
6
CONTINUOUS
10
125.943
20
-124.902
11
125.924
21
-124.925
0
LINE
8
BLACK
6
CONTINUOUS
10
125.924
20
-124.925
11
125.898
21
-124.94
0
LINE
8
BLACK
6
CONTINUOUS
10
125.898
20
-124.94
11
125.874
21
-124.957
0
LINE
8
BLACK
6
CONTINUOUS
10
125.874
20
-124.957
11
125.864
21
-124.96
0
LINE
8
BLACK
6
CONTINUOUS
10
125.864
20
-124.96
11
125.855
21
-124.965
0
LINE
8
BLACK
6
CONTINUOUS
10
125.855
20
-124.965
11
125.826
21
-124.97
0
LINE
8
BLACK
6
CONTINUOUS
10
125.826
20
-124.97
11
125.797
21
-124.978
0
LINE
8
BLACK
6
CONTINUOUS
10
125.797
20
-124.978
11
125.767
21
-124.975
0
LINE
8
BLACK
6
CONTINUOUS
10
125.767
20
-124.975
11
103.39
21
-124.975
0
LINE
8
BLACK
6
CONTINUOUS
10
103.39
20
-124.975
11
103.36
21
-124.978
0
LINE
8
BLACK
6
CONTINUOUS
10
103.36
20
-124.978
11
103.331
21
-124.97
0
LINE
8
BLACK
6
CONTINUOUS
10
103.331
20
-124.97
11
103.302
21
-124.965
0
LINE
8
BLACK
6
CONTINUOUS
10
103.302
20
-124.965
11
103.293
21
-124.96
0
LINE
8
BLACK
6
CONTINUOUS
10
103.293
20
-124.96
11
103.283
21
-124.957
0
LINE
8
BLACK
6
CONTINUOUS
10
103.283
20
-124.957
11
103.259
21
-124.94
0
LINE
8
BLACK
6
CONTINUOUS
10
103.259
20
-124.94
11
103.233
21
-124.925
0
LINE
8
BLACK
6
CONTINUOUS
10
103.233
20
-124.925
11
103.214
21
-124.902
0
LINE
8
BLACK
6
CONTINUOUS
10
103.214
20
-124.902
11
91.2868
21
-112.975
0
LINE
8
BLACK
6
CONTINUOUS
10
91.2868
20
-112.975
11
83.8898
21
-112.975
0
LINE
8
BLACK
6
CONTINUOUS
10
83.8898
20
-112.975
11
83.8601
21
-112.978
0
LINE
8
BLACK
6
CONTINUOUS
10
83.8601
20
-112.978
11
83.8313
21
-112.97
0
LINE
8
BLACK
6
CONTINUOUS
10
83.8313
20
-112.97
11
83.8019
21
-112.965
0
LINE
8
BLACK
6
CONTINUOUS
10
83.8019
20
-112.965
11
83.7932
21
-112.96
0
LINE
8
BLACK
6
CONTINUOUS
10
83.7932
20
-112.96
11
83.7834
21
-112.957
0
LINE
8
BLACK
6
CONTINUOUS
10
83.7834
20
-112.957
11
83.759
21
-112.94
0
LINE
8
BLACK
6
CONTINUOUS
10
83.759
20
-112.94
11
83.7331
21
-112.925
0
LINE
8
BLACK
6
CONTINUOUS
10
83.7331
20
-112.925
11
83.714
21
-112.902
0
LINE
8
BLACK
6
CONTINUOUS
10
83.714
20
-112.902
11
82.2278
21
-111.416
0
LINE
8
BLACK
6
CONTINUOUS
10
82.2278
20
-111.416
11
82.205
21
-111.397
0
LINE
8
BLACK
6
CONTINUOUS
10
82.205
20
-111.397
11
82.1901
21
-111.371
0
LINE
8
BLACK
6
CONTINUOUS
10
82.1901
20
-111.371
11
82.1729
21
-111.347
0
LINE
8
BLACK
6
CONTINUOUS
10
82.1729
20
-111.347
11
82.1703
21
-111.337
0
LINE
8
BLACK
6
CONTINUOUS
10
82.1703
20
-111.337
11
82.1653
21
-111.328
0
LINE
8
BLACK
6
CONTINUOUS
10
82.1653
20
-111.328
11
82.1601
21
-111.299
0
LINE
8
BLACK
6
CONTINUOUS
10
82.1601
20
-111.299
11
82.1524
21
-111.27
0
LINE
8
BLACK
6
CONTINUOUS
10
82.1524
20
-111.27
11
82.155
21
-111.24
0
LINE
8
BLACK
6
CONTINUOUS
10
82.155
20
-111.24
11
82.155
21
-83.2124
0
LINE
8
BLACK
6
CONTINUOUS
10
82.155
20
-83.2124
11
82.1524
21
-83.1827
0
LINE
8
BLACK
6
CONTINUOUS
10
82.1524
20
-83.1827
11
82.1601
21
-83.1539
0
LINE
8
BLACK
6
CONTINUOUS
10
82.1601
20
-83.1539
11
82.1653
21
-83.1245
0
LINE
8
BLACK
6
CONTINUOUS
10
82.1653
20
-83.1245
11
82.1703
21
-83.1158
0
LINE
8
BLACK
6
CONTINUOUS
10
82.1703
20
-83.1158
11
82.1729
21
-83.106
0
LINE
8
BLACK
6
CONTINUOUS
10
82.1729
20
-83.106
11
82.1901
21
-83.0816
0
LINE
8
BLACK
6
CONTINUOUS
10
82.1901
20
-83.0816
11
82.205
21
-83.0557
0
LINE
8
BLACK
6
CONTINUOUS
10
82.205
20
-83.0557
11
82.2278
21
-83.0366
0
LINE
8
BLACK
6
CONTINUOUS
10
82.2278
20
-83.0366
11
83.6
21
-81.6644
0
LINE
8
BLACK
6
CONTINUOUS
10
83.6
20
-81.6644
11
83.5756
21
-81.6353
0
LINE
8
BLACK
6
CONTINUOUS
10
83.5756
20
-81.6353
11
83.455
21
-81.3039
0
LINE
8
BLACK
6
CONTINUOUS
10
83.455
20
-81.3039
11
83.455
21
-80.9513
0
LINE
8
BLACK
6
CONTINUOUS
10
83.455
20
-80.9513
11
83.5756
21
-80.6199
0
LINE
8
BLACK
6
CONTINUOUS
10
83.5756
20
-80.6199
11
83.8023
21
-80.3497
0
LINE
8
BLACK
6
CONTINUOUS
10
83.8023
20
-80.3497
11
84.1077
21
-80.1734
0
LINE
8
BLACK
6
CONTINUOUS
10
84.1077
20
-80.1734
11
84.455
21
-80.1122
0
LINE
8
BLACK
6
CONTINUOUS
10
84.455
20
-80.1122
11
84.8023
21
-80.1734
0
LINE
8
BLACK
6
CONTINUOUS
10
127.278
20
-94.4866
11
127.522
21
-94.6277
0
LINE
8
BLACK
6
CONTINUOUS
10
127.522
20
-94.6277
11
127.704
21
-94.8438
0
LINE
8
BLACK
6
CONTINUOUS
10
127.704
20
-94.8438
11
127.8
21
-95.1089
0
LINE
8
BLACK
6
CONTINUOUS
10
127.8
20
-95.1089
11
127.8
21
-95.3911
0
LINE
8
BLACK
6
CONTINUOUS
10
127.8
20
-95.3911
11
127.709
21
-95.6409
0
LINE
8
BLACK
6
CONTINUOUS
10
127.709
20
-95.6409
11
128.939
21
-96.871
0
LINE
8
BLACK
6
CONTINUOUS
10
128.939
20
-96.871
11
128.962
21
-96.8901
0
LINE
8
BLACK
6
CONTINUOUS
10
128.962
20
-96.8901
11
128.977
21
-96.916
0
LINE
8
BLACK
6
CONTINUOUS
10
128.977
20
-96.916
11
128.994
21
-96.9404
0
LINE
8
BLACK
6
CONTINUOUS
10
128.994
20
-96.9404
11
128.997
21
-96.9502
0
LINE
8
BLACK
6
CONTINUOUS
10
128.997
20
-96.9502
11
129.002
21
-96.9589
0
LINE
8
BLACK
6
CONTINUOUS
10
129.002
20
-96.9589
11
129.007
21
-96.9883
0
LINE
8
BLACK
6
CONTINUOUS
10
129.007
20
-96.9883
11
129.015
21
-97.0171
0
LINE
8
BLACK
6
CONTINUOUS
10
129.015
20
-97.0171
11
129.012
21
-97.0468
0
LINE
8
BLACK
6
CONTINUOUS
10
129.012
20
-97.0468
11
129.012
21
-120.74
0
LINE
8
BLACK
6
CONTINUOUS
10
129.012
20
-120.74
11
129.015
21
-120.77
0
LINE
8
BLACK
6
CONTINUOUS
10
129.015
20
-120.77
11
129.007
21
-120.799
0
LINE
8
BLACK
6
CONTINUOUS
10
129.007
20
-120.799
11
129.002
21
-120.828
0
LINE
8
BLACK
6
CONTINUOUS
10
129.002
20
-120.828
11
128.997
21
-120.837
0
LINE
8
BLACK
6
CONTINUOUS
10
128.997
20
-120.837
11
128.994
21
-120.847
0
LINE
8
BLACK
6
CONTINUOUS
10
128.994
20
-120.847
11
128.977
21
-120.871
0
LINE
8
BLACK
6
CONTINUOUS
10
128.977
20
-120.871
11
128.962
21
-120.897
0
LINE
8
BLACK
6
CONTINUOUS
10
128.962
20
-120.897
11
128.939
21
-120.916
0
LINE
8
BLACK
6
CONTINUOUS
10
128.939
20
-120.916
11
125.703
21
-124.152
0
LINE
8
BLACK
6
CONTINUOUS
10
125.703
20
-124.152
11
125.684
21
-124.175
0
LINE
8
BLACK
6
CONTINUOUS
10
125.684
20
-124.175
11
125.658
21
-124.19
0
LINE
8
BLACK
6
CONTINUOUS
10
125.658
20
-124.19
11
125.634
21
-124.207
0
LINE
8
BLACK
6
CONTINUOUS
10
125.634
20
-124.207
11
125.624
21
-124.21
0
LINE
8
BLACK
6
CONTINUOUS
10
125.624
20
-124.21
11
125.615
21
-124.215
0
LINE
8
BLACK
6
CONTINUOUS
10
125.615
20
-124.215
11
125.586
21
-124.22
0
LINE
8
BLACK
6
CONTINUOUS
10
125.586
20
-124.22
11
125.557
21
-124.228
0
LINE
8
BLACK
6
CONTINUOUS
10
125.557
20
-124.228
11
125.527
21
-124.225
0
LINE
8
BLACK
6
CONTINUOUS
10
125.527
20
-124.225
11
103.89
21
-124.225
0
LINE
8
BLACK
6
CONTINUOUS
10
103.89
20
-124.225
11
103.86
21
-124.228
0
LINE
8
BLACK
6
CONTINUOUS
10
103.86
20
-124.228
11
103.831
21
-124.22
0
LINE
8
BLACK
6
CONTINUOUS
10
103.831
20
-124.22
11
103.802
21
-124.215
0
LINE
8
BLACK
6
CONTINUOUS
10
103.802
20
-124.215
11
103.793
21
-124.21
0
LINE
8
BLACK
6
CONTINUOUS
10
103.793
20
-124.21
11
103.783
21
-124.207
0
LINE
8
BLACK
6
CONTINUOUS
10
103.783
20
-124.207
11
103.759
21
-124.19
0
LINE
8
BLACK
6
CONTINUOUS
10
103.759
20
-124.19
11
103.733
21
-124.175
0
LINE
8
BLACK
6
CONTINUOUS
10
103.733
20
-124.175
11
103.714
21
-124.152
0
LINE
8
BLACK
6
CONTINUOUS
10
103.714
20
-124.152
11
90.4038
21
-110.842
0
LINE
8
BLACK
6
CONTINUOUS
10
90.4038
20
-110.842
11
85.4373
21
-110.842
0
LINE
8
BLACK
6
CONTINUOUS
10
85.4373
20
-110.842
11
85.3344
21
-111.125
0
LINE
8
BLACK
6
CONTINUOUS
10
85.3344
20
-111.125
11
85.1077
21
-111.395
0
LINE
8
BLACK
6
CONTINUOUS
10
85.1077
20
-111.395
11
84.8023
21
-111.571
0
LINE
8
BLACK
6
CONTINUOUS
10
84.8023
20
-111.571
11
84.455
21
-111.632
0
LINE
8
BLACK
6
CONTINUOUS
10
84.455
20
-111.632
11
84.1077
21
-111.571
0
LINE
8
BLACK
6
CONTINUOUS
10
84.1077
20
-111.571
11
83.8023
21
-111.395
0
LINE
8
BLACK
6
CONTINUOUS
10
83.8023
20
-111.395
11
83.5756
21
-111.125
0
LINE
8
BLACK
6
CONTINUOUS
10
83.5756
20
-111.125
11
83.455
21
-110.793
0
LINE
8
BLACK
6
CONTINUOUS
10
83.455
20
-110.793
11
83.455
21
-110.441
0
LINE
8
BLACK
6
CONTINUOUS
10
83.455
20
-110.441
11
83.5756
21
-110.109
0
LINE
8
BLACK
6
CONTINUOUS
10
83.5756
20
-110.109
11
83.8023
21
-109.839
0
LINE
8
BLACK
6
CONTINUOUS
10
83.8023
20
-109.839
11
84.1077
21
-109.663
0
LINE
8
BLACK
6
CONTINUOUS
10
84.1077
20
-109.663
11
84.455
21
-109.602
0
LINE
8
BLACK
6
CONTINUOUS
10
84.455
20
-109.602
11
84.8023
21
-109.663
0
LINE
8
BLACK
6
CONTINUOUS
10
84.8023
20
-109.663
11
85.1077
21
-109.839
0
LINE
8
BLACK
6
CONTINUOUS
10
85.1077
20
-109.839
11
85.3344
21
-110.109
0
LINE
8
BLACK
6
CONTINUOUS
10
85.3344
20
-110.109
11
85.4373
21
-110.392
0
LINE
8
BLACK
6
CONTINUOUS
10
85.4373
20
-110.392
11
90.4872
21
-110.392
0
LINE
8
BLACK
6
CONTINUOUS
10
90.4872
20
-110.392
11
90.5169
21
-110.389
0
LINE
8
BLACK
6
CONTINUOUS
10
90.5169
20
-110.389
11
90.5457
21
-110.397
0
LINE
8
BLACK
6
CONTINUOUS
10
90.5457
20
-110.397
11
90.5751
21
-110.402
0
LINE
8
BLACK
6
CONTINUOUS
10
90.5751
20
-110.402
11
90.5838
21
-110.407
0
LINE
8
BLACK
6
CONTINUOUS
10
90.5838
20
-110.407
11
90.5936
21
-110.41
0
LINE
8
BLACK
6
CONTINUOUS
10
90.5936
20
-110.41
11
90.618
21
-110.427
0
LINE
8
BLACK
6
CONTINUOUS
10
90.618
20
-110.427
11
90.6439
21
-110.442
0
LINE
8
BLACK
6
CONTINUOUS
10
90.6439
20
-110.442
11
90.663
21
-110.465
0
LINE
8
BLACK
6
CONTINUOUS
10
90.663
20
-110.465
11
103.973
21
-123.775
0
LINE
8
BLACK
6
CONTINUOUS
10
103.973
20
-123.775
11
125.444
21
-123.775
0
LINE
8
BLACK
6
CONTINUOUS
10
125.444
20
-123.775
11
128.562
21
-120.657
0
LINE
8
BLACK
6
CONTINUOUS
10
128.562
20
-120.657
11
128.562
21
-97.1302
0
LINE
8
BLACK
6
CONTINUOUS
10
128.562
20
-97.1302
11
127.384
21
-95.9521
0
LINE
8
BLACK
6
CONTINUOUS
10
127.384
20
-95.9521
11
127.278
21
-96.0134
0
LINE
8
BLACK
6
CONTINUOUS
10
127.278
20
-96.0134
11
127.07
21
-96.05
0
LINE
8
BLACK
6
CONTINUOUS
10
127.07
20
-96.05
11
126.93
21
-96.05
0
LINE
8
BLACK
6
CONTINUOUS
10
126.93
20
-96.05
11
126.722
21
-96.0134
0
LINE
8
BLACK
6
CONTINUOUS
10
126.722
20
-96.0134
11
126.478
21
-95.8723
0
LINE
8
BLACK
6
CONTINUOUS
10
126.478
20
-95.8723
11
126.296
21
-95.6562
0
LINE
8
BLACK
6
CONTINUOUS
10
126.296
20
-95.6562
11
126.2
21
-95.3911
0
LINE
8
BLACK
6
CONTINUOUS
10
126.2
20
-95.3911
11
126.2
21
-95.1089
0
LINE
8
BLACK
6
CONTINUOUS
10
126.2
20
-95.1089
11
126.296
21
-94.8438
0
LINE
8
BLACK
6
CONTINUOUS
10
126.296
20
-94.8438
11
126.478
21
-94.6277
0
LINE
8
BLACK
6
CONTINUOUS
10
126.478
20
-94.6277
11
126.722
21
-94.4866
0
LINE
8
BLACK
6
CONTINUOUS
10
126.722
20
-94.4866
11
126.93
21
-94.45
0
LINE
8
BLACK
6
CONTINUOUS
10
126.93
20
-94.45
11
127.07
21
-94.45
0
LINE
8
BLACK
6
CONTINUOUS
10
127.07
20
-94.45
11
127.278
21
-94.4866
0
LINE
8
BLACK
6
CONTINUOUS
10
112.038
20
-119.887
11
112.282
21
-120.028
0
LINE
8
BLACK
6
CONTINUOUS
10
112.282
20
-120.028
11
112.464
21
-120.244
0
LINE
8
BLACK
6
CONTINUOUS
10
112.464
20
-120.244
11
112.56
21
-120.509
0
LINE
8
BLACK
6
CONTINUOUS
10
112.56
20
-120.509
11
112.56
21
-120.791
0
LINE
8
BLACK
6
CONTINUOUS
10
112.56
20
-120.791
11
112.464
21
-121.056
0
LINE
8
BLACK
6
CONTINUOUS
10
112.464
20
-121.056
11
112.282
21
-121.272
0
LINE
8
BLACK
6
CONTINUOUS
10
112.282
20
-121.272
11
112.038
21
-121.413
0
LINE
8
BLACK
6
CONTINUOUS
10
112.038
20
-121.413
11
111.83
21
-121.45
0
LINE
8
BLACK
6
CONTINUOUS
10
111.83
20
-121.45
11
111.69
21
-121.45
0
LINE
8
BLACK
6
CONTINUOUS
10
111.69
20
-121.45
11
111.482
21
-121.413
0
LINE
8
BLACK
6
CONTINUOUS
10
111.482
20
-121.413
11
111.238
21
-121.272
0
LINE
8
BLACK
6
CONTINUOUS
10
111.238
20
-121.272
11
111.056
21
-121.056
0
LINE
8
BLACK
6
CONTINUOUS
10
111.056
20
-121.056
11
110.96
21
-120.791
0
LINE
8
BLACK
6
CONTINUOUS
10
110.96
20
-120.791
11
110.96
21
-120.509
0
LINE
8
BLACK
6
CONTINUOUS
10
110.96
20
-120.509
11
111.056
21
-120.244
0
LINE
8
BLACK
6
CONTINUOUS
10
111.056
20
-120.244
11
111.238
21
-120.028
0
LINE
8
BLACK
6
CONTINUOUS
10
111.238
20
-120.028
11
111.482
21
-119.887
0
LINE
8
BLACK
6
CONTINUOUS
10
111.482
20
-119.887
11
111.69
21
-119.85
0
LINE
8
BLACK
6
CONTINUOUS
10
111.69
20
-119.85
11
111.83
21
-119.85
0
LINE
8
BLACK
6
CONTINUOUS
10
111.83
20
-119.85
11
112.038
21
-119.887
0
LINE
8
BLACK
6
CONTINUOUS
10
127.278
20
-119.887
11
127.522
21
-120.028
0
LINE
8
BLACK
6
CONTINUOUS
10
127.522
20
-120.028
11
127.704
21
-120.244
0
LINE
8
BLACK
6
CONTINUOUS
10
127.704
20
-120.244
11
127.8
21
-120.509
0
LINE
8
BLACK
6
CONTINUOUS
10
127.8
20
-120.509
11
127.8
21
-120.791
0
LINE
8
BLACK
6
CONTINUOUS
10
127.8
20
-120.791
11
127.704
21
-121.056
0
LINE
8
BLACK
6
CONTINUOUS
10
127.704
20
-121.056
11
127.522
21
-121.272
0
LINE
8
BLACK
6
CONTINUOUS
10
127.522
20
-121.272
11
127.278
21
-121.413
0
LINE
8
BLACK
6
CONTINUOUS
10
127.278
20
-121.413
11
127.07
21
-121.45
0
LINE
8
BLACK
6
CONTINUOUS
10
127.07
20
-121.45
11
126.93
21
-121.45
0
LINE
8
BLACK
6
CONTINUOUS
10
126.93
20
-121.45
11
126.722
21
-121.413
0
LINE
8
BLACK
6
CONTINUOUS
10
126.722
20
-121.413
11
126.478
21
-121.272
0
LINE
8
BLACK
6
CONTINUOUS
10
126.478
20
-121.272
11
126.296
21
-121.056
0
LINE
8
BLACK
6
CONTINUOUS
10
126.296
20
-121.056
11
126.2
21
-120.791
0
LINE
8
BLACK
6
CONTINUOUS
10
126.2
20
-120.791
11
126.2
21
-120.509
0
LINE
8
BLACK
6
CONTINUOUS
10
126.2
20
-120.509
11
126.296
21
-120.244
0
LINE
8
BLACK
6
CONTINUOUS
10
126.296
20
-120.244
11
126.478
21
-120.028
0
LINE
8
BLACK
6
CONTINUOUS
10
126.478
20
-120.028
11
126.722
21
-119.887
0
LINE
8
BLACK
6
CONTINUOUS
10
126.722
20
-119.887
11
126.93
21
-119.85
0
LINE
8
BLACK
6
CONTINUOUS
10
126.93
20
-119.85
11
127.07
21
-119.85
0
LINE
8
BLACK
6
CONTINUOUS
10
127.07
20
-119.85
11
127.278
21
-119.887
0
LINE
8
BLACK
6
CONTINUOUS
10
112.038
20
-117.347
11
112.282
21
-117.488
0
LINE
8
BLACK
6
CONTINUOUS
10
112.282
20
-117.488
11
112.464
21
-117.704
0
LINE
8
BLACK
6
CONTINUOUS
10
112.464
20
-117.704
11
112.56
21
-117.969
0
LINE
8
BLACK
6
CONTINUOUS
10
112.56
20
-117.969
11
112.56
21
-118.251
0
LINE
8
BLACK
6
CONTINUOUS
10
112.56
20
-118.251
11
112.464
21
-118.516
0
LINE
8
BLACK
6
CONTINUOUS
10
112.464
20
-118.516
11
112.282
21
-118.732
0
LINE
8
BLACK
6
CONTINUOUS
10
112.282
20
-118.732
11
112.038
21
-118.873
0
LINE
8
BLACK
6
CONTINUOUS
10
112.038
20
-118.873
11
111.83
21
-118.91
0
LINE
8
BLACK
6
CONTINUOUS
10
111.83
20
-118.91
11
111.69
21
-118.91
0
LINE
8
BLACK
6
CONTINUOUS
10
111.69
20
-118.91
11
111.482
21
-118.873
0
LINE
8
BLACK
6
CONTINUOUS
10
111.482
20
-118.873
11
111.238
21
-118.732
0
LINE
8
BLACK
6
CONTINUOUS
10
111.238
20
-118.732
11
111.056
21
-118.516
0
LINE
8
BLACK
6
CONTINUOUS
10
111.056
20
-118.516
11
110.96
21
-118.251
0
LINE
8
BLACK
6
CONTINUOUS
10
110.96
20
-118.251
11
110.96
21
-117.969
0
LINE
8
BLACK
6
CONTINUOUS
10
110.96
20
-117.969
11
111.056
21
-117.704
0
LINE
8
BLACK
6
CONTINUOUS
10
111.056
20
-117.704
11
111.238
21
-117.488
0
LINE
8
BLACK
6
CONTINUOUS
10
111.238
20
-117.488
11
111.482
21
-117.347
0
LINE
8
BLACK
6
CONTINUOUS
10
111.482
20
-117.347
11
111.69
21
-117.31
0
LINE
8
BLACK
6
CONTINUOUS
10
111.69
20
-117.31
11
111.83
21
-117.31
0
LINE
8
BLACK
6
CONTINUOUS
10
111.83
20
-117.31
11
112.038
21
-117.347
0
LINE
8
BLACK
6
CONTINUOUS
10
127.278
20
-117.347
11
127.522
21
-117.488
0
LINE
8
BLACK
6
CONTINUOUS
10
127.522
20
-117.488
11
127.704
21
-117.704
0
LINE
8
BLACK
6
CONTINUOUS
10
127.704
20
-117.704
11
127.8
21
-117.969
0
LINE
8
BLACK
6
CONTINUOUS
10
127.8
20
-117.969
11
127.8
21
-118.251
0
LINE
8
BLACK
6
CONTINUOUS
10
127.8
20
-118.251
11
127.704
21
-118.516
0
LINE
8
BLACK
6
CONTINUOUS
10
127.704
20
-118.516
11
127.522
21
-118.732
0
LINE
8
BLACK
6
CONTINUOUS
10
127.522
20
-118.732
11
127.278
21
-118.873
0
LINE
8
BLACK
6
CONTINUOUS
10
127.278
20
-118.873
11
127.07
21
-118.91
0
LINE
8
BLACK
6
CONTINUOUS
10
127.07
20
-118.91
11
126.93
21
-118.91
0
LINE
8
BLACK
6
CONTINUOUS
10
126.93
20
-118.91
11
126.722
21
-118.873
0
LINE
8
BLACK
6
CONTINUOUS
10
126.722
20
-118.873
11
126.478
21
-118.732
0
LINE
8
BLACK
6
CONTINUOUS
10
126.478
20
-118.732
11
126.296
21
-118.516
0
LINE
8
BLACK
6
CONTINUOUS
10
126.296
20
-118.516
11
126.2
21
-118.251
0
LINE
8
BLACK
6
CONTINUOUS
10
126.2
20
-118.251
11
126.2
21
-117.969
0
LINE
8
BLACK
6
CONTINUOUS
10
126.2
20
-117.969
11
126.296
21
-117.704
0
LINE
8
BLACK
6
CONTINUOUS
10
126.296
20
-117.704
11
126.478
21
-117.488
0
LINE
8
BLACK
6
CONTINUOUS
10
126.478
20
-117.488
11
126.722
21
-117.347
0
LINE
8
BLACK
6
CONTINUOUS
10
126.722
20
-117.347
11
126.93
21
-117.31
0
LINE
8
BLACK
6
CONTINUOUS
10
126.93
20
-117.31
11
127.07
21
-117.31
0
LINE
8
BLACK
6
CONTINUOUS
10
127.07
20
-117.31
11
127.278
21
-117.347
0
LINE
8
BLACK
6
CONTINUOUS
10
127.278
20
-114.807
11
127.522
21
-114.948
0
LINE
8
BLACK
6
CONTINUOUS
10
127.522
20
-114.948
11
127.704
21
-115.164
0
LINE
8
BLACK
6
CONTINUOUS
10
127.704
20
-115.164
11
127.8
21
-115.429
0
LINE
8
BLACK
6
CONTINUOUS
10
127.8
20
-115.429
11
127.8
21
-115.711
0
LINE
8
BLACK
6
CONTINUOUS
10
127.8
20
-115.711
11
127.704
21
-115.976
0
LINE
8
BLACK
6
CONTINUOUS
10
127.704
20
-115.976
11
127.522
21
-116.192
0
LINE
8
BLACK
6
CONTINUOUS
10
127.522
20
-116.192
11
127.278
21
-116.333
0
LINE
8
BLACK
6
CONTINUOUS
10
127.278
20
-116.333
11
127.07
21
-116.37
0
LINE
8
BLACK
6
CONTINUOUS
10
127.07
20
-116.37
11
126.93
21
-116.37
0
LINE
8
BLACK
6
CONTINUOUS
10
126.93
20
-116.37
11
126.722
21
-116.333
0
LINE
8
BLACK
6
CONTINUOUS
10
126.722
20
-116.333
11
126.478
21
-116.192
0
LINE
8
BLACK
6
CONTINUOUS
10
126.478
20
-116.192
11
126.296
21
-115.976
0
LINE
8
BLACK
6
CONTINUOUS
10
126.296
20
-115.976
11
126.2
21
-115.711
0
LINE
8
BLACK
6
CONTINUOUS
10
126.2
20
-115.711
11
126.2
21
-115.429
0
LINE
8
BLACK
6
CONTINUOUS
10
126.2
20
-115.429
11
126.296
21
-115.164
0
LINE
8
BLACK
6
CONTINUOUS
10
126.296
20
-115.164
11
126.478
21
-114.948
0
LINE
8
BLACK
6
CONTINUOUS
10
126.478
20
-114.948
11
126.722
21
-114.807
0
LINE
8
BLACK
6
CONTINUOUS
10
126.722
20
-114.807
11
126.93
21
-114.77
0
LINE
8
BLACK
6
CONTINUOUS
10
126.93
20
-114.77
11
127.07
21
-114.77
0
LINE
8
BLACK
6
CONTINUOUS
10
127.07
20
-114.77
11
127.278
21
-114.807
0
LINE
8
BLACK
6
CONTINUOUS
10
112.038
20
-114.807
11
112.282
21
-114.948
0
LINE
8
BLACK
6
CONTINUOUS
10
112.282
20
-114.948
11
112.464
21
-115.164
0
LINE
8
BLACK
6
CONTINUOUS
10
112.464
20
-115.164
11
112.56
21
-115.429
0
LINE
8
BLACK
6
CONTINUOUS
10
112.56
20
-115.429
11
112.56
21
-115.711
0
LINE
8
BLACK
6
CONTINUOUS
10
112.56
20
-115.711
11
112.464
21
-115.976
0
LINE
8
BLACK
6
CONTINUOUS
10
112.464
20
-115.976
11
112.282
21
-116.192
0
LINE
8
BLACK
6
CONTINUOUS
10
112.282
20
-116.192
11
112.038
21
-116.333
0
LINE
8
BLACK
6
CONTINUOUS
10
112.038
20
-116.333
11
111.83
21
-116.37
0
LINE
8
BLACK
6
CONTINUOUS
10
111.83
20
-116.37
11
111.69
21
-116.37
0
LINE
8
BLACK
6
CONTINUOUS
10
111.69
20
-116.37
11
111.482
21
-116.333
0
LINE
8
BLACK
6
CONTINUOUS
10
111.482
20
-116.333
11
111.238
21
-116.192
0
LINE
8
BLACK
6
CONTINUOUS
10
111.238
20
-116.192
11
111.056
21
-115.976
0
LINE
8
BLACK
6
CONTINUOUS
10
111.056
20
-115.976
11
110.96
21
-115.711
0
LINE
8
BLACK
6
CONTINUOUS
10
110.96
20
-115.711
11
110.96
21
-115.429
0
LINE
8
BLACK
6
CONTINUOUS
10
110.96
20
-115.429
11
111.056
21
-115.164
0
LINE
8
BLACK
6
CONTINUOUS
10
111.056
20
-115.164
11
111.238
21
-114.948
0
LINE
8
BLACK
6
CONTINUOUS
10
111.238
20
-114.948
11
111.482
21
-114.807
0
LINE
8
BLACK
6
CONTINUOUS
10
111.482
20
-114.807
11
111.69
21
-114.77
0
LINE
8
BLACK
6
CONTINUOUS
10
111.69
20
-114.77
11
111.83
21
-114.77
0
LINE
8
BLACK
6
CONTINUOUS
10
111.83
20
-114.77
11
112.038
21
-114.807
0
LINE
8
BLACK
6
CONTINUOUS
10
103.217
20
-80.3258
11
103.523
21
-80.5021
0
LINE
8
BLACK
6
CONTINUOUS
10
103.523
20
-80.5021
11
103.749
21
-80.7723
0
LINE
8
BLACK
6
CONTINUOUS
10
103.749
20
-80.7723
11
103.87
21
-81.1037
0
LINE
8
BLACK
6
CONTINUOUS
10
103.87
20
-81.1037
11
103.87
21
-81.4563
0
LINE
8
BLACK
6
CONTINUOUS
10
103.87
20
-81.4563
11
103.749
21
-81.7877
0
LINE
8
BLACK
6
CONTINUOUS
10
103.749
20
-81.7877
11
103.725
21
-81.8168
0
LINE
8
BLACK
6
CONTINUOUS
10
103.725
20
-81.8168
11
106.532
21
-84.624
0
LINE
8
BLACK
6
CONTINUOUS
10
106.532
20
-84.624
11
106.555
21
-84.6431
0
LINE
8
BLACK
6
CONTINUOUS
10
106.555
20
-84.6431
11
106.57
21
-84.669
0
LINE
8
BLACK
6
CONTINUOUS
10
106.57
20
-84.669
11
106.587
21
-84.6934
0
LINE
8
BLACK
6
CONTINUOUS
10
106.587
20
-84.6934
11
106.59
21
-84.7032
0
LINE
8
BLACK
6
CONTINUOUS
10
106.59
20
-84.7032
11
106.595
21
-84.7119
0
LINE
8
BLACK
6
CONTINUOUS
10
106.595
20
-84.7119
11
106.6
21
-84.7413
0
LINE
8
BLACK
6
CONTINUOUS
10
106.6
20
-84.7413
11
106.608
21
-84.7701
0
LINE
8
BLACK
6
CONTINUOUS
10
106.608
20
-84.7701
11
106.605
21
-84.7998
0
LINE
8
BLACK
6
CONTINUOUS
10
106.605
20
-84.7998
11
106.605
21
-107.557
0
LINE
8
BLACK
6
CONTINUOUS
10
106.605
20
-107.557
11
111.376
21
-112.328
0
LINE
8
BLACK
6
CONTINUOUS
10
111.376
20
-112.328
11
111.482
21
-112.267
0
LINE
8
BLACK
6
CONTINUOUS
10
111.482
20
-112.267
11
111.69
21
-112.23
0
LINE
8
BLACK
6
CONTINUOUS
10
111.69
20
-112.23
11
111.83
21
-112.23
0
LINE
8
BLACK
6
CONTINUOUS
10
111.83
20
-112.23
11
112.038
21
-112.267
0
LINE
8
BLACK
6
CONTINUOUS
10
112.038
20
-112.267
11
112.282
21
-112.408
0
LINE
8
BLACK
6
CONTINUOUS
10
112.282
20
-112.408
11
112.464
21
-112.624
0
LINE
8
BLACK
6
CONTINUOUS
10
112.464
20
-112.624
11
112.56
21
-112.889
0
LINE
8
BLACK
6
CONTINUOUS
10
112.56
20
-112.889
11
112.56
21
-113.171
0
LINE
8
BLACK
6
CONTINUOUS
10
112.56
20
-113.171
11
112.464
21
-113.436
0
LINE
8
BLACK
6
CONTINUOUS
10
112.464
20
-113.436
11
112.282
21
-113.652
0
LINE
8
BLACK
6
CONTINUOUS
10
112.282
20
-113.652
11
112.038
21
-113.793
0
LINE
8
BLACK
6
CONTINUOUS
10
112.038
20
-113.793
11
111.83
21
-113.83
0
LINE
8
BLACK
6
CONTINUOUS
10
111.83
20
-113.83
11
111.69
21
-113.83
0
LINE
8
BLACK
6
CONTINUOUS
10
111.69
20
-113.83
11
111.482
21
-113.793
0
LINE
8
BLACK
6
CONTINUOUS
10
111.482
20
-113.793
11
111.238
21
-113.652
0
LINE
8
BLACK
6
CONTINUOUS
10
111.238
20
-113.652
11
111.056
21
-113.436
0
LINE
8
BLACK
6
CONTINUOUS
10
111.056
20
-113.436
11
110.96
21
-113.171
0
LINE
8
BLACK
6
CONTINUOUS
10
110.96
20
-113.171
11
110.96
21
-112.889
0
LINE
8
BLACK
6
CONTINUOUS
10
110.96
20
-112.889
11
111.051
21
-112.639
0
LINE
8
BLACK
6
CONTINUOUS
10
111.051
20
-112.639
11
106.228
21
-107.816
0
LINE
8
BLACK
6
CONTINUOUS
10
106.228
20
-107.816
11
106.205
21
-107.797
0
LINE
8
BLACK
6
CONTINUOUS
10
106.205
20
-107.797
11
106.19
21
-107.771
0
LINE
8
BLACK
6
CONTINUOUS
10
106.19
20
-107.771
11
106.173
21
-107.747
0
LINE
8
BLACK
6
CONTINUOUS
10
106.173
20
-107.747
11
106.17
21
-107.737
0
LINE
8
BLACK
6
CONTINUOUS
10
106.17
20
-107.737
11
106.165
21
-107.728
0
LINE
8
BLACK
6
CONTINUOUS
10
106.165
20
-107.728
11
106.16
21
-107.699
0
LINE
8
BLACK
6
CONTINUOUS
10
106.16
20
-107.699
11
106.152
21
-107.67
0
LINE
8
BLACK
6
CONTINUOUS
10
106.152
20
-107.67
11
106.155
21
-107.64
0
LINE
8
BLACK
6
CONTINUOUS
10
106.155
20
-107.64
11
106.155
21
-84.8832
0
LINE
8
BLACK
6
CONTINUOUS
10
106.155
20
-84.8832
11
103.4
21
-82.1285
0
LINE
8
BLACK
6
CONTINUOUS
10
103.4
20
-82.1285
11
103.217
21
-82.2342
0
LINE
8
BLACK
6
CONTINUOUS
10
103.217
20
-82.2342
11
102.87
21
-82.2954
0
LINE
8
BLACK
6
CONTINUOUS
10
102.87
20
-82.2954
11
102.523
21
-82.2342
0
LINE
8
BLACK
6
CONTINUOUS
10
102.523
20
-82.2342
11
102.217
21
-82.0579
0
LINE
8
BLACK
6
CONTINUOUS
10
102.217
20
-82.0579
11
101.991
21
-81.7877
0
LINE
8
BLACK
6
CONTINUOUS
10
101.991
20
-81.7877
11
101.87
21
-81.4563
0
LINE
8
BLACK
6
CONTINUOUS
10
101.87
20
-81.4563
11
101.87
21
-81.1037
0
LINE
8
BLACK
6
CONTINUOUS
10
101.87
20
-81.1037
11
101.991
21
-80.7723
0
LINE
8
BLACK
6
CONTINUOUS
10
101.991
20
-80.7723
11
102.217
21
-80.5021
0
LINE
8
BLACK
6
CONTINUOUS
10
102.217
20
-80.5021
11
102.523
21
-80.3258
0
LINE
8
BLACK
6
CONTINUOUS
10
102.523
20
-80.3258
11
102.87
21
-80.2646
0
LINE
8
BLACK
6
CONTINUOUS
10
102.87
20
-80.2646
11
103.217
21
-80.3258
0
LINE
8
BLACK
6
CONTINUOUS
10
127.278
20
-112.267
11
127.522
21
-112.408
0
LINE
8
BLACK
6
CONTINUOUS
10
127.522
20
-112.408
11
127.704
21
-112.624
0
LINE
8
BLACK
6
CONTINUOUS
10
127.704
20
-112.624
11
127.8
21
-112.889
0
LINE
8
BLACK
6
CONTINUOUS
10
127.8
20
-112.889
11
127.8
21
-113.171
0
LINE
8
BLACK
6
CONTINUOUS
10
127.8
20
-113.171
11
127.704
21
-113.436
0
LINE
8
BLACK
6
CONTINUOUS
10
127.704
20
-113.436
11
127.522
21
-113.652
0
LINE
8
BLACK
6
CONTINUOUS
10
127.522
20
-113.652
11
127.278
21
-113.793
0
LINE
8
BLACK
6
CONTINUOUS
10
127.278
20
-113.793
11
127.07
21
-113.83
0
LINE
8
BLACK
6
CONTINUOUS
10
127.07
20
-113.83
11
126.93
21
-113.83
0
LINE
8
BLACK
6
CONTINUOUS
10
126.93
20
-113.83
11
126.722
21
-113.793
0
LINE
8
BLACK
6
CONTINUOUS
10
126.722
20
-113.793
11
126.478
21
-113.652
0
LINE
8
BLACK
6
CONTINUOUS
10
126.478
20
-113.652
11
126.296
21
-113.436
0
LINE
8
BLACK
6
CONTINUOUS
10
126.296
20
-113.436
11
126.2
21
-113.171
0
LINE
8
BLACK
6
CONTINUOUS
10
126.2
20
-113.171
11
126.2
21
-112.889
0
LINE
8
BLACK
6
CONTINUOUS
10
126.2
20
-112.889
11
126.296
21
-112.624
0
LINE
8
BLACK
6
CONTINUOUS
10
126.296
20
-112.624
11
126.478
21
-112.408
0
LINE
8
BLACK
6
CONTINUOUS
10
126.478
20
-112.408
11
126.722
21
-112.267
0
LINE
8
BLACK
6
CONTINUOUS
10
126.722
20
-112.267
11
126.93
21
-112.23
0
LINE
8
BLACK
6
CONTINUOUS
10
126.93
20
-112.23
11
127.07
21
-112.23
0
LINE
8
BLACK
6
CONTINUOUS
10
127.07
20
-112.23
11
127.278
21
-112.267
0
LINE
8
BLACK
6
CONTINUOUS
10
127.278
20
-109.727
11
127.522
21
-109.868
0
LINE
8
BLACK
6
CONTINUOUS
10
127.522
20
-109.868
11
127.704
21
-110.084
0
LINE
8
BLACK
6
CONTINUOUS
10
127.704
20
-110.084
11
127.8
21
-110.349
0
LINE
8
BLACK
6
CONTINUOUS
10
127.8
20
-110.349
11
127.8
21
-110.631
0
LINE
8
BLACK
6
CONTINUOUS
10
127.8
20
-110.631
11
127.704
21
-110.896
0
LINE
8
BLACK
6
CONTINUOUS
10
127.704
20
-110.896
11
127.522
21
-111.112
0
LINE
8
BLACK
6
CONTINUOUS
10
127.522
20
-111.112
11
127.278
21
-111.253
0
LINE
8
BLACK
6
CONTINUOUS
10
127.278
20
-111.253
11
127.07
21
-111.29
0
LINE
8
BLACK
6
CONTINUOUS
10
127.07
20
-111.29
11
126.93
21
-111.29
0
LINE
8
BLACK
6
CONTINUOUS
10
126.93
20
-111.29
11
126.722
21
-111.253
0
LINE
8
BLACK
6
CONTINUOUS
10
126.722
20
-111.253
11
126.478
21
-111.112
0
LINE
8
BLACK
6
CONTINUOUS
10
126.478
20
-111.112
11
126.296
21
-110.896
0
LINE
8
BLACK
6
CONTINUOUS
10
126.296
20
-110.896
11
126.2
21
-110.631
0
LINE
8
BLACK
6
CONTINUOUS
10
126.2
20
-110.631
11
126.2
21
-110.349
0
LINE
8
BLACK
6
CONTINUOUS
10
126.2
20
-110.349
11
126.296
21
-110.084
0
LINE
8
BLACK
6
CONTINUOUS
10
126.296
20
-110.084
11
126.478
21
-109.868
0
LINE
8
BLACK
6
CONTINUOUS
10
126.478
20
-109.868
11
126.722
21
-109.727
0
LINE
8
BLACK
6
CONTINUOUS
10
126.722
20
-109.727
11
126.93
21
-109.69
0
LINE
8
BLACK
6
CONTINUOUS
10
126.93
20
-109.69
11
127.07
21
-109.69
0
LINE
8
BLACK
6
CONTINUOUS
10
127.07
20
-109.69
11
127.278
21
-109.727
0
LINE
8
BLACK
6
CONTINUOUS
10
103.217
20
-77.7858
11
103.523
21
-77.9621
0
LINE
8
BLACK
6
CONTINUOUS
10
103.523
20
-77.9621
11
103.749
21
-78.2323
0
LINE
8
BLACK
6
CONTINUOUS
10
103.749
20
-78.2323
11
103.87
21
-78.5637
0
LINE
8
BLACK
6
CONTINUOUS
10
103.87
20
-78.5637
11
103.87
21
-78.9163
0
LINE
8
BLACK
6
CONTINUOUS
10
103.87
20
-78.9163
11
103.749
21
-79.2477
0
LINE
8
BLACK
6
CONTINUOUS
10
103.749
20
-79.2477
11
103.725
21
-79.2768
0
LINE
8
BLACK
6
CONTINUOUS
10
103.725
20
-79.2768
11
107.282
21
-82.834
0
LINE
8
BLACK
6
CONTINUOUS
10
107.282
20
-82.834
11
107.305
21
-82.8531
0
LINE
8
BLACK
6
CONTINUOUS
10
107.305
20
-82.8531
11
107.32
21
-82.879
0
LINE
8
BLACK
6
CONTINUOUS
10
107.32
20
-82.879
11
107.337
21
-82.9034
0
LINE
8
BLACK
6
CONTINUOUS
10
107.337
20
-82.9034
11
107.34
21
-82.9132
0
LINE
8
BLACK
6
CONTINUOUS
10
107.34
20
-82.9132
11
107.345
21
-82.9219
0
LINE
8
BLACK
6
CONTINUOUS
10
107.345
20
-82.9219
11
107.35
21
-82.9513
0
LINE
8
BLACK
6
CONTINUOUS
10
107.35
20
-82.9513
11
107.358
21
-82.9801
0
LINE
8
BLACK
6
CONTINUOUS
10
107.358
20
-82.9801
11
107.355
21
-83.0098
0
LINE
8
BLACK
6
CONTINUOUS
10
107.355
20
-83.0098
11
107.355
21
-105.767
0
LINE
8
BLACK
6
CONTINUOUS
10
107.355
20
-105.767
11
111.376
21
-109.788
0
LINE
8
BLACK
6
CONTINUOUS
10
111.376
20
-109.788
11
111.482
21
-109.727
0
LINE
8
BLACK
6
CONTINUOUS
10
111.482
20
-109.727
11
111.69
21
-109.69
0
LINE
8
BLACK
6
CONTINUOUS
10
111.69
20
-109.69
11
111.83
21
-109.69
0
LINE
8
BLACK
6
CONTINUOUS
10
111.83
20
-109.69
11
112.038
21
-109.727
0
LINE
8
BLACK
6
CONTINUOUS
10
112.038
20
-109.727
11
112.282
21
-109.868
0
LINE
8
BLACK
6
CONTINUOUS
10
112.282
20
-109.868
11
112.464
21
-110.084
0
LINE
8
BLACK
6
CONTINUOUS
10
112.464
20
-110.084
11
112.56
21
-110.349
0
LINE
8
BLACK
6
CONTINUOUS
10
112.56
20
-110.349
11
112.56
21
-110.631
0
LINE
8
BLACK
6
CONTINUOUS
10
112.56
20
-110.631
11
112.464
21
-110.896
0
LINE
8
BLACK
6
CONTINUOUS
10
112.464
20
-110.896
11
112.282
21
-111.112
0
LINE
8
BLACK
6
CONTINUOUS
10
112.282
20
-111.112
11
112.038
21
-111.253
0
LINE
8
BLACK
6
CONTINUOUS
10
112.038
20
-111.253
11
111.83
21
-111.29
0
LINE
8
BLACK
6
CONTINUOUS
10
111.83
20
-111.29
11
111.69
21
-111.29
0
LINE
8
BLACK
6
CONTINUOUS
10
111.69
20
-111.29
11
111.482
21
-111.253
0
LINE
8
BLACK
6
CONTINUOUS
10
111.482
20
-111.253
11
111.238
21
-111.112
0
LINE
8
BLACK
6
CONTINUOUS
10
111.238
20
-111.112
11
111.056
21
-110.896
0
LINE
8
BLACK
6
CONTINUOUS
10
111.056
20
-110.896
11
110.96
21
-110.631
0
LINE
8
BLACK
6
CONTINUOUS
10
110.96
20
-110.631
11
110.96
21
-110.349
0
LINE
8
BLACK
6
CONTINUOUS
10
110.96
20
-110.349
11
111.051
21
-110.099
0
LINE
8
BLACK
6
CONTINUOUS
10
111.051
20
-110.099
11
106.978
21
-106.026
0
LINE
8
BLACK
6
CONTINUOUS
10
106.978
20
-106.026
11
106.955
21
-106.007
0
LINE
8
BLACK
6
CONTINUOUS
10
106.955
20
-106.007
11
106.94
21
-105.981
0
LINE
8
BLACK
6
CONTINUOUS
10
106.94
20
-105.981
11
106.923
21
-105.957
0
LINE
8
BLACK
6
CONTINUOUS
10
106.923
20
-105.957
11
106.92
21
-105.947
0
LINE
8
BLACK
6
CONTINUOUS
10
106.92
20
-105.947
11
106.915
21
-105.938
0
LINE
8
BLACK
6
CONTINUOUS
10
106.915
20
-105.938
11
106.91
21
-105.909
0
LINE
8
BLACK
6
CONTINUOUS
10
106.91
20
-105.909
11
106.902
21
-105.88
0
LINE
8
BLACK
6
CONTINUOUS
10
106.902
20
-105.88
11
106.905
21
-105.85
0
LINE
8
BLACK
6
CONTINUOUS
10
106.905
20
-105.85
11
106.905
21
-83.0932
0
LINE
8
BLACK
6
CONTINUOUS
10
106.905
20
-83.0932
11
103.4
21
-79.5885
0
LINE
8
BLACK
6
CONTINUOUS
10
103.4
20
-79.5885
11
103.217
21
-79.6942
0
LINE
8
BLACK
6
CONTINUOUS
10
103.217
20
-79.6942
11
102.87
21
-79.7554
0
LINE
8
BLACK
6
CONTINUOUS
10
102.87
20
-79.7554
11
102.523
21
-79.6942
0
LINE
8
BLACK
6
CONTINUOUS
10
102.523
20
-79.6942
11
102.217
21
-79.5179
0
LINE
8
BLACK
6
CONTINUOUS
10
102.217
20
-79.5179
11
101.991
21
-79.2477
0
LINE
8
BLACK
6
CONTINUOUS
10
101.991
20
-79.2477
11
101.87
21
-78.9163
0
LINE
8
BLACK
6
CONTINUOUS
10
101.87
20
-78.9163
11
101.87
21
-78.5637
0
LINE
8
BLACK
6
CONTINUOUS
10
101.87
20
-78.5637
11
101.991
21
-78.2323
0
LINE
8
BLACK
6
CONTINUOUS
10
101.991
20
-78.2323
11
102.217
21
-77.9621
0
LINE
8
BLACK
6
CONTINUOUS
10
102.217
20
-77.9621
11
102.523
21
-77.7858
0
LINE
8
BLACK
6
CONTINUOUS
10
102.523
20
-77.7858
11
102.87
21
-77.7246
0
LINE
8
BLACK
6
CONTINUOUS
10
102.87
20
-77.7246
11
103.217
21
-77.7858
0
LINE
8
BLACK
6
CONTINUOUS
10
127.278
20
-107.187
11
127.522
21
-107.328
0
LINE
8
BLACK
6
CONTINUOUS
10
127.522
20
-107.328
11
127.704
21
-107.544
0
LINE
8
BLACK
6
CONTINUOUS
10
127.704
20
-107.544
11
127.8
21
-107.809
0
LINE
8
BLACK
6
CONTINUOUS
10
127.8
20
-107.809
11
127.8
21
-108.091
0
LINE
8
BLACK
6
CONTINUOUS
10
127.8
20
-108.091
11
127.704
21
-108.356
0
LINE
8
BLACK
6
CONTINUOUS
10
127.704
20
-108.356
11
127.522
21
-108.572
0
LINE
8
BLACK
6
CONTINUOUS
10
127.522
20
-108.572
11
127.278
21
-108.713
0
LINE
8
BLACK
6
CONTINUOUS
10
127.278
20
-108.713
11
127.07
21
-108.75
0
LINE
8
BLACK
6
CONTINUOUS
10
127.07
20
-108.75
11
126.93
21
-108.75
0
LINE
8
BLACK
6
CONTINUOUS
10
126.93
20
-108.75
11
126.722
21
-108.713
0
LINE
8
BLACK
6
CONTINUOUS
10
126.722
20
-108.713
11
126.478
21
-108.572
0
LINE
8
BLACK
6
CONTINUOUS
10
126.478
20
-108.572
11
126.296
21
-108.356
0
LINE
8
BLACK
6
CONTINUOUS
10
126.296
20
-108.356
11
126.2
21
-108.091
0
LINE
8
BLACK
6
CONTINUOUS
10
126.2
20
-108.091
11
126.2
21
-107.809
0
LINE
8
BLACK
6
CONTINUOUS
10
126.2
20
-107.809
11
126.296
21
-107.544
0
LINE
8
BLACK
6
CONTINUOUS
10
126.296
20
-107.544
11
126.478
21
-107.328
0
LINE
8
BLACK
6
CONTINUOUS
10
126.478
20
-107.328
11
126.722
21
-107.187
0
LINE
8
BLACK
6
CONTINUOUS
10
126.722
20
-107.187
11
126.93
21
-107.15
0
LINE
8
BLACK
6
CONTINUOUS
10
126.93
20
-107.15
11
127.07
21
-107.15
0
LINE
8
BLACK
6
CONTINUOUS
10
127.07
20
-107.15
11
127.278
21
-107.187
0
LINE
8
BLACK
6
CONTINUOUS
10
103.217
20
-73.7218
11
103.523
21
-73.8981
0
LINE
8
BLACK
6
CONTINUOUS
10
103.523
20
-73.8981
11
103.749
21
-74.1683
0
LINE
8
BLACK
6
CONTINUOUS
10
103.749
20
-74.1683
11
103.87
21
-74.4997
0
LINE
8
BLACK
6
CONTINUOUS
10
103.87
20
-74.4997
11
103.87
21
-74.8523
0
LINE
8
BLACK
6
CONTINUOUS
10
103.87
20
-74.8523
11
103.749
21
-75.1837
0
LINE
8
BLACK
6
CONTINUOUS
10
103.749
20
-75.1837
11
103.725
21
-75.2128
0
LINE
8
BLACK
6
CONTINUOUS
10
103.725
20
-75.2128
11
104.043
21
-75.5308
0
LINE
8
BLACK
6
CONTINUOUS
10
104.043
20
-75.5308
11
104.043
21
-75.5308
0
LINE
8
BLACK
6
CONTINUOUS
10
104.043
20
-75.5308
11
107.982
21
-79.47
0
LINE
8
BLACK
6
CONTINUOUS
10
107.982
20
-79.47
11
108.005
21
-79.4892
0
LINE
8
BLACK
6
CONTINUOUS
10
108.005
20
-79.4892
11
108.02
21
-79.515
0
LINE
8
BLACK
6
CONTINUOUS
10
108.02
20
-79.515
11
108.037
21
-79.5395
0
LINE
8
BLACK
6
CONTINUOUS
10
108.037
20
-79.5395
11
108.04
21
-79.5492
0
LINE
8
BLACK
6
CONTINUOUS
10
108.04
20
-79.5492
11
108.045
21
-79.5579
0
LINE
8
BLACK
6
CONTINUOUS
10
108.045
20
-79.5579
11
108.05
21
-79.5873
0
LINE
8
BLACK
6
CONTINUOUS
10
108.05
20
-79.5873
11
108.058
21
-79.6161
0
LINE
8
BLACK
6
CONTINUOUS
10
108.058
20
-79.6161
11
108.055
21
-79.6458
0
LINE
8
BLACK
6
CONTINUOUS
10
108.055
20
-79.6458
11
108.055
21
-103.927
0
LINE
8
BLACK
6
CONTINUOUS
10
108.055
20
-103.927
11
111.376
21
-107.248
0
LINE
8
BLACK
6
CONTINUOUS
10
111.376
20
-107.248
11
111.482
21
-107.187
0
LINE
8
BLACK
6
CONTINUOUS
10
111.482
20
-107.187
11
111.69
21
-107.15
0
LINE
8
BLACK
6
CONTINUOUS
10
111.69
20
-107.15
11
111.83
21
-107.15
0
LINE
8
BLACK
6
CONTINUOUS
10
111.83
20
-107.15
11
112.038
21
-107.187
0
LINE
8
BLACK
6
CONTINUOUS
10
112.038
20
-107.187
11
112.282
21
-107.328
0
LINE
8
BLACK
6
CONTINUOUS
10
112.282
20
-107.328
11
112.464
21
-107.544
0
LINE
8
BLACK
6
CONTINUOUS
10
112.464
20
-107.544
11
112.56
21
-107.809
0
LINE
8
BLACK
6
CONTINUOUS
10
112.56
20
-107.809
11
112.56
21
-108.091
0
LINE
8
BLACK
6
CONTINUOUS
10
112.56
20
-108.091
11
112.464
21
-108.356
0
LINE
8
BLACK
6
CONTINUOUS
10
112.464
20
-108.356
11
112.282
21
-108.572
0
LINE
8
BLACK
6
CONTINUOUS
10
112.282
20
-108.572
11
112.038
21
-108.713
0
LINE
8
BLACK
6
CONTINUOUS
10
112.038
20
-108.713
11
111.83
21
-108.75
0
LINE
8
BLACK
6
CONTINUOUS
10
111.83
20
-108.75
11
111.69
21
-108.75
0
LINE
8
BLACK
6
CONTINUOUS
10
111.69
20
-108.75
11
111.482
21
-108.713
0
LINE
8
BLACK
6
CONTINUOUS
10
111.482
20
-108.713
11
111.238
21
-108.572
0
LINE
8
BLACK
6
CONTINUOUS
10
111.238
20
-108.572
11
111.056
21
-108.356
0
LINE
8
BLACK
6
CONTINUOUS
10
111.056
20
-108.356
11
110.96
21
-108.091
0
LINE
8
BLACK
6
CONTINUOUS
10
110.96
20
-108.091
11
110.96
21
-107.809
0
LINE
8
BLACK
6
CONTINUOUS
10
110.96
20
-107.809
11
111.051
21
-107.559
0
LINE
8
BLACK
6
CONTINUOUS
10
111.051
20
-107.559
11
107.678
21
-104.186
0
LINE
8
BLACK
6
CONTINUOUS
10
107.678
20
-104.186
11
107.655
21
-104.167
0
LINE
8
BLACK
6
CONTINUOUS
10
107.655
20
-104.167
11
107.64
21
-104.141
0
LINE
8
BLACK
6
CONTINUOUS
10
107.64
20
-104.141
11
107.623
21
-104.117
0
LINE
8
BLACK
6
CONTINUOUS
10
107.623
20
-104.117
11
107.62
21
-104.107
0
LINE
8
BLACK
6
CONTINUOUS
10
107.62
20
-104.107
11
107.615
21
-104.098
0
LINE
8
BLACK
6
CONTINUOUS
10
107.615
20
-104.098
11
107.61
21
-104.069
0
LINE
8
BLACK
6
CONTINUOUS
10
107.61
20
-104.069
11
107.602
21
-104.04
0
LINE
8
BLACK
6
CONTINUOUS
10
107.602
20
-104.04
11
107.605
21
-104.01
0
LINE
8
BLACK
6
CONTINUOUS
10
107.605
20
-104.01
11
107.605
21
-79.7292
0
LINE
8
BLACK
6
CONTINUOUS
10
107.605
20
-79.7292
11
103.725
21
-75.849
0
LINE
8
BLACK
6
CONTINUOUS
10
103.725
20
-75.849
11
103.725
21
-75.849
0
LINE
8
BLACK
6
CONTINUOUS
10
103.725
20
-75.849
11
103.4
21
-75.5245
0
LINE
8
BLACK
6
CONTINUOUS
10
103.4
20
-75.5245
11
103.217
21
-75.6302
0
LINE
8
BLACK
6
CONTINUOUS
10
103.217
20
-75.6302
11
102.87
21
-75.6914
0
LINE
8
BLACK
6
CONTINUOUS
10
102.87
20
-75.6914
11
102.523
21
-75.6302
0
LINE
8
BLACK
6
CONTINUOUS
10
102.523
20
-75.6302
11
102.217
21
-75.4539
0
LINE
8
BLACK
6
CONTINUOUS
10
102.217
20
-75.4539
11
101.991
21
-75.1837
0
LINE
8
BLACK
6
CONTINUOUS
10
101.991
20
-75.1837
11
101.87
21
-74.8523
0
LINE
8
BLACK
6
CONTINUOUS
10
101.87
20
-74.8523
11
101.87
21
-74.4997
0
LINE
8
BLACK
6
CONTINUOUS
10
101.87
20
-74.4997
11
101.991
21
-74.1683
0
LINE
8
BLACK
6
CONTINUOUS
10
101.991
20
-74.1683
11
102.217
21
-73.8981
0
LINE
8
BLACK
6
CONTINUOUS
10
102.217
20
-73.8981
11
102.523
21
-73.7218
0
LINE
8
BLACK
6
CONTINUOUS
10
102.523
20
-73.7218
11
102.87
21
-73.6606
0
LINE
8
BLACK
6
CONTINUOUS
10
102.87
20
-73.6606
11
103.217
21
-73.7218
0
LINE
8
BLACK
6
CONTINUOUS
10
84.8023
20
-105.7
11
85.1077
21
-105.877
0
LINE
8
BLACK
6
CONTINUOUS
10
85.1077
20
-105.877
11
85.3344
21
-106.147
0
LINE
8
BLACK
6
CONTINUOUS
10
85.3344
20
-106.147
11
85.455
21
-106.478
0
LINE
8
BLACK
6
CONTINUOUS
10
85.455
20
-106.478
11
85.455
21
-106.831
0
LINE
8
BLACK
6
CONTINUOUS
10
85.455
20
-106.831
11
85.3344
21
-107.162
0
LINE
8
BLACK
6
CONTINUOUS
10
85.3344
20
-107.162
11
85.1077
21
-107.432
0
LINE
8
BLACK
6
CONTINUOUS
10
85.1077
20
-107.432
11
84.8023
21
-107.609
0
LINE
8
BLACK
6
CONTINUOUS
10
84.8023
20
-107.609
11
84.455
21
-107.67
0
LINE
8
BLACK
6
CONTINUOUS
10
84.455
20
-107.67
11
84.1077
21
-107.609
0
LINE
8
BLACK
6
CONTINUOUS
10
84.1077
20
-107.609
11
83.8023
21
-107.432
0
LINE
8
BLACK
6
CONTINUOUS
10
83.8023
20
-107.432
11
83.5756
21
-107.162
0
LINE
8
BLACK
6
CONTINUOUS
10
83.5756
20
-107.162
11
83.455
21
-106.831
0
LINE
8
BLACK
6
CONTINUOUS
10
83.455
20
-106.831
11
83.455
21
-106.478
0
LINE
8
BLACK
6
CONTINUOUS
10
83.455
20
-106.478
11
83.5756
21
-106.147
0
LINE
8
BLACK
6
CONTINUOUS
10
83.5756
20
-106.147
11
83.8023
21
-105.877
0
LINE
8
BLACK
6
CONTINUOUS
10
83.8023
20
-105.877
11
84.1077
21
-105.7
0
LINE
8
BLACK
6
CONTINUOUS
10
84.1077
20
-105.7
11
84.455
21
-105.639
0
LINE
8
BLACK
6
CONTINUOUS
10
84.455
20
-105.639
11
84.8023
21
-105.7
0
LINE
8
BLACK
6
CONTINUOUS
10
127.278
20
-104.647
11
127.522
21
-104.788
0
LINE
8
BLACK
6
CONTINUOUS
10
127.522
20
-104.788
11
127.704
21
-105.004
0
LINE
8
BLACK
6
CONTINUOUS
10
127.704
20
-105.004
11
127.8
21
-105.269
0
LINE
8
BLACK
6
CONTINUOUS
10
127.8
20
-105.269
11
127.8
21
-105.551
0
LINE
8
BLACK
6
CONTINUOUS
10
127.8
20
-105.551
11
127.704
21
-105.816
0
LINE
8
BLACK
6
CONTINUOUS
10
127.704
20
-105.816
11
127.522
21
-106.032
0
LINE
8
BLACK
6
CONTINUOUS
10
127.522
20
-106.032
11
127.278
21
-106.173
0
LINE
8
BLACK
6
CONTINUOUS
10
127.278
20
-106.173
11
127.07
21
-106.21
0
LINE
8
BLACK
6
CONTINUOUS
10
127.07
20
-106.21
11
126.93
21
-106.21
0
LINE
8
BLACK
6
CONTINUOUS
10
126.93
20
-106.21
11
126.722
21
-106.173
0
LINE
8
BLACK
6
CONTINUOUS
10
126.722
20
-106.173
11
126.478
21
-106.032
0
LINE
8
BLACK
6
CONTINUOUS
10
126.478
20
-106.032
11
126.296
21
-105.816
0
LINE
8
BLACK
6
CONTINUOUS
10
126.296
20
-105.816
11
126.2
21
-105.551
0
LINE
8
BLACK
6
CONTINUOUS
10
126.2
20
-105.551
11
126.2
21
-105.269
0
LINE
8
BLACK
6
CONTINUOUS
10
126.2
20
-105.269
11
126.296
21
-105.004
0
LINE
8
BLACK
6
CONTINUOUS
10
126.296
20
-105.004
11
126.478
21
-104.788
0
LINE
8
BLACK
6
CONTINUOUS
10
126.478
20
-104.788
11
126.722
21
-104.647
0
LINE
8
BLACK
6
CONTINUOUS
10
126.722
20
-104.647
11
126.93
21
-104.61
0
LINE
8
BLACK
6
CONTINUOUS
10
126.93
20
-104.61
11
127.07
21
-104.61
0
LINE
8
BLACK
6
CONTINUOUS
10
127.07
20
-104.61
11
127.278
21
-104.647
0
LINE
8
BLACK
6
CONTINUOUS
10
112.038
20
-104.647
11
112.282
21
-104.788
0
LINE
8
BLACK
6
CONTINUOUS
10
112.282
20
-104.788
11
112.464
21
-105.004
0
LINE
8
BLACK
6
CONTINUOUS
10
112.464
20
-105.004
11
112.56
21
-105.269
0
LINE
8
BLACK
6
CONTINUOUS
10
112.56
20
-105.269
11
112.56
21
-105.551
0
LINE
8
BLACK
6
CONTINUOUS
10
112.56
20
-105.551
11
112.464
21
-105.816
0
LINE
8
BLACK
6
CONTINUOUS
10
112.464
20
-105.816
11
112.282
21
-106.032
0
LINE
8
BLACK
6
CONTINUOUS
10
112.282
20
-106.032
11
112.038
21
-106.173
0
LINE
8
BLACK
6
CONTINUOUS
10
112.038
20
-106.173
11
111.83
21
-106.21
0
LINE
8
BLACK
6
CONTINUOUS
10
111.83
20
-106.21
11
111.69
21
-106.21
0
LINE
8
BLACK
6
CONTINUOUS
10
111.69
20
-106.21
11
111.482
21
-106.173
0
LINE
8
BLACK
6
CONTINUOUS
10
111.482
20
-106.173
11
111.238
21
-106.032
0
LINE
8
BLACK
6
CONTINUOUS
10
111.238
20
-106.032
11
111.056
21
-105.816
0
LINE
8
BLACK
6
CONTINUOUS
10
111.056
20
-105.816
11
110.96
21
-105.551
0
LINE
8
BLACK
6
CONTINUOUS
10
110.96
20
-105.551
11
110.96
21
-105.269
0
LINE
8
BLACK
6
CONTINUOUS
10
110.96
20
-105.269
11
111.056
21
-105.004
0
LINE
8
BLACK
6
CONTINUOUS
10
111.056
20
-105.004
11
111.238
21
-104.788
0
LINE
8
BLACK
6
CONTINUOUS
10
111.238
20
-104.788
11
111.482
21
-104.647
0
LINE
8
BLACK
6
CONTINUOUS
10
111.482
20
-104.647
11
111.69
21
-104.61
0
LINE
8
BLACK
6
CONTINUOUS
10
111.69
20
-104.61
11
111.83
21
-104.61
0
LINE
8
BLACK
6
CONTINUOUS
10
111.83
20
-104.61
11
112.038
21
-104.647
0
LINE
8
BLACK
6
CONTINUOUS
10
112.038
20
-102.107
11
112.282
21
-102.248
0
LINE
8
BLACK
6
CONTINUOUS
10
112.282
20
-102.248
11
112.464
21
-102.464
0
LINE
8
BLACK
6
CONTINUOUS
10
112.464
20
-102.464
11
112.56
21
-102.729
0
LINE
8
BLACK
6
CONTINUOUS
10
112.56
20
-102.729
11
112.56
21
-103.011
0
LINE
8
BLACK
6
CONTINUOUS
10
112.56
20
-103.011
11
112.464
21
-103.276
0
LINE
8
BLACK
6
CONTINUOUS
10
112.464
20
-103.276
11
112.282
21
-103.492
0
LINE
8
BLACK
6
CONTINUOUS
10
112.282
20
-103.492
11
112.038
21
-103.633
0
LINE
8
BLACK
6
CONTINUOUS
10
112.038
20
-103.633
11
111.83
21
-103.67
0
LINE
8
BLACK
6
CONTINUOUS
10
111.83
20
-103.67
11
111.69
21
-103.67
0
LINE
8
BLACK
6
CONTINUOUS
10
111.69
20
-103.67
11
111.482
21
-103.633
0
LINE
8
BLACK
6
CONTINUOUS
10
111.482
20
-103.633
11
111.238
21
-103.492
0
LINE
8
BLACK
6
CONTINUOUS
10
111.238
20
-103.492
11
111.056
21
-103.276
0
LINE
8
BLACK
6
CONTINUOUS
10
111.056
20
-103.276
11
110.96
21
-103.011
0
LINE
8
BLACK
6
CONTINUOUS
10
110.96
20
-103.011
11
110.96
21
-102.729
0
LINE
8
BLACK
6
CONTINUOUS
10
110.96
20
-102.729
11
111.056
21
-102.464
0
LINE
8
BLACK
6
CONTINUOUS
10
111.056
20
-102.464
11
111.238
21
-102.248
0
LINE
8
BLACK
6
CONTINUOUS
10
111.238
20
-102.248
11
111.482
21
-102.107
0
LINE
8
BLACK
6
CONTINUOUS
10
111.482
20
-102.107
11
111.69
21
-102.07
0
LINE
8
BLACK
6
CONTINUOUS
10
111.69
20
-102.07
11
111.83
21
-102.07
0
LINE
8
BLACK
6
CONTINUOUS
10
111.83
20
-102.07
11
112.038
21
-102.107
0
LINE
8
BLACK
6
CONTINUOUS
10
85.3344
20
-51.5617
11
85.1077
21
-51.8319
0
LINE
8
BLACK
6
CONTINUOUS
10
85.1077
20
-51.8319
11
84.8023
21
-52.0082
0
LINE
8
BLACK
6
CONTINUOUS
10
84.8023
20
-52.0082
11
84.455
21
-52.0694
0
LINE
8
BLACK
6
CONTINUOUS
10
84.455
20
-52.0694
11
84.1077
21
-52.0082
0
LINE
8
BLACK
6
CONTINUOUS
10
84.1077
20
-52.0082
11
83.8023
21
-51.8319
0
LINE
8
BLACK
6
CONTINUOUS
10
83.8023
20
-51.8319
11
83.5756
21
-51.5617
0
LINE
8
BLACK
6
CONTINUOUS
10
83.5756
20
-51.5617
11
83.455
21
-51.2303
0
LINE
8
BLACK
6
CONTINUOUS
10
83.455
20
-51.2303
11
83.455
21
-50.8777
0
LINE
8
BLACK
6
CONTINUOUS
10
83.455
20
-50.8777
11
83.5756
21
-50.5463
0
LINE
8
BLACK
6
CONTINUOUS
10
83.5756
20
-50.5463
11
83.8023
21
-50.2761
0
LINE
8
BLACK
6
CONTINUOUS
10
83.8023
20
-50.2761
11
84.1077
21
-50.0998
0
LINE
8
BLACK
6
CONTINUOUS
10
84.1077
20
-50.0998
11
84.455
21
-50.0386
0
LINE
8
BLACK
6
CONTINUOUS
10
84.455
20
-50.0386
11
84.8023
21
-50.0998
0
LINE
8
BLACK
6
CONTINUOUS
10
84.8023
20
-50.0998
11
85.1077
21
-50.2761
0
LINE
8
BLACK
6
CONTINUOUS
10
85.1077
20
-50.2761
11
85.3344
21
-50.5463
0
LINE
8
BLACK
6
CONTINUOUS
10
85.3344
20
-50.5463
11
85.4373
21
-50.829
0
LINE
8
BLACK
6
CONTINUOUS
10
85.4373
20
-50.829
11
98.3019
21
-50.829
0
LINE
8
BLACK
6
CONTINUOUS
10
98.3019
20
-50.829
11
117.8
21
-31.3311
0
LINE
8
BLACK
6
CONTINUOUS
10
117.8
20
-31.3311
11
117.819
21
-31.3083
0
LINE
8
BLACK
6
CONTINUOUS
10
117.819
20
-31.3083
11
117.845
21
-31.2934
0
LINE
8
BLACK
6
CONTINUOUS
10
117.845
20
-31.2934
11
117.869
21
-31.2762
0
LINE
8
BLACK
6
CONTINUOUS
10
117.869
20
-31.2762
11
117.879
21
-31.2736
0
LINE
8
BLACK
6
CONTINUOUS
10
117.879
20
-31.2736
11
117.888
21
-31.2686
0
LINE
8
BLACK
6
CONTINUOUS
10
117.888
20
-31.2686
11
117.917
21
-31.2634
0
LINE
8
BLACK
6
CONTINUOUS
10
117.917
20
-31.2634
11
117.946
21
-31.2557
0
LINE
8
BLACK
6
CONTINUOUS
10
117.946
20
-31.2557
11
117.976
21
-31.2583
0
LINE
8
BLACK
6
CONTINUOUS
10
117.976
20
-31.2583
11
118.398
21
-31.2583
0
LINE
8
BLACK
6
CONTINUOUS
10
118.398
20
-31.2583
11
118.501
21
-30.9756
0
LINE
8
BLACK
6
CONTINUOUS
10
118.501
20
-30.9756
11
118.727
21
-30.7054
0
LINE
8
BLACK
6
CONTINUOUS
10
118.727
20
-30.7054
11
119.033
21
-30.5291
0
LINE
8
BLACK
6
CONTINUOUS
10
119.033
20
-30.5291
11
119.38
21
-30.4679
0
LINE
8
BLACK
6
CONTINUOUS
10
119.38
20
-30.4679
11
119.727
21
-30.5291
0
LINE
8
BLACK
6
CONTINUOUS
10
119.727
20
-30.5291
11
120.033
21
-30.7054
0
LINE
8
BLACK
6
CONTINUOUS
10
120.033
20
-30.7054
11
120.259
21
-30.9756
0
LINE
8
BLACK
6
CONTINUOUS
10
120.259
20
-30.9756
11
120.362
21
-31.2583
0
LINE
8
BLACK
6
CONTINUOUS
10
120.362
20
-31.2583
11
120.784
21
-31.2583
0
LINE
8
BLACK
6
CONTINUOUS
10
120.784
20
-31.2583
11
120.814
21
-31.2557
0
LINE
8
BLACK
6
CONTINUOUS
10
120.814
20
-31.2557
11
120.843
21
-31.2634
0
LINE
8
BLACK
6
CONTINUOUS
10
120.843
20
-31.2634
11
120.872
21
-31.2686
0
LINE
8
BLACK
6
CONTINUOUS
10
120.872
20
-31.2686
11
120.881
21
-31.2736
0
LINE
8
BLACK
6
CONTINUOUS
10
120.881
20
-31.2736
11
120.891
21
-31.2762
0
LINE
8
BLACK
6
CONTINUOUS
10
120.891
20
-31.2762
11
120.915
21
-31.2934
0
LINE
8
BLACK
6
CONTINUOUS
10
120.915
20
-31.2934
11
120.941
21
-31.3083
0
LINE
8
BLACK
6
CONTINUOUS
10
120.941
20
-31.3083
11
120.96
21
-31.3311
0
LINE
8
BLACK
6
CONTINUOUS
10
120.96
20
-31.3311
11
122.282
21
-32.6531
0
LINE
8
BLACK
6
CONTINUOUS
10
122.282
20
-32.6531
11
122.305
21
-32.6722
0
LINE
8
BLACK
6
CONTINUOUS
10
122.305
20
-32.6722
11
122.32
21
-32.6981
0
LINE
8
BLACK
6
CONTINUOUS
10
122.32
20
-32.6981
11
122.337
21
-32.7225
0
LINE
8
BLACK
6
CONTINUOUS
10
122.337
20
-32.7225
11
122.34
21
-32.7322
0
LINE
8
BLACK
6
CONTINUOUS
10
122.34
20
-32.7322
11
122.345
21
-32.7409
0
LINE
8
BLACK
6
CONTINUOUS
10
122.345
20
-32.7409
11
122.35
21
-32.7703
0
LINE
8
BLACK
6
CONTINUOUS
10
122.35
20
-32.7703
11
122.358
21
-32.7992
0
LINE
8
BLACK
6
CONTINUOUS
10
122.358
20
-32.7992
11
122.355
21
-32.8289
0
LINE
8
BLACK
6
CONTINUOUS
10
122.355
20
-32.8289
11
122.355
21
-97.9068
0
LINE
8
BLACK
6
CONTINUOUS
10
122.355
20
-97.9068
11
126.616
21
-102.168
0
LINE
8
BLACK
6
CONTINUOUS
10
126.616
20
-102.168
11
126.722
21
-102.107
0
LINE
8
BLACK
6
CONTINUOUS
10
126.722
20
-102.107
11
126.93
21
-102.07
0
LINE
8
BLACK
6
CONTINUOUS
10
126.93
20
-102.07
11
127.07
21
-102.07
0
LINE
8
BLACK
6
CONTINUOUS
10
127.07
20
-102.07
11
127.278
21
-102.107
0
LINE
8
BLACK
6
CONTINUOUS
10
127.278
20
-102.107
11
127.522
21
-102.248
0
LINE
8
BLACK
6
CONTINUOUS
10
127.522
20
-102.248
11
127.704
21
-102.464
0
LINE
8
BLACK
6
CONTINUOUS
10
127.704
20
-102.464
11
127.8
21
-102.729
0
LINE
8
BLACK
6
CONTINUOUS
10
127.8
20
-102.729
11
127.8
21
-103.011
0
LINE
8
BLACK
6
CONTINUOUS
10
127.8
20
-103.011
11
127.704
21
-103.276
0
LINE
8
BLACK
6
CONTINUOUS
10
127.704
20
-103.276
11
127.522
21
-103.492
0
LINE
8
BLACK
6
CONTINUOUS
10
127.522
20
-103.492
11
127.278
21
-103.633
0
LINE
8
BLACK
6
CONTINUOUS
10
127.278
20
-103.633
11
127.07
21
-103.67
0
LINE
8
BLACK
6
CONTINUOUS
10
127.07
20
-103.67
11
126.93
21
-103.67
0
LINE
8
BLACK
6
CONTINUOUS
10
126.93
20
-103.67
11
126.722
21
-103.633
0
LINE
8
BLACK
6
CONTINUOUS
10
126.722
20
-103.633
11
126.478
21
-103.492
0
LINE
8
BLACK
6
CONTINUOUS
10
126.478
20
-103.492
11
126.296
21
-103.276
0
LINE
8
BLACK
6
CONTINUOUS
10
126.296
20
-103.276
11
126.2
21
-103.011
0
LINE
8
BLACK
6
CONTINUOUS
10
126.2
20
-103.011
11
126.2
21
-102.729
0
LINE
8
BLACK
6
CONTINUOUS
10
126.2
20
-102.729
11
126.291
21
-102.479
0
LINE
8
BLACK
6
CONTINUOUS
10
126.291
20
-102.479
11
121.978
21
-98.166
0
LINE
8
BLACK
6
CONTINUOUS
10
121.978
20
-98.166
11
121.955
21
-98.1469
0
LINE
8
BLACK
6
CONTINUOUS
10
121.955
20
-98.1469
11
121.94
21
-98.121
0
LINE
8
BLACK
6
CONTINUOUS
10
121.94
20
-98.121
11
121.923
21
-98.0966
0
LINE
8
BLACK
6
CONTINUOUS
10
121.923
20
-98.0966
11
121.92
21
-98.0868
0
LINE
8
BLACK
6
CONTINUOUS
10
121.92
20
-98.0868
11
121.915
21
-98.0781
0
LINE
8
BLACK
6
CONTINUOUS
10
121.915
20
-98.0781
11
121.91
21
-98.0487
0
LINE
8
BLACK
6
CONTINUOUS
10
121.91
20
-98.0487
11
121.902
21
-98.0199
0
LINE
8
BLACK
6
CONTINUOUS
10
121.902
20
-98.0199
11
121.905
21
-97.9902
0
LINE
8
BLACK
6
CONTINUOUS
10
121.905
20
-97.9902
11
121.905
21
-32.9123
0
LINE
8
BLACK
6
CONTINUOUS
10
121.905
20
-32.9123
11
120.701
21
-31.7083
0
LINE
8
BLACK
6
CONTINUOUS
10
120.701
20
-31.7083
11
120.362
21
-31.7083
0
LINE
8
BLACK
6
CONTINUOUS
10
120.362
20
-31.7083
11
120.259
21
-31.991
0
LINE
8
BLACK
6
CONTINUOUS
10
120.259
20
-31.991
11
120.033
21
-32.2612
0
LINE
8
BLACK
6
CONTINUOUS
10
120.033
20
-32.2612
11
119.727
21
-32.4375
0
LINE
8
BLACK
6
CONTINUOUS
10
119.727
20
-32.4375
11
119.38
21
-32.4987
0
LINE
8
BLACK
6
CONTINUOUS
10
119.38
20
-32.4987
11
119.033
21
-32.4375
0
LINE
8
BLACK
6
CONTINUOUS
10
119.033
20
-32.4375
11
118.727
21
-32.2612
0
LINE
8
BLACK
6
CONTINUOUS
10
118.727
20
-32.2612
11
118.501
21
-31.991
0
LINE
8
BLACK
6
CONTINUOUS
10
118.501
20
-31.991
11
118.398
21
-31.7083
0
LINE
8
BLACK
6
CONTINUOUS
10
118.398
20
-31.7083
11
118.059
21
-31.7083
0
LINE
8
BLACK
6
CONTINUOUS
10
118.059
20
-31.7083
11
98.5611
21
-51.2062
0
LINE
8
BLACK
6
CONTINUOUS
10
98.5611
20
-51.2062
11
98.5419
21
-51.229
0
LINE
8
BLACK
6
CONTINUOUS
10
98.5419
20
-51.229
11
98.5161
21
-51.2439
0
LINE
8
BLACK
6
CONTINUOUS
10
98.5161
20
-51.2439
11
98.4916
21
-51.2611
0
LINE
8
BLACK
6
CONTINUOUS
10
98.4916
20
-51.2611
11
98.4819
21
-51.2637
0
LINE
8
BLACK
6
CONTINUOUS
10
98.4819
20
-51.2637
11
98.4732
21
-51.2687
0
LINE
8
BLACK
6
CONTINUOUS
10
98.4732
20
-51.2687
11
98.4438
21
-51.2739
0
LINE
8
BLACK
6
CONTINUOUS
10
98.4438
20
-51.2739
11
98.415
21
-51.2816
0
LINE
8
BLACK
6
CONTINUOUS
10
98.415
20
-51.2816
11
98.3853
21
-51.279
0
LINE
8
BLACK
6
CONTINUOUS
10
98.3853
20
-51.279
11
85.4373
21
-51.279
0
LINE
8
BLACK
6
CONTINUOUS
10
85.4373
20
-51.279
11
85.3344
21
-51.5617
0
LINE
8
BLACK
6
CONTINUOUS
10
84.8023
20
-101.154
11
85.1077
21
-101.33
0
LINE
8
BLACK
6
CONTINUOUS
10
85.1077
20
-101.33
11
85.3344
21
-101.6
0
LINE
8
BLACK
6
CONTINUOUS
10
85.3344
20
-101.6
11
85.455
21
-101.932
0
LINE
8
BLACK
6
CONTINUOUS
10
85.455
20
-101.932
11
85.455
21
-102.284
0
LINE
8
BLACK
6
CONTINUOUS
10
85.455
20
-102.284
11
85.3344
21
-102.616
0
LINE
8
BLACK
6
CONTINUOUS
10
85.3344
20
-102.616
11
85.1077
21
-102.886
0
LINE
8
BLACK
6
CONTINUOUS
10
85.1077
20
-102.886
11
84.8023
21
-103.062
0
LINE
8
BLACK
6
CONTINUOUS
10
84.8023
20
-103.062
11
84.455
21
-103.123
0
LINE
8
BLACK
6
CONTINUOUS
10
84.455
20
-103.123
11
84.1077
21
-103.062
0
LINE
8
BLACK
6
CONTINUOUS
10
84.1077
20
-103.062
11
83.8023
21
-102.886
0
LINE
8
BLACK
6
CONTINUOUS
10
83.8023
20
-102.886
11
83.5756
21
-102.616
0
LINE
8
BLACK
6
CONTINUOUS
10
83.5756
20
-102.616
11
83.455
21
-102.284
0
LINE
8
BLACK
6
CONTINUOUS
10
83.455
20
-102.284
11
83.455
21
-101.932
0
LINE
8
BLACK
6
CONTINUOUS
10
83.455
20
-101.932
11
83.5756
21
-101.6
0
LINE
8
BLACK
6
CONTINUOUS
10
83.5756
20
-101.6
11
83.8023
21
-101.33
0
LINE
8
BLACK
6
CONTINUOUS
10
83.8023
20
-101.33
11
84.1077
21
-101.154
0
LINE
8
BLACK
6
CONTINUOUS
10
84.1077
20
-101.154
11
84.455
21
-101.093
0
LINE
8
BLACK
6
CONTINUOUS
10
84.455
20
-101.093
11
84.8023
21
-101.154
0
LINE
8
BLACK
6
CONTINUOUS
10
103.217
20
-100.646
11
103.523
21
-100.822
0
LINE
8
BLACK
6
CONTINUOUS
10
103.523
20
-100.822
11
103.749
21
-101.092
0
LINE
8
BLACK
6
CONTINUOUS
10
103.749
20
-101.092
11
103.87
21
-101.424
0
LINE
8
BLACK
6
CONTINUOUS
10
103.87
20
-101.424
11
103.87
21
-101.776
0
LINE
8
BLACK
6
CONTINUOUS
10
103.87
20
-101.776
11
103.749
21
-102.108
0
LINE
8
BLACK
6
CONTINUOUS
10
103.749
20
-102.108
11
103.523
21
-102.378
0
LINE
8
BLACK
6
CONTINUOUS
10
103.523
20
-102.378
11
103.217
21
-102.554
0
LINE
8
BLACK
6
CONTINUOUS
10
103.217
20
-102.554
11
102.87
21
-102.615
0
LINE
8
BLACK
6
CONTINUOUS
10
102.87
20
-102.615
11
102.523
21
-102.554
0
LINE
8
BLACK
6
CONTINUOUS
10
102.523
20
-102.554
11
102.217
21
-102.378
0
LINE
8
BLACK
6
CONTINUOUS
10
102.217
20
-102.378
11
101.991
21
-102.108
0
LINE
8
BLACK
6
CONTINUOUS
10
101.991
20
-102.108
11
101.87
21
-101.776
0
LINE
8
BLACK
6
CONTINUOUS
10
101.87
20
-101.776
11
101.87
21
-101.424
0
LINE
8
BLACK
6
CONTINUOUS
10
101.87
20
-101.424
11
101.991
21
-101.092
0
LINE
8
BLACK
6
CONTINUOUS
10
101.991
20
-101.092
11
102.217
21
-100.822
0
LINE
8
BLACK
6
CONTINUOUS
10
102.217
20
-100.822
11
102.523
21
-100.646
0
LINE
8
BLACK
6
CONTINUOUS
10
102.523
20
-100.646
11
102.87
21
-100.585
0
LINE
8
BLACK
6
CONTINUOUS
10
102.87
20
-100.585
11
103.217
21
-100.646
0
LINE
8
BLACK
6
CONTINUOUS
10
112.038
20
-99.5666
11
112.282
21
-99.7077
0
LINE
8
BLACK
6
CONTINUOUS
10
112.282
20
-99.7077
11
112.464
21
-99.9238
0
LINE
8
BLACK
6
CONTINUOUS
10
112.464
20
-99.9238
11
112.56
21
-100.189
0
LINE
8
BLACK
6
CONTINUOUS
10
112.56
20
-100.189
11
112.56
21
-100.471
0
LINE
8
BLACK
6
CONTINUOUS
10
112.56
20
-100.471
11
112.464
21
-100.736
0
LINE
8
BLACK
6
CONTINUOUS
10
112.464
20
-100.736
11
112.282
21
-100.952
0
LINE
8
BLACK
6
CONTINUOUS
10
112.282
20
-100.952
11
112.038
21
-101.093
0
LINE
8
BLACK
6
CONTINUOUS
10
112.038
20
-101.093
11
111.83
21
-101.13
0
LINE
8
BLACK
6
CONTINUOUS
10
111.83
20
-101.13
11
111.69
21
-101.13
0
LINE
8
BLACK
6
CONTINUOUS
10
111.69
20
-101.13
11
111.482
21
-101.093
0
LINE
8
BLACK
6
CONTINUOUS
10
111.482
20
-101.093
11
111.238
21
-100.952
0
LINE
8
BLACK
6
CONTINUOUS
10
111.238
20
-100.952
11
111.056
21
-100.736
0
LINE
8
BLACK
6
CONTINUOUS
10
111.056
20
-100.736
11
110.96
21
-100.471
0
LINE
8
BLACK
6
CONTINUOUS
10
110.96
20
-100.471
11
110.96
21
-100.189
0
LINE
8
BLACK
6
CONTINUOUS
10
110.96
20
-100.189
11
111.056
21
-99.9238
0
LINE
8
BLACK
6
CONTINUOUS
10
111.056
20
-99.9238
11
111.238
21
-99.7077
0
LINE
8
BLACK
6
CONTINUOUS
10
111.238
20
-99.7077
11
111.482
21
-99.5666
0
LINE
8
BLACK
6
CONTINUOUS
10
111.482
20
-99.5666
11
111.69
21
-99.53
0
LINE
8
BLACK
6
CONTINUOUS
10
111.69
20
-99.53
11
111.83
21
-99.53
0
LINE
8
BLACK
6
CONTINUOUS
10
111.83
20
-99.53
11
112.038
21
-99.5666
0
LINE
8
BLACK
6
CONTINUOUS
10
119.727
20
-27.9891
11
120.033
21
-28.1654
0
LINE
8
BLACK
6
CONTINUOUS
10
120.033
20
-28.1654
11
120.259
21
-28.4356
0
LINE
8
BLACK
6
CONTINUOUS
10
120.259
20
-28.4356
11
120.38
21
-28.767
0
LINE
8
BLACK
6
CONTINUOUS
10
120.38
20
-28.767
11
120.38
21
-29.1196
0
LINE
8
BLACK
6
CONTINUOUS
10
120.38
20
-29.1196
11
120.259
21
-29.451
0
LINE
8
BLACK
6
CONTINUOUS
10
120.259
20
-29.451
11
120.235
21
-29.4801
0
LINE
8
BLACK
6
CONTINUOUS
10
120.235
20
-29.4801
11
123.032
21
-32.2773
0
LINE
8
BLACK
6
CONTINUOUS
10
123.032
20
-32.2773
11
123.055
21
-32.2964
0
LINE
8
BLACK
6
CONTINUOUS
10
123.055
20
-32.2964
11
123.07
21
-32.3223
0
LINE
8
BLACK
6
CONTINUOUS
10
123.07
20
-32.3223
11
123.087
21
-32.3467
0
LINE
8
BLACK
6
CONTINUOUS
10
123.087
20
-32.3467
11
123.09
21
-32.3565
0
LINE
8
BLACK
6
CONTINUOUS
10
123.09
20
-32.3565
11
123.095
21
-32.3652
0
LINE
8
BLACK
6
CONTINUOUS
10
123.095
20
-32.3652
11
123.1
21
-32.3946
0
LINE
8
BLACK
6
CONTINUOUS
10
123.1
20
-32.3946
11
123.108
21
-32.4234
0
LINE
8
BLACK
6
CONTINUOUS
10
123.108
20
-32.4234
11
123.105
21
-32.4531
0
LINE
8
BLACK
6
CONTINUOUS
10
123.105
20
-32.4531
11
123.105
21
-96.1168
0
LINE
8
BLACK
6
CONTINUOUS
10
123.105
20
-96.1168
11
126.616
21
-99.6279
0
LINE
8
BLACK
6
CONTINUOUS
10
126.616
20
-99.6279
11
126.722
21
-99.5666
0
LINE
8
BLACK
6
CONTINUOUS
10
126.722
20
-99.5666
11
126.93
21
-99.53
0
LINE
8
BLACK
6
CONTINUOUS
10
126.93
20
-99.53
11
127.07
21
-99.53
0
LINE
8
BLACK
6
CONTINUOUS
10
127.07
20
-99.53
11
127.278
21
-99.5666
0
LINE
8
BLACK
6
CONTINUOUS
10
127.278
20
-99.5666
11
127.522
21
-99.7077
0
LINE
8
BLACK
6
CONTINUOUS
10
127.522
20
-99.7077
11
127.704
21
-99.9238
0
LINE
8
BLACK
6
CONTINUOUS
10
127.704
20
-99.9238
11
127.8
21
-100.189
0
LINE
8
BLACK
6
CONTINUOUS
10
127.8
20
-100.189
11
127.8
21
-100.471
0
LINE
8
BLACK
6
CONTINUOUS
10
127.8
20
-100.471
11
127.704
21
-100.736
0
LINE
8
BLACK
6
CONTINUOUS
10
127.704
20
-100.736
11
127.522
21
-100.952
0
LINE
8
BLACK
6
CONTINUOUS
10
127.522
20
-100.952
11
127.278
21
-101.093
0
LINE
8
BLACK
6
CONTINUOUS
10
127.278
20
-101.093
11
127.07
21
-101.13
0
LINE
8
BLACK
6
CONTINUOUS
10
127.07
20
-101.13
11
126.93
21
-101.13
0
LINE
8
BLACK
6
CONTINUOUS
10
126.93
20
-101.13
11
126.722
21
-101.093
0
LINE
8
BLACK
6
CONTINUOUS
10
126.722
20
-101.093
11
126.478
21
-100.952
0
LINE
8
BLACK
6
CONTINUOUS
10
126.478
20
-100.952
11
126.296
21
-100.736
0
LINE
8
BLACK
6
CONTINUOUS
10
126.296
20
-100.736
11
126.2
21
-100.471
0
LINE
8
BLACK
6
CONTINUOUS
10
126.2
20
-100.471
11
126.2
21
-100.189
0
LINE
8
BLACK
6
CONTINUOUS
10
126.2
20
-100.189
11
126.291
21
-99.9391
0
LINE
8
BLACK
6
CONTINUOUS
10
126.291
20
-99.9391
11
122.728
21
-96.376
0
LINE
8
BLACK
6
CONTINUOUS
10
122.728
20
-96.376
11
122.705
21
-96.3569
0
LINE
8
BLACK
6
CONTINUOUS
10
122.705
20
-96.3569
11
122.69
21
-96.331
0
LINE
8
BLACK
6
CONTINUOUS
10
122.69
20
-96.331
11
122.673
21
-96.3066
0
LINE
8
BLACK
6
CONTINUOUS
10
122.673
20
-96.3066
11
122.67
21
-96.2968
0
LINE
8
BLACK
6
CONTINUOUS
10
122.67
20
-96.2968
11
122.665
21
-96.2881
0
LINE
8
BLACK
6
CONTINUOUS
10
122.665
20
-96.2881
11
122.66
21
-96.2587
0
LINE
8
BLACK
6
CONTINUOUS
10
122.66
20
-96.2587
11
122.652
21
-96.2299
0
LINE
8
BLACK
6
CONTINUOUS
10
122.652
20
-96.2299
11
122.655
21
-96.2002
0
LINE
8
BLACK
6
CONTINUOUS
10
122.655
20
-96.2002
11
122.655
21
-32.5365
0
LINE
8
BLACK
6
CONTINUOUS
10
122.655
20
-32.5365
11
119.91
21
-29.7918
0
LINE
8
BLACK
6
CONTINUOUS
10
119.91
20
-29.7918
11
119.727
21
-29.8975
0
LINE
8
BLACK
6
CONTINUOUS
10
119.727
20
-29.8975
11
119.38
21
-29.9587
0
LINE
8
BLACK
6
CONTINUOUS
10
119.38
20
-29.9587
11
119.033
21
-29.8975
0
LINE
8
BLACK
6
CONTINUOUS
10
119.033
20
-29.8975
11
118.727
21
-29.7212
0
LINE
8
BLACK
6
CONTINUOUS
10
118.727
20
-29.7212
11
118.501
21
-29.451
0
LINE
8
BLACK
6
CONTINUOUS
10
118.501
20
-29.451
11
118.398
21
-29.1683
0
LINE
8
BLACK
6
CONTINUOUS
10
118.398
20
-29.1683
11
113.28
21
-29.1683
0
LINE
8
BLACK
6
CONTINUOUS
10
113.28
20
-29.1683
11
95.2044
21
-47.2438
0
LINE
8
BLACK
6
CONTINUOUS
10
95.2044
20
-47.2438
11
95.1853
21
-47.2666
0
LINE
8
BLACK
6
CONTINUOUS
10
95.1853
20
-47.2666
11
95.1594
21
-47.2815
0
LINE
8
BLACK
6
CONTINUOUS
10
95.1594
20
-47.2815
11
95.135
21
-47.2987
0
LINE
8
BLACK
6
CONTINUOUS
10
95.135
20
-47.2987
11
95.1252
21
-47.3013
0
LINE
8
BLACK
6
CONTINUOUS
10
95.1252
20
-47.3013
11
95.1165
21
-47.3063
0
LINE
8
BLACK
6
CONTINUOUS
10
95.1165
20
-47.3063
11
95.0871
21
-47.3115
0
LINE
8
BLACK
6
CONTINUOUS
10
95.0871
20
-47.3115
11
95.0583
21
-47.3192
0
LINE
8
BLACK
6
CONTINUOUS
10
95.0583
20
-47.3192
11
95.0286
21
-47.3166
0
LINE
8
BLACK
6
CONTINUOUS
10
95.0286
20
-47.3166
11
85.4373
21
-47.3166
0
LINE
8
BLACK
6
CONTINUOUS
10
85.4373
20
-47.3166
11
85.3344
21
-47.5993
0
LINE
8
BLACK
6
CONTINUOUS
10
85.3344
20
-47.5993
11
85.1077
21
-47.8695
0
LINE
8
BLACK
6
CONTINUOUS
10
85.1077
20
-47.8695
11
84.8023
21
-48.0458
0
LINE
8
BLACK
6
CONTINUOUS
10
84.8023
20
-48.0458
11
84.455
21
-48.107
0
LINE
8
BLACK
6
CONTINUOUS
10
84.455
20
-48.107
11
84.1077
21
-48.0458
0
LINE
8
BLACK
6
CONTINUOUS
10
84.1077
20
-48.0458
11
83.8023
21
-47.8695
0
LINE
8
BLACK
6
CONTINUOUS
10
83.8023
20
-47.8695
11
83.5756
21
-47.5993
0
LINE
8
BLACK
6
CONTINUOUS
10
83.5756
20
-47.5993
11
83.455
21
-47.2679
0
LINE
8
BLACK
6
CONTINUOUS
10
83.455
20
-47.2679
11
83.455
21
-46.9153
0
LINE
8
BLACK
6
CONTINUOUS
10
83.455
20
-46.9153
11
83.5756
21
-46.5839
0
LINE
8
BLACK
6
CONTINUOUS
10
83.5756
20
-46.5839
11
83.8023
21
-46.3137
0
LINE
8
BLACK
6
CONTINUOUS
10
83.8023
20
-46.3137
11
84.1077
21
-46.1374
0
LINE
8
BLACK
6
CONTINUOUS
10
84.1077
20
-46.1374
11
84.455
21
-46.0762
0
LINE
8
BLACK
6
CONTINUOUS
10
84.455
20
-46.0762
11
84.8023
21
-46.1374
0
LINE
8
BLACK
6
CONTINUOUS
10
84.8023
20
-46.1374
11
85.1077
21
-46.3137
0
LINE
8
BLACK
6
CONTINUOUS
10
85.1077
20
-46.3137
11
85.3344
21
-46.5839
0
LINE
8
BLACK
6
CONTINUOUS
10
85.3344
20
-46.5839
11
85.4373
21
-46.8666
0
LINE
8
BLACK
6
CONTINUOUS
10
85.4373
20
-46.8666
11
94.9452
21
-46.8666
0
LINE
8
BLACK
6
CONTINUOUS
10
94.9452
20
-46.8666
11
113.021
21
-28.7911
0
LINE
8
BLACK
6
CONTINUOUS
10
113.021
20
-28.7911
11
113.04
21
-28.7683
0
LINE
8
BLACK
6
CONTINUOUS
10
113.04
20
-28.7683
11
113.066
21
-28.7534
0
LINE
8
BLACK
6
CONTINUOUS
10
113.066
20
-28.7534
11
113.09
21
-28.7362
0
LINE
8
BLACK
6
CONTINUOUS
10
113.09
20
-28.7362
11
113.1
21
-28.7336
0
LINE
8
BLACK
6
CONTINUOUS
10
113.1
20
-28.7336
11
113.109
21
-28.7286
0
LINE
8
BLACK
6
CONTINUOUS
10
113.109
20
-28.7286
11
113.138
21
-28.7234
0
LINE
8
BLACK
6
CONTINUOUS
10
113.138
20
-28.7234
11
113.167
21
-28.7157
0
LINE
8
BLACK
6
CONTINUOUS
10
113.167
20
-28.7157
11
113.197
21
-28.7183
0
LINE
8
BLACK
6
CONTINUOUS
10
113.197
20
-28.7183
11
118.398
21
-28.7183
0
LINE
8
BLACK
6
CONTINUOUS
10
118.398
20
-28.7183
11
118.501
21
-28.4356
0
LINE
8
BLACK
6
CONTINUOUS
10
118.501
20
-28.4356
11
118.727
21
-28.1654
0
LINE
8
BLACK
6
CONTINUOUS
10
118.727
20
-28.1654
11
119.033
21
-27.9891
0
LINE
8
BLACK
6
CONTINUOUS
10
119.033
20
-27.9891
11
119.38
21
-27.9279
0
LINE
8
BLACK
6
CONTINUOUS
10
119.38
20
-27.9279
11
119.727
21
-27.9891
0
LINE
8
BLACK
6
CONTINUOUS
10
103.217
20
-98.1058
11
103.523
21
-98.2821
0
LINE
8
BLACK
6
CONTINUOUS
10
103.523
20
-98.2821
11
103.749
21
-98.5523
0
LINE
8
BLACK
6
CONTINUOUS
10
103.749
20
-98.5523
11
103.87
21
-98.8837
0
LINE
8
BLACK
6
CONTINUOUS
10
103.87
20
-98.8837
11
103.87
21
-99.2363
0
LINE
8
BLACK
6
CONTINUOUS
10
103.87
20
-99.2363
11
103.749
21
-99.5677
0
LINE
8
BLACK
6
CONTINUOUS
10
103.749
20
-99.5677
11
103.523
21
-99.8379
0
LINE
8
BLACK
6
CONTINUOUS
10
103.523
20
-99.8379
11
103.217
21
-100.014
0
LINE
8
BLACK
6
CONTINUOUS
10
103.217
20
-100.014
11
102.87
21
-100.075
0
LINE
8
BLACK
6
CONTINUOUS
10
102.87
20
-100.075
11
102.523
21
-100.014
0
LINE
8
BLACK
6
CONTINUOUS
10
102.523
20
-100.014
11
102.217
21
-99.8379
0
LINE
8
BLACK
6
CONTINUOUS
10
102.217
20
-99.8379
11
101.991
21
-99.5677
0
LINE
8
BLACK
6
CONTINUOUS
10
101.991
20
-99.5677
11
101.87
21
-99.2363
0
LINE
8
BLACK
6
CONTINUOUS
10
101.87
20
-99.2363
11
101.87
21
-98.8837
0
LINE
8
BLACK
6
CONTINUOUS
10
101.87
20
-98.8837
11
101.991
21
-98.5523
0
LINE
8
BLACK
6
CONTINUOUS
10
101.991
20
-98.5523
11
102.217
21
-98.2821
0
LINE
8
BLACK
6
CONTINUOUS
10
102.217
20
-98.2821
11
102.523
21
-98.1058
0
LINE
8
BLACK
6
CONTINUOUS
10
102.523
20
-98.1058
11
102.87
21
-98.0446
0
LINE
8
BLACK
6
CONTINUOUS
10
102.87
20
-98.0446
11
103.217
21
-98.1058
0
LINE
8
BLACK
6
CONTINUOUS
10
84.8023
20
-97.1914
11
85.1077
21
-97.3677
0
LINE
8
BLACK
6
CONTINUOUS
10
85.1077
20
-97.3677
11
85.3344
21
-97.6379
0
LINE
8
BLACK
6
CONTINUOUS
10
85.3344
20
-97.6379
11
85.455
21
-97.9693
0
LINE
8
BLACK
6
CONTINUOUS
10
85.455
20
-97.9693
11
85.455
21
-98.3219
0
LINE
8
BLACK
6
CONTINUOUS
10
85.455
20
-98.3219
11
85.3344
21
-98.6533
0
LINE
8
BLACK
6
CONTINUOUS
10
85.3344
20
-98.6533
11
85.1077
21
-98.9235
0
LINE
8
BLACK
6
CONTINUOUS
10
85.1077
20
-98.9235
11
84.8023
21
-99.0998
0
LINE
8
BLACK
6
CONTINUOUS
10
84.8023
20
-99.0998
11
84.455
21
-99.161
0
LINE
8
BLACK
6
CONTINUOUS
10
84.455
20
-99.161
11
84.1077
21
-99.0998
0
LINE
8
BLACK
6
CONTINUOUS
10
84.1077
20
-99.0998
11
83.8023
21
-98.9235
0
LINE
8
BLACK
6
CONTINUOUS
10
83.8023
20
-98.9235
11
83.5756
21
-98.6533
0
LINE
8
BLACK
6
CONTINUOUS
10
83.5756
20
-98.6533
11
83.455
21
-98.3219
0
LINE
8
BLACK
6
CONTINUOUS
10
83.455
20
-98.3219
11
83.455
21
-97.9693
0
LINE
8
BLACK
6
CONTINUOUS
10
83.455
20
-97.9693
11
83.5756
21
-97.6379
0
LINE
8
BLACK
6
CONTINUOUS
10
83.5756
20
-97.6379
11
83.8023
21
-97.3677
0
LINE
8
BLACK
6
CONTINUOUS
10
83.8023
20
-97.3677
11
84.1077
21
-97.1914
0
LINE
8
BLACK
6
CONTINUOUS
10
84.1077
20
-97.1914
11
84.455
21
-97.1302
0
LINE
8
BLACK
6
CONTINUOUS
10
84.455
20
-97.1302
11
84.8023
21
-97.1914
0
LINE
8
BLACK
6
CONTINUOUS
10
112.038
20
-97.0266
11
112.282
21
-97.1677
0
LINE
8
BLACK
6
CONTINUOUS
10
112.282
20
-97.1677
11
112.464
21
-97.3838
0
LINE
8
BLACK
6
CONTINUOUS
10
112.464
20
-97.3838
11
112.56
21
-97.6489
0
LINE
8
BLACK
6
CONTINUOUS
10
112.56
20
-97.6489
11
112.56
21
-97.9311
0
LINE
8
BLACK
6
CONTINUOUS
10
112.56
20
-97.9311
11
112.464
21
-98.1962
0
LINE
8
BLACK
6
CONTINUOUS
10
112.464
20
-98.1962
11
112.282
21
-98.4123
0
LINE
8
BLACK
6
CONTINUOUS
10
112.282
20
-98.4123
11
112.038
21
-98.5534
0
LINE
8
BLACK
6
CONTINUOUS
10
112.038
20
-98.5534
11
111.83
21
-98.59
0
LINE
8
BLACK
6
CONTINUOUS
10
111.83
20
-98.59
11
111.69
21
-98.59
0
LINE
8
BLACK
6
CONTINUOUS
10
111.69
20
-98.59
11
111.482
21
-98.5534
0
LINE
8
BLACK
6
CONTINUOUS
10
111.482
20
-98.5534
11
111.238
21
-98.4123
0
LINE
8
BLACK
6
CONTINUOUS
10
111.238
20
-98.4123
11
111.056
21
-98.1962
0
LINE
8
BLACK
6
CONTINUOUS
10
111.056
20
-98.1962
11
110.96
21
-97.9311
0
LINE
8
BLACK
6
CONTINUOUS
10
110.96
20
-97.9311
11
110.96
21
-97.6489
0
LINE
8
BLACK
6
CONTINUOUS
10
110.96
20
-97.6489
11
111.056
21
-97.3838
0
LINE
8
BLACK
6
CONTINUOUS
10
111.056
20
-97.3838
11
111.238
21
-97.1677
0
LINE
8
BLACK
6
CONTINUOUS
10
111.238
20
-97.1677
11
111.482
21
-97.0266
0
LINE
8
BLACK
6
CONTINUOUS
10
111.482
20
-97.0266
11
111.69
21
-96.99
0
LINE
8
BLACK
6
CONTINUOUS
10
111.69
20
-96.99
11
111.83
21
-96.99
0
LINE
8
BLACK
6
CONTINUOUS
10
111.83
20
-96.99
11
112.038
21
-97.0266
0
LINE
8
BLACK
6
CONTINUOUS
10
127.278
20
-97.0266
11
127.522
21
-97.1677
0
LINE
8
BLACK
6
CONTINUOUS
10
127.522
20
-97.1677
11
127.704
21
-97.3838
0
LINE
8
BLACK
6
CONTINUOUS
10
127.704
20
-97.3838
11
127.8
21
-97.6489
0
LINE
8
BLACK
6
CONTINUOUS
10
127.8
20
-97.6489
11
127.8
21
-97.9311
0
LINE
8
BLACK
6
CONTINUOUS
10
127.8
20
-97.9311
11
127.704
21
-98.1962
0
LINE
8
BLACK
6
CONTINUOUS
10
127.704
20
-98.1962
11
127.522
21
-98.4123
0
LINE
8
BLACK
6
CONTINUOUS
10
127.522
20
-98.4123
11
127.278
21
-98.5534
0
LINE
8
BLACK
6
CONTINUOUS
10
127.278
20
-98.5534
11
127.07
21
-98.59
0
LINE
8
BLACK
6
CONTINUOUS
10
127.07
20
-98.59
11
126.93
21
-98.59
0
LINE
8
BLACK
6
CONTINUOUS
10
126.93
20
-98.59
11
126.722
21
-98.5534
0
LINE
8
BLACK
6
CONTINUOUS
10
126.722
20
-98.5534
11
126.478
21
-98.4123
0
LINE
8
BLACK
6
CONTINUOUS
10
126.478
20
-98.4123
11
126.296
21
-98.1962
0
LINE
8
BLACK
6
CONTINUOUS
10
126.296
20
-98.1962
11
126.2
21
-97.9311
0
LINE
8
BLACK
6
CONTINUOUS
10
126.2
20
-97.9311
11
126.2
21
-97.6489
0
LINE
8
BLACK
6
CONTINUOUS
10
126.2
20
-97.6489
11
126.296
21
-97.3838
0
LINE
8
BLACK
6
CONTINUOUS
10
126.296
20
-97.3838
11
126.478
21
-97.1677
0
LINE
8
BLACK
6
CONTINUOUS
10
126.478
20
-97.1677
11
126.722
21
-97.0266
0
LINE
8
BLACK
6
CONTINUOUS
10
126.722
20
-97.0266
11
126.93
21
-96.99
0
LINE
8
BLACK
6
CONTINUOUS
10
126.93
20
-96.99
11
127.07
21
-96.99
0
LINE
8
BLACK
6
CONTINUOUS
10
127.07
20
-96.99
11
127.278
21
-97.0266
0
LINE
8
BLACK
6
CONTINUOUS
10
103.217
20
-95.5658
11
103.523
21
-95.7421
0
LINE
8
BLACK
6
CONTINUOUS
10
103.523
20
-95.7421
11
103.749
21
-96.0123
0
LINE
8
BLACK
6
CONTINUOUS
10
103.749
20
-96.0123
11
103.87
21
-96.3437
0
LINE
8
BLACK
6
CONTINUOUS
10
103.87
20
-96.3437
11
103.87
21
-96.6963
0
LINE
8
BLACK
6
CONTINUOUS
10
103.87
20
-96.6963
11
103.749
21
-97.0277
0
LINE
8
BLACK
6
CONTINUOUS
10
103.749
20
-97.0277
11
103.523
21
-97.2979
0
LINE
8
BLACK
6
CONTINUOUS
10
103.523
20
-97.2979
11
103.217
21
-97.4742
0
LINE
8
BLACK
6
CONTINUOUS
10
103.217
20
-97.4742
11
102.87
21
-97.5354
0
LINE
8
BLACK
6
CONTINUOUS
10
102.87
20
-97.5354
11
102.523
21
-97.4742
0
LINE
8
BLACK
6
CONTINUOUS
10
102.523
20
-97.4742
11
102.217
21
-97.2979
0
LINE
8
BLACK
6
CONTINUOUS
10
102.217
20
-97.2979
11
101.991
21
-97.0277
0
LINE
8
BLACK
6
CONTINUOUS
10
101.991
20
-97.0277
11
101.87
21
-96.6963
0
LINE
8
BLACK
6
CONTINUOUS
10
101.87
20
-96.6963
11
101.87
21
-96.3437
0
LINE
8
BLACK
6
CONTINUOUS
10
101.87
20
-96.3437
11
101.991
21
-96.0123
0
LINE
8
BLACK
6
CONTINUOUS
10
101.991
20
-96.0123
11
102.217
21
-95.7421
0
LINE
8
BLACK
6
CONTINUOUS
10
102.217
20
-95.7421
11
102.523
21
-95.5658
0
LINE
8
BLACK
6
CONTINUOUS
10
102.523
20
-95.5658
11
102.87
21
-95.5046
0
LINE
8
BLACK
6
CONTINUOUS
10
102.87
20
-95.5046
11
103.217
21
-95.5658
0
LINE
8
BLACK
6
CONTINUOUS
10
112.038
20
-94.4866
11
112.282
21
-94.6277
0
LINE
8
BLACK
6
CONTINUOUS
10
112.282
20
-94.6277
11
112.464
21
-94.8438
0
LINE
8
BLACK
6
CONTINUOUS
10
112.464
20
-94.8438
11
112.56
21
-95.1089
0
LINE
8
BLACK
6
CONTINUOUS
10
112.56
20
-95.1089
11
112.56
21
-95.3911
0
LINE
8
BLACK
6
CONTINUOUS
10
112.56
20
-95.3911
11
112.464
21
-95.6562
0
LINE
8
BLACK
6
CONTINUOUS
10
112.464
20
-95.6562
11
112.282
21
-95.8723
0
LINE
8
BLACK
6
CONTINUOUS
10
112.282
20
-95.8723
11
112.038
21
-96.0134
0
LINE
8
BLACK
6
CONTINUOUS
10
112.038
20
-96.0134
11
111.83
21
-96.05
0
LINE
8
BLACK
6
CONTINUOUS
10
111.83
20
-96.05
11
111.69
21
-96.05
0
LINE
8
BLACK
6
CONTINUOUS
10
111.69
20
-96.05
11
111.482
21
-96.0134
0
LINE
8
BLACK
6
CONTINUOUS
10
111.482
20
-96.0134
11
111.238
21
-95.8723
0
LINE
8
BLACK
6
CONTINUOUS
10
111.238
20
-95.8723
11
111.056
21
-95.6562
0
LINE
8
BLACK
6
CONTINUOUS
10
111.056
20
-95.6562
11
110.96
21
-95.3911
0
LINE
8
BLACK
6
CONTINUOUS
10
110.96
20
-95.3911
11
110.96
21
-95.1089
0
LINE
8
BLACK
6
CONTINUOUS
10
110.96
20
-95.1089
11
111.056
21
-94.8438
0
LINE
8
BLACK
6
CONTINUOUS
10
111.056
20
-94.8438
11
111.238
21
-94.6277
0
LINE
8
BLACK
6
CONTINUOUS
10
111.238
20
-94.6277
11
111.482
21
-94.4866
0
LINE
8
BLACK
6
CONTINUOUS
10
111.482
20
-94.4866
11
111.69
21
-94.45
0
LINE
8
BLACK
6
CONTINUOUS
10
111.69
20
-94.45
11
111.83
21
-94.45
0
LINE
8
BLACK
6
CONTINUOUS
10
111.83
20
-94.45
11
112.038
21
-94.4866
0
LINE
8
BLACK
6
CONTINUOUS
10
103.217
20
-93.0258
11
103.523
21
-93.2021
0
LINE
8
BLACK
6
CONTINUOUS
10
103.523
20
-93.2021
11
103.749
21
-93.4723
0
LINE
8
BLACK
6
CONTINUOUS
10
103.749
20
-93.4723
11
103.87
21
-93.8037
0
LINE
8
BLACK
6
CONTINUOUS
10
103.87
20
-93.8037
11
103.87
21
-94.1563
0
LINE
8
BLACK
6
CONTINUOUS
10
103.87
20
-94.1563
11
103.749
21
-94.4877
0
LINE
8
BLACK
6
CONTINUOUS
10
103.749
20
-94.4877
11
103.523
21
-94.7579
0
LINE
8
BLACK
6
CONTINUOUS
10
103.523
20
-94.7579
11
103.217
21
-94.9342
0
LINE
8
BLACK
6
CONTINUOUS
10
103.217
20
-94.9342
11
102.87
21
-94.9954
0
LINE
8
BLACK
6
CONTINUOUS
10
102.87
20
-94.9954
11
102.523
21
-94.9342
0
LINE
8
BLACK
6
CONTINUOUS
10
102.523
20
-94.9342
11
102.217
21
-94.7579
0
LINE
8
BLACK
6
CONTINUOUS
10
102.217
20
-94.7579
11
101.991
21
-94.4877
0
LINE
8
BLACK
6
CONTINUOUS
10
101.991
20
-94.4877
11
101.87
21
-94.1563
0
LINE
8
BLACK
6
CONTINUOUS
10
101.87
20
-94.1563
11
101.87
21
-93.8037
0
LINE
8
BLACK
6
CONTINUOUS
10
101.87
20
-93.8037
11
101.991
21
-93.4723
0
LINE
8
BLACK
6
CONTINUOUS
10
101.991
20
-93.4723
11
102.217
21
-93.2021
0
LINE
8
BLACK
6
CONTINUOUS
10
102.217
20
-93.2021
11
102.523
21
-93.0258
0
LINE
8
BLACK
6
CONTINUOUS
10
102.523
20
-93.0258
11
102.87
21
-92.9646
0
LINE
8
BLACK
6
CONTINUOUS
10
102.87
20
-92.9646
11
103.217
21
-93.0258
0
LINE
8
BLACK
6
CONTINUOUS
10
84.8023
20
-92.6448
11
85.1077
21
-92.8211
0
LINE
8
BLACK
6
CONTINUOUS
10
85.1077
20
-92.8211
11
85.3344
21
-93.0913
0
LINE
8
BLACK
6
CONTINUOUS
10
85.3344
20
-93.0913
11
85.455
21
-93.4227
0
LINE
8
BLACK
6
CONTINUOUS
10
85.455
20
-93.4227
11
85.455
21
-93.7753
0
LINE
8
BLACK
6
CONTINUOUS
10
85.455
20
-93.7753
11
85.3344
21
-94.1067
0
LINE
8
BLACK
6
CONTINUOUS
10
85.3344
20
-94.1067
11
85.1077
21
-94.3769
0
LINE
8
BLACK
6
CONTINUOUS
10
85.1077
20
-94.3769
11
84.8023
21
-94.5532
0
LINE
8
BLACK
6
CONTINUOUS
10
84.8023
20
-94.5532
11
84.455
21
-94.6144
0
LINE
8
BLACK
6
CONTINUOUS
10
84.455
20
-94.6144
11
84.1077
21
-94.5532
0
LINE
8
BLACK
6
CONTINUOUS
10
84.1077
20
-94.5532
11
83.8023
21
-94.3769
0
LINE
8
BLACK
6
CONTINUOUS
10
83.8023
20
-94.3769
11
83.5756
21
-94.1067
0
LINE
8
BLACK
6
CONTINUOUS
10
83.5756
20
-94.1067
11
83.455
21
-93.7753
0
LINE
8
BLACK
6
CONTINUOUS
10
83.455
20
-93.7753
11
83.455
21
-93.4227
0
LINE
8
BLACK
6
CONTINUOUS
10
83.455
20
-93.4227
11
83.5756
21
-93.0913
0
LINE
8
BLACK
6
CONTINUOUS
10
83.5756
20
-93.0913
11
83.8023
21
-92.8211
0
LINE
8
BLACK
6
CONTINUOUS
10
83.8023
20
-92.8211
11
84.1077
21
-92.6448
0
LINE
8
BLACK
6
CONTINUOUS
10
84.1077
20
-92.6448
11
84.455
21
-92.5836
0
LINE
8
BLACK
6
CONTINUOUS
10
84.455
20
-92.5836
11
84.8023
21
-92.6448
0
LINE
8
BLACK
6
CONTINUOUS
10
112.038
20
-91.9466
11
112.282
21
-92.0877
0
LINE
8
BLACK
6
CONTINUOUS
10
112.282
20
-92.0877
11
112.464
21
-92.3038
0
LINE
8
BLACK
6
CONTINUOUS
10
112.464
20
-92.3038
11
112.56
21
-92.5689
0
LINE
8
BLACK
6
CONTINUOUS
10
112.56
20
-92.5689
11
112.56
21
-92.8511
0
LINE
8
BLACK
6
CONTINUOUS
10
112.56
20
-92.8511
11
112.464
21
-93.1162
0
LINE
8
BLACK
6
CONTINUOUS
10
112.464
20
-93.1162
11
112.282
21
-93.3323
0
LINE
8
BLACK
6
CONTINUOUS
10
112.282
20
-93.3323
11
112.038
21
-93.4734
0
LINE
8
BLACK
6
CONTINUOUS
10
112.038
20
-93.4734
11
111.83
21
-93.51
0
LINE
8
BLACK
6
CONTINUOUS
10
111.83
20
-93.51
11
111.69
21
-93.51
0
LINE
8
BLACK
6
CONTINUOUS
10
111.69
20
-93.51
11
111.482
21
-93.4734
0
LINE
8
BLACK
6
CONTINUOUS
10
111.482
20
-93.4734
11
111.238
21
-93.3323
0
LINE
8
BLACK
6
CONTINUOUS
10
111.238
20
-93.3323
11
111.056
21
-93.1162
0
LINE
8
BLACK
6
CONTINUOUS
10
111.056
20
-93.1162
11
110.96
21
-92.8511
0
LINE
8
BLACK
6
CONTINUOUS
10
110.96
20
-92.8511
11
110.96
21
-92.5689
0
LINE
8
BLACK
6
CONTINUOUS
10
110.96
20
-92.5689
11
111.056
21
-92.3038
0
LINE
8
BLACK
6
CONTINUOUS
10
111.056
20
-92.3038
11
111.238
21
-92.0877
0
LINE
8
BLACK
6
CONTINUOUS
10
111.238
20
-92.0877
11
111.482
21
-91.9466
0
LINE
8
BLACK
6
CONTINUOUS
10
111.482
20
-91.9466
11
111.69
21
-91.91
0
LINE
8
BLACK
6
CONTINUOUS
10
111.69
20
-91.91
11
111.83
21
-91.91
0
LINE
8
BLACK
6
CONTINUOUS
10
111.83
20
-91.91
11
112.038
21
-91.9466
0
LINE
8
BLACK
6
CONTINUOUS
10
151.477
20
-91.5018
11
151.783
21
-91.6781
0
LINE
8
BLACK
6
CONTINUOUS
10
151.783
20
-91.6781
11
152.009
21
-91.9483
0
LINE
8
BLACK
6
CONTINUOUS
10
152.009
20
-91.9483
11
152.13
21
-92.2797
0
LINE
8
BLACK
6
CONTINUOUS
10
152.13
20
-92.2797
11
152.13
21
-92.6323
0
LINE
8
BLACK
6
CONTINUOUS
10
152.13
20
-92.6323
11
152.009
21
-92.9637
0
LINE
8
BLACK
6
CONTINUOUS
10
152.009
20
-92.9637
11
151.783
21
-93.2339
0
LINE
8
BLACK
6
CONTINUOUS
10
151.783
20
-93.2339
11
151.477
21
-93.4102
0
LINE
8
BLACK
6
CONTINUOUS
10
151.477
20
-93.4102
11
151.13
21
-93.4714
0
LINE
8
BLACK
6
CONTINUOUS
10
151.13
20
-93.4714
11
150.783
21
-93.4102
0
LINE
8
BLACK
6
CONTINUOUS
10
150.783
20
-93.4102
11
150.477
21
-93.2339
0
LINE
8
BLACK
6
CONTINUOUS
10
150.477
20
-93.2339
11
150.251
21
-92.9637
0
LINE
8
BLACK
6
CONTINUOUS
10
150.251
20
-92.9637
11
150.13
21
-92.6323
0
LINE
8
BLACK
6
CONTINUOUS
10
150.13
20
-92.6323
11
150.13
21
-92.2797
0
LINE
8
BLACK
6
CONTINUOUS
10
150.13
20
-92.2797
11
150.251
21
-91.9483
0
LINE
8
BLACK
6
CONTINUOUS
10
150.251
20
-91.9483
11
150.477
21
-91.6781
0
LINE
8
BLACK
6
CONTINUOUS
10
150.477
20
-91.6781
11
150.783
21
-91.5018
0
LINE
8
BLACK
6
CONTINUOUS
10
150.783
20
-91.5018
11
151.13
21
-91.4406
0
LINE
8
BLACK
6
CONTINUOUS
10
151.13
20
-91.4406
11
151.477
21
-91.5018
0
LINE
8
BLACK
6
CONTINUOUS
10
103.217
20
-90.4858
11
103.523
21
-90.6621
0
LINE
8
BLACK
6
CONTINUOUS
10
103.523
20
-90.6621
11
103.749
21
-90.9323
0
LINE
8
BLACK
6
CONTINUOUS
10
103.749
20
-90.9323
11
103.87
21
-91.2637
0
LINE
8
BLACK
6
CONTINUOUS
10
103.87
20
-91.2637
11
103.87
21
-91.6163
0
LINE
8
BLACK
6
CONTINUOUS
10
103.87
20
-91.6163
11
103.749
21
-91.9477
0
LINE
8
BLACK
6
CONTINUOUS
10
103.749
20
-91.9477
11
103.523
21
-92.2179
0
LINE
8
BLACK
6
CONTINUOUS
10
103.523
20
-92.2179
11
103.217
21
-92.3942
0
LINE
8
BLACK
6
CONTINUOUS
10
103.217
20
-92.3942
11
102.87
21
-92.4554
0
LINE
8
BLACK
6
CONTINUOUS
10
102.87
20
-92.4554
11
102.523
21
-92.3942
0
LINE
8
BLACK
6
CONTINUOUS
10
102.523
20
-92.3942
11
102.217
21
-92.2179
0
LINE
8
BLACK
6
CONTINUOUS
10
102.217
20
-92.2179
11
101.991
21
-91.9477
0
LINE
8
BLACK
6
CONTINUOUS
10
101.991
20
-91.9477
11
101.87
21
-91.6163
0
LINE
8
BLACK
6
CONTINUOUS
10
101.87
20
-91.6163
11
101.87
21
-91.2637
0
LINE
8
BLACK
6
CONTINUOUS
10
101.87
20
-91.2637
11
101.991
21
-90.9323
0
LINE
8
BLACK
6
CONTINUOUS
10
101.991
20
-90.9323
11
102.217
21
-90.6621
0
LINE
8
BLACK
6
CONTINUOUS
10
102.217
20
-90.6621
11
102.523
21
-90.4858
0
LINE
8
BLACK
6
CONTINUOUS
10
102.523
20
-90.4858
11
102.87
21
-90.4246
0
LINE
8
BLACK
6
CONTINUOUS
10
102.87
20
-90.4246
11
103.217
21
-90.4858
0
LINE
8
BLACK
6
CONTINUOUS
10
127.278
20
-89.4066
11
127.522
21
-89.5477
0
LINE
8
BLACK
6
CONTINUOUS
10
127.522
20
-89.5477
11
127.704
21
-89.7638
0
LINE
8
BLACK
6
CONTINUOUS
10
127.704
20
-89.7638
11
127.8
21
-90.0289
0
LINE
8
BLACK
6
CONTINUOUS
10
127.8
20
-90.0289
11
127.8
21
-90.3111
0
LINE
8
BLACK
6
CONTINUOUS
10
127.8
20
-90.3111
11
127.704
21
-90.5762
0
LINE
8
BLACK
6
CONTINUOUS
10
127.704
20
-90.5762
11
127.522
21
-90.7923
0
LINE
8
BLACK
6
CONTINUOUS
10
127.522
20
-90.7923
11
127.278
21
-90.9334
0
LINE
8
BLACK
6
CONTINUOUS
10
127.278
20
-90.9334
11
127.07
21
-90.97
0
LINE
8
BLACK
6
CONTINUOUS
10
127.07
20
-90.97
11
126.93
21
-90.97
0
LINE
8
BLACK
6
CONTINUOUS
10
126.93
20
-90.97
11
126.722
21
-90.9334
0
LINE
8
BLACK
6
CONTINUOUS
10
126.722
20
-90.9334
11
126.478
21
-90.7923
0
LINE
8
BLACK
6
CONTINUOUS
10
126.478
20
-90.7923
11
126.296
21
-90.5762
0
LINE
8
BLACK
6
CONTINUOUS
10
126.296
20
-90.5762
11
126.2
21
-90.3111
0
LINE
8
BLACK
6
CONTINUOUS
10
126.2
20
-90.3111
11
126.2
21
-90.0289
0
LINE
8
BLACK
6
CONTINUOUS
10
126.2
20
-90.0289
11
126.296
21
-89.7638
0
LINE
8
BLACK
6
CONTINUOUS
10
126.296
20
-89.7638
11
126.478
21
-89.5477
0
LINE
8
BLACK
6
CONTINUOUS
10
126.478
20
-89.5477
11
126.722
21
-89.4066
0
LINE
8
BLACK
6
CONTINUOUS
10
126.722
20
-89.4066
11
126.93
21
-89.37
0
LINE
8
BLACK
6
CONTINUOUS
10
126.93
20
-89.37
11
127.07
21
-89.37
0
LINE
8
BLACK
6
CONTINUOUS
10
127.07
20
-89.37
11
127.278
21
-89.4066
0
LINE
8
BLACK
6
CONTINUOUS
10
112.038
20
-89.4066
11
112.282
21
-89.5477
0
LINE
8
BLACK
6
CONTINUOUS
10
112.282
20
-89.5477
11
112.464
21
-89.7638
0
LINE
8
BLACK
6
CONTINUOUS
10
112.464
20
-89.7638
11
112.56
21
-90.0289
0
LINE
8
BLACK
6
CONTINUOUS
10
112.56
20
-90.0289
11
112.56
21
-90.3111
0
LINE
8
BLACK
6
CONTINUOUS
10
112.56
20
-90.3111
11
112.464
21
-90.5762
0
LINE
8
BLACK
6
CONTINUOUS
10
112.464
20
-90.5762
11
112.282
21
-90.7923
0
LINE
8
BLACK
6
CONTINUOUS
10
112.282
20
-90.7923
11
112.038
21
-90.9334
0
LINE
8
BLACK
6
CONTINUOUS
10
112.038
20
-90.9334
11
111.83
21
-90.97
0
LINE
8
BLACK
6
CONTINUOUS
10
111.83
20
-90.97
11
111.69
21
-90.97
0
LINE
8
BLACK
6
CONTINUOUS
10
111.69
20
-90.97
11
111.482
21
-90.9334
0
LINE
8
BLACK
6
CONTINUOUS
10
111.482
20
-90.9334
11
111.238
21
-90.7923
0
LINE
8
BLACK
6
CONTINUOUS
10
111.238
20
-90.7923
11
111.056
21
-90.5762
0
LINE
8
BLACK
6
CONTINUOUS
10
111.056
20
-90.5762
11
110.96
21
-90.3111
0
LINE
8
BLACK
6
CONTINUOUS
10
110.96
20
-90.3111
11
110.96
21
-90.0289
0
LINE
8
BLACK
6
CONTINUOUS
10
110.96
20
-90.0289
11
111.056
21
-89.7638
0
LINE
8
BLACK
6
CONTINUOUS
10
111.056
20
-89.7638
11
111.238
21
-89.5477
0
LINE
8
BLACK
6
CONTINUOUS
10
111.238
20
-89.5477
11
111.482
21
-89.4066
0
LINE
8
BLACK
6
CONTINUOUS
10
111.482
20
-89.4066
11
111.69
21
-89.37
0
LINE
8
BLACK
6
CONTINUOUS
10
111.69
20
-89.37
11
111.83
21
-89.37
0
LINE
8
BLACK
6
CONTINUOUS
10
111.83
20
-89.37
11
112.038
21
-89.4066
0
LINE
8
BLACK
6
CONTINUOUS
10
151.477
20
-88.9618
11
151.783
21
-89.1381
0
LINE
8
BLACK
6
CONTINUOUS
10
151.783
20
-89.1381
11
152.009
21
-89.4083
0
LINE
8
BLACK
6
CONTINUOUS
10
152.009
20
-89.4083
11
152.13
21
-89.7397
0
LINE
8
BLACK
6
CONTINUOUS
10
152.13
20
-89.7397
11
152.13
21
-90.0923
0
LINE
8
BLACK
6
CONTINUOUS
10
152.13
20
-90.0923
11
152.009
21
-90.4237
0
LINE
8
BLACK
6
CONTINUOUS
10
152.009
20
-90.4237
11
151.783
21
-90.6939
0
LINE
8
BLACK
6
CONTINUOUS
10
151.783
20
-90.6939
11
151.477
21
-90.8702
0
LINE
8
BLACK
6
CONTINUOUS
10
151.477
20
-90.8702
11
151.13
21
-90.9314
0
LINE
8
BLACK
6
CONTINUOUS
10
151.13
20
-90.9314
11
150.783
21
-90.8702
0
LINE
8
BLACK
6
CONTINUOUS
10
150.783
20
-90.8702
11
150.477
21
-90.6939
0
LINE
8
BLACK
6
CONTINUOUS
10
150.477
20
-90.6939
11
150.251
21
-90.4237
0
LINE
8
BLACK
6
CONTINUOUS
10
150.251
20
-90.4237
11
150.13
21
-90.0923
0
LINE
8
BLACK
6
CONTINUOUS
10
150.13
20
-90.0923
11
150.13
21
-89.7397
0
LINE
8
BLACK
6
CONTINUOUS
10
150.13
20
-89.7397
11
150.251
21
-89.4083
0
LINE
8
BLACK
6
CONTINUOUS
10
150.251
20
-89.4083
11
150.477
21
-89.1381
0
LINE
8
BLACK
6
CONTINUOUS
10
150.477
20
-89.1381
11
150.783
21
-88.9618
0
LINE
8
BLACK
6
CONTINUOUS
10
150.783
20
-88.9618
11
151.13
21
-88.9006
0
LINE
8
BLACK
6
CONTINUOUS
10
151.13
20
-88.9006
11
151.477
21
-88.9618
0
LINE
8
BLACK
6
CONTINUOUS
10
84.8023
20
-88.6824
11
85.1077
21
-88.8587
0
LINE
8
BLACK
6
CONTINUOUS
10
85.1077
20
-88.8587
11
85.3344
21
-89.1289
0
LINE
8
BLACK
6
CONTINUOUS
10
85.3344
20
-89.1289
11
85.455
21
-89.4603
0
LINE
8
BLACK
6
CONTINUOUS
10
85.455
20
-89.4603
11
85.455
21
-89.8129
0
LINE
8
BLACK
6
CONTINUOUS
10
85.455
20
-89.8129
11
85.3344
21
-90.1443
0
LINE
8
BLACK
6
CONTINUOUS
10
85.3344
20
-90.1443
11
85.1077
21
-90.4145
0
LINE
8
BLACK
6
CONTINUOUS
10
85.1077
20
-90.4145
11
84.8023
21
-90.5908
0
LINE
8
BLACK
6
CONTINUOUS
10
84.8023
20
-90.5908
11
84.455
21
-90.652
0
LINE
8
BLACK
6
CONTINUOUS
10
84.455
20
-90.652
11
84.1077
21
-90.5908
0
LINE
8
BLACK
6
CONTINUOUS
10
84.1077
20
-90.5908
11
83.8023
21
-90.4145
0
LINE
8
BLACK
6
CONTINUOUS
10
83.8023
20
-90.4145
11
83.5756
21
-90.1443
0
LINE
8
BLACK
6
CONTINUOUS
10
83.5756
20
-90.1443
11
83.455
21
-89.8129
0
LINE
8
BLACK
6
CONTINUOUS
10
83.455
20
-89.8129
11
83.455
21
-89.4603
0
LINE
8
BLACK
6
CONTINUOUS
10
83.455
20
-89.4603
11
83.5756
21
-89.1289
0
LINE
8
BLACK
6
CONTINUOUS
10
83.5756
20
-89.1289
11
83.8023
21
-88.8587
0
LINE
8
BLACK
6
CONTINUOUS
10
83.8023
20
-88.8587
11
84.1077
21
-88.6824
0
LINE
8
BLACK
6
CONTINUOUS
10
84.1077
20
-88.6824
11
84.455
21
-88.6212
0
LINE
8
BLACK
6
CONTINUOUS
10
84.455
20
-88.6212
11
84.8023
21
-88.6824
0
LINE
8
BLACK
6
CONTINUOUS
10
103.217
20
-87.9458
11
103.523
21
-88.1221
0
LINE
8
BLACK
6
CONTINUOUS
10
103.523
20
-88.1221
11
103.749
21
-88.3923
0
LINE
8
BLACK
6
CONTINUOUS
10
103.749
20
-88.3923
11
103.87
21
-88.7237
0
LINE
8
BLACK
6
CONTINUOUS
10
103.87
20
-88.7237
11
103.87
21
-89.0763
0
LINE
8
BLACK
6
CONTINUOUS
10
103.87
20
-89.0763
11
103.749
21
-89.4077
0
LINE
8
BLACK
6
CONTINUOUS
10
103.749
20
-89.4077
11
103.523
21
-89.6779
0
LINE
8
BLACK
6
CONTINUOUS
10
103.523
20
-89.6779
11
103.217
21
-89.8542
0
LINE
8
BLACK
6
CONTINUOUS
10
103.217
20
-89.8542
11
102.87
21
-89.9154
0
LINE
8
BLACK
6
CONTINUOUS
10
102.87
20
-89.9154
11
102.523
21
-89.8542
0
LINE
8
BLACK
6
CONTINUOUS
10
102.523
20
-89.8542
11
102.217
21
-89.6779
0
LINE
8
BLACK
6
CONTINUOUS
10
102.217
20
-89.6779
11
101.991
21
-89.4077
0
LINE
8
BLACK
6
CONTINUOUS
10
101.991
20
-89.4077
11
101.87
21
-89.0763
0
LINE
8
BLACK
6
CONTINUOUS
10
101.87
20
-89.0763
11
101.87
21
-88.7237
0
LINE
8
BLACK
6
CONTINUOUS
10
101.87
20
-88.7237
11
101.991
21
-88.3923
0
LINE
8
BLACK
6
CONTINUOUS
10
101.991
20
-88.3923
11
102.217
21
-88.1221
0
LINE
8
BLACK
6
CONTINUOUS
10
102.217
20
-88.1221
11
102.523
21
-87.9458
0
LINE
8
BLACK
6
CONTINUOUS
10
102.523
20
-87.9458
11
102.87
21
-87.8846
0
LINE
8
BLACK
6
CONTINUOUS
10
102.87
20
-87.8846
11
103.217
21
-87.9458
0
LINE
8
BLACK
6
CONTINUOUS
10
151.477
20
-78.8018
11
151.783
21
-78.9781
0
LINE
8
BLACK
6
CONTINUOUS
10
151.783
20
-78.9781
11
152.009
21
-79.2483
0
LINE
8
BLACK
6
CONTINUOUS
10
152.009
20
-79.2483
11
152.13
21
-79.5797
0
LINE
8
BLACK
6
CONTINUOUS
10
152.13
20
-79.5797
11
152.13
21
-79.9323
0
LINE
8
BLACK
6
CONTINUOUS
10
152.13
20
-79.9323
11
152.009
21
-80.2637
0
LINE
8
BLACK
6
CONTINUOUS
10
152.009
20
-80.2637
11
151.783
21
-80.5339
0
LINE
8
BLACK
6
CONTINUOUS
10
151.783
20
-80.5339
11
151.477
21
-80.7102
0
LINE
8
BLACK
6
CONTINUOUS
10
151.477
20
-80.7102
11
151.13
21
-80.7714
0
LINE
8
BLACK
6
CONTINUOUS
10
151.13
20
-80.7714
11
150.783
21
-80.7102
0
LINE
8
BLACK
6
CONTINUOUS
10
150.783
20
-80.7102
11
150.477
21
-80.5339
0
LINE
8
BLACK
6
CONTINUOUS
10
150.477
20
-80.5339
11
150.251
21
-80.2637
0
LINE
8
BLACK
6
CONTINUOUS
10
150.251
20
-80.2637
11
150.148
21
-79.981
0
LINE
8
BLACK
6
CONTINUOUS
10
150.148
20
-79.981
11
134.967
21
-79.981
0
LINE
8
BLACK
6
CONTINUOUS
10
134.967
20
-79.981
11
127.709
21
-87.2391
0
LINE
8
BLACK
6
CONTINUOUS
10
127.709
20
-87.2391
11
127.8
21
-87.4889
0
LINE
8
BLACK
6
CONTINUOUS
10
127.8
20
-87.4889
11
127.8
21
-87.7711
0
LINE
8
BLACK
6
CONTINUOUS
10
127.8
20
-87.7711
11
127.704
21
-88.0362
0
LINE
8
BLACK
6
CONTINUOUS
10
127.704
20
-88.0362
11
127.522
21
-88.2523
0
LINE
8
BLACK
6
CONTINUOUS
10
127.522
20
-88.2523
11
127.278
21
-88.3934
0
LINE
8
BLACK
6
CONTINUOUS
10
127.278
20
-88.3934
11
127.07
21
-88.43
0
LINE
8
BLACK
6
CONTINUOUS
10
127.07
20
-88.43
11
126.93
21
-88.43
0
LINE
8
BLACK
6
CONTINUOUS
10
126.93
20
-88.43
11
126.722
21
-88.3934
0
LINE
8
BLACK
6
CONTINUOUS
10
126.722
20
-88.3934
11
126.478
21
-88.2523
0
LINE
8
BLACK
6
CONTINUOUS
10
126.478
20
-88.2523
11
126.296
21
-88.0362
0
LINE
8
BLACK
6
CONTINUOUS
10
126.296
20
-88.0362
11
126.2
21
-87.7711
0
LINE
8
BLACK
6
CONTINUOUS
10
126.2
20
-87.7711
11
126.2
21
-87.4889
0
LINE
8
BLACK
6
CONTINUOUS
10
126.2
20
-87.4889
11
126.296
21
-87.2238
0
LINE
8
BLACK
6
CONTINUOUS
10
126.296
20
-87.2238
11
126.478
21
-87.0077
0
LINE
8
BLACK
6
CONTINUOUS
10
126.478
20
-87.0077
11
126.722
21
-86.8666
0
LINE
8
BLACK
6
CONTINUOUS
10
126.722
20
-86.8666
11
126.93
21
-86.83
0
LINE
8
BLACK
6
CONTINUOUS
10
126.93
20
-86.83
11
127.07
21
-86.83
0
LINE
8
BLACK
6
CONTINUOUS
10
127.07
20
-86.83
11
127.278
21
-86.8666
0
LINE
8
BLACK
6
CONTINUOUS
10
127.278
20
-86.8666
11
127.384
21
-86.9279
0
LINE
8
BLACK
6
CONTINUOUS
10
127.384
20
-86.9279
11
134.708
21
-79.6038
0
LINE
8
BLACK
6
CONTINUOUS
10
134.708
20
-79.6038
11
134.727
21
-79.581
0
LINE
8
BLACK
6
CONTINUOUS
10
134.727
20
-79.581
11
134.753
21
-79.5661
0
LINE
8
BLACK
6
CONTINUOUS
10
134.753
20
-79.5661
11
134.777
21
-79.5489
0
LINE
8
BLACK
6
CONTINUOUS
10
134.777
20
-79.5489
11
134.787
21
-79.5463
0
LINE
8
BLACK
6
CONTINUOUS
10
134.787
20
-79.5463
11
134.796
21
-79.5413
0
LINE
8
BLACK
6
CONTINUOUS
10
134.796
20
-79.5413
11
134.825
21
-79.5361
0
LINE
8
BLACK
6
CONTINUOUS
10
134.825
20
-79.5361
11
134.854
21
-79.5284
0
LINE
8
BLACK
6
CONTINUOUS
10
134.854
20
-79.5284
11
134.884
21
-79.531
0
LINE
8
BLACK
6
CONTINUOUS
10
134.884
20
-79.531
11
150.148
21
-79.531
0
LINE
8
BLACK
6
CONTINUOUS
10
150.148
20
-79.531
11
150.251
21
-79.2483
0
LINE
8
BLACK
6
CONTINUOUS
10
150.251
20
-79.2483
11
150.477
21
-78.9781
0
LINE
8
BLACK
6
CONTINUOUS
10
150.477
20
-78.9781
11
150.783
21
-78.8018
0
LINE
8
BLACK
6
CONTINUOUS
10
150.783
20
-78.8018
11
151.13
21
-78.7406
0
LINE
8
BLACK
6
CONTINUOUS
10
151.13
20
-78.7406
11
151.477
21
-78.8018
0
LINE
8
BLACK
6
CONTINUOUS
10
112.038
20
-86.8666
11
112.282
21
-87.0077
0
LINE
8
BLACK
6
CONTINUOUS
10
112.282
20
-87.0077
11
112.464
21
-87.2238
0
LINE
8
BLACK
6
CONTINUOUS
10
112.464
20
-87.2238
11
112.56
21
-87.4889
0
LINE
8
BLACK
6
CONTINUOUS
10
112.56
20
-87.4889
11
112.56
21
-87.7711
0
LINE
8
BLACK
6
CONTINUOUS
10
112.56
20
-87.7711
11
112.464
21
-88.0362
0
LINE
8
BLACK
6
CONTINUOUS
10
112.464
20
-88.0362
11
112.282
21
-88.2523
0
LINE
8
BLACK
6
CONTINUOUS
10
112.282
20
-88.2523
11
112.038
21
-88.3934
0
LINE
8
BLACK
6
CONTINUOUS
10
112.038
20
-88.3934
11
111.83
21
-88.43
0
LINE
8
BLACK
6
CONTINUOUS
10
111.83
20
-88.43
11
111.69
21
-88.43
0
LINE
8
BLACK
6
CONTINUOUS
10
111.69
20
-88.43
11
111.482
21
-88.3934
0
LINE
8
BLACK
6
CONTINUOUS
10
111.482
20
-88.3934
11
111.238
21
-88.2523
0
LINE
8
BLACK
6
CONTINUOUS
10
111.238
20
-88.2523
11
111.056
21
-88.0362
0
LINE
8
BLACK
6
CONTINUOUS
10
111.056
20
-88.0362
11
110.96
21
-87.7711
0
LINE
8
BLACK
6
CONTINUOUS
10
110.96
20
-87.7711
11
110.96
21
-87.4889
0
LINE
8
BLACK
6
CONTINUOUS
10
110.96
20
-87.4889
11
111.056
21
-87.2238
0
LINE
8
BLACK
6
CONTINUOUS
10
111.056
20
-87.2238
11
111.238
21
-87.0077
0
LINE
8
BLACK
6
CONTINUOUS
10
111.238
20
-87.0077
11
111.482
21
-86.8666
0
LINE
8
BLACK
6
CONTINUOUS
10
111.482
20
-86.8666
11
111.69
21
-86.83
0
LINE
8
BLACK
6
CONTINUOUS
10
111.69
20
-86.83
11
111.83
21
-86.83
0
LINE
8
BLACK
6
CONTINUOUS
10
111.83
20
-86.83
11
112.038
21
-86.8666
0
LINE
8
BLACK
6
CONTINUOUS
10
151.477
20
-86.4218
11
151.783
21
-86.5981
0
LINE
8
BLACK
6
CONTINUOUS
10
151.783
20
-86.5981
11
152.009
21
-86.8683
0
LINE
8
BLACK
6
CONTINUOUS
10
152.009
20
-86.8683
11
152.13
21
-87.1997
0
LINE
8
BLACK
6
CONTINUOUS
10
152.13
20
-87.1997
11
152.13
21
-87.5523
0
LINE
8
BLACK
6
CONTINUOUS
10
152.13
20
-87.5523
11
152.009
21
-87.8837
0
LINE
8
BLACK
6
CONTINUOUS
10
152.009
20
-87.8837
11
151.783
21
-88.1539
0
LINE
8
BLACK
6
CONTINUOUS
10
151.783
20
-88.1539
11
151.477
21
-88.3302
0
LINE
8
BLACK
6
CONTINUOUS
10
151.477
20
-88.3302
11
151.13
21
-88.3914
0
LINE
8
BLACK
6
CONTINUOUS
10
151.13
20
-88.3914
11
150.783
21
-88.3302
0
LINE
8
BLACK
6
CONTINUOUS
10
150.783
20
-88.3302
11
150.477
21
-88.1539
0
LINE
8
BLACK
6
CONTINUOUS
10
150.477
20
-88.1539
11
150.251
21
-87.8837
0
LINE
8
BLACK
6
CONTINUOUS
10
150.251
20
-87.8837
11
150.13
21
-87.5523
0
LINE
8
BLACK
6
CONTINUOUS
10
150.13
20
-87.5523
11
150.13
21
-87.1997
0
LINE
8
BLACK
6
CONTINUOUS
10
150.13
20
-87.1997
11
150.251
21
-86.8683
0
LINE
8
BLACK
6
CONTINUOUS
10
150.251
20
-86.8683
11
150.477
21
-86.5981
0
LINE
8
BLACK
6
CONTINUOUS
10
150.477
20
-86.5981
11
150.783
21
-86.4218
0
LINE
8
BLACK
6
CONTINUOUS
10
150.783
20
-86.4218
11
151.13
21
-86.3606
0
LINE
8
BLACK
6
CONTINUOUS
10
151.13
20
-86.3606
11
151.477
21
-86.4218
0
LINE
8
BLACK
6
CONTINUOUS
10
103.217
20
-85.4058
11
103.523
21
-85.5821
0
LINE
8
BLACK
6
CONTINUOUS
10
103.523
20
-85.5821
11
103.749
21
-85.8523
0
LINE
8
BLACK
6
CONTINUOUS
10
103.749
20
-85.8523
11
103.87
21
-86.1837
0
LINE
8
BLACK
6
CONTINUOUS
10
103.87
20
-86.1837
11
103.87
21
-86.5363
0
LINE
8
BLACK
6
CONTINUOUS
10
103.87
20
-86.5363
11
103.749
21
-86.8677
0
LINE
8
BLACK
6
CONTINUOUS
10
103.749
20
-86.8677
11
103.523
21
-87.1379
0
LINE
8
BLACK
6
CONTINUOUS
10
103.523
20
-87.1379
11
103.217
21
-87.3142
0
LINE
8
BLACK
6
CONTINUOUS
10
103.217
20
-87.3142
11
102.87
21
-87.3754
0
LINE
8
BLACK
6
CONTINUOUS
10
102.87
20
-87.3754
11
102.523
21
-87.3142
0
LINE
8
BLACK
6
CONTINUOUS
10
102.523
20
-87.3142
11
102.217
21
-87.1379
0
LINE
8
BLACK
6
CONTINUOUS
10
102.217
20
-87.1379
11
101.991
21
-86.8677
0
LINE
8
BLACK
6
CONTINUOUS
10
101.991
20
-86.8677
11
101.87
21
-86.5363
0
LINE
8
BLACK
6
CONTINUOUS
10
101.87
20
-86.5363
11
101.87
21
-86.1837
0
LINE
8
BLACK
6
CONTINUOUS
10
101.87
20
-86.1837
11
101.991
21
-85.8523
0
LINE
8
BLACK
6
CONTINUOUS
10
101.991
20
-85.8523
11
102.217
21
-85.5821
0
LINE
8
BLACK
6
CONTINUOUS
10
102.217
20
-85.5821
11
102.523
21
-85.4058
0
LINE
8
BLACK
6
CONTINUOUS
10
102.523
20
-85.4058
11
102.87
21
-85.3446
0
LINE
8
BLACK
6
CONTINUOUS
10
102.87
20
-85.3446
11
103.217
21
-85.4058
0
LINE
8
BLACK
6
CONTINUOUS
10
119.727
20
-35.6091
11
120.033
21
-35.7854
0
LINE
8
BLACK
6
CONTINUOUS
10
120.033
20
-35.7854
11
120.259
21
-36.0556
0
LINE
8
BLACK
6
CONTINUOUS
10
120.259
20
-36.0556
11
120.38
21
-36.387
0
LINE
8
BLACK
6
CONTINUOUS
10
120.38
20
-36.387
11
120.38
21
-36.7396
0
LINE
8
BLACK
6
CONTINUOUS
10
120.38
20
-36.7396
11
120.259
21
-37.071
0
LINE
8
BLACK
6
CONTINUOUS
10
120.259
20
-37.071
11
120.033
21
-37.3412
0
LINE
8
BLACK
6
CONTINUOUS
10
120.033
20
-37.3412
11
119.727
21
-37.5175
0
LINE
8
BLACK
6
CONTINUOUS
10
119.727
20
-37.5175
11
119.38
21
-37.5787
0
LINE
8
BLACK
6
CONTINUOUS
10
119.38
20
-37.5787
11
119.033
21
-37.5175
0
LINE
8
BLACK
6
CONTINUOUS
10
119.033
20
-37.5175
11
118.97
21
-37.4815
0
LINE
8
BLACK
6
CONTINUOUS
10
118.97
20
-37.4815
11
115.155
21
-41.297
0
LINE
8
BLACK
6
CONTINUOUS
10
115.155
20
-41.297
11
115.179
21
-41.3261
0
LINE
8
BLACK
6
CONTINUOUS
10
115.179
20
-41.3261
11
115.3
21
-41.6575
0
LINE
8
BLACK
6
CONTINUOUS
10
115.3
20
-41.6575
11
115.3
21
-42.0101
0
LINE
8
BLACK
6
CONTINUOUS
10
115.3
20
-42.0101
11
115.179
21
-42.3415
0
LINE
8
BLACK
6
CONTINUOUS
10
115.179
20
-42.3415
11
114.953
21
-42.6117
0
LINE
8
BLACK
6
CONTINUOUS
10
114.953
20
-42.6117
11
114.647
21
-42.788
0
LINE
8
BLACK
6
CONTINUOUS
10
114.647
20
-42.788
11
114.3
21
-42.8492
0
LINE
8
BLACK
6
CONTINUOUS
10
114.3
20
-42.8492
11
113.953
21
-42.788
0
LINE
8
BLACK
6
CONTINUOUS
10
113.953
20
-42.788
11
113.77
21
-42.6823
0
LINE
8
BLACK
6
CONTINUOUS
10
113.77
20
-42.6823
11
93.855
21
-62.597
0
LINE
8
BLACK
6
CONTINUOUS
10
93.855
20
-62.597
11
93.855
21
-75.9052
0
LINE
8
BLACK
6
CONTINUOUS
10
93.855
20
-75.9052
11
93.8576
21
-75.9349
0
LINE
8
BLACK
6
CONTINUOUS
10
93.8576
20
-75.9349
11
93.8499
21
-75.9637
0
LINE
8
BLACK
6
CONTINUOUS
10
93.8499
20
-75.9637
11
93.8447
21
-75.9931
0
LINE
8
BLACK
6
CONTINUOUS
10
93.8447
20
-75.9931
11
93.8397
21
-76.0018
0
LINE
8
BLACK
6
CONTINUOUS
10
93.8397
20
-76.0018
11
93.8371
21
-76.0116
0
LINE
8
BLACK
6
CONTINUOUS
10
93.8371
20
-76.0116
11
93.8199
21
-76.036
0
LINE
8
BLACK
6
CONTINUOUS
10
93.8199
20
-76.036
11
93.805
21
-76.0619
0
LINE
8
BLACK
6
CONTINUOUS
10
93.805
20
-76.0619
11
93.7822
21
-76.081
0
LINE
8
BLACK
6
CONTINUOUS
10
93.7822
20
-76.081
11
85.31
21
-84.5532
0
LINE
8
BLACK
6
CONTINUOUS
10
85.31
20
-84.5532
11
85.3344
21
-84.5823
0
LINE
8
BLACK
6
CONTINUOUS
10
85.3344
20
-84.5823
11
85.455
21
-84.9137
0
LINE
8
BLACK
6
CONTINUOUS
10
85.455
20
-84.9137
11
85.455
21
-85.2663
0
LINE
8
BLACK
6
CONTINUOUS
10
85.455
20
-85.2663
11
85.3344
21
-85.5977
0
LINE
8
BLACK
6
CONTINUOUS
10
85.3344
20
-85.5977
11
85.1077
21
-85.8679
0
LINE
8
BLACK
6
CONTINUOUS
10
85.1077
20
-85.8679
11
84.8023
21
-86.0442
0
LINE
8
BLACK
6
CONTINUOUS
10
84.8023
20
-86.0442
11
84.455
21
-86.1054
0
LINE
8
BLACK
6
CONTINUOUS
10
84.455
20
-86.1054
11
84.1077
21
-86.0442
0
LINE
8
BLACK
6
CONTINUOUS
10
84.1077
20
-86.0442
11
83.8023
21
-85.8679
0
LINE
8
BLACK
6
CONTINUOUS
10
83.8023
20
-85.8679
11
83.5756
21
-85.5977
0
LINE
8
BLACK
6
CONTINUOUS
10
83.5756
20
-85.5977
11
83.455
21
-85.2663
0
LINE
8
BLACK
6
CONTINUOUS
10
83.455
20
-85.2663
11
83.455
21
-84.9137
0
LINE
8
BLACK
6
CONTINUOUS
10
83.455
20
-84.9137
11
83.5756
21
-84.5823
0
LINE
8
BLACK
6
CONTINUOUS
10
83.5756
20
-84.5823
11
83.8023
21
-84.3121
0
LINE
8
BLACK
6
CONTINUOUS
10
83.8023
20
-84.3121
11
84.1077
21
-84.1358
0
LINE
8
BLACK
6
CONTINUOUS
10
84.1077
20
-84.1358
11
84.455
21
-84.0746
0
LINE
8
BLACK
6
CONTINUOUS
10
84.455
20
-84.0746
11
84.8023
21
-84.1358
0
LINE
8
BLACK
6
CONTINUOUS
10
84.8023
20
-84.1358
11
84.9853
21
-84.2415
0
LINE
8
BLACK
6
CONTINUOUS
10
84.9853
20
-84.2415
11
93.405
21
-75.8218
0
LINE
8
BLACK
6
CONTINUOUS
10
93.405
20
-75.8218
11
93.405
21
-62.5136
0
LINE
8
BLACK
6
CONTINUOUS
10
93.405
20
-62.5136
11
93.4024
21
-62.4839
0
LINE
8
BLACK
6
CONTINUOUS
10
93.4024
20
-62.4839
11
93.4101
21
-62.4551
0
LINE
8
BLACK
6
CONTINUOUS
10
93.4101
20
-62.4551
11
93.4153
21
-62.4257
0
LINE
8
BLACK
6
CONTINUOUS
10
93.4153
20
-62.4257
11
93.4203
21
-62.417
0
LINE
8
BLACK
6
CONTINUOUS
10
93.4203
20
-62.417
11
93.4229
21
-62.4072
0
LINE
8
BLACK
6
CONTINUOUS
10
93.4229
20
-62.4072
11
93.4401
21
-62.3828
0
LINE
8
BLACK
6
CONTINUOUS
10
93.4401
20
-62.3828
11
93.455
21
-62.3569
0
LINE
8
BLACK
6
CONTINUOUS
10
93.455
20
-62.3569
11
93.4778
21
-62.3378
0
LINE
8
BLACK
6
CONTINUOUS
10
93.4778
20
-62.3378
11
113.445
21
-42.3706
0
LINE
8
BLACK
6
CONTINUOUS
10
113.445
20
-42.3706
11
113.421
21
-42.3415
0
LINE
8
BLACK
6
CONTINUOUS
10
113.421
20
-42.3415
11
113.3
21
-42.0101
0
LINE
8
BLACK
6
CONTINUOUS
10
113.3
20
-42.0101
11
113.3
21
-41.6575
0
LINE
8
BLACK
6
CONTINUOUS
10
113.3
20
-41.6575
11
113.421
21
-41.3261
0
LINE
8
BLACK
6
CONTINUOUS
10
113.421
20
-41.3261
11
113.647
21
-41.0559
0
LINE
8
BLACK
6
CONTINUOUS
10
113.647
20
-41.0559
11
113.953
21
-40.8796
0
LINE
8
BLACK
6
CONTINUOUS
10
113.953
20
-40.8796
11
114.3
21
-40.8184
0
LINE
8
BLACK
6
CONTINUOUS
10
114.3
20
-40.8184
11
114.647
21
-40.8796
0
LINE
8
BLACK
6
CONTINUOUS
10
114.647
20
-40.8796
11
114.83
21
-40.9853
0
LINE
8
BLACK
6
CONTINUOUS
10
114.83
20
-40.9853
11
118.612
21
-37.2037
0
LINE
8
BLACK
6
CONTINUOUS
10
118.612
20
-37.2037
11
118.501
21
-37.071
0
LINE
8
BLACK
6
CONTINUOUS
10
118.501
20
-37.071
11
118.38
21
-36.7396
0
LINE
8
BLACK
6
CONTINUOUS
10
118.38
20
-36.7396
11
118.38
21
-36.387
0
LINE
8
BLACK
6
CONTINUOUS
10
118.38
20
-36.387
11
118.501
21
-36.0556
0
LINE
8
BLACK
6
CONTINUOUS
10
118.501
20
-36.0556
11
118.727
21
-35.7854
0
LINE
8
BLACK
6
CONTINUOUS
10
118.727
20
-35.7854
11
119.033
21
-35.6091
0
LINE
8
BLACK
6
CONTINUOUS
10
119.033
20
-35.6091
11
119.38
21
-35.5479
0
LINE
8
BLACK
6
CONTINUOUS
10
119.38
20
-35.5479
11
119.727
21
-35.6091
0
LINE
8
BLACK
6
CONTINUOUS
10
127.278
20
-84.3266
11
127.522
21
-84.4677
0
LINE
8
BLACK
6
CONTINUOUS
10
127.522
20
-84.4677
11
127.704
21
-84.6838
0
LINE
8
BLACK
6
CONTINUOUS
10
127.704
20
-84.6838
11
127.8
21
-84.9489
0
LINE
8
BLACK
6
CONTINUOUS
10
127.8
20
-84.9489
11
127.8
21
-85.2311
0
LINE
8
BLACK
6
CONTINUOUS
10
127.8
20
-85.2311
11
127.704
21
-85.4962
0
LINE
8
BLACK
6
CONTINUOUS
10
127.704
20
-85.4962
11
127.522
21
-85.7123
0
LINE
8
BLACK
6
CONTINUOUS
10
127.522
20
-85.7123
11
127.278
21
-85.8534
0
LINE
8
BLACK
6
CONTINUOUS
10
127.278
20
-85.8534
11
127.07
21
-85.89
0
LINE
8
BLACK
6
CONTINUOUS
10
127.07
20
-85.89
11
126.93
21
-85.89
0
LINE
8
BLACK
6
CONTINUOUS
10
126.93
20
-85.89
11
126.722
21
-85.8534
0
LINE
8
BLACK
6
CONTINUOUS
10
126.722
20
-85.8534
11
126.478
21
-85.7123
0
LINE
8
BLACK
6
CONTINUOUS
10
126.478
20
-85.7123
11
126.296
21
-85.4962
0
LINE
8
BLACK
6
CONTINUOUS
10
126.296
20
-85.4962
11
126.2
21
-85.2311
0
LINE
8
BLACK
6
CONTINUOUS
10
126.2
20
-85.2311
11
126.2
21
-84.9489
0
LINE
8
BLACK
6
CONTINUOUS
10
126.2
20
-84.9489
11
126.296
21
-84.6838
0
LINE
8
BLACK
6
CONTINUOUS
10
126.296
20
-84.6838
11
126.478
21
-84.4677
0
LINE
8
BLACK
6
CONTINUOUS
10
126.478
20
-84.4677
11
126.722
21
-84.3266
0
LINE
8
BLACK
6
CONTINUOUS
10
126.722
20
-84.3266
11
126.93
21
-84.29
0
LINE
8
BLACK
6
CONTINUOUS
10
126.93
20
-84.29
11
127.07
21
-84.29
0
LINE
8
BLACK
6
CONTINUOUS
10
127.07
20
-84.29
11
127.278
21
-84.3266
0
LINE
8
BLACK
6
CONTINUOUS
10
112.56
20
-85.89
11
110.96
21
-85.89
0
LINE
8
BLACK
6
CONTINUOUS
10
110.96
20
-85.89
11
110.96
21
-84.29
0
LINE
8
BLACK
6
CONTINUOUS
10
110.96
20
-84.29
11
112.56
21
-84.29
0
LINE
8
BLACK
6
CONTINUOUS
10
112.56
20
-84.29
11
112.56
21
-85.89
0
LINE
8
BLACK
6
CONTINUOUS
10
151.477
20
-83.8818
11
151.783
21
-84.0581
0
LINE
8
BLACK
6
CONTINUOUS
10
151.783
20
-84.0581
11
152.009
21
-84.3283
0
LINE
8
BLACK
6
CONTINUOUS
10
152.009
20
-84.3283
11
152.13
21
-84.6597
0
LINE
8
BLACK
6
CONTINUOUS
10
152.13
20
-84.6597
11
152.13
21
-85.0123
0
LINE
8
BLACK
6
CONTINUOUS
10
152.13
20
-85.0123
11
152.009
21
-85.3437
0
LINE
8
BLACK
6
CONTINUOUS
10
152.009
20
-85.3437
11
151.783
21
-85.6139
0
LINE
8
BLACK
6
CONTINUOUS
10
151.783
20
-85.6139
11
151.477
21
-85.7902
0
LINE
8
BLACK
6
CONTINUOUS
10
151.477
20
-85.7902
11
151.13
21
-85.8514
0
LINE
8
BLACK
6
CONTINUOUS
10
151.13
20
-85.8514
11
150.783
21
-85.7902
0
LINE
8
BLACK
6
CONTINUOUS
10
150.783
20
-85.7902
11
150.477
21
-85.6139
0
LINE
8
BLACK
6
CONTINUOUS
10
150.477
20
-85.6139
11
150.251
21
-85.3437
0
LINE
8
BLACK
6
CONTINUOUS
10
150.251
20
-85.3437
11
150.13
21
-85.0123
0
LINE
8
BLACK
6
CONTINUOUS
10
150.13
20
-85.0123
11
150.13
21
-84.6597
0
LINE
8
BLACK
6
CONTINUOUS
10
150.13
20
-84.6597
11
150.251
21
-84.3283
0
LINE
8
BLACK
6
CONTINUOUS
10
150.251
20
-84.3283
11
150.477
21
-84.0581
0
LINE
8
BLACK
6
CONTINUOUS
10
150.477
20
-84.0581
11
150.783
21
-83.8818
0
LINE
8
BLACK
6
CONTINUOUS
10
150.783
20
-83.8818
11
151.13
21
-83.8206
0
LINE
8
BLACK
6
CONTINUOUS
10
151.13
20
-83.8206
11
151.477
21
-83.8818
0
LINE
8
BLACK
6
CONTINUOUS
10
103.217
20
-82.8658
11
103.523
21
-83.0421
0
LINE
8
BLACK
6
CONTINUOUS
10
103.523
20
-83.0421
11
103.749
21
-83.3123
0
LINE
8
BLACK
6
CONTINUOUS
10
103.749
20
-83.3123
11
103.87
21
-83.6437
0
LINE
8
BLACK
6
CONTINUOUS
10
103.87
20
-83.6437
11
103.87
21
-83.9963
0
LINE
8
BLACK
6
CONTINUOUS
10
103.87
20
-83.9963
11
103.749
21
-84.3277
0
LINE
8
BLACK
6
CONTINUOUS
10
103.749
20
-84.3277
11
103.523
21
-84.5979
0
LINE
8
BLACK
6
CONTINUOUS
10
103.523
20
-84.5979
11
103.217
21
-84.7742
0
LINE
8
BLACK
6
CONTINUOUS
10
103.217
20
-84.7742
11
102.87
21
-84.8354
0
LINE
8
BLACK
6
CONTINUOUS
10
102.87
20
-84.8354
11
102.523
21
-84.7742
0
LINE
8
BLACK
6
CONTINUOUS
10
102.523
20
-84.7742
11
102.217
21
-84.5979
0
LINE
8
BLACK
6
CONTINUOUS
10
102.217
20
-84.5979
11
101.991
21
-84.3277
0
LINE
8
BLACK
6
CONTINUOUS
10
101.991
20
-84.3277
11
101.87
21
-83.9963
0
LINE
8
BLACK
6
CONTINUOUS
10
101.87
20
-83.9963
11
101.87
21
-83.6437
0
LINE
8
BLACK
6
CONTINUOUS
10
101.87
20
-83.6437
11
101.991
21
-83.3123
0
LINE
8
BLACK
6
CONTINUOUS
10
101.991
20
-83.3123
11
102.217
21
-83.0421
0
LINE
8
BLACK
6
CONTINUOUS
10
102.217
20
-83.0421
11
102.523
21
-82.8658
0
LINE
8
BLACK
6
CONTINUOUS
10
102.523
20
-82.8658
11
102.87
21
-82.8046
0
LINE
8
BLACK
6
CONTINUOUS
10
102.87
20
-82.8046
11
103.217
21
-82.8658
0
LINE
8
BLACK
6
CONTINUOUS
10
151.477
20
-76.2618
11
151.783
21
-76.4381
0
LINE
8
BLACK
6
CONTINUOUS
10
151.783
20
-76.4381
11
152.009
21
-76.7083
0
LINE
8
BLACK
6
CONTINUOUS
10
152.009
20
-76.7083
11
152.13
21
-77.0397
0
LINE
8
BLACK
6
CONTINUOUS
10
152.13
20
-77.0397
11
152.13
21
-77.3923
0
LINE
8
BLACK
6
CONTINUOUS
10
152.13
20
-77.3923
11
152.009
21
-77.7237
0
LINE
8
BLACK
6
CONTINUOUS
10
152.009
20
-77.7237
11
151.783
21
-77.9939
0
LINE
8
BLACK
6
CONTINUOUS
10
151.783
20
-77.9939
11
151.477
21
-78.1702
0
LINE
8
BLACK
6
CONTINUOUS
10
151.477
20
-78.1702
11
151.13
21
-78.2314
0
LINE
8
BLACK
6
CONTINUOUS
10
151.13
20
-78.2314
11
150.783
21
-78.1702
0
LINE
8
BLACK
6
CONTINUOUS
10
150.783
20
-78.1702
11
150.477
21
-77.9939
0
LINE
8
BLACK
6
CONTINUOUS
10
150.477
20
-77.9939
11
150.251
21
-77.7237
0
LINE
8
BLACK
6
CONTINUOUS
10
150.251
20
-77.7237
11
150.13
21
-77.3923
0
LINE
8
BLACK
6
CONTINUOUS
10
150.13
20
-77.3923
11
150.13
21
-77.0397
0
LINE
8
BLACK
6
CONTINUOUS
10
150.13
20
-77.0397
11
150.251
21
-76.7083
0
LINE
8
BLACK
6
CONTINUOUS
10
150.251
20
-76.7083
11
150.477
21
-76.4381
0
LINE
8
BLACK
6
CONTINUOUS
10
150.477
20
-76.4381
11
150.783
21
-76.2618
0
LINE
8
BLACK
6
CONTINUOUS
10
150.783
20
-76.2618
11
151.13
21
-76.2006
0
LINE
8
BLACK
6
CONTINUOUS
10
151.13
20
-76.2006
11
151.477
21
-76.2618
0
LINE
8
BLACK
6
CONTINUOUS
10
84.8023
20
-75.6268
11
85.1077
21
-75.8031
0
LINE
8
BLACK
6
CONTINUOUS
10
85.1077
20
-75.8031
11
85.3344
21
-76.0733
0
LINE
8
BLACK
6
CONTINUOUS
10
85.3344
20
-76.0733
11
85.455
21
-76.4047
0
LINE
8
BLACK
6
CONTINUOUS
10
85.455
20
-76.4047
11
85.455
21
-76.7573
0
LINE
8
BLACK
6
CONTINUOUS
10
85.455
20
-76.7573
11
85.3344
21
-77.0887
0
LINE
8
BLACK
6
CONTINUOUS
10
85.3344
20
-77.0887
11
85.1077
21
-77.3589
0
LINE
8
BLACK
6
CONTINUOUS
10
85.1077
20
-77.3589
11
84.8023
21
-77.5352
0
LINE
8
BLACK
6
CONTINUOUS
10
84.8023
20
-77.5352
11
84.455
21
-77.5964
0
LINE
8
BLACK
6
CONTINUOUS
10
84.455
20
-77.5964
11
84.1077
21
-77.5352
0
LINE
8
BLACK
6
CONTINUOUS
10
84.1077
20
-77.5352
11
83.8023
21
-77.3589
0
LINE
8
BLACK
6
CONTINUOUS
10
83.8023
20
-77.3589
11
83.5756
21
-77.0887
0
LINE
8
BLACK
6
CONTINUOUS
10
83.5756
20
-77.0887
11
83.455
21
-76.7573
0
LINE
8
BLACK
6
CONTINUOUS
10
83.455
20
-76.7573
11
83.455
21
-76.4047
0
LINE
8
BLACK
6
CONTINUOUS
10
83.455
20
-76.4047
11
83.5756
21
-76.0733
0
LINE
8
BLACK
6
CONTINUOUS
10
83.5756
20
-76.0733
11
83.8023
21
-75.8031
0
LINE
8
BLACK
6
CONTINUOUS
10
83.8023
20
-75.8031
11
84.1077
21
-75.6268
0
LINE
8
BLACK
6
CONTINUOUS
10
84.1077
20
-75.6268
11
84.455
21
-75.5656
0
LINE
8
BLACK
6
CONTINUOUS
10
84.455
20
-75.5656
11
84.8023
21
-75.6268
0
LINE
8
BLACK
6
CONTINUOUS
10
151.477
20
-73.7218
11
151.783
21
-73.8981
0
LINE
8
BLACK
6
CONTINUOUS
10
151.783
20
-73.8981
11
152.009
21
-74.1683
0
LINE
8
BLACK
6
CONTINUOUS
10
152.009
20
-74.1683
11
152.13
21
-74.4997
0
LINE
8
BLACK
6
CONTINUOUS
10
152.13
20
-74.4997
11
152.13
21
-74.8523
0
LINE
8
BLACK
6
CONTINUOUS
10
152.13
20
-74.8523
11
152.009
21
-75.1837
0
LINE
8
BLACK
6
CONTINUOUS
10
152.009
20
-75.1837
11
151.783
21
-75.4539
0
LINE
8
BLACK
6
CONTINUOUS
10
151.783
20
-75.4539
11
151.477
21
-75.6302
0
LINE
8
BLACK
6
CONTINUOUS
10
151.477
20
-75.6302
11
151.13
21
-75.6914
0
LINE
8
BLACK
6
CONTINUOUS
10
151.13
20
-75.6914
11
150.783
21
-75.6302
0
LINE
8
BLACK
6
CONTINUOUS
10
150.783
20
-75.6302
11
150.477
21
-75.4539
0
LINE
8
BLACK
6
CONTINUOUS
10
150.477
20
-75.4539
11
150.251
21
-75.1837
0
LINE
8
BLACK
6
CONTINUOUS
10
150.251
20
-75.1837
11
150.13
21
-74.8523
0
LINE
8
BLACK
6
CONTINUOUS
10
150.13
20
-74.8523
11
150.13
21
-74.4997
0
LINE
8
BLACK
6
CONTINUOUS
10
150.13
20
-74.4997
11
150.251
21
-74.1683
0
LINE
8
BLACK
6
CONTINUOUS
10
150.251
20
-74.1683
11
150.477
21
-73.8981
0
LINE
8
BLACK
6
CONTINUOUS
10
150.477
20
-73.8981
11
150.783
21
-73.7218
0
LINE
8
BLACK
6
CONTINUOUS
10
150.783
20
-73.7218
11
151.13
21
-73.6606
0
LINE
8
BLACK
6
CONTINUOUS
10
151.13
20
-73.6606
11
151.477
21
-73.7218
0
LINE
8
BLACK
6
CONTINUOUS
10
84.8023
20
-71.6644
11
85.1077
21
-71.8407
0
LINE
8
BLACK
6
CONTINUOUS
10
85.1077
20
-71.8407
11
85.3344
21
-72.1109
0
LINE
8
BLACK
6
CONTINUOUS
10
85.3344
20
-72.1109
11
85.455
21
-72.4423
0
LINE
8
BLACK
6
CONTINUOUS
10
85.455
20
-72.4423
11
85.455
21
-72.7949
0
LINE
8
BLACK
6
CONTINUOUS
10
85.455
20
-72.7949
11
85.3344
21
-73.1263
0
LINE
8
BLACK
6
CONTINUOUS
10
85.3344
20
-73.1263
11
85.1077
21
-73.3965
0
LINE
8
BLACK
6
CONTINUOUS
10
85.1077
20
-73.3965
11
84.8023
21
-73.5728
0
LINE
8
BLACK
6
CONTINUOUS
10
84.8023
20
-73.5728
11
84.455
21
-73.634
0
LINE
8
BLACK
6
CONTINUOUS
10
84.455
20
-73.634
11
84.1077
21
-73.5728
0
LINE
8
BLACK
6
CONTINUOUS
10
84.1077
20
-73.5728
11
83.8023
21
-73.3965
0
LINE
8
BLACK
6
CONTINUOUS
10
83.8023
20
-73.3965
11
83.5756
21
-73.1263
0
LINE
8
BLACK
6
CONTINUOUS
10
83.5756
20
-73.1263
11
83.455
21
-72.7949
0
LINE
8
BLACK
6
CONTINUOUS
10
83.455
20
-72.7949
11
83.455
21
-72.4423
0
LINE
8
BLACK
6
CONTINUOUS
10
83.455
20
-72.4423
11
83.5756
21
-72.1109
0
LINE
8
BLACK
6
CONTINUOUS
10
83.5756
20
-72.1109
11
83.8023
21
-71.8407
0
LINE
8
BLACK
6
CONTINUOUS
10
83.8023
20
-71.8407
11
84.1077
21
-71.6644
0
LINE
8
BLACK
6
CONTINUOUS
10
84.1077
20
-71.6644
11
84.455
21
-71.6032
0
LINE
8
BLACK
6
CONTINUOUS
10
84.455
20
-71.6032
11
84.8023
21
-71.6644
0
LINE
8
BLACK
6
CONTINUOUS
10
103.217
20
-71.1818
11
103.523
21
-71.3581
0
LINE
8
BLACK
6
CONTINUOUS
10
103.523
20
-71.3581
11
103.749
21
-71.6283
0
LINE
8
BLACK
6
CONTINUOUS
10
103.749
20
-71.6283
11
103.87
21
-71.9597
0
LINE
8
BLACK
6
CONTINUOUS
10
103.87
20
-71.9597
11
103.87
21
-72.3123
0
LINE
8
BLACK
6
CONTINUOUS
10
103.87
20
-72.3123
11
103.749
21
-72.6437
0
LINE
8
BLACK
6
CONTINUOUS
10
103.749
20
-72.6437
11
103.523
21
-72.9139
0
LINE
8
BLACK
6
CONTINUOUS
10
103.523
20
-72.9139
11
103.217
21
-73.0902
0
LINE
8
BLACK
6
CONTINUOUS
10
103.217
20
-73.0902
11
102.87
21
-73.1514
0
LINE
8
BLACK
6
CONTINUOUS
10
102.87
20
-73.1514
11
102.523
21
-73.0902
0
LINE
8
BLACK
6
CONTINUOUS
10
102.523
20
-73.0902
11
102.217
21
-72.9139
0
LINE
8
BLACK
6
CONTINUOUS
10
102.217
20
-72.9139
11
101.991
21
-72.6437
0
LINE
8
BLACK
6
CONTINUOUS
10
101.991
20
-72.6437
11
101.87
21
-72.3123
0
LINE
8
BLACK
6
CONTINUOUS
10
101.87
20
-72.3123
11
101.87
21
-71.9597
0
LINE
8
BLACK
6
CONTINUOUS
10
101.87
20
-71.9597
11
101.991
21
-71.6283
0
LINE
8
BLACK
6
CONTINUOUS
10
101.991
20
-71.6283
11
102.217
21
-71.3581
0
LINE
8
BLACK
6
CONTINUOUS
10
102.217
20
-71.3581
11
102.523
21
-71.1818
0
LINE
8
BLACK
6
CONTINUOUS
10
102.523
20
-71.1818
11
102.87
21
-71.1206
0
LINE
8
BLACK
6
CONTINUOUS
10
102.87
20
-71.1206
11
103.217
21
-71.1818
0
LINE
8
BLACK
6
CONTINUOUS
10
103.217
20
-68.6418
11
103.523
21
-68.8181
0
LINE
8
BLACK
6
CONTINUOUS
10
103.523
20
-68.8181
11
103.749
21
-69.0883
0
LINE
8
BLACK
6
CONTINUOUS
10
103.749
20
-69.0883
11
103.87
21
-69.4197
0
LINE
8
BLACK
6
CONTINUOUS
10
103.87
20
-69.4197
11
103.87
21
-69.7723
0
LINE
8
BLACK
6
CONTINUOUS
10
103.87
20
-69.7723
11
103.749
21
-70.1037
0
LINE
8
BLACK
6
CONTINUOUS
10
103.749
20
-70.1037
11
103.523
21
-70.3739
0
LINE
8
BLACK
6
CONTINUOUS
10
103.523
20
-70.3739
11
103.217
21
-70.5502
0
LINE
8
BLACK
6
CONTINUOUS
10
103.217
20
-70.5502
11
102.87
21
-70.6114
0
LINE
8
BLACK
6
CONTINUOUS
10
102.87
20
-70.6114
11
102.523
21
-70.5502
0
LINE
8
BLACK
6
CONTINUOUS
10
102.523
20
-70.5502
11
102.217
21
-70.3739
0
LINE
8
BLACK
6
CONTINUOUS
10
102.217
20
-70.3739
11
101.991
21
-70.1037
0
LINE
8
BLACK
6
CONTINUOUS
10
101.991
20
-70.1037
11
101.87
21
-69.7723
0
LINE
8
BLACK
6
CONTINUOUS
10
101.87
20
-69.7723
11
101.87
21
-69.4197
0
LINE
8
BLACK
6
CONTINUOUS
10
101.87
20
-69.4197
11
101.991
21
-69.0883
0
LINE
8
BLACK
6
CONTINUOUS
10
101.991
20
-69.0883
11
102.217
21
-68.8181
0
LINE
8
BLACK
6
CONTINUOUS
10
102.217
20
-68.8181
11
102.523
21
-68.6418
0
LINE
8
BLACK
6
CONTINUOUS
10
102.523
20
-68.6418
11
102.87
21
-68.5806
0
LINE
8
BLACK
6
CONTINUOUS
10
102.87
20
-68.5806
11
103.217
21
-68.6418
0
LINE
8
BLACK
6
CONTINUOUS
10
151.477
20
-68.6418
11
151.783
21
-68.8181
0
LINE
8
BLACK
6
CONTINUOUS
10
151.783
20
-68.8181
11
152.009
21
-69.0883
0
LINE
8
BLACK
6
CONTINUOUS
10
152.009
20
-69.0883
11
152.13
21
-69.4197
0
LINE
8
BLACK
6
CONTINUOUS
10
152.13
20
-69.4197
11
152.13
21
-69.7723
0
LINE
8
BLACK
6
CONTINUOUS
10
152.13
20
-69.7723
11
152.009
21
-70.1037
0
LINE
8
BLACK
6
CONTINUOUS
10
152.009
20
-70.1037
11
151.783
21
-70.3739
0
LINE
8
BLACK
6
CONTINUOUS
10
151.783
20
-70.3739
11
151.477
21
-70.5502
0
LINE
8
BLACK
6
CONTINUOUS
10
151.477
20
-70.5502
11
151.13
21
-70.6114
0
LINE
8
BLACK
6
CONTINUOUS
10
151.13
20
-70.6114
11
150.783
21
-70.5502
0
LINE
8
BLACK
6
CONTINUOUS
10
150.783
20
-70.5502
11
150.477
21
-70.3739
0
LINE
8
BLACK
6
CONTINUOUS
10
150.477
20
-70.3739
11
150.251
21
-70.1037
0
LINE
8
BLACK
6
CONTINUOUS
10
150.251
20
-70.1037
11
150.13
21
-69.7723
0
LINE
8
BLACK
6
CONTINUOUS
10
150.13
20
-69.7723
11
150.13
21
-69.4197
0
LINE
8
BLACK
6
CONTINUOUS
10
150.13
20
-69.4197
11
150.251
21
-69.0883
0
LINE
8
BLACK
6
CONTINUOUS
10
150.251
20
-69.0883
11
150.477
21
-68.8181
0
LINE
8
BLACK
6
CONTINUOUS
10
150.477
20
-68.8181
11
150.783
21
-68.6418
0
LINE
8
BLACK
6
CONTINUOUS
10
150.783
20
-68.6418
11
151.13
21
-68.5806
0
LINE
8
BLACK
6
CONTINUOUS
10
151.13
20
-68.5806
11
151.477
21
-68.6418
0
LINE
8
BLACK
6
CONTINUOUS
10
84.8023
20
-67.1178
11
85.1077
21
-67.2941
0
LINE
8
BLACK
6
CONTINUOUS
10
85.1077
20
-67.2941
11
85.3344
21
-67.5643
0
LINE
8
BLACK
6
CONTINUOUS
10
85.3344
20
-67.5643
11
85.455
21
-67.8957
0
LINE
8
BLACK
6
CONTINUOUS
10
85.455
20
-67.8957
11
85.455
21
-68.2483
0
LINE
8
BLACK
6
CONTINUOUS
10
85.455
20
-68.2483
11
85.3344
21
-68.5797
0
LINE
8
BLACK
6
CONTINUOUS
10
85.3344
20
-68.5797
11
85.1077
21
-68.8499
0
LINE
8
BLACK
6
CONTINUOUS
10
85.1077
20
-68.8499
11
84.8023
21
-69.0262
0
LINE
8
BLACK
6
CONTINUOUS
10
84.8023
20
-69.0262
11
84.455
21
-69.0874
0
LINE
8
BLACK
6
CONTINUOUS
10
84.455
20
-69.0874
11
84.1077
21
-69.0262
0
LINE
8
BLACK
6
CONTINUOUS
10
84.1077
20
-69.0262
11
83.8023
21
-68.8499
0
LINE
8
BLACK
6
CONTINUOUS
10
83.8023
20
-68.8499
11
83.5756
21
-68.5797
0
LINE
8
BLACK
6
CONTINUOUS
10
83.5756
20
-68.5797
11
83.455
21
-68.2483
0
LINE
8
BLACK
6
CONTINUOUS
10
83.455
20
-68.2483
11
83.455
21
-67.8957
0
LINE
8
BLACK
6
CONTINUOUS
10
83.455
20
-67.8957
11
83.5756
21
-67.5643
0
LINE
8
BLACK
6
CONTINUOUS
10
83.5756
20
-67.5643
11
83.8023
21
-67.2941
0
LINE
8
BLACK
6
CONTINUOUS
10
83.8023
20
-67.2941
11
84.1077
21
-67.1178
0
LINE
8
BLACK
6
CONTINUOUS
10
84.1077
20
-67.1178
11
84.455
21
-67.0566
0
LINE
8
BLACK
6
CONTINUOUS
10
84.455
20
-67.0566
11
84.8023
21
-67.1178
0
LINE
8
BLACK
6
CONTINUOUS
10
103.217
20
-66.1018
11
103.523
21
-66.2781
0
LINE
8
BLACK
6
CONTINUOUS
10
103.523
20
-66.2781
11
103.749
21
-66.5483
0
LINE
8
BLACK
6
CONTINUOUS
10
103.749
20
-66.5483
11
103.87
21
-66.8797
0
LINE
8
BLACK
6
CONTINUOUS
10
103.87
20
-66.8797
11
103.87
21
-67.2323
0
LINE
8
BLACK
6
CONTINUOUS
10
103.87
20
-67.2323
11
103.749
21
-67.5637
0
LINE
8
BLACK
6
CONTINUOUS
10
103.749
20
-67.5637
11
103.523
21
-67.8339
0
LINE
8
BLACK
6
CONTINUOUS
10
103.523
20
-67.8339
11
103.217
21
-68.0102
0
LINE
8
BLACK
6
CONTINUOUS
10
103.217
20
-68.0102
11
102.87
21
-68.0714
0
LINE
8
BLACK
6
CONTINUOUS
10
102.87
20
-68.0714
11
102.523
21
-68.0102
0
LINE
8
BLACK
6
CONTINUOUS
10
102.523
20
-68.0102
11
102.217
21
-67.8339
0
LINE
8
BLACK
6
CONTINUOUS
10
102.217
20
-67.8339
11
101.991
21
-67.5637
0
LINE
8
BLACK
6
CONTINUOUS
10
101.991
20
-67.5637
11
101.87
21
-67.2323
0
LINE
8
BLACK
6
CONTINUOUS
10
101.87
20
-67.2323
11
101.87
21
-66.8797
0
LINE
8
BLACK
6
CONTINUOUS
10
101.87
20
-66.8797
11
101.991
21
-66.5483
0
LINE
8
BLACK
6
CONTINUOUS
10
101.991
20
-66.5483
11
102.217
21
-66.2781
0
LINE
8
BLACK
6
CONTINUOUS
10
102.217
20
-66.2781
11
102.523
21
-66.1018
0
LINE
8
BLACK
6
CONTINUOUS
10
102.523
20
-66.1018
11
102.87
21
-66.0406
0
LINE
8
BLACK
6
CONTINUOUS
10
102.87
20
-66.0406
11
103.217
21
-66.1018
0
LINE
8
BLACK
6
CONTINUOUS
10
151.477
20
-66.1018
11
151.783
21
-66.2781
0
LINE
8
BLACK
6
CONTINUOUS
10
151.783
20
-66.2781
11
152.009
21
-66.5483
0
LINE
8
BLACK
6
CONTINUOUS
10
152.009
20
-66.5483
11
152.13
21
-66.8797
0
LINE
8
BLACK
6
CONTINUOUS
10
152.13
20
-66.8797
11
152.13
21
-67.2323
0
LINE
8
BLACK
6
CONTINUOUS
10
152.13
20
-67.2323
11
152.009
21
-67.5637
0
LINE
8
BLACK
6
CONTINUOUS
10
152.009
20
-67.5637
11
151.783
21
-67.8339
0
LINE
8
BLACK
6
CONTINUOUS
10
151.783
20
-67.8339
11
151.477
21
-68.0102
0
LINE
8
BLACK
6
CONTINUOUS
10
151.477
20
-68.0102
11
151.13
21
-68.0714
0
LINE
8
BLACK
6
CONTINUOUS
10
151.13
20
-68.0714
11
150.783
21
-68.0102
0
LINE
8
BLACK
6
CONTINUOUS
10
150.783
20
-68.0102
11
150.477
21
-67.8339
0
LINE
8
BLACK
6
CONTINUOUS
10
150.477
20
-67.8339
11
150.251
21
-67.5637
0
LINE
8
BLACK
6
CONTINUOUS
10
150.251
20
-67.5637
11
150.13
21
-67.2323
0
LINE
8
BLACK
6
CONTINUOUS
10
150.13
20
-67.2323
11
150.13
21
-66.8797
0
LINE
8
BLACK
6
CONTINUOUS
10
150.13
20
-66.8797
11
150.251
21
-66.5483
0
LINE
8
BLACK
6
CONTINUOUS
10
150.251
20
-66.5483
11
150.477
21
-66.2781
0
LINE
8
BLACK
6
CONTINUOUS
10
150.477
20
-66.2781
11
150.783
21
-66.1018
0
LINE
8
BLACK
6
CONTINUOUS
10
150.783
20
-66.1018
11
151.13
21
-66.0406
0
LINE
8
BLACK
6
CONTINUOUS
10
151.13
20
-66.0406
11
151.477
21
-66.1018
0
LINE
8
BLACK
6
CONTINUOUS
10
103.217
20
-63.5618
11
103.523
21
-63.7381
0
LINE
8
BLACK
6
CONTINUOUS
10
103.523
20
-63.7381
11
103.749
21
-64.0083
0
LINE
8
BLACK
6
CONTINUOUS
10
103.749
20
-64.0083
11
103.87
21
-64.3397
0
LINE
8
BLACK
6
CONTINUOUS
10
103.87
20
-64.3397
11
103.87
21
-64.6923
0
LINE
8
BLACK
6
CONTINUOUS
10
103.87
20
-64.6923
11
103.749
21
-65.0237
0
LINE
8
BLACK
6
CONTINUOUS
10
103.749
20
-65.0237
11
103.523
21
-65.2939
0
LINE
8
BLACK
6
CONTINUOUS
10
103.523
20
-65.2939
11
103.217
21
-65.4702
0
LINE
8
BLACK
6
CONTINUOUS
10
103.217
20
-65.4702
11
102.87
21
-65.5314
0
LINE
8
BLACK
6
CONTINUOUS
10
102.87
20
-65.5314
11
102.523
21
-65.4702
0
LINE
8
BLACK
6
CONTINUOUS
10
102.523
20
-65.4702
11
102.217
21
-65.2939
0
LINE
8
BLACK
6
CONTINUOUS
10
102.217
20
-65.2939
11
101.991
21
-65.0237
0
LINE
8
BLACK
6
CONTINUOUS
10
101.991
20
-65.0237
11
101.87
21
-64.6923
0
LINE
8
BLACK
6
CONTINUOUS
10
101.87
20
-64.6923
11
101.87
21
-64.3397
0
LINE
8
BLACK
6
CONTINUOUS
10
101.87
20
-64.3397
11
101.991
21
-64.0083
0
LINE
8
BLACK
6
CONTINUOUS
10
101.991
20
-64.0083
11
102.217
21
-63.7381
0
LINE
8
BLACK
6
CONTINUOUS
10
102.217
20
-63.7381
11
102.523
21
-63.5618
0
LINE
8
BLACK
6
CONTINUOUS
10
102.523
20
-63.5618
11
102.87
21
-63.5006
0
LINE
8
BLACK
6
CONTINUOUS
10
102.87
20
-63.5006
11
103.217
21
-63.5618
0
LINE
8
BLACK
6
CONTINUOUS
10
151.477
20
-63.5618
11
151.783
21
-63.7381
0
LINE
8
BLACK
6
CONTINUOUS
10
151.783
20
-63.7381
11
152.009
21
-64.0083
0
LINE
8
BLACK
6
CONTINUOUS
10
152.009
20
-64.0083
11
152.13
21
-64.3397
0
LINE
8
BLACK
6
CONTINUOUS
10
152.13
20
-64.3397
11
152.13
21
-64.6923
0
LINE
8
BLACK
6
CONTINUOUS
10
152.13
20
-64.6923
11
152.009
21
-65.0237
0
LINE
8
BLACK
6
CONTINUOUS
10
152.009
20
-65.0237
11
151.783
21
-65.2939
0
LINE
8
BLACK
6
CONTINUOUS
10
151.783
20
-65.2939
11
151.477
21
-65.4702
0
LINE
8
BLACK
6
CONTINUOUS
10
151.477
20
-65.4702
11
151.13
21
-65.5314
0
LINE
8
BLACK
6
CONTINUOUS
10
151.13
20
-65.5314
11
150.783
21
-65.4702
0
LINE
8
BLACK
6
CONTINUOUS
10
150.783
20
-65.4702
11
150.477
21
-65.2939
0
LINE
8
BLACK
6
CONTINUOUS
10
150.477
20
-65.2939
11
150.251
21
-65.0237
0
LINE
8
BLACK
6
CONTINUOUS
10
150.251
20
-65.0237
11
150.13
21
-64.6923
0
LINE
8
BLACK
6
CONTINUOUS
10
150.13
20
-64.6923
11
150.13
21
-64.3397
0
LINE
8
BLACK
6
CONTINUOUS
10
150.13
20
-64.3397
11
150.251
21
-64.0083
0
LINE
8
BLACK
6
CONTINUOUS
10
150.251
20
-64.0083
11
150.477
21
-63.7381
0
LINE
8
BLACK
6
CONTINUOUS
10
150.477
20
-63.7381
11
150.783
21
-63.5618
0
LINE
8
BLACK
6
CONTINUOUS
10
150.783
20
-63.5618
11
151.13
21
-63.5006
0
LINE
8
BLACK
6
CONTINUOUS
10
151.13
20
-63.5006
11
151.477
21
-63.5618
0
LINE
8
BLACK
6
CONTINUOUS
10
84.8023
20
-63.1554
11
85.1077
21
-63.3317
0
LINE
8
BLACK
6
CONTINUOUS
10
85.1077
20
-63.3317
11
85.3344
21
-63.6019
0
LINE
8
BLACK
6
CONTINUOUS
10
85.3344
20
-63.6019
11
85.455
21
-63.9333
0
LINE
8
BLACK
6
CONTINUOUS
10
85.455
20
-63.9333
11
85.455
21
-64.2859
0
LINE
8
BLACK
6
CONTINUOUS
10
85.455
20
-64.2859
11
85.3344
21
-64.6173
0
LINE
8
BLACK
6
CONTINUOUS
10
85.3344
20
-64.6173
11
85.1077
21
-64.8875
0
LINE
8
BLACK
6
CONTINUOUS
10
85.1077
20
-64.8875
11
84.8023
21
-65.0638
0
LINE
8
BLACK
6
CONTINUOUS
10
84.8023
20
-65.0638
11
84.455
21
-65.125
0
LINE
8
BLACK
6
CONTINUOUS
10
84.455
20
-65.125
11
84.1077
21
-65.0638
0
LINE
8
BLACK
6
CONTINUOUS
10
84.1077
20
-65.0638
11
83.8023
21
-64.8875
0
LINE
8
BLACK
6
CONTINUOUS
10
83.8023
20
-64.8875
11
83.5756
21
-64.6173
0
LINE
8
BLACK
6
CONTINUOUS
10
83.5756
20
-64.6173
11
83.455
21
-64.2859
0
LINE
8
BLACK
6
CONTINUOUS
10
83.455
20
-64.2859
11
83.455
21
-63.9333
0
LINE
8
BLACK
6
CONTINUOUS
10
83.455
20
-63.9333
11
83.5756
21
-63.6019
0
LINE
8
BLACK
6
CONTINUOUS
10
83.5756
20
-63.6019
11
83.8023
21
-63.3317
0
LINE
8
BLACK
6
CONTINUOUS
10
83.8023
20
-63.3317
11
84.1077
21
-63.1554
0
LINE
8
BLACK
6
CONTINUOUS
10
84.1077
20
-63.1554
11
84.455
21
-63.0942
0
LINE
8
BLACK
6
CONTINUOUS
10
84.455
20
-63.0942
11
84.8023
21
-63.1554
0
LINE
8
BLACK
6
CONTINUOUS
10
151.477
20
-61.0218
11
151.783
21
-61.1981
0
LINE
8
BLACK
6
CONTINUOUS
10
151.783
20
-61.1981
11
152.009
21
-61.4683
0
LINE
8
BLACK
6
CONTINUOUS
10
152.009
20
-61.4683
11
152.13
21
-61.7997
0
LINE
8
BLACK
6
CONTINUOUS
10
152.13
20
-61.7997
11
152.13
21
-62.1523
0
LINE
8
BLACK
6
CONTINUOUS
10
152.13
20
-62.1523
11
152.009
21
-62.4837
0
LINE
8
BLACK
6
CONTINUOUS
10
152.009
20
-62.4837
11
151.783
21
-62.7539
0
LINE
8
BLACK
6
CONTINUOUS
10
151.783
20
-62.7539
11
151.477
21
-62.9302
0
LINE
8
BLACK
6
CONTINUOUS
10
151.477
20
-62.9302
11
151.13
21
-62.9914
0
LINE
8
BLACK
6
CONTINUOUS
10
151.13
20
-62.9914
11
150.783
21
-62.9302
0
LINE
8
BLACK
6
CONTINUOUS
10
150.783
20
-62.9302
11
150.477
21
-62.7539
0
LINE
8
BLACK
6
CONTINUOUS
10
150.477
20
-62.7539
11
150.251
21
-62.4837
0
LINE
8
BLACK
6
CONTINUOUS
10
150.251
20
-62.4837
11
150.13
21
-62.1523
0
LINE
8
BLACK
6
CONTINUOUS
10
150.13
20
-62.1523
11
150.13
21
-61.7997
0
LINE
8
BLACK
6
CONTINUOUS
10
150.13
20
-61.7997
11
150.251
21
-61.4683
0
LINE
8
BLACK
6
CONTINUOUS
10
150.251
20
-61.4683
11
150.477
21
-61.1981
0
LINE
8
BLACK
6
CONTINUOUS
10
150.477
20
-61.1981
11
150.783
21
-61.0218
0
LINE
8
BLACK
6
CONTINUOUS
10
150.783
20
-61.0218
11
151.13
21
-60.9606
0
LINE
8
BLACK
6
CONTINUOUS
10
151.13
20
-60.9606
11
151.477
21
-61.0218
0
LINE
8
BLACK
6
CONTINUOUS
10
103.217
20
-61.0218
11
103.523
21
-61.1981
0
LINE
8
BLACK
6
CONTINUOUS
10
103.523
20
-61.1981
11
103.749
21
-61.4683
0
LINE
8
BLACK
6
CONTINUOUS
10
103.749
20
-61.4683
11
103.87
21
-61.7997
0
LINE
8
BLACK
6
CONTINUOUS
10
103.87
20
-61.7997
11
103.87
21
-62.1523
0
LINE
8
BLACK
6
CONTINUOUS
10
103.87
20
-62.1523
11
103.749
21
-62.4837
0
LINE
8
BLACK
6
CONTINUOUS
10
103.749
20
-62.4837
11
103.523
21
-62.7539
0
LINE
8
BLACK
6
CONTINUOUS
10
103.523
20
-62.7539
11
103.217
21
-62.9302
0
LINE
8
BLACK
6
CONTINUOUS
10
103.217
20
-62.9302
11
102.87
21
-62.9914
0
LINE
8
BLACK
6
CONTINUOUS
10
102.87
20
-62.9914
11
102.523
21
-62.9302
0
LINE
8
BLACK
6
CONTINUOUS
10
102.523
20
-62.9302
11
102.217
21
-62.7539
0
LINE
8
BLACK
6
CONTINUOUS
10
102.217
20
-62.7539
11
101.991
21
-62.4837
0
LINE
8
BLACK
6
CONTINUOUS
10
101.991
20
-62.4837
11
101.87
21
-62.1523
0
LINE
8
BLACK
6
CONTINUOUS
10
101.87
20
-62.1523
11
101.87
21
-61.7997
0
LINE
8
BLACK
6
CONTINUOUS
10
101.87
20
-61.7997
11
101.991
21
-61.4683
0
LINE
8
BLACK
6
CONTINUOUS
10
101.991
20
-61.4683
11
102.217
21
-61.1981
0
LINE
8
BLACK
6
CONTINUOUS
10
102.217
20
-61.1981
11
102.523
21
-61.0218
0
LINE
8
BLACK
6
CONTINUOUS
10
102.523
20
-61.0218
11
102.87
21
-60.9606
0
LINE
8
BLACK
6
CONTINUOUS
10
102.87
20
-60.9606
11
103.217
21
-61.0218
0
LINE
8
BLACK
6
CONTINUOUS
10
84.8023
20
-58.6088
11
85.1077
21
-58.7851
0
LINE
8
BLACK
6
CONTINUOUS
10
85.1077
20
-58.7851
11
85.3344
21
-59.0553
0
LINE
8
BLACK
6
CONTINUOUS
10
85.3344
20
-59.0553
11
85.455
21
-59.3867
0
LINE
8
BLACK
6
CONTINUOUS
10
85.455
20
-59.3867
11
85.455
21
-59.7393
0
LINE
8
BLACK
6
CONTINUOUS
10
85.455
20
-59.7393
11
85.3344
21
-60.0707
0
LINE
8
BLACK
6
CONTINUOUS
10
85.3344
20
-60.0707
11
85.1077
21
-60.3409
0
LINE
8
BLACK
6
CONTINUOUS
10
85.1077
20
-60.3409
11
84.8023
21
-60.5172
0
LINE
8
BLACK
6
CONTINUOUS
10
84.8023
20
-60.5172
11
84.455
21
-60.5784
0
LINE
8
BLACK
6
CONTINUOUS
10
84.455
20
-60.5784
11
84.1077
21
-60.5172
0
LINE
8
BLACK
6
CONTINUOUS
10
84.1077
20
-60.5172
11
83.8023
21
-60.3409
0
LINE
8
BLACK
6
CONTINUOUS
10
83.8023
20
-60.3409
11
83.5756
21
-60.0707
0
LINE
8
BLACK
6
CONTINUOUS
10
83.5756
20
-60.0707
11
83.455
21
-59.7393
0
LINE
8
BLACK
6
CONTINUOUS
10
83.455
20
-59.7393
11
83.455
21
-59.3867
0
LINE
8
BLACK
6
CONTINUOUS
10
83.455
20
-59.3867
11
83.5756
21
-59.0553
0
LINE
8
BLACK
6
CONTINUOUS
10
83.5756
20
-59.0553
11
83.8023
21
-58.7851
0
LINE
8
BLACK
6
CONTINUOUS
10
83.8023
20
-58.7851
11
84.1077
21
-58.6088
0
LINE
8
BLACK
6
CONTINUOUS
10
84.1077
20
-58.6088
11
84.455
21
-58.5476
0
LINE
8
BLACK
6
CONTINUOUS
10
84.455
20
-58.5476
11
84.8023
21
-58.6088
0
LINE
8
BLACK
6
CONTINUOUS
10
103.217
20
-58.4818
11
103.523
21
-58.6581
0
LINE
8
BLACK
6
CONTINUOUS
10
103.523
20
-58.6581
11
103.749
21
-58.9283
0
LINE
8
BLACK
6
CONTINUOUS
10
103.749
20
-58.9283
11
103.87
21
-59.2597
0
LINE
8
BLACK
6
CONTINUOUS
10
103.87
20
-59.2597
11
103.87
21
-59.6123
0
LINE
8
BLACK
6
CONTINUOUS
10
103.87
20
-59.6123
11
103.749
21
-59.9437
0
LINE
8
BLACK
6
CONTINUOUS
10
103.749
20
-59.9437
11
103.523
21
-60.2139
0
LINE
8
BLACK
6
CONTINUOUS
10
103.523
20
-60.2139
11
103.217
21
-60.3902
0
LINE
8
BLACK
6
CONTINUOUS
10
103.217
20
-60.3902
11
102.87
21
-60.4514
0
LINE
8
BLACK
6
CONTINUOUS
10
102.87
20
-60.4514
11
102.523
21
-60.3902
0
LINE
8
BLACK
6
CONTINUOUS
10
102.523
20
-60.3902
11
102.217
21
-60.2139
0
LINE
8
BLACK
6
CONTINUOUS
10
102.217
20
-60.2139
11
101.991
21
-59.9437
0
LINE
8
BLACK
6
CONTINUOUS
10
101.991
20
-59.9437
11
101.87
21
-59.6123
0
LINE
8
BLACK
6
CONTINUOUS
10
101.87
20
-59.6123
11
101.87
21
-59.2597
0
LINE
8
BLACK
6
CONTINUOUS
10
101.87
20
-59.2597
11
101.991
21
-58.9283
0
LINE
8
BLACK
6
CONTINUOUS
10
101.991
20
-58.9283
11
102.217
21
-58.6581
0
LINE
8
BLACK
6
CONTINUOUS
10
102.217
20
-58.6581
11
102.523
21
-58.4818
0
LINE
8
BLACK
6
CONTINUOUS
10
102.523
20
-58.4818
11
102.87
21
-58.4206
0
LINE
8
BLACK
6
CONTINUOUS
10
102.87
20
-58.4206
11
103.217
21
-58.4818
0
LINE
8
BLACK
6
CONTINUOUS
10
151.477
20
-58.4818
11
151.783
21
-58.6581
0
LINE
8
BLACK
6
CONTINUOUS
10
151.783
20
-58.6581
11
152.009
21
-58.9283
0
LINE
8
BLACK
6
CONTINUOUS
10
152.009
20
-58.9283
11
152.13
21
-59.2597
0
LINE
8
BLACK
6
CONTINUOUS
10
152.13
20
-59.2597
11
152.13
21
-59.6123
0
LINE
8
BLACK
6
CONTINUOUS
10
152.13
20
-59.6123
11
152.009
21
-59.9437
0
LINE
8
BLACK
6
CONTINUOUS
10
152.009
20
-59.9437
11
151.783
21
-60.2139
0
LINE
8
BLACK
6
CONTINUOUS
10
151.783
20
-60.2139
11
151.477
21
-60.3902
0
LINE
8
BLACK
6
CONTINUOUS
10
151.477
20
-60.3902
11
151.13
21
-60.4514
0
LINE
8
BLACK
6
CONTINUOUS
10
151.13
20
-60.4514
11
150.783
21
-60.3902
0
LINE
8
BLACK
6
CONTINUOUS
10
150.783
20
-60.3902
11
150.477
21
-60.2139
0
LINE
8
BLACK
6
CONTINUOUS
10
150.477
20
-60.2139
11
150.251
21
-59.9437
0
LINE
8
BLACK
6
CONTINUOUS
10
150.251
20
-59.9437
11
150.13
21
-59.6123
0
LINE
8
BLACK
6
CONTINUOUS
10
150.13
20
-59.6123
11
150.13
21
-59.2597
0
LINE
8
BLACK
6
CONTINUOUS
10
150.13
20
-59.2597
11
150.251
21
-58.9283
0
LINE
8
BLACK
6
CONTINUOUS
10
150.251
20
-58.9283
11
150.477
21
-58.6581
0
LINE
8
BLACK
6
CONTINUOUS
10
150.477
20
-58.6581
11
150.783
21
-58.4818
0
LINE
8
BLACK
6
CONTINUOUS
10
150.783
20
-58.4818
11
151.13
21
-58.4206
0
LINE
8
BLACK
6
CONTINUOUS
10
151.13
20
-58.4206
11
151.477
21
-58.4818
0
LINE
8
BLACK
6
CONTINUOUS
10
103.217
20
-55.9418
11
103.523
21
-56.1181
0
LINE
8
BLACK
6
CONTINUOUS
10
103.523
20
-56.1181
11
103.749
21
-56.3883
0
LINE
8
BLACK
6
CONTINUOUS
10
103.749
20
-56.3883
11
103.87
21
-56.7197
0
LINE
8
BLACK
6
CONTINUOUS
10
103.87
20
-56.7197
11
103.87
21
-57.0723
0
LINE
8
BLACK
6
CONTINUOUS
10
103.87
20
-57.0723
11
103.749
21
-57.4037
0
LINE
8
BLACK
6
CONTINUOUS
10
103.749
20
-57.4037
11
103.523
21
-57.6739
0
LINE
8
BLACK
6
CONTINUOUS
10
103.523
20
-57.6739
11
103.217
21
-57.8502
0
LINE
8
BLACK
6
CONTINUOUS
10
103.217
20
-57.8502
11
102.87
21
-57.9114
0
LINE
8
BLACK
6
CONTINUOUS
10
102.87
20
-57.9114
11
102.523
21
-57.8502
0
LINE
8
BLACK
6
CONTINUOUS
10
102.523
20
-57.8502
11
102.217
21
-57.6739
0
LINE
8
BLACK
6
CONTINUOUS
10
102.217
20
-57.6739
11
101.991
21
-57.4037
0
LINE
8
BLACK
6
CONTINUOUS
10
101.991
20
-57.4037
11
101.87
21
-57.0723
0
LINE
8
BLACK
6
CONTINUOUS
10
101.87
20
-57.0723
11
101.87
21
-56.7197
0
LINE
8
BLACK
6
CONTINUOUS
10
101.87
20
-56.7197
11
101.991
21
-56.3883
0
LINE
8
BLACK
6
CONTINUOUS
10
101.991
20
-56.3883
11
102.217
21
-56.1181
0
LINE
8
BLACK
6
CONTINUOUS
10
102.217
20
-56.1181
11
102.523
21
-55.9418
0
LINE
8
BLACK
6
CONTINUOUS
10
102.523
20
-55.9418
11
102.87
21
-55.8806
0
LINE
8
BLACK
6
CONTINUOUS
10
102.87
20
-55.8806
11
103.217
21
-55.9418
0
LINE
8
BLACK
6
CONTINUOUS
10
151.477
20
-55.9418
11
151.783
21
-56.1181
0
LINE
8
BLACK
6
CONTINUOUS
10
151.783
20
-56.1181
11
152.009
21
-56.3883
0
LINE
8
BLACK
6
CONTINUOUS
10
152.009
20
-56.3883
11
152.13
21
-56.7197
0
LINE
8
BLACK
6
CONTINUOUS
10
152.13
20
-56.7197
11
152.13
21
-57.0723
0
LINE
8
BLACK
6
CONTINUOUS
10
152.13
20
-57.0723
11
152.009
21
-57.4037
0
LINE
8
BLACK
6
CONTINUOUS
10
152.009
20
-57.4037
11
151.783
21
-57.6739
0
LINE
8
BLACK
6
CONTINUOUS
10
151.783
20
-57.6739
11
151.477
21
-57.8502
0
LINE
8
BLACK
6
CONTINUOUS
10
151.477
20
-57.8502
11
151.13
21
-57.9114
0
LINE
8
BLACK
6
CONTINUOUS
10
151.13
20
-57.9114
11
150.783
21
-57.8502
0
LINE
8
BLACK
6
CONTINUOUS
10
150.783
20
-57.8502
11
150.477
21
-57.6739
0
LINE
8
BLACK
6
CONTINUOUS
10
150.477
20
-57.6739
11
150.251
21
-57.4037
0
LINE
8
BLACK
6
CONTINUOUS
10
150.251
20
-57.4037
11
150.13
21
-57.0723
0
LINE
8
BLACK
6
CONTINUOUS
10
150.13
20
-57.0723
11
150.13
21
-56.7197
0
LINE
8
BLACK
6
CONTINUOUS
10
150.13
20
-56.7197
11
150.251
21
-56.3883
0
LINE
8
BLACK
6
CONTINUOUS
10
150.251
20
-56.3883
11
150.477
21
-56.1181
0
LINE
8
BLACK
6
CONTINUOUS
10
150.477
20
-56.1181
11
150.783
21
-55.9418
0
LINE
8
BLACK
6
CONTINUOUS
10
150.783
20
-55.9418
11
151.13
21
-55.8806
0
LINE
8
BLACK
6
CONTINUOUS
10
151.13
20
-55.8806
11
151.477
21
-55.9418
0
LINE
8
BLACK
6
CONTINUOUS
10
84.8023
20
-54.6464
11
85.1077
21
-54.8227
0
LINE
8
BLACK
6
CONTINUOUS
10
85.1077
20
-54.8227
11
85.3344
21
-55.0929
0
LINE
8
BLACK
6
CONTINUOUS
10
85.3344
20
-55.0929
11
85.455
21
-55.4243
0
LINE
8
BLACK
6
CONTINUOUS
10
85.455
20
-55.4243
11
85.455
21
-55.7769
0
LINE
8
BLACK
6
CONTINUOUS
10
85.455
20
-55.7769
11
85.3344
21
-56.1083
0
LINE
8
BLACK
6
CONTINUOUS
10
85.3344
20
-56.1083
11
85.1077
21
-56.3785
0
LINE
8
BLACK
6
CONTINUOUS
10
85.1077
20
-56.3785
11
84.8023
21
-56.5548
0
LINE
8
BLACK
6
CONTINUOUS
10
84.8023
20
-56.5548
11
84.455
21
-56.616
0
LINE
8
BLACK
6
CONTINUOUS
10
84.455
20
-56.616
11
84.1077
21
-56.5548
0
LINE
8
BLACK
6
CONTINUOUS
10
84.1077
20
-56.5548
11
83.8023
21
-56.3785
0
LINE
8
BLACK
6
CONTINUOUS
10
83.8023
20
-56.3785
11
83.5756
21
-56.1083
0
LINE
8
BLACK
6
CONTINUOUS
10
83.5756
20
-56.1083
11
83.455
21
-55.7769
0
LINE
8
BLACK
6
CONTINUOUS
10
83.455
20
-55.7769
11
83.455
21
-55.4243
0
LINE
8
BLACK
6
CONTINUOUS
10
83.455
20
-55.4243
11
83.5756
21
-55.0929
0
LINE
8
BLACK
6
CONTINUOUS
10
83.5756
20
-55.0929
11
83.8023
21
-54.8227
0
LINE
8
BLACK
6
CONTINUOUS
10
83.8023
20
-54.8227
11
84.1077
21
-54.6464
0
LINE
8
BLACK
6
CONTINUOUS
10
84.1077
20
-54.6464
11
84.455
21
-54.5852
0
LINE
8
BLACK
6
CONTINUOUS
10
84.455
20
-54.5852
11
84.8023
21
-54.6464
0
LINE
8
BLACK
6
CONTINUOUS
10
84.8023
20
-41.5908
11
85.1077
21
-41.7671
0
LINE
8
BLACK
6
CONTINUOUS
10
85.1077
20
-41.7671
11
85.3344
21
-42.0373
0
LINE
8
BLACK
6
CONTINUOUS
10
85.3344
20
-42.0373
11
85.455
21
-42.3687
0
LINE
8
BLACK
6
CONTINUOUS
10
85.455
20
-42.3687
11
85.455
21
-42.7213
0
LINE
8
BLACK
6
CONTINUOUS
10
85.455
20
-42.7213
11
85.3344
21
-43.0527
0
LINE
8
BLACK
6
CONTINUOUS
10
85.3344
20
-43.0527
11
85.1077
21
-43.3229
0
LINE
8
BLACK
6
CONTINUOUS
10
85.1077
20
-43.3229
11
84.8023
21
-43.4992
0
LINE
8
BLACK
6
CONTINUOUS
10
84.8023
20
-43.4992
11
84.455
21
-43.5604
0
LINE
8
BLACK
6
CONTINUOUS
10
84.455
20
-43.5604
11
84.1077
21
-43.4992
0
LINE
8
BLACK
6
CONTINUOUS
10
84.1077
20
-43.4992
11
83.8023
21
-43.3229
0
LINE
8
BLACK
6
CONTINUOUS
10
83.8023
20
-43.3229
11
83.5756
21
-43.0527
0
LINE
8
BLACK
6
CONTINUOUS
10
83.5756
20
-43.0527
11
83.455
21
-42.7213
0
LINE
8
BLACK
6
CONTINUOUS
10
83.455
20
-42.7213
11
83.455
21
-42.3687
0
LINE
8
BLACK
6
CONTINUOUS
10
83.455
20
-42.3687
11
83.5756
21
-42.0373
0
LINE
8
BLACK
6
CONTINUOUS
10
83.5756
20
-42.0373
11
83.8023
21
-41.7671
0
LINE
8
BLACK
6
CONTINUOUS
10
83.8023
20
-41.7671
11
84.1077
21
-41.5908
0
LINE
8
BLACK
6
CONTINUOUS
10
84.1077
20
-41.5908
11
84.455
21
-41.5296
0
LINE
8
BLACK
6
CONTINUOUS
10
84.455
20
-41.5296
11
84.8023
21
-41.5908
0
LINE
8
BLACK
6
CONTINUOUS
10
84.8023
20
-33.0818
11
85.1077
21
-33.2581
0
LINE
8
BLACK
6
CONTINUOUS
10
85.1077
20
-33.2581
11
85.3344
21
-33.5283
0
LINE
8
BLACK
6
CONTINUOUS
10
85.3344
20
-33.5283
11
85.455
21
-33.8597
0
LINE
8
BLACK
6
CONTINUOUS
10
85.455
20
-33.8597
11
85.455
21
-34.2123
0
LINE
8
BLACK
6
CONTINUOUS
10
85.455
20
-34.2123
11
85.3344
21
-34.5437
0
LINE
8
BLACK
6
CONTINUOUS
10
85.3344
20
-34.5437
11
85.31
21
-34.5728
0
LINE
8
BLACK
6
CONTINUOUS
10
85.31
20
-34.5728
11
89.0522
21
-38.315
0
LINE
8
BLACK
6
CONTINUOUS
10
89.0522
20
-38.315
11
89.075
21
-38.3341
0
LINE
8
BLACK
6
CONTINUOUS
10
89.075
20
-38.3341
11
89.0899
21
-38.36
0
LINE
8
BLACK
6
CONTINUOUS
10
89.0899
20
-38.36
11
89.1071
21
-38.3844
0
LINE
8
BLACK
6
CONTINUOUS
10
89.1071
20
-38.3844
11
89.1097
21
-38.3942
0
LINE
8
BLACK
6
CONTINUOUS
10
89.1097
20
-38.3942
11
89.1147
21
-38.4029
0
LINE
8
BLACK
6
CONTINUOUS
10
89.1147
20
-38.4029
11
89.1199
21
-38.4323
0
LINE
8
BLACK
6
CONTINUOUS
10
89.1199
20
-38.4323
11
89.1276
21
-38.4611
0
LINE
8
BLACK
6
CONTINUOUS
10
89.1276
20
-38.4611
11
89.125
21
-38.4908
0
LINE
8
BLACK
6
CONTINUOUS
10
89.125
20
-38.4908
11
89.125
21
-40.858
0
LINE
8
BLACK
6
CONTINUOUS
10
89.125
20
-40.858
11
89.2473
21
-40.8796
0
LINE
8
BLACK
6
CONTINUOUS
10
89.2473
20
-40.8796
11
89.5527
21
-41.0559
0
LINE
8
BLACK
6
CONTINUOUS
10
89.5527
20
-41.0559
11
89.7794
21
-41.3261
0
LINE
8
BLACK
6
CONTINUOUS
10
89.7794
20
-41.3261
11
89.9
21
-41.6575
0
LINE
8
BLACK
6
CONTINUOUS
10
89.9
20
-41.6575
11
89.9
21
-42.0101
0
LINE
8
BLACK
6
CONTINUOUS
10
89.9
20
-42.0101
11
89.7794
21
-42.3415
0
LINE
8
BLACK
6
CONTINUOUS
10
89.7794
20
-42.3415
11
89.5527
21
-42.6117
0
LINE
8
BLACK
6
CONTINUOUS
10
89.5527
20
-42.6117
11
89.2473
21
-42.788
0
LINE
8
BLACK
6
CONTINUOUS
10
89.2473
20
-42.788
11
88.9
21
-42.8492
0
LINE
8
BLACK
6
CONTINUOUS
10
88.9
20
-42.8492
11
88.5527
21
-42.788
0
LINE
8
BLACK
6
CONTINUOUS
10
88.5527
20
-42.788
11
88.2473
21
-42.6117
0
LINE
8
BLACK
6
CONTINUOUS
10
88.2473
20
-42.6117
11
88.0206
21
-42.3415
0
LINE
8
BLACK
6
CONTINUOUS
10
88.0206
20
-42.3415
11
87.9
21
-42.0101
0
LINE
8
BLACK
6
CONTINUOUS
10
87.9
20
-42.0101
11
87.9
21
-41.6575
0
LINE
8
BLACK
6
CONTINUOUS
10
87.9
20
-41.6575
11
88.0206
21
-41.3261
0
LINE
8
BLACK
6
CONTINUOUS
10
88.0206
20
-41.3261
11
88.2473
21
-41.0559
0
LINE
8
BLACK
6
CONTINUOUS
10
88.2473
20
-41.0559
11
88.5527
21
-40.8796
0
LINE
8
BLACK
6
CONTINUOUS
10
88.5527
20
-40.8796
11
88.675
21
-40.858
0
LINE
8
BLACK
6
CONTINUOUS
10
88.675
20
-40.858
11
88.675
21
-38.5742
0
LINE
8
BLACK
6
CONTINUOUS
10
88.675
20
-38.5742
11
84.9853
21
-34.8845
0
LINE
8
BLACK
6
CONTINUOUS
10
84.9853
20
-34.8845
11
84.8023
21
-34.9902
0
LINE
8
BLACK
6
CONTINUOUS
10
84.8023
20
-34.9902
11
84.455
21
-35.0514
0
LINE
8
BLACK
6
CONTINUOUS
10
84.455
20
-35.0514
11
84.1077
21
-34.9902
0
LINE
8
BLACK
6
CONTINUOUS
10
84.1077
20
-34.9902
11
83.8023
21
-34.8139
0
LINE
8
BLACK
6
CONTINUOUS
10
83.8023
20
-34.8139
11
83.5756
21
-34.5437
0
LINE
8
BLACK
6
CONTINUOUS
10
83.5756
20
-34.5437
11
83.455
21
-34.2123
0
LINE
8
BLACK
6
CONTINUOUS
10
83.455
20
-34.2123
11
83.455
21
-33.8597
0
LINE
8
BLACK
6
CONTINUOUS
10
83.455
20
-33.8597
11
83.5756
21
-33.5283
0
LINE
8
BLACK
6
CONTINUOUS
10
83.5756
20
-33.5283
11
83.8023
21
-33.2581
0
LINE
8
BLACK
6
CONTINUOUS
10
83.8023
20
-33.2581
11
84.1077
21
-33.0818
0
LINE
8
BLACK
6
CONTINUOUS
10
84.1077
20
-33.0818
11
84.455
21
-33.0206
0
LINE
8
BLACK
6
CONTINUOUS
10
84.455
20
-33.0206
11
84.8023
21
-33.0818
0
LINE
8
BLACK
6
CONTINUOUS
10
84.8023
20
-37.6284
11
85.1077
21
-37.8047
0
LINE
8
BLACK
6
CONTINUOUS
10
85.1077
20
-37.8047
11
85.3344
21
-38.0749
0
LINE
8
BLACK
6
CONTINUOUS
10
85.3344
20
-38.0749
11
85.455
21
-38.4063
0
LINE
8
BLACK
6
CONTINUOUS
10
85.455
20
-38.4063
11
85.455
21
-38.7589
0
LINE
8
BLACK
6
CONTINUOUS
10
85.455
20
-38.7589
11
85.3344
21
-39.0903
0
LINE
8
BLACK
6
CONTINUOUS
10
85.3344
20
-39.0903
11
85.1077
21
-39.3605
0
LINE
8
BLACK
6
CONTINUOUS
10
85.1077
20
-39.3605
11
84.8023
21
-39.5368
0
LINE
8
BLACK
6
CONTINUOUS
10
84.8023
20
-39.5368
11
84.455
21
-39.598
0
LINE
8
BLACK
6
CONTINUOUS
10
84.455
20
-39.598
11
84.1077
21
-39.5368
0
LINE
8
BLACK
6
CONTINUOUS
10
84.1077
20
-39.5368
11
83.8023
21
-39.3605
0
LINE
8
BLACK
6
CONTINUOUS
10
83.8023
20
-39.3605
11
83.5756
21
-39.0903
0
LINE
8
BLACK
6
CONTINUOUS
10
83.5756
20
-39.0903
11
83.455
21
-38.7589
0
LINE
8
BLACK
6
CONTINUOUS
10
83.455
20
-38.7589
11
83.455
21
-38.4063
0
LINE
8
BLACK
6
CONTINUOUS
10
83.455
20
-38.4063
11
83.5756
21
-38.0749
0
LINE
8
BLACK
6
CONTINUOUS
10
83.5756
20
-38.0749
11
83.8023
21
-37.8047
0
LINE
8
BLACK
6
CONTINUOUS
10
83.8023
20
-37.8047
11
84.1077
21
-37.6284
0
LINE
8
BLACK
6
CONTINUOUS
10
84.1077
20
-37.6284
11
84.455
21
-37.5672
0
LINE
8
BLACK
6
CONTINUOUS
10
84.455
20
-37.5672
11
84.8023
21
-37.6284
0
LINE
8
BLACK
6
CONTINUOUS
10
119.727
20
-33.0691
11
120.033
21
-33.2454
0
LINE
8
BLACK
6
CONTINUOUS
10
120.033
20
-33.2454
11
120.259
21
-33.5156
0
LINE
8
BLACK
6
CONTINUOUS
10
120.259
20
-33.5156
11
120.38
21
-33.847
0
LINE
8
BLACK
6
CONTINUOUS
10
120.38
20
-33.847
11
120.38
21
-34.1996
0
LINE
8
BLACK
6
CONTINUOUS
10
120.38
20
-34.1996
11
120.259
21
-34.531
0
LINE
8
BLACK
6
CONTINUOUS
10
120.259
20
-34.531
11
120.033
21
-34.8012
0
LINE
8
BLACK
6
CONTINUOUS
10
120.033
20
-34.8012
11
119.727
21
-34.9775
0
LINE
8
BLACK
6
CONTINUOUS
10
119.727
20
-34.9775
11
119.38
21
-35.0387
0
LINE
8
BLACK
6
CONTINUOUS
10
119.38
20
-35.0387
11
119.033
21
-34.9775
0
LINE
8
BLACK
6
CONTINUOUS
10
119.033
20
-34.9775
11
118.727
21
-34.8012
0
LINE
8
BLACK
6
CONTINUOUS
10
118.727
20
-34.8012
11
118.501
21
-34.531
0
LINE
8
BLACK
6
CONTINUOUS
10
118.501
20
-34.531
11
118.38
21
-34.1996
0
LINE
8
BLACK
6
CONTINUOUS
10
118.38
20
-34.1996
11
118.38
21
-33.847
0
LINE
8
BLACK
6
CONTINUOUS
10
118.38
20
-33.847
11
118.501
21
-33.5156
0
LINE
8
BLACK
6
CONTINUOUS
10
118.501
20
-33.5156
11
118.727
21
-33.2454
0
LINE
8
BLACK
6
CONTINUOUS
10
118.727
20
-33.2454
11
119.033
21
-33.0691
0
LINE
8
BLACK
6
CONTINUOUS
10
119.033
20
-33.0691
11
119.38
21
-33.0079
0
LINE
8
BLACK
6
CONTINUOUS
10
119.38
20
-33.0079
11
119.727
21
-33.0691
0
LINE
8
BLACK
6
CONTINUOUS
10
114.647
20
-30.2116
11
114.953
21
-30.3879
0
LINE
8
BLACK
6
CONTINUOUS
10
114.953
20
-30.3879
11
115.179
21
-30.6581
0
LINE
8
BLACK
6
CONTINUOUS
10
115.179
20
-30.6581
11
115.3
21
-30.9895
0
LINE
8
BLACK
6
CONTINUOUS
10
115.3
20
-30.9895
11
115.3
21
-31.3421
0
LINE
8
BLACK
6
CONTINUOUS
10
115.3
20
-31.3421
11
115.179
21
-31.6735
0
LINE
8
BLACK
6
CONTINUOUS
10
115.179
20
-31.6735
11
114.953
21
-31.9437
0
LINE
8
BLACK
6
CONTINUOUS
10
114.953
20
-31.9437
11
114.647
21
-32.12
0
LINE
8
BLACK
6
CONTINUOUS
10
114.647
20
-32.12
11
114.3
21
-32.1812
0
LINE
8
BLACK
6
CONTINUOUS
10
114.3
20
-32.1812
11
113.953
21
-32.12
0
LINE
8
BLACK
6
CONTINUOUS
10
113.953
20
-32.12
11
113.647
21
-31.9437
0
LINE
8
BLACK
6
CONTINUOUS
10
113.647
20
-31.9437
11
113.421
21
-31.6735
0
LINE
8
BLACK
6
CONTINUOUS
10
113.421
20
-31.6735
11
113.3
21
-31.3421
0
LINE
8
BLACK
6
CONTINUOUS
10
113.3
20
-31.3421
11
113.3
21
-30.9895
0
LINE
8
BLACK
6
CONTINUOUS
10
113.3
20
-30.9895
11
113.421
21
-30.6581
0
LINE
8
BLACK
6
CONTINUOUS
10
113.421
20
-30.6581
11
113.647
21
-30.3879
0
LINE
8
BLACK
6
CONTINUOUS
10
113.647
20
-30.3879
11
113.953
21
-30.2116
0
LINE
8
BLACK
6
CONTINUOUS
10
113.953
20
-30.2116
11
114.3
21
-30.1504
0
LINE
8
BLACK
6
CONTINUOUS
10
114.3
20
-30.1504
11
114.647
21
-30.2116
0
LINE
8
BLACK
6
CONTINUOUS
10
91.7273
20
-25.0458
11
92.0327
21
-25.2221
0
LINE
8
BLACK
6
CONTINUOUS
10
92.0327
20
-25.2221
11
92.2594
21
-25.4923
0
LINE
8
BLACK
6
CONTINUOUS
10
92.2594
20
-25.4923
11
92.38
21
-25.8237
0
LINE
8
BLACK
6
CONTINUOUS
10
92.38
20
-25.8237
11
92.38
21
-26.1763
0
LINE
8
BLACK
6
CONTINUOUS
10
92.38
20
-26.1763
11
92.2594
21
-26.5077
0
LINE
8
BLACK
6
CONTINUOUS
10
92.2594
20
-26.5077
11
92.0327
21
-26.7779
0
LINE
8
BLACK
6
CONTINUOUS
10
92.0327
20
-26.7779
11
91.7273
21
-26.9542
0
LINE
8
BLACK
6
CONTINUOUS
10
91.7273
20
-26.9542
11
91.605
21
-26.9758
0
LINE
8
BLACK
6
CONTINUOUS
10
91.605
20
-26.9758
11
91.605
21
-28.676
0
LINE
8
BLACK
6
CONTINUOUS
10
91.605
20
-28.676
11
91.6076
21
-28.7057
0
LINE
8
BLACK
6
CONTINUOUS
10
91.6076
20
-28.7057
11
91.5999
21
-28.7345
0
LINE
8
BLACK
6
CONTINUOUS
10
91.5999
20
-28.7345
11
91.5947
21
-28.7639
0
LINE
8
BLACK
6
CONTINUOUS
10
91.5947
20
-28.7639
11
91.5897
21
-28.7726
0
LINE
8
BLACK
6
CONTINUOUS
10
91.5897
20
-28.7726
11
91.5871
21
-28.7824
0
LINE
8
BLACK
6
CONTINUOUS
10
91.5871
20
-28.7824
11
91.5699
21
-28.8068
0
LINE
8
BLACK
6
CONTINUOUS
10
91.5699
20
-28.8068
11
91.555
21
-28.8327
0
LINE
8
BLACK
6
CONTINUOUS
10
91.555
20
-28.8327
11
91.5322
21
-28.8518
0
LINE
8
BLACK
6
CONTINUOUS
10
91.5322
20
-28.8518
11
89.755
21
-30.629
0
LINE
8
BLACK
6
CONTINUOUS
10
89.755
20
-30.629
11
89.7794
21
-30.6581
0
LINE
8
BLACK
6
CONTINUOUS
10
89.7794
20
-30.6581
11
89.9
21
-30.9895
0
LINE
8
BLACK
6
CONTINUOUS
10
89.9
20
-30.9895
11
89.9
21
-31.3421
0
LINE
8
BLACK
6
CONTINUOUS
10
89.9
20
-31.3421
11
89.7794
21
-31.6735
0
LINE
8
BLACK
6
CONTINUOUS
10
89.7794
20
-31.6735
11
89.5527
21
-31.9437
0
LINE
8
BLACK
6
CONTINUOUS
10
89.5527
20
-31.9437
11
89.2473
21
-32.12
0
LINE
8
BLACK
6
CONTINUOUS
10
89.2473
20
-32.12
11
88.9
21
-32.1812
0
LINE
8
BLACK
6
CONTINUOUS
10
88.9
20
-32.1812
11
88.5527
21
-32.12
0
LINE
8
BLACK
6
CONTINUOUS
10
88.5527
20
-32.12
11
88.2473
21
-31.9437
0
LINE
8
BLACK
6
CONTINUOUS
10
88.2473
20
-31.9437
11
88.0206
21
-31.6735
0
LINE
8
BLACK
6
CONTINUOUS
10
88.0206
20
-31.6735
11
87.9
21
-31.3421
0
LINE
8
BLACK
6
CONTINUOUS
10
87.9
20
-31.3421
11
87.9
21
-30.9895
0
LINE
8
BLACK
6
CONTINUOUS
10
87.9
20
-30.9895
11
88.0206
21
-30.6581
0
LINE
8
BLACK
6
CONTINUOUS
10
88.0206
20
-30.6581
11
88.2473
21
-30.3879
0
LINE
8
BLACK
6
CONTINUOUS
10
88.2473
20
-30.3879
11
88.5527
21
-30.2116
0
LINE
8
BLACK
6
CONTINUOUS
10
88.5527
20
-30.2116
11
88.9
21
-30.1504
0
LINE
8
BLACK
6
CONTINUOUS
10
88.9
20
-30.1504
11
89.2473
21
-30.2116
0
LINE
8
BLACK
6
CONTINUOUS
10
89.2473
20
-30.2116
11
89.4303
21
-30.3173
0
LINE
8
BLACK
6
CONTINUOUS
10
89.4303
20
-30.3173
11
91.155
21
-28.5926
0
LINE
8
BLACK
6
CONTINUOUS
10
91.155
20
-28.5926
11
91.155
21
-26.9758
0
LINE
8
BLACK
6
CONTINUOUS
10
91.155
20
-26.9758
11
91.0327
21
-26.9542
0
LINE
8
BLACK
6
CONTINUOUS
10
91.0327
20
-26.9542
11
90.7273
21
-26.7779
0
LINE
8
BLACK
6
CONTINUOUS
10
90.7273
20
-26.7779
11
90.5006
21
-26.5077
0
LINE
8
BLACK
6
CONTINUOUS
10
90.5006
20
-26.5077
11
90.38
21
-26.1763
0
LINE
8
BLACK
6
CONTINUOUS
10
90.38
20
-26.1763
11
90.38
21
-25.8237
0
LINE
8
BLACK
6
CONTINUOUS
10
90.38
20
-25.8237
11
90.5006
21
-25.4923
0
LINE
8
BLACK
6
CONTINUOUS
10
90.5006
20
-25.4923
11
90.7273
21
-25.2221
0
LINE
8
BLACK
6
CONTINUOUS
10
90.7273
20
-25.2221
11
91.0327
21
-25.0458
0
LINE
8
BLACK
6
CONTINUOUS
10
91.0327
20
-25.0458
11
91.38
21
-24.9846
0
LINE
8
BLACK
6
CONTINUOUS
10
91.38
20
-24.9846
11
91.7273
21
-25.0458
0
LINE
8
BLACK
6
CONTINUOUS
10
89.1873
20
-25.0458
11
89.4927
21
-25.2221
0
LINE
8
BLACK
6
CONTINUOUS
10
89.4927
20
-25.2221
11
89.7194
21
-25.4923
0
LINE
8
BLACK
6
CONTINUOUS
10
89.7194
20
-25.4923
11
89.84
21
-25.8237
0
LINE
8
BLACK
6
CONTINUOUS
10
89.84
20
-25.8237
11
89.84
21
-26.1763
0
LINE
8
BLACK
6
CONTINUOUS
10
89.84
20
-26.1763
11
89.7194
21
-26.5077
0
LINE
8
BLACK
6
CONTINUOUS
10
89.7194
20
-26.5077
11
89.4927
21
-26.7779
0
LINE
8
BLACK
6
CONTINUOUS
10
89.4927
20
-26.7779
11
89.1873
21
-26.9542
0
LINE
8
BLACK
6
CONTINUOUS
10
89.1873
20
-26.9542
11
88.84
21
-27.0154
0
LINE
8
BLACK
6
CONTINUOUS
10
88.84
20
-27.0154
11
88.4927
21
-26.9542
0
LINE
8
BLACK
6
CONTINUOUS
10
88.4927
20
-26.9542
11
88.3097
21
-26.8485
0
LINE
8
BLACK
6
CONTINUOUS
10
88.3097
20
-26.8485
11
85.4032
21
-29.755
0
LINE
8
BLACK
6
CONTINUOUS
10
85.4032
20
-29.755
11
85.455
21
-29.8973
0
LINE
8
BLACK
6
CONTINUOUS
10
85.455
20
-29.8973
11
85.455
21
-30.2499
0
LINE
8
BLACK
6
CONTINUOUS
10
85.455
20
-30.2499
11
85.3344
21
-30.5813
0
LINE
8
BLACK
6
CONTINUOUS
10
85.3344
20
-30.5813
11
85.1077
21
-30.8515
0
LINE
8
BLACK
6
CONTINUOUS
10
85.1077
20
-30.8515
11
84.8023
21
-31.0278
0
LINE
8
BLACK
6
CONTINUOUS
10
84.8023
20
-31.0278
11
84.455
21
-31.089
0
LINE
8
BLACK
6
CONTINUOUS
10
84.455
20
-31.089
11
84.1077
21
-31.0278
0
LINE
8
BLACK
6
CONTINUOUS
10
84.1077
20
-31.0278
11
83.8023
21
-30.8515
0
LINE
8
BLACK
6
CONTINUOUS
10
83.8023
20
-30.8515
11
83.5756
21
-30.5813
0
LINE
8
BLACK
6
CONTINUOUS
10
83.5756
20
-30.5813
11
83.455
21
-30.2499
0
LINE
8
BLACK
6
CONTINUOUS
10
83.455
20
-30.2499
11
83.455
21
-29.8973
0
LINE
8
BLACK
6
CONTINUOUS
10
83.455
20
-29.8973
11
83.5756
21
-29.5659
0
LINE
8
BLACK
6
CONTINUOUS
10
83.5756
20
-29.5659
11
83.8023
21
-29.2957
0
LINE
8
BLACK
6
CONTINUOUS
10
83.8023
20
-29.2957
11
84.1077
21
-29.1194
0
LINE
8
BLACK
6
CONTINUOUS
10
84.1077
20
-29.1194
11
84.455
21
-29.0582
0
LINE
8
BLACK
6
CONTINUOUS
10
84.455
20
-29.0582
11
84.8023
21
-29.1194
0
LINE
8
BLACK
6
CONTINUOUS
10
84.8023
20
-29.1194
11
85.1077
21
-29.2957
0
LINE
8
BLACK
6
CONTINUOUS
10
85.1077
20
-29.2957
11
85.1617
21
-29.3601
0
LINE
8
BLACK
6
CONTINUOUS
10
85.1617
20
-29.3601
11
87.985
21
-26.5368
0
LINE
8
BLACK
6
CONTINUOUS
10
87.985
20
-26.5368
11
87.9606
21
-26.5077
0
LINE
8
BLACK
6
CONTINUOUS
10
87.9606
20
-26.5077
11
87.84
21
-26.1763
0
LINE
8
BLACK
6
CONTINUOUS
10
87.84
20
-26.1763
11
87.84
21
-25.8237
0
LINE
8
BLACK
6
CONTINUOUS
10
87.84
20
-25.8237
11
87.9606
21
-25.4923
0
LINE
8
BLACK
6
CONTINUOUS
10
87.9606
20
-25.4923
11
88.1873
21
-25.2221
0
LINE
8
BLACK
6
CONTINUOUS
10
88.1873
20
-25.2221
11
88.4927
21
-25.0458
0
LINE
8
BLACK
6
CONTINUOUS
10
88.4927
20
-25.0458
11
88.84
21
-24.9846
0
LINE
8
BLACK
6
CONTINUOUS
10
88.84
20
-24.9846
11
89.1873
21
-25.0458
0
LINE
8
BLACK
6
CONTINUOUS
10
92.6555
20
-14.1609
11
93.7245
21
-14.7781
0
LINE
8
BLACK
6
CONTINUOUS
10
93.7245
20
-14.7781
11
94.5178
21
-15.7236
0
LINE
8
BLACK
6
CONTINUOUS
10
94.5178
20
-15.7236
11
94.94
21
-16.8835
0
LINE
8
BLACK
6
CONTINUOUS
10
94.94
20
-16.8835
11
94.94
21
-18.1177
0
LINE
8
BLACK
6
CONTINUOUS
10
94.94
20
-18.1177
11
94.5178
21
-19.2776
0
LINE
8
BLACK
6
CONTINUOUS
10
94.5178
20
-19.2776
11
93.7245
21
-20.2231
0
LINE
8
BLACK
6
CONTINUOUS
10
93.7245
20
-20.2231
11
92.6555
21
-20.8403
0
LINE
8
BLACK
6
CONTINUOUS
10
92.6555
20
-20.8403
11
91.44
21
-21.0546
0
LINE
8
BLACK
6
CONTINUOUS
10
91.44
20
-21.0546
11
90.2245
21
-20.8403
0
LINE
8
BLACK
6
CONTINUOUS
10
90.2245
20
-20.8403
11
89.1555
21
-20.2231
0
LINE
8
BLACK
6
CONTINUOUS
10
89.1555
20
-20.2231
11
88.3622
21
-19.2776
0
LINE
8
BLACK
6
CONTINUOUS
10
88.3622
20
-19.2776
11
87.94
21
-18.1177
0
LINE
8
BLACK
6
CONTINUOUS
10
87.94
20
-18.1177
11
87.94
21
-16.8835
0
LINE
8
BLACK
6
CONTINUOUS
10
87.94
20
-16.8835
11
88.3622
21
-15.7236
0
LINE
8
BLACK
6
CONTINUOUS
10
88.3622
20
-15.7236
11
89.1555
21
-14.7781
0
LINE
8
BLACK
6
CONTINUOUS
10
89.1555
20
-14.7781
11
90.2245
21
-14.1609
0
LINE
8
BLACK
6
CONTINUOUS
10
90.2245
20
-14.1609
11
91.44
21
-13.9466
0
LINE
8
BLACK
6
CONTINUOUS
10
91.44
20
-13.9466
11
92.6555
21
-14.1609
0
LINE
8
BLACK
6
CONTINUOUS
10
154.886
20
-14.1609
11
155.954
21
-14.7781
0
LINE
8
BLACK
6
CONTINUOUS
10
155.954
20
-14.7781
11
156.748
21
-15.7236
0
LINE
8
BLACK
6
CONTINUOUS
10
156.748
20
-15.7236
11
157.17
21
-16.8835
0
LINE
8
BLACK
6
CONTINUOUS
10
157.17
20
-16.8835
11
157.17
21
-18.1177
0
LINE
8
BLACK
6
CONTINUOUS
10
157.17
20
-18.1177
11
156.748
21
-19.2776
0
LINE
8
BLACK
6
CONTINUOUS
10
156.748
20
-19.2776
11
155.954
21
-20.2231
0
LINE
8
BLACK
6
CONTINUOUS
10
155.954
20
-20.2231
11
154.886
21
-20.8403
0
LINE
8
BLACK
6
CONTINUOUS
10
154.886
20
-20.8403
11
153.67
21
-21.0546
0
LINE
8
BLACK
6
CONTINUOUS
10
153.67
20
-21.0546
11
152.454
21
-20.8403
0
LINE
8
BLACK
6
CONTINUOUS
10
152.454
20
-20.8403
11
151.386
21
-20.2231
0
LINE
8
BLACK
6
CONTINUOUS
10
151.386
20
-20.2231
11
150.592
21
-19.2776
0
LINE
8
BLACK
6
CONTINUOUS
10
150.592
20
-19.2776
11
150.17
21
-18.1177
0
LINE
8
BLACK
6
CONTINUOUS
10
150.17
20
-18.1177
11
150.17
21
-16.8835
0
LINE
8
BLACK
6
CONTINUOUS
10
150.17
20
-16.8835
11
150.592
21
-15.7236
0
LINE
8
BLACK
6
CONTINUOUS
10
150.592
20
-15.7236
11
151.386
21
-14.7781
0
LINE
8
BLACK
6
CONTINUOUS
10
151.386
20
-14.7781
11
152.454
21
-14.1609
0
LINE
8
BLACK
6
CONTINUOUS
10
152.454
20
-14.1609
11
153.67
21
-13.9466
0
LINE
8
BLACK
6
CONTINUOUS
10
153.67
20
-13.9466
11
154.886
21
-14.1609
  0
ENDSEC
  0
EOF
