  0
SECTION
  2
HEADER
  9
$ANGBASE
  50
0.0
  9
$ANGDIR
  70
  1
  9
$MEASUREMENT
  70
0
  0
ENDSEC
  0
SECTION
  2
TABLES
  0
TABLE
  2
LTYPE
  70
4
  0
LTYPE
  5
40F
  2
CONTINUOUS
  70
0
  3
Solid line
  72
65
  73
0
  40
0.0
  0
LTYPE
  5
410
  2
DASHDOT
 70
0
  3
Dash Dot ____ _ ____ _
 72
65
 73
4
 40
2.0
 49
1.25
 49
-0.25
 49
0.25
 49
-0.25
  0
LTYPE
  5
411
  2
DASHED
 70
0
  3
Dashed __ __ __ __ __
 72
65
 73
2
 40
0.75
 49
0.5
 49
-0.25
  0
LTYPE
  5
43B
  2
DOTTED
 70
0
  3
Dotted .  .  .  .
 72
65
 73
2
 40
0.2
 49
0.0
 49
-0.2
  0
ENDTAB
  0
TABLE
  2
STYLE
  70
4
  0
STYLE
  2
KICAD
  70
0
  40
0
  41
1
  42
1
  50
0
  71
0
  3
isocp.shx
  0
STYLE
  2
KICADB
  70
0
  40
0
  41
1
  42
1
  50
0
  71
0
  3
isocp.shx
  0
STYLE
  2
KICADI
  70
0
  40
0
  41
1
  42
1
  50
15
  71
0
  3
isocp.shx
  0
STYLE
  2
KICADBI
  70
0
  40
0
  41
1
  42
1
  50
15
  71
0
  3
isocp.shx
  0
ENDTAB
  0
TABLE
  2
LAYER
  70
30
  0
LAYER
  2
BLACK
  70
0
  62
7
  6
CONTINUOUS
  0
LAYER
  2
GRAY1
  70
0
  62
251
  6
CONTINUOUS
  0
LAYER
  2
GRAY2
  70
0
  62
8
  6
CONTINUOUS
  0
LAYER
  2
GRAY3
  70
0
  62
9
  6
CONTINUOUS
  0
LAYER
  2
WHITE
  70
0
  62
7
  6
CONTINUOUS
  0
LAYER
  2
LYELLOW
  70
0
  62
51
  6
CONTINUOUS
  0
LAYER
  2
BLUE1
  70
0
  62
178
  6
CONTINUOUS
  0
LAYER
  2
GREEN1
  70
0
  62
98
  6
CONTINUOUS
  0
LAYER
  2
CYAN1
  70
0
  62
138
  6
CONTINUOUS
  0
LAYER
  2
RED1
  70
0
  62
18
  6
CONTINUOUS
  0
LAYER
  2
MAGENTA1
  70
0
  62
228
  6
CONTINUOUS
  0
LAYER
  2
BROWN1
  70
0
  62
58
  6
CONTINUOUS
  0
LAYER
  2
BLUE2
  70
0
  62
5
  6
CONTINUOUS
  0
LAYER
  2
GREEN2
  70
0
  62
3
  6
CONTINUOUS
  0
LAYER
  2
CYAN2
  70
0
  62
4
  6
CONTINUOUS
  0
LAYER
  2
RED2
  70
0
  62
1
  6
CONTINUOUS
  0
LAYER
  2
MAGENTA2
  70
0
  62
6
  6
CONTINUOUS
  0
LAYER
  2
BROWN2
  70
0
  62
54
  6
CONTINUOUS
  0
LAYER
  2
BLUE3
  70
0
  62
171
  6
CONTINUOUS
  0
LAYER
  2
GREEN3
  70
0
  62
91
  6
CONTINUOUS
  0
LAYER
  2
CYAN3
  70
0
  62
131
  6
CONTINUOUS
  0
LAYER
  2
RED3
  70
0
  62
11
  6
CONTINUOUS
  0
LAYER
  2
MAGENTA3
  70
0
  62
221
  6
CONTINUOUS
  0
LAYER
  2
YELLOW3
  70
0
  62
2
  6
CONTINUOUS
  0
LAYER
  2
BLUE4
  70
0
  62
5
  6
CONTINUOUS
  0
LAYER
  2
GREEN4
  70
0
  62
3
  6
CONTINUOUS
  0
LAYER
  2
CYAN4
  70
0
  62
4
  6
CONTINUOUS
  0
LAYER
  2
RED4
  70
0
  62
1
  6
CONTINUOUS
  0
LAYER
  2
MAGENTA4
  70
0
  62
6
  6
CONTINUOUS
  0
LAYER
  2
YELLOW4
  70
0
  62
2
  6
CONTINUOUS
  0
ENDTAB
  0
ENDSEC
  0
SECTION
  2
ENTITIES
0
LINE
8
BLACK
6
CONTINUOUS
10
157.48
20
-13.6906
11
157.48
21
-127
0
LINE
8
BLACK
6
CONTINUOUS
10
87.63
20
-13.6906
11
157.48
21
-13.6906
0
LINE
8
BLACK
6
CONTINUOUS
10
87.63
20
-127
11
157.48
21
-127
0
LINE
8
BLACK
6
CONTINUOUS
10
87.63
20
-22.5806
11
87.63
21
-13.6906
0
LINE
8
BLACK
6
CONTINUOUS
10
87.63
20
-22.5806
11
81.28
21
-22.5806
0
LINE
8
BLACK
6
CONTINUOUS
10
81.28
20
-118.11
11
81.28
21
-22.5806
0
LINE
8
BLACK
6
CONTINUOUS
10
87.63
20
-118.11
11
81.28
21
-118.11
0
LINE
8
BLACK
6
CONTINUOUS
10
87.63
20
-127
11
87.63
21
-118.11
0
LINE
8
BLACK
6
CONTINUOUS
10
111.36
20
-84.69
11
112.16
21
-85.49
0
LINE
8
BLACK
6
CONTINUOUS
10
112.16
20
-84.69
11
111.36
21
-85.49
0
LINE
8
BLACK
6
CONTINUOUS
10
111.36
20
-87.23
11
112.16
21
-88.03
0
LINE
8
BLACK
6
CONTINUOUS
10
112.16
20
-87.23
11
111.36
21
-88.03
0
LINE
8
BLACK
6
CONTINUOUS
10
111.36
20
-89.77
11
112.16
21
-90.57
0
LINE
8
BLACK
6
CONTINUOUS
10
112.16
20
-89.77
11
111.36
21
-90.57
0
LINE
8
BLACK
6
CONTINUOUS
10
111.36
20
-92.31
11
112.16
21
-93.11
0
LINE
8
BLACK
6
CONTINUOUS
10
112.16
20
-92.31
11
111.36
21
-93.11
0
LINE
8
BLACK
6
CONTINUOUS
10
111.36
20
-94.85
11
112.16
21
-95.65
0
LINE
8
BLACK
6
CONTINUOUS
10
112.16
20
-94.85
11
111.36
21
-95.65
0
LINE
8
BLACK
6
CONTINUOUS
10
111.36
20
-97.39
11
112.16
21
-98.19
0
LINE
8
BLACK
6
CONTINUOUS
10
112.16
20
-97.39
11
111.36
21
-98.19
0
LINE
8
BLACK
6
CONTINUOUS
10
111.36
20
-99.93
11
112.16
21
-100.73
0
LINE
8
BLACK
6
CONTINUOUS
10
112.16
20
-99.93
11
111.36
21
-100.73
0
LINE
8
BLACK
6
CONTINUOUS
10
111.36
20
-102.47
11
112.16
21
-103.27
0
LINE
8
BLACK
6
CONTINUOUS
10
112.16
20
-102.47
11
111.36
21
-103.27
0
LINE
8
BLACK
6
CONTINUOUS
10
111.36
20
-105.01
11
112.16
21
-105.81
0
LINE
8
BLACK
6
CONTINUOUS
10
112.16
20
-105.01
11
111.36
21
-105.81
0
LINE
8
BLACK
6
CONTINUOUS
10
111.36
20
-107.55
11
112.16
21
-108.35
0
LINE
8
BLACK
6
CONTINUOUS
10
112.16
20
-107.55
11
111.36
21
-108.35
0
LINE
8
BLACK
6
CONTINUOUS
10
111.36
20
-110.09
11
112.16
21
-110.89
0
LINE
8
BLACK
6
CONTINUOUS
10
112.16
20
-110.09
11
111.36
21
-110.89
0
LINE
8
BLACK
6
CONTINUOUS
10
111.36
20
-112.63
11
112.16
21
-113.43
0
LINE
8
BLACK
6
CONTINUOUS
10
112.16
20
-112.63
11
111.36
21
-113.43
0
LINE
8
BLACK
6
CONTINUOUS
10
111.36
20
-115.17
11
112.16
21
-115.97
0
LINE
8
BLACK
6
CONTINUOUS
10
112.16
20
-115.17
11
111.36
21
-115.97
0
LINE
8
BLACK
6
CONTINUOUS
10
111.36
20
-117.71
11
112.16
21
-118.51
0
LINE
8
BLACK
6
CONTINUOUS
10
112.16
20
-117.71
11
111.36
21
-118.51
0
LINE
8
BLACK
6
CONTINUOUS
10
111.36
20
-120.25
11
112.16
21
-121.05
0
LINE
8
BLACK
6
CONTINUOUS
10
112.16
20
-120.25
11
111.36
21
-121.05
0
LINE
8
BLACK
6
CONTINUOUS
10
126.6
20
-84.69
11
127.4
21
-85.49
0
LINE
8
BLACK
6
CONTINUOUS
10
127.4
20
-84.69
11
126.6
21
-85.49
0
LINE
8
BLACK
6
CONTINUOUS
10
126.6
20
-87.23
11
127.4
21
-88.03
0
LINE
8
BLACK
6
CONTINUOUS
10
127.4
20
-87.23
11
126.6
21
-88.03
0
LINE
8
BLACK
6
CONTINUOUS
10
126.6
20
-89.77
11
127.4
21
-90.57
0
LINE
8
BLACK
6
CONTINUOUS
10
127.4
20
-89.77
11
126.6
21
-90.57
0
LINE
8
BLACK
6
CONTINUOUS
10
126.6
20
-92.31
11
127.4
21
-93.11
0
LINE
8
BLACK
6
CONTINUOUS
10
127.4
20
-92.31
11
126.6
21
-93.11
0
LINE
8
BLACK
6
CONTINUOUS
10
126.6
20
-94.85
11
127.4
21
-95.65
0
LINE
8
BLACK
6
CONTINUOUS
10
127.4
20
-94.85
11
126.6
21
-95.65
0
LINE
8
BLACK
6
CONTINUOUS
10
126.6
20
-97.39
11
127.4
21
-98.19
0
LINE
8
BLACK
6
CONTINUOUS
10
127.4
20
-97.39
11
126.6
21
-98.19
0
LINE
8
BLACK
6
CONTINUOUS
10
126.6
20
-99.93
11
127.4
21
-100.73
0
LINE
8
BLACK
6
CONTINUOUS
10
127.4
20
-99.93
11
126.6
21
-100.73
0
LINE
8
BLACK
6
CONTINUOUS
10
126.6
20
-102.47
11
127.4
21
-103.27
0
LINE
8
BLACK
6
CONTINUOUS
10
127.4
20
-102.47
11
126.6
21
-103.27
0
LINE
8
BLACK
6
CONTINUOUS
10
126.6
20
-105.01
11
127.4
21
-105.81
0
LINE
8
BLACK
6
CONTINUOUS
10
127.4
20
-105.01
11
126.6
21
-105.81
0
LINE
8
BLACK
6
CONTINUOUS
10
126.6
20
-107.55
11
127.4
21
-108.35
0
LINE
8
BLACK
6
CONTINUOUS
10
127.4
20
-107.55
11
126.6
21
-108.35
0
LINE
8
BLACK
6
CONTINUOUS
10
126.6
20
-110.09
11
127.4
21
-110.89
0
LINE
8
BLACK
6
CONTINUOUS
10
127.4
20
-110.09
11
126.6
21
-110.89
0
LINE
8
BLACK
6
CONTINUOUS
10
126.6
20
-112.63
11
127.4
21
-113.43
0
LINE
8
BLACK
6
CONTINUOUS
10
127.4
20
-112.63
11
126.6
21
-113.43
0
LINE
8
BLACK
6
CONTINUOUS
10
126.6
20
-115.17
11
127.4
21
-115.97
0
LINE
8
BLACK
6
CONTINUOUS
10
127.4
20
-115.17
11
126.6
21
-115.97
0
LINE
8
BLACK
6
CONTINUOUS
10
126.6
20
-117.71
11
127.4
21
-118.51
0
LINE
8
BLACK
6
CONTINUOUS
10
127.4
20
-117.71
11
126.6
21
-118.51
0
LINE
8
BLACK
6
CONTINUOUS
10
126.6
20
-120.25
11
127.4
21
-121.05
0
LINE
8
BLACK
6
CONTINUOUS
10
127.4
20
-120.25
11
126.6
21
-121.05
0
CIRCLE
8
BLACK
10
88.9
20
-31.1658
40
0.5
0
CIRCLE
8
BLACK
10
88.9
20
-41.8338
40
0.5
0
CIRCLE
8
BLACK
10
114.3
20
-31.1658
40
0.5
0
CIRCLE
8
BLACK
10
114.3
20
-41.8338
40
0.5
0
CIRCLE
8
BLACK
10
84.455
20
-30.0736
40
0.5
0
CIRCLE
8
BLACK
10
84.455
20
-34.036
40
0.5
0
CIRCLE
8
BLACK
10
84.455
20
-38.5826
40
0.5
0
CIRCLE
8
BLACK
10
84.455
20
-42.545
40
0.5
0
CIRCLE
8
BLACK
10
84.455
20
-47.0916
40
0.5
0
CIRCLE
8
BLACK
10
84.455
20
-51.054
40
0.5
0
CIRCLE
8
BLACK
10
84.455
20
-55.6006
40
0.5
0
CIRCLE
8
BLACK
10
84.455
20
-59.563
40
0.5
0
CIRCLE
8
BLACK
10
84.455
20
-64.1096
40
0.5
0
CIRCLE
8
BLACK
10
84.455
20
-68.072
40
0.5
0
CIRCLE
8
BLACK
10
84.455
20
-72.6186
40
0.5
0
CIRCLE
8
BLACK
10
84.455
20
-76.581
40
0.5
0
CIRCLE
8
BLACK
10
84.455
20
-81.1276
40
0.5
0
CIRCLE
8
BLACK
10
84.455
20
-85.09
40
0.5
0
CIRCLE
8
BLACK
10
84.455
20
-89.6366
40
0.5
0
CIRCLE
8
BLACK
10
84.455
20
-93.599
40
0.5
0
CIRCLE
8
BLACK
10
84.455
20
-98.1456
40
0.5
0
CIRCLE
8
BLACK
10
84.455
20
-102.108
40
0.5
0
CIRCLE
8
BLACK
10
84.455
20
-106.655
40
0.5
0
CIRCLE
8
BLACK
10
84.455
20
-110.617
40
0.5
0
CIRCLE
8
BLACK
10
151.13
20
-56.896
40
0.5
0
CIRCLE
8
BLACK
10
151.13
20
-59.436
40
0.5
0
CIRCLE
8
BLACK
10
151.13
20
-61.976
40
0.5
0
CIRCLE
8
BLACK
10
151.13
20
-64.516
40
0.5
0
CIRCLE
8
BLACK
10
151.13
20
-67.056
40
0.5
0
CIRCLE
8
BLACK
10
151.13
20
-69.596
40
0.5
0
CIRCLE
8
BLACK
10
88.84
20
-26
40
0.5
0
CIRCLE
8
BLACK
10
91.38
20
-26
40
0.5
0
CIRCLE
8
BLACK
10
119.38
20
-28.9433
40
0.5
0
CIRCLE
8
BLACK
10
119.38
20
-31.4833
40
0.5
0
CIRCLE
8
BLACK
10
119.38
20
-34.0233
40
0.5
0
CIRCLE
8
BLACK
10
119.38
20
-36.5633
40
0.5
0
CIRCLE
8
BLACK
10
102.87
20
-78.74
40
0.5
0
CIRCLE
8
BLACK
10
102.87
20
-81.28
40
0.5
0
CIRCLE
8
BLACK
10
102.87
20
-83.82
40
0.5
0
CIRCLE
8
BLACK
10
102.87
20
-86.36
40
0.5
0
CIRCLE
8
BLACK
10
102.87
20
-88.9
40
0.5
0
CIRCLE
8
BLACK
10
102.87
20
-91.44
40
0.5
0
CIRCLE
8
BLACK
10
102.87
20
-93.98
40
0.5
0
CIRCLE
8
BLACK
10
102.87
20
-96.52
40
0.5
0
CIRCLE
8
BLACK
10
102.87
20
-99.06
40
0.5
0
CIRCLE
8
BLACK
10
102.87
20
-101.6
40
0.5
0
CIRCLE
8
BLACK
10
151.13
20
-74.676
40
0.5
0
CIRCLE
8
BLACK
10
151.13
20
-77.216
40
0.5
0
CIRCLE
8
BLACK
10
151.13
20
-79.756
40
0.5
0
CIRCLE
8
BLACK
10
151.13
20
-82.296
40
0.5
0
CIRCLE
8
BLACK
10
151.13
20
-84.836
40
0.5
0
CIRCLE
8
BLACK
10
151.13
20
-87.376
40
0.5
0
CIRCLE
8
BLACK
10
151.13
20
-89.916
40
0.5
0
CIRCLE
8
BLACK
10
151.13
20
-92.456
40
0.5
0
CIRCLE
8
BLACK
10
102.87
20
-56.896
40
0.5
0
CIRCLE
8
BLACK
10
102.87
20
-59.436
40
0.5
0
CIRCLE
8
BLACK
10
102.87
20
-61.976
40
0.5
0
CIRCLE
8
BLACK
10
102.87
20
-64.516
40
0.5
0
CIRCLE
8
BLACK
10
102.87
20
-67.056
40
0.5
0
CIRCLE
8
BLACK
10
102.87
20
-69.596
40
0.5
0
CIRCLE
8
BLACK
10
102.87
20
-72.136
40
0.5
0
CIRCLE
8
BLACK
10
102.87
20
-74.676
40
0.5
0
LINE
8
BLACK
6
CONTINUOUS
10
153.67
20
-121.04
11
153.67
21
-125.34
0
LINE
8
BLACK
6
CONTINUOUS
10
151.52
20
-123.19
11
155.82
21
-123.19
0
LINE
8
BLACK
6
CONTINUOUS
10
153.67
20
-15.3506
11
153.67
21
-19.6506
0
LINE
8
BLACK
6
CONTINUOUS
10
151.52
20
-17.5006
11
155.82
21
-17.5006
0
LINE
8
BLACK
6
CONTINUOUS
10
91.44
20
-121.04
11
91.44
21
-125.34
0
LINE
8
BLACK
6
CONTINUOUS
10
89.29
20
-123.19
11
93.59
21
-123.19
0
LINE
8
BLACK
6
CONTINUOUS
10
91.44
20
-15.3506
11
91.44
21
-19.6506
0
LINE
8
BLACK
6
CONTINUOUS
10
89.29
20
-17.5006
11
93.59
21
-17.5006
0
LINE
8
BLACK
6
CONTINUOUS
10
84.0693
20
-131.732
11
84.0693
21
-128.732
0
LINE
8
BLACK
6
CONTINUOUS
10
84.0693
20
-128.732
11
84.7836
21
-128.732
0
LINE
8
BLACK
6
CONTINUOUS
10
84.7836
20
-128.732
11
85.2121
21
-128.875
0
LINE
8
BLACK
6
CONTINUOUS
10
85.2121
20
-128.875
11
85.4979
21
-129.161
0
LINE
8
BLACK
6
CONTINUOUS
10
85.4979
20
-129.161
11
85.6407
21
-129.446
0
LINE
8
BLACK
6
CONTINUOUS
10
85.6407
20
-129.446
11
85.7836
21
-130.018
0
LINE
8
BLACK
6
CONTINUOUS
10
85.7836
20
-130.018
11
85.7836
21
-130.446
0
LINE
8
BLACK
6
CONTINUOUS
10
85.7836
20
-130.446
11
85.6407
21
-131.018
0
LINE
8
BLACK
6
CONTINUOUS
10
85.6407
20
-131.018
11
85.4979
21
-131.304
0
LINE
8
BLACK
6
CONTINUOUS
10
85.4979
20
-131.304
11
85.2121
21
-131.589
0
LINE
8
BLACK
6
CONTINUOUS
10
85.2121
20
-131.589
11
84.7836
21
-131.732
0
LINE
8
BLACK
6
CONTINUOUS
10
84.7836
20
-131.732
11
84.0693
21
-131.732
0
LINE
8
BLACK
6
CONTINUOUS
10
87.0693
20
-131.732
11
87.0693
21
-129.732
0
LINE
8
BLACK
6
CONTINUOUS
10
87.0693
20
-130.304
11
87.2121
21
-130.018
0
LINE
8
BLACK
6
CONTINUOUS
10
87.2121
20
-130.018
11
87.355
21
-129.875
0
LINE
8
BLACK
6
CONTINUOUS
10
87.355
20
-129.875
11
87.6407
21
-129.732
0
LINE
8
BLACK
6
CONTINUOUS
10
87.6407
20
-129.732
11
87.9264
21
-129.732
0
LINE
8
BLACK
6
CONTINUOUS
10
88.9264
20
-131.732
11
88.9264
21
-129.732
0
LINE
8
BLACK
6
CONTINUOUS
10
88.9264
20
-128.732
11
88.7836
21
-128.875
0
LINE
8
BLACK
6
CONTINUOUS
10
88.7836
20
-128.875
11
88.9264
21
-129.018
0
LINE
8
BLACK
6
CONTINUOUS
10
88.9264
20
-129.018
11
89.0693
21
-128.875
0
LINE
8
BLACK
6
CONTINUOUS
10
89.0693
20
-128.875
11
88.9264
21
-128.732
0
LINE
8
BLACK
6
CONTINUOUS
10
88.9264
20
-128.732
11
88.9264
21
-129.018
0
LINE
8
BLACK
6
CONTINUOUS
10
90.7836
20
-131.732
11
90.4979
21
-131.589
0
LINE
8
BLACK
6
CONTINUOUS
10
90.4979
20
-131.589
11
90.355
21
-131.304
0
LINE
8
BLACK
6
CONTINUOUS
10
90.355
20
-131.304
11
90.355
21
-128.732
0
LINE
8
BLACK
6
CONTINUOUS
10
92.355
20
-131.732
11
92.0693
21
-131.589
0
LINE
8
BLACK
6
CONTINUOUS
10
92.0693
20
-131.589
11
91.9264
21
-131.304
0
LINE
8
BLACK
6
CONTINUOUS
10
91.9264
20
-131.304
11
91.9264
21
-128.732
0
LINE
8
BLACK
6
CONTINUOUS
10
95.7836
20
-131.732
11
95.7836
21
-128.732
0
LINE
8
BLACK
6
CONTINUOUS
10
95.7836
20
-128.732
11
96.7836
21
-130.875
0
LINE
8
BLACK
6
CONTINUOUS
10
96.7836
20
-130.875
11
97.7836
21
-128.732
0
LINE
8
BLACK
6
CONTINUOUS
10
97.7836
20
-128.732
11
97.7836
21
-131.732
0
LINE
8
BLACK
6
CONTINUOUS
10
100.498
20
-131.732
11
100.498
21
-130.161
0
LINE
8
BLACK
6
CONTINUOUS
10
100.498
20
-130.161
11
100.355
21
-129.875
0
LINE
8
BLACK
6
CONTINUOUS
10
100.355
20
-129.875
11
100.069
21
-129.732
0
LINE
8
BLACK
6
CONTINUOUS
10
100.069
20
-129.732
11
99.4979
21
-129.732
0
LINE
8
BLACK
6
CONTINUOUS
10
99.4979
20
-129.732
11
99.2121
21
-129.875
0
LINE
8
BLACK
6
CONTINUOUS
10
100.498
20
-131.589
11
100.212
21
-131.732
0
LINE
8
BLACK
6
CONTINUOUS
10
100.212
20
-131.732
11
99.4979
21
-131.732
0
LINE
8
BLACK
6
CONTINUOUS
10
99.4979
20
-131.732
11
99.2121
21
-131.589
0
LINE
8
BLACK
6
CONTINUOUS
10
99.2121
20
-131.589
11
99.0693
21
-131.304
0
LINE
8
BLACK
6
CONTINUOUS
10
99.0693
20
-131.304
11
99.0693
21
-131.018
0
LINE
8
BLACK
6
CONTINUOUS
10
99.0693
20
-131.018
11
99.2121
21
-130.732
0
LINE
8
BLACK
6
CONTINUOUS
10
99.2121
20
-130.732
11
99.4979
21
-130.589
0
LINE
8
BLACK
6
CONTINUOUS
10
99.4979
20
-130.589
11
100.212
21
-130.589
0
LINE
8
BLACK
6
CONTINUOUS
10
100.212
20
-130.589
11
100.498
21
-130.446
0
LINE
8
BLACK
6
CONTINUOUS
10
101.926
20
-129.732
11
101.926
21
-132.732
0
LINE
8
BLACK
6
CONTINUOUS
10
101.926
20
-129.875
11
102.212
21
-129.732
0
LINE
8
BLACK
6
CONTINUOUS
10
102.212
20
-129.732
11
102.784
21
-129.732
0
LINE
8
BLACK
6
CONTINUOUS
10
102.784
20
-129.732
11
103.069
21
-129.875
0
LINE
8
BLACK
6
CONTINUOUS
10
103.069
20
-129.875
11
103.212
21
-130.018
0
LINE
8
BLACK
6
CONTINUOUS
10
103.212
20
-130.018
11
103.355
21
-130.304
0
LINE
8
BLACK
6
CONTINUOUS
10
103.355
20
-130.304
11
103.355
21
-131.161
0
LINE
8
BLACK
6
CONTINUOUS
10
103.355
20
-131.161
11
103.212
21
-131.446
0
LINE
8
BLACK
6
CONTINUOUS
10
103.212
20
-131.446
11
103.069
21
-131.589
0
LINE
8
BLACK
6
CONTINUOUS
10
103.069
20
-131.589
11
102.784
21
-131.732
0
LINE
8
BLACK
6
CONTINUOUS
10
102.784
20
-131.732
11
102.212
21
-131.732
0
LINE
8
BLACK
6
CONTINUOUS
10
102.212
20
-131.732
11
101.926
21
-131.589
0
LINE
8
BLACK
6
CONTINUOUS
10
104.641
20
-131.446
11
104.784
21
-131.589
0
LINE
8
BLACK
6
CONTINUOUS
10
104.784
20
-131.589
11
104.641
21
-131.732
0
LINE
8
BLACK
6
CONTINUOUS
10
104.641
20
-131.732
11
104.498
21
-131.589
0
LINE
8
BLACK
6
CONTINUOUS
10
104.498
20
-131.589
11
104.641
21
-131.446
0
LINE
8
BLACK
6
CONTINUOUS
10
104.641
20
-131.446
11
104.641
21
-131.732
0
LINE
8
BLACK
6
CONTINUOUS
10
104.641
20
-129.875
11
104.784
21
-130.018
0
LINE
8
BLACK
6
CONTINUOUS
10
104.784
20
-130.018
11
104.641
21
-130.161
0
LINE
8
BLACK
6
CONTINUOUS
10
104.641
20
-130.161
11
104.498
21
-130.018
0
LINE
8
BLACK
6
CONTINUOUS
10
104.498
20
-130.018
11
104.641
21
-129.875
0
LINE
8
BLACK
6
CONTINUOUS
10
104.641
20
-129.875
11
104.641
21
-130.161
0
LINE
8
BLACK
6
CONTINUOUS
10
80.405
20
-136.275
11
81.205
21
-137.075
0
LINE
8
BLACK
6
CONTINUOUS
10
81.205
20
-136.275
11
80.405
21
-137.075
0
LINE
8
BLACK
6
CONTINUOUS
10
84.6407
20
-135.032
11
84.9264
21
-135.032
0
LINE
8
BLACK
6
CONTINUOUS
10
84.9264
20
-135.032
11
85.2121
21
-135.175
0
LINE
8
BLACK
6
CONTINUOUS
10
85.2121
20
-135.175
11
85.355
21
-135.318
0
LINE
8
BLACK
6
CONTINUOUS
10
85.355
20
-135.318
11
85.4979
21
-135.604
0
LINE
8
BLACK
6
CONTINUOUS
10
85.4979
20
-135.604
11
85.6407
21
-136.175
0
LINE
8
BLACK
6
CONTINUOUS
10
85.6407
20
-136.175
11
85.6407
21
-136.889
0
LINE
8
BLACK
6
CONTINUOUS
10
85.6407
20
-136.889
11
85.4979
21
-137.461
0
LINE
8
BLACK
6
CONTINUOUS
10
85.4979
20
-137.461
11
85.355
21
-137.746
0
LINE
8
BLACK
6
CONTINUOUS
10
85.355
20
-137.746
11
85.2121
21
-137.889
0
LINE
8
BLACK
6
CONTINUOUS
10
85.2121
20
-137.889
11
84.9264
21
-138.032
0
LINE
8
BLACK
6
CONTINUOUS
10
84.9264
20
-138.032
11
84.6407
21
-138.032
0
LINE
8
BLACK
6
CONTINUOUS
10
84.6407
20
-138.032
11
84.355
21
-137.889
0
LINE
8
BLACK
6
CONTINUOUS
10
84.355
20
-137.889
11
84.2121
21
-137.746
0
LINE
8
BLACK
6
CONTINUOUS
10
84.2121
20
-137.746
11
84.0693
21
-137.461
0
LINE
8
BLACK
6
CONTINUOUS
10
84.0693
20
-137.461
11
83.9264
21
-136.889
0
LINE
8
BLACK
6
CONTINUOUS
10
83.9264
20
-136.889
11
83.9264
21
-136.175
0
LINE
8
BLACK
6
CONTINUOUS
10
83.9264
20
-136.175
11
84.0693
21
-135.604
0
LINE
8
BLACK
6
CONTINUOUS
10
84.0693
20
-135.604
11
84.2121
21
-135.318
0
LINE
8
BLACK
6
CONTINUOUS
10
84.2121
20
-135.318
11
84.355
21
-135.175
0
LINE
8
BLACK
6
CONTINUOUS
10
84.355
20
-135.175
11
84.6407
21
-135.032
0
LINE
8
BLACK
6
CONTINUOUS
10
86.9264
20
-137.746
11
87.0693
21
-137.889
0
LINE
8
BLACK
6
CONTINUOUS
10
87.0693
20
-137.889
11
86.9264
21
-138.032
0
LINE
8
BLACK
6
CONTINUOUS
10
86.9264
20
-138.032
11
86.7836
21
-137.889
0
LINE
8
BLACK
6
CONTINUOUS
10
86.7836
20
-137.889
11
86.9264
21
-137.746
0
LINE
8
BLACK
6
CONTINUOUS
10
86.9264
20
-137.746
11
86.9264
21
-138.032
0
LINE
8
BLACK
6
CONTINUOUS
10
88.7836
20
-136.318
11
88.4979
21
-136.175
0
LINE
8
BLACK
6
CONTINUOUS
10
88.4979
20
-136.175
11
88.355
21
-136.032
0
LINE
8
BLACK
6
CONTINUOUS
10
88.355
20
-136.032
11
88.2121
21
-135.746
0
LINE
8
BLACK
6
CONTINUOUS
10
88.2121
20
-135.746
11
88.2121
21
-135.604
0
LINE
8
BLACK
6
CONTINUOUS
10
88.2121
20
-135.604
11
88.355
21
-135.318
0
LINE
8
BLACK
6
CONTINUOUS
10
88.355
20
-135.318
11
88.4979
21
-135.175
0
LINE
8
BLACK
6
CONTINUOUS
10
88.4979
20
-135.175
11
88.7836
21
-135.032
0
LINE
8
BLACK
6
CONTINUOUS
10
88.7836
20
-135.032
11
89.355
21
-135.032
0
LINE
8
BLACK
6
CONTINUOUS
10
89.355
20
-135.032
11
89.6407
21
-135.175
0
LINE
8
BLACK
6
CONTINUOUS
10
89.6407
20
-135.175
11
89.7836
21
-135.318
0
LINE
8
BLACK
6
CONTINUOUS
10
89.7836
20
-135.318
11
89.9264
21
-135.604
0
LINE
8
BLACK
6
CONTINUOUS
10
89.9264
20
-135.604
11
89.9264
21
-135.746
0
LINE
8
BLACK
6
CONTINUOUS
10
89.9264
20
-135.746
11
89.7836
21
-136.032
0
LINE
8
BLACK
6
CONTINUOUS
10
89.7836
20
-136.032
11
89.6407
21
-136.175
0
LINE
8
BLACK
6
CONTINUOUS
10
89.6407
20
-136.175
11
89.355
21
-136.318
0
LINE
8
BLACK
6
CONTINUOUS
10
89.355
20
-136.318
11
88.7836
21
-136.318
0
LINE
8
BLACK
6
CONTINUOUS
10
88.7836
20
-136.318
11
88.4979
21
-136.461
0
LINE
8
BLACK
6
CONTINUOUS
10
88.4979
20
-136.461
11
88.355
21
-136.604
0
LINE
8
BLACK
6
CONTINUOUS
10
88.355
20
-136.604
11
88.2121
21
-136.889
0
LINE
8
BLACK
6
CONTINUOUS
10
88.2121
20
-136.889
11
88.2121
21
-137.461
0
LINE
8
BLACK
6
CONTINUOUS
10
88.2121
20
-137.461
11
88.355
21
-137.746
0
LINE
8
BLACK
6
CONTINUOUS
10
88.355
20
-137.746
11
88.4979
21
-137.889
0
LINE
8
BLACK
6
CONTINUOUS
10
88.4979
20
-137.889
11
88.7836
21
-138.032
0
LINE
8
BLACK
6
CONTINUOUS
10
88.7836
20
-138.032
11
89.355
21
-138.032
0
LINE
8
BLACK
6
CONTINUOUS
10
89.355
20
-138.032
11
89.6407
21
-137.889
0
LINE
8
BLACK
6
CONTINUOUS
10
89.6407
20
-137.889
11
89.7836
21
-137.746
0
LINE
8
BLACK
6
CONTINUOUS
10
89.7836
20
-137.746
11
89.9264
21
-137.461
0
LINE
8
BLACK
6
CONTINUOUS
10
89.9264
20
-137.461
11
89.9264
21
-136.889
0
LINE
8
BLACK
6
CONTINUOUS
10
89.9264
20
-136.889
11
89.7836
21
-136.604
0
LINE
8
BLACK
6
CONTINUOUS
10
89.7836
20
-136.604
11
89.6407
21
-136.461
0
LINE
8
BLACK
6
CONTINUOUS
10
89.6407
20
-136.461
11
89.355
21
-136.318
0
LINE
8
BLACK
6
CONTINUOUS
10
91.7836
20
-135.032
11
92.0693
21
-135.032
0
LINE
8
BLACK
6
CONTINUOUS
10
92.0693
20
-135.032
11
92.355
21
-135.175
0
LINE
8
BLACK
6
CONTINUOUS
10
92.355
20
-135.175
11
92.4979
21
-135.318
0
LINE
8
BLACK
6
CONTINUOUS
10
92.4979
20
-135.318
11
92.6407
21
-135.604
0
LINE
8
BLACK
6
CONTINUOUS
10
92.6407
20
-135.604
11
92.7836
21
-136.175
0
LINE
8
BLACK
6
CONTINUOUS
10
92.7836
20
-136.175
11
92.7836
21
-136.889
0
LINE
8
BLACK
6
CONTINUOUS
10
92.7836
20
-136.889
11
92.6407
21
-137.461
0
LINE
8
BLACK
6
CONTINUOUS
10
92.6407
20
-137.461
11
92.4979
21
-137.746
0
LINE
8
BLACK
6
CONTINUOUS
10
92.4979
20
-137.746
11
92.355
21
-137.889
0
LINE
8
BLACK
6
CONTINUOUS
10
92.355
20
-137.889
11
92.0693
21
-138.032
0
LINE
8
BLACK
6
CONTINUOUS
10
92.0693
20
-138.032
11
91.7836
21
-138.032
0
LINE
8
BLACK
6
CONTINUOUS
10
91.7836
20
-138.032
11
91.4979
21
-137.889
0
LINE
8
BLACK
6
CONTINUOUS
10
91.4979
20
-137.889
11
91.355
21
-137.746
0
LINE
8
BLACK
6
CONTINUOUS
10
91.355
20
-137.746
11
91.2121
21
-137.461
0
LINE
8
BLACK
6
CONTINUOUS
10
91.2121
20
-137.461
11
91.0693
21
-136.889
0
LINE
8
BLACK
6
CONTINUOUS
10
91.0693
20
-136.889
11
91.0693
21
-136.175
0
LINE
8
BLACK
6
CONTINUOUS
10
91.0693
20
-136.175
11
91.2121
21
-135.604
0
LINE
8
BLACK
6
CONTINUOUS
10
91.2121
20
-135.604
11
91.355
21
-135.318
0
LINE
8
BLACK
6
CONTINUOUS
10
91.355
20
-135.318
11
91.4979
21
-135.175
0
LINE
8
BLACK
6
CONTINUOUS
10
91.4979
20
-135.175
11
91.7836
21
-135.032
0
LINE
8
BLACK
6
CONTINUOUS
10
94.0693
20
-138.032
11
94.0693
21
-136.032
0
LINE
8
BLACK
6
CONTINUOUS
10
94.0693
20
-136.318
11
94.2121
21
-136.175
0
LINE
8
BLACK
6
CONTINUOUS
10
94.2121
20
-136.175
11
94.4979
21
-136.032
0
LINE
8
BLACK
6
CONTINUOUS
10
94.4979
20
-136.032
11
94.9264
21
-136.032
0
LINE
8
BLACK
6
CONTINUOUS
10
94.9264
20
-136.032
11
95.2121
21
-136.175
0
LINE
8
BLACK
6
CONTINUOUS
10
95.2121
20
-136.175
11
95.355
21
-136.461
0
LINE
8
BLACK
6
CONTINUOUS
10
95.355
20
-136.461
11
95.355
21
-138.032
0
LINE
8
BLACK
6
CONTINUOUS
10
95.355
20
-136.461
11
95.4979
21
-136.175
0
LINE
8
BLACK
6
CONTINUOUS
10
95.4979
20
-136.175
11
95.7836
21
-136.032
0
LINE
8
BLACK
6
CONTINUOUS
10
95.7836
20
-136.032
11
96.2121
21
-136.032
0
LINE
8
BLACK
6
CONTINUOUS
10
96.2121
20
-136.032
11
96.4979
21
-136.175
0
LINE
8
BLACK
6
CONTINUOUS
10
96.4979
20
-136.175
11
96.6407
21
-136.461
0
LINE
8
BLACK
6
CONTINUOUS
10
96.6407
20
-136.461
11
96.6407
21
-138.032
0
LINE
8
BLACK
6
CONTINUOUS
10
98.0693
20
-138.032
11
98.0693
21
-136.032
0
LINE
8
BLACK
6
CONTINUOUS
10
98.0693
20
-136.318
11
98.2121
21
-136.175
0
LINE
8
BLACK
6
CONTINUOUS
10
98.2121
20
-136.175
11
98.4979
21
-136.032
0
LINE
8
BLACK
6
CONTINUOUS
10
98.4979
20
-136.032
11
98.9264
21
-136.032
0
LINE
8
BLACK
6
CONTINUOUS
10
98.9264
20
-136.032
11
99.2121
21
-136.175
0
LINE
8
BLACK
6
CONTINUOUS
10
99.2121
20
-136.175
11
99.355
21
-136.461
0
LINE
8
BLACK
6
CONTINUOUS
10
99.355
20
-136.461
11
99.355
21
-138.032
0
LINE
8
BLACK
6
CONTINUOUS
10
99.355
20
-136.461
11
99.4979
21
-136.175
0
LINE
8
BLACK
6
CONTINUOUS
10
99.4979
20
-136.175
11
99.7836
21
-136.032
0
LINE
8
BLACK
6
CONTINUOUS
10
99.7836
20
-136.032
11
100.212
21
-136.032
0
LINE
8
BLACK
6
CONTINUOUS
10
100.212
20
-136.032
11
100.498
21
-136.175
0
LINE
8
BLACK
6
CONTINUOUS
10
100.498
20
-136.175
11
100.641
21
-136.461
0
LINE
8
BLACK
6
CONTINUOUS
10
100.641
20
-136.461
11
100.641
21
-138.032
0
LINE
8
BLACK
6
CONTINUOUS
10
106.498
20
-134.889
11
103.926
21
-138.746
0
LINE
8
BLACK
6
CONTINUOUS
10
110.355
20
-135.032
11
110.641
21
-135.032
0
LINE
8
BLACK
6
CONTINUOUS
10
110.641
20
-135.032
11
110.926
21
-135.175
0
LINE
8
BLACK
6
CONTINUOUS
10
110.926
20
-135.175
11
111.069
21
-135.318
0
LINE
8
BLACK
6
CONTINUOUS
10
111.069
20
-135.318
11
111.212
21
-135.604
0
LINE
8
BLACK
6
CONTINUOUS
10
111.212
20
-135.604
11
111.355
21
-136.175
0
LINE
8
BLACK
6
CONTINUOUS
10
111.355
20
-136.175
11
111.355
21
-136.889
0
LINE
8
BLACK
6
CONTINUOUS
10
111.355
20
-136.889
11
111.212
21
-137.461
0
LINE
8
BLACK
6
CONTINUOUS
10
111.212
20
-137.461
11
111.069
21
-137.746
0
LINE
8
BLACK
6
CONTINUOUS
10
111.069
20
-137.746
11
110.926
21
-137.889
0
LINE
8
BLACK
6
CONTINUOUS
10
110.926
20
-137.889
11
110.641
21
-138.032
0
LINE
8
BLACK
6
CONTINUOUS
10
110.641
20
-138.032
11
110.355
21
-138.032
0
LINE
8
BLACK
6
CONTINUOUS
10
110.355
20
-138.032
11
110.069
21
-137.889
0
LINE
8
BLACK
6
CONTINUOUS
10
110.069
20
-137.889
11
109.926
21
-137.746
0
LINE
8
BLACK
6
CONTINUOUS
10
109.926
20
-137.746
11
109.784
21
-137.461
0
LINE
8
BLACK
6
CONTINUOUS
10
109.784
20
-137.461
11
109.641
21
-136.889
0
LINE
8
BLACK
6
CONTINUOUS
10
109.641
20
-136.889
11
109.641
21
-136.175
0
LINE
8
BLACK
6
CONTINUOUS
10
109.641
20
-136.175
11
109.784
21
-135.604
0
LINE
8
BLACK
6
CONTINUOUS
10
109.784
20
-135.604
11
109.926
21
-135.318
0
LINE
8
BLACK
6
CONTINUOUS
10
109.926
20
-135.318
11
110.069
21
-135.175
0
LINE
8
BLACK
6
CONTINUOUS
10
110.069
20
-135.175
11
110.355
21
-135.032
0
LINE
8
BLACK
6
CONTINUOUS
10
112.641
20
-137.746
11
112.784
21
-137.889
0
LINE
8
BLACK
6
CONTINUOUS
10
112.784
20
-137.889
11
112.641
21
-138.032
0
LINE
8
BLACK
6
CONTINUOUS
10
112.641
20
-138.032
11
112.498
21
-137.889
0
LINE
8
BLACK
6
CONTINUOUS
10
112.498
20
-137.889
11
112.641
21
-137.746
0
LINE
8
BLACK
6
CONTINUOUS
10
112.641
20
-137.746
11
112.641
21
-138.032
0
LINE
8
BLACK
6
CONTINUOUS
10
114.641
20
-135.032
11
114.926
21
-135.032
0
LINE
8
BLACK
6
CONTINUOUS
10
114.926
20
-135.032
11
115.212
21
-135.175
0
LINE
8
BLACK
6
CONTINUOUS
10
115.212
20
-135.175
11
115.355
21
-135.318
0
LINE
8
BLACK
6
CONTINUOUS
10
115.355
20
-135.318
11
115.498
21
-135.604
0
LINE
8
BLACK
6
CONTINUOUS
10
115.498
20
-135.604
11
115.641
21
-136.175
0
LINE
8
BLACK
6
CONTINUOUS
10
115.641
20
-136.175
11
115.641
21
-136.889
0
LINE
8
BLACK
6
CONTINUOUS
10
115.641
20
-136.889
11
115.498
21
-137.461
0
LINE
8
BLACK
6
CONTINUOUS
10
115.498
20
-137.461
11
115.355
21
-137.746
0
LINE
8
BLACK
6
CONTINUOUS
10
115.355
20
-137.746
11
115.212
21
-137.889
0
LINE
8
BLACK
6
CONTINUOUS
10
115.212
20
-137.889
11
114.926
21
-138.032
0
LINE
8
BLACK
6
CONTINUOUS
10
114.926
20
-138.032
11
114.641
21
-138.032
0
LINE
8
BLACK
6
CONTINUOUS
10
114.641
20
-138.032
11
114.355
21
-137.889
0
LINE
8
BLACK
6
CONTINUOUS
10
114.355
20
-137.889
11
114.212
21
-137.746
0
LINE
8
BLACK
6
CONTINUOUS
10
114.212
20
-137.746
11
114.069
21
-137.461
0
LINE
8
BLACK
6
CONTINUOUS
10
114.069
20
-137.461
11
113.926
21
-136.889
0
LINE
8
BLACK
6
CONTINUOUS
10
113.926
20
-136.889
11
113.926
21
-136.175
0
LINE
8
BLACK
6
CONTINUOUS
10
113.926
20
-136.175
11
114.069
21
-135.604
0
LINE
8
BLACK
6
CONTINUOUS
10
114.069
20
-135.604
11
114.212
21
-135.318
0
LINE
8
BLACK
6
CONTINUOUS
10
114.212
20
-135.318
11
114.355
21
-135.175
0
LINE
8
BLACK
6
CONTINUOUS
10
114.355
20
-135.175
11
114.641
21
-135.032
0
LINE
8
BLACK
6
CONTINUOUS
10
116.641
20
-135.032
11
118.498
21
-135.032
0
LINE
8
BLACK
6
CONTINUOUS
10
118.498
20
-135.032
11
117.498
21
-136.175
0
LINE
8
BLACK
6
CONTINUOUS
10
117.498
20
-136.175
11
117.926
21
-136.175
0
LINE
8
BLACK
6
CONTINUOUS
10
117.926
20
-136.175
11
118.212
21
-136.318
0
LINE
8
BLACK
6
CONTINUOUS
10
118.212
20
-136.318
11
118.355
21
-136.461
0
LINE
8
BLACK
6
CONTINUOUS
10
118.355
20
-136.461
11
118.498
21
-136.746
0
LINE
8
BLACK
6
CONTINUOUS
10
118.498
20
-136.746
11
118.498
21
-137.461
0
LINE
8
BLACK
6
CONTINUOUS
10
118.498
20
-137.461
11
118.355
21
-137.746
0
LINE
8
BLACK
6
CONTINUOUS
10
118.355
20
-137.746
11
118.212
21
-137.889
0
LINE
8
BLACK
6
CONTINUOUS
10
118.212
20
-137.889
11
117.926
21
-138.032
0
LINE
8
BLACK
6
CONTINUOUS
10
117.926
20
-138.032
11
117.069
21
-138.032
0
LINE
8
BLACK
6
CONTINUOUS
10
117.069
20
-138.032
11
116.784
21
-137.889
0
LINE
8
BLACK
6
CONTINUOUS
10
116.784
20
-137.889
11
116.641
21
-137.746
0
LINE
8
BLACK
6
CONTINUOUS
10
121.355
20
-138.032
11
119.641
21
-138.032
0
LINE
8
BLACK
6
CONTINUOUS
10
120.498
20
-138.032
11
120.498
21
-135.032
0
LINE
8
BLACK
6
CONTINUOUS
10
120.498
20
-135.032
11
120.212
21
-135.461
0
LINE
8
BLACK
6
CONTINUOUS
10
120.212
20
-135.461
11
119.926
21
-135.746
0
LINE
8
BLACK
6
CONTINUOUS
10
119.926
20
-135.746
11
119.641
21
-135.889
0
LINE
8
BLACK
6
CONTINUOUS
10
122.498
20
-135.032
11
122.498
21
-135.604
0
LINE
8
BLACK
6
CONTINUOUS
10
123.641
20
-135.032
11
123.641
21
-135.604
0
LINE
8
BLACK
6
CONTINUOUS
10
128.069
20
-139.175
11
127.926
21
-139.032
0
LINE
8
BLACK
6
CONTINUOUS
10
127.926
20
-139.032
11
127.641
21
-138.604
0
LINE
8
BLACK
6
CONTINUOUS
10
127.641
20
-138.604
11
127.498
21
-138.318
0
LINE
8
BLACK
6
CONTINUOUS
10
127.498
20
-138.318
11
127.355
21
-137.889
0
LINE
8
BLACK
6
CONTINUOUS
10
127.355
20
-137.889
11
127.212
21
-137.175
0
LINE
8
BLACK
6
CONTINUOUS
10
127.212
20
-137.175
11
127.212
21
-136.604
0
LINE
8
BLACK
6
CONTINUOUS
10
127.212
20
-136.604
11
127.355
21
-135.889
0
LINE
8
BLACK
6
CONTINUOUS
10
127.355
20
-135.889
11
127.498
21
-135.461
0
LINE
8
BLACK
6
CONTINUOUS
10
127.498
20
-135.461
11
127.641
21
-135.175
0
LINE
8
BLACK
6
CONTINUOUS
10
127.641
20
-135.175
11
127.926
21
-134.746
0
LINE
8
BLACK
6
CONTINUOUS
10
127.926
20
-134.746
11
128.069
21
-134.604
0
LINE
8
BLACK
6
CONTINUOUS
10
128.926
20
-135.032
11
130.784
21
-135.032
0
LINE
8
BLACK
6
CONTINUOUS
10
130.784
20
-135.032
11
129.784
21
-136.175
0
LINE
8
BLACK
6
CONTINUOUS
10
129.784
20
-136.175
11
130.212
21
-136.175
0
LINE
8
BLACK
6
CONTINUOUS
10
130.212
20
-136.175
11
130.498
21
-136.318
0
LINE
8
BLACK
6
CONTINUOUS
10
130.498
20
-136.318
11
130.641
21
-136.461
0
LINE
8
BLACK
6
CONTINUOUS
10
130.641
20
-136.461
11
130.784
21
-136.746
0
LINE
8
BLACK
6
CONTINUOUS
10
130.784
20
-136.746
11
130.784
21
-137.461
0
LINE
8
BLACK
6
CONTINUOUS
10
130.784
20
-137.461
11
130.641
21
-137.746
0
LINE
8
BLACK
6
CONTINUOUS
10
130.641
20
-137.746
11
130.498
21
-137.889
0
LINE
8
BLACK
6
CONTINUOUS
10
130.498
20
-137.889
11
130.212
21
-138.032
0
LINE
8
BLACK
6
CONTINUOUS
10
130.212
20
-138.032
11
129.355
21
-138.032
0
LINE
8
BLACK
6
CONTINUOUS
10
129.355
20
-138.032
11
129.069
21
-137.889
0
LINE
8
BLACK
6
CONTINUOUS
10
129.069
20
-137.889
11
128.926
21
-137.746
0
LINE
8
BLACK
6
CONTINUOUS
10
132.641
20
-135.032
11
132.926
21
-135.032
0
LINE
8
BLACK
6
CONTINUOUS
10
132.926
20
-135.032
11
133.212
21
-135.175
0
LINE
8
BLACK
6
CONTINUOUS
10
133.212
20
-135.175
11
133.355
21
-135.318
0
LINE
8
BLACK
6
CONTINUOUS
10
133.355
20
-135.318
11
133.498
21
-135.604
0
LINE
8
BLACK
6
CONTINUOUS
10
133.498
20
-135.604
11
133.641
21
-136.175
0
LINE
8
BLACK
6
CONTINUOUS
10
133.641
20
-136.175
11
133.641
21
-136.889
0
LINE
8
BLACK
6
CONTINUOUS
10
133.641
20
-136.889
11
133.498
21
-137.461
0
LINE
8
BLACK
6
CONTINUOUS
10
133.498
20
-137.461
11
133.355
21
-137.746
0
LINE
8
BLACK
6
CONTINUOUS
10
133.355
20
-137.746
11
133.212
21
-137.889
0
LINE
8
BLACK
6
CONTINUOUS
10
133.212
20
-137.889
11
132.926
21
-138.032
0
LINE
8
BLACK
6
CONTINUOUS
10
132.926
20
-138.032
11
132.641
21
-138.032
0
LINE
8
BLACK
6
CONTINUOUS
10
132.641
20
-138.032
11
132.355
21
-137.889
0
LINE
8
BLACK
6
CONTINUOUS
10
132.355
20
-137.889
11
132.212
21
-137.746
0
LINE
8
BLACK
6
CONTINUOUS
10
132.212
20
-137.746
11
132.069
21
-137.461
0
LINE
8
BLACK
6
CONTINUOUS
10
132.069
20
-137.461
11
131.926
21
-136.889
0
LINE
8
BLACK
6
CONTINUOUS
10
131.926
20
-136.889
11
131.926
21
-136.175
0
LINE
8
BLACK
6
CONTINUOUS
10
131.926
20
-136.175
11
132.069
21
-135.604
0
LINE
8
BLACK
6
CONTINUOUS
10
132.069
20
-135.604
11
132.212
21
-135.318
0
LINE
8
BLACK
6
CONTINUOUS
10
132.212
20
-135.318
11
132.355
21
-135.175
0
LINE
8
BLACK
6
CONTINUOUS
10
132.355
20
-135.175
11
132.641
21
-135.032
0
LINE
8
BLACK
6
CONTINUOUS
10
137.212
20
-138.032
11
137.212
21
-135.032
0
LINE
8
BLACK
6
CONTINUOUS
10
138.498
20
-138.032
11
138.498
21
-136.461
0
LINE
8
BLACK
6
CONTINUOUS
10
138.498
20
-136.461
11
138.355
21
-136.175
0
LINE
8
BLACK
6
CONTINUOUS
10
138.355
20
-136.175
11
138.069
21
-136.032
0
LINE
8
BLACK
6
CONTINUOUS
10
138.069
20
-136.032
11
137.641
21
-136.032
0
LINE
8
BLACK
6
CONTINUOUS
10
137.641
20
-136.032
11
137.355
21
-136.175
0
LINE
8
BLACK
6
CONTINUOUS
10
137.355
20
-136.175
11
137.212
21
-136.318
0
LINE
8
BLACK
6
CONTINUOUS
10
140.355
20
-138.032
11
140.069
21
-137.889
0
LINE
8
BLACK
6
CONTINUOUS
10
140.069
20
-137.889
11
139.926
21
-137.746
0
LINE
8
BLACK
6
CONTINUOUS
10
139.926
20
-137.746
11
139.784
21
-137.461
0
LINE
8
BLACK
6
CONTINUOUS
10
139.784
20
-137.461
11
139.784
21
-136.604
0
LINE
8
BLACK
6
CONTINUOUS
10
139.784
20
-136.604
11
139.926
21
-136.318
0
LINE
8
BLACK
6
CONTINUOUS
10
139.926
20
-136.318
11
140.069
21
-136.175
0
LINE
8
BLACK
6
CONTINUOUS
10
140.069
20
-136.175
11
140.355
21
-136.032
0
LINE
8
BLACK
6
CONTINUOUS
10
140.355
20
-136.032
11
140.784
21
-136.032
0
LINE
8
BLACK
6
CONTINUOUS
10
140.784
20
-136.032
11
141.069
21
-136.175
0
LINE
8
BLACK
6
CONTINUOUS
10
141.069
20
-136.175
11
141.212
21
-136.318
0
LINE
8
BLACK
6
CONTINUOUS
10
141.212
20
-136.318
11
141.355
21
-136.604
0
LINE
8
BLACK
6
CONTINUOUS
10
141.355
20
-136.604
11
141.355
21
-137.461
0
LINE
8
BLACK
6
CONTINUOUS
10
141.355
20
-137.461
11
141.212
21
-137.746
0
LINE
8
BLACK
6
CONTINUOUS
10
141.212
20
-137.746
11
141.069
21
-137.889
0
LINE
8
BLACK
6
CONTINUOUS
10
141.069
20
-137.889
11
140.784
21
-138.032
0
LINE
8
BLACK
6
CONTINUOUS
10
140.784
20
-138.032
11
140.355
21
-138.032
0
LINE
8
BLACK
6
CONTINUOUS
10
143.069
20
-138.032
11
142.784
21
-137.889
0
LINE
8
BLACK
6
CONTINUOUS
10
142.784
20
-137.889
11
142.641
21
-137.604
0
LINE
8
BLACK
6
CONTINUOUS
10
142.641
20
-137.604
11
142.641
21
-135.032
0
LINE
8
BLACK
6
CONTINUOUS
10
145.355
20
-137.889
11
145.069
21
-138.032
0
LINE
8
BLACK
6
CONTINUOUS
10
145.069
20
-138.032
11
144.498
21
-138.032
0
LINE
8
BLACK
6
CONTINUOUS
10
144.498
20
-138.032
11
144.212
21
-137.889
0
LINE
8
BLACK
6
CONTINUOUS
10
144.212
20
-137.889
11
144.069
21
-137.604
0
LINE
8
BLACK
6
CONTINUOUS
10
144.069
20
-137.604
11
144.069
21
-136.461
0
LINE
8
BLACK
6
CONTINUOUS
10
144.069
20
-136.461
11
144.212
21
-136.175
0
LINE
8
BLACK
6
CONTINUOUS
10
144.212
20
-136.175
11
144.498
21
-136.032
0
LINE
8
BLACK
6
CONTINUOUS
10
144.498
20
-136.032
11
145.069
21
-136.032
0
LINE
8
BLACK
6
CONTINUOUS
10
145.069
20
-136.032
11
145.355
21
-136.175
0
LINE
8
BLACK
6
CONTINUOUS
10
145.355
20
-136.175
11
145.498
21
-136.461
0
LINE
8
BLACK
6
CONTINUOUS
10
145.498
20
-136.461
11
145.498
21
-136.746
0
LINE
8
BLACK
6
CONTINUOUS
10
145.498
20
-136.746
11
144.069
21
-137.032
0
LINE
8
BLACK
6
CONTINUOUS
10
146.641
20
-137.889
11
146.926
21
-138.032
0
LINE
8
BLACK
6
CONTINUOUS
10
146.926
20
-138.032
11
147.498
21
-138.032
0
LINE
8
BLACK
6
CONTINUOUS
10
147.498
20
-138.032
11
147.784
21
-137.889
0
LINE
8
BLACK
6
CONTINUOUS
10
147.784
20
-137.889
11
147.926
21
-137.604
0
LINE
8
BLACK
6
CONTINUOUS
10
147.926
20
-137.604
11
147.926
21
-137.461
0
LINE
8
BLACK
6
CONTINUOUS
10
147.926
20
-137.461
11
147.784
21
-137.175
0
LINE
8
BLACK
6
CONTINUOUS
10
147.784
20
-137.175
11
147.498
21
-137.032
0
LINE
8
BLACK
6
CONTINUOUS
10
147.498
20
-137.032
11
147.069
21
-137.032
0
LINE
8
BLACK
6
CONTINUOUS
10
147.069
20
-137.032
11
146.784
21
-136.889
0
LINE
8
BLACK
6
CONTINUOUS
10
146.784
20
-136.889
11
146.641
21
-136.604
0
LINE
8
BLACK
6
CONTINUOUS
10
146.641
20
-136.604
11
146.641
21
-136.461
0
LINE
8
BLACK
6
CONTINUOUS
10
146.641
20
-136.461
11
146.784
21
-136.175
0
LINE
8
BLACK
6
CONTINUOUS
10
146.784
20
-136.175
11
147.069
21
-136.032
0
LINE
8
BLACK
6
CONTINUOUS
10
147.069
20
-136.032
11
147.498
21
-136.032
0
LINE
8
BLACK
6
CONTINUOUS
10
147.498
20
-136.032
11
147.784
21
-136.175
0
LINE
8
BLACK
6
CONTINUOUS
10
148.926
20
-139.175
11
149.069
21
-139.032
0
LINE
8
BLACK
6
CONTINUOUS
10
149.069
20
-139.032
11
149.355
21
-138.604
0
LINE
8
BLACK
6
CONTINUOUS
10
149.355
20
-138.604
11
149.498
21
-138.318
0
LINE
8
BLACK
6
CONTINUOUS
10
149.498
20
-138.318
11
149.641
21
-137.889
0
LINE
8
BLACK
6
CONTINUOUS
10
149.641
20
-137.889
11
149.784
21
-137.175
0
LINE
8
BLACK
6
CONTINUOUS
10
149.784
20
-137.175
11
149.784
21
-136.604
0
LINE
8
BLACK
6
CONTINUOUS
10
149.784
20
-136.604
11
149.641
21
-135.889
0
LINE
8
BLACK
6
CONTINUOUS
10
149.641
20
-135.889
11
149.498
21
-135.461
0
LINE
8
BLACK
6
CONTINUOUS
10
149.498
20
-135.461
11
149.355
21
-135.175
0
LINE
8
BLACK
6
CONTINUOUS
10
149.355
20
-135.175
11
149.069
21
-134.746
0
LINE
8
BLACK
6
CONTINUOUS
10
149.069
20
-134.746
11
148.926
21
-134.604
0
CIRCLE
8
BLACK
10
80.705
20
-140.635
40
0.5
0
LINE
8
BLACK
6
CONTINUOUS
10
85.6407
20
-141.992
11
83.9264
21
-141.992
0
LINE
8
BLACK
6
CONTINUOUS
10
84.7836
20
-141.992
11
84.7836
21
-138.992
0
LINE
8
BLACK
6
CONTINUOUS
10
84.7836
20
-138.992
11
84.4979
21
-139.421
0
LINE
8
BLACK
6
CONTINUOUS
10
84.4979
20
-139.421
11
84.2121
21
-139.706
0
LINE
8
BLACK
6
CONTINUOUS
10
84.2121
20
-139.706
11
83.9264
21
-139.849
0
LINE
8
BLACK
6
CONTINUOUS
10
86.9264
20
-141.706
11
87.0693
21
-141.849
0
LINE
8
BLACK
6
CONTINUOUS
10
87.0693
20
-141.849
11
86.9264
21
-141.992
0
LINE
8
BLACK
6
CONTINUOUS
10
86.9264
20
-141.992
11
86.7836
21
-141.849
0
LINE
8
BLACK
6
CONTINUOUS
10
86.7836
20
-141.849
11
86.9264
21
-141.706
0
LINE
8
BLACK
6
CONTINUOUS
10
86.9264
20
-141.706
11
86.9264
21
-141.992
0
LINE
8
BLACK
6
CONTINUOUS
10
88.9264
20
-138.992
11
89.2121
21
-138.992
0
LINE
8
BLACK
6
CONTINUOUS
10
89.2121
20
-138.992
11
89.4979
21
-139.135
0
LINE
8
BLACK
6
CONTINUOUS
10
89.4979
20
-139.135
11
89.6407
21
-139.278
0
LINE
8
BLACK
6
CONTINUOUS
10
89.6407
20
-139.278
11
89.7836
21
-139.564
0
LINE
8
BLACK
6
CONTINUOUS
10
89.7836
20
-139.564
11
89.9264
21
-140.135
0
LINE
8
BLACK
6
CONTINUOUS
10
89.9264
20
-140.135
11
89.9264
21
-140.849
0
LINE
8
BLACK
6
CONTINUOUS
10
89.9264
20
-140.849
11
89.7836
21
-141.421
0
LINE
8
BLACK
6
CONTINUOUS
10
89.7836
20
-141.421
11
89.6407
21
-141.706
0
LINE
8
BLACK
6
CONTINUOUS
10
89.6407
20
-141.706
11
89.4979
21
-141.849
0
LINE
8
BLACK
6
CONTINUOUS
10
89.4979
20
-141.849
11
89.2121
21
-141.992
0
LINE
8
BLACK
6
CONTINUOUS
10
89.2121
20
-141.992
11
88.9264
21
-141.992
0
LINE
8
BLACK
6
CONTINUOUS
10
88.9264
20
-141.992
11
88.6407
21
-141.849
0
LINE
8
BLACK
6
CONTINUOUS
10
88.6407
20
-141.849
11
88.4979
21
-141.706
0
LINE
8
BLACK
6
CONTINUOUS
10
88.4979
20
-141.706
11
88.355
21
-141.421
0
LINE
8
BLACK
6
CONTINUOUS
10
88.355
20
-141.421
11
88.2121
21
-140.849
0
LINE
8
BLACK
6
CONTINUOUS
10
88.2121
20
-140.849
11
88.2121
21
-140.135
0
LINE
8
BLACK
6
CONTINUOUS
10
88.2121
20
-140.135
11
88.355
21
-139.564
0
LINE
8
BLACK
6
CONTINUOUS
10
88.355
20
-139.564
11
88.4979
21
-139.278
0
LINE
8
BLACK
6
CONTINUOUS
10
88.4979
20
-139.278
11
88.6407
21
-139.135
0
LINE
8
BLACK
6
CONTINUOUS
10
88.6407
20
-139.135
11
88.9264
21
-138.992
0
LINE
8
BLACK
6
CONTINUOUS
10
91.7836
20
-138.992
11
92.0693
21
-138.992
0
LINE
8
BLACK
6
CONTINUOUS
10
92.0693
20
-138.992
11
92.355
21
-139.135
0
LINE
8
BLACK
6
CONTINUOUS
10
92.355
20
-139.135
11
92.4979
21
-139.278
0
LINE
8
BLACK
6
CONTINUOUS
10
92.4979
20
-139.278
11
92.6407
21
-139.564
0
LINE
8
BLACK
6
CONTINUOUS
10
92.6407
20
-139.564
11
92.7836
21
-140.135
0
LINE
8
BLACK
6
CONTINUOUS
10
92.7836
20
-140.135
11
92.7836
21
-140.849
0
LINE
8
BLACK
6
CONTINUOUS
10
92.7836
20
-140.849
11
92.6407
21
-141.421
0
LINE
8
BLACK
6
CONTINUOUS
10
92.6407
20
-141.421
11
92.4979
21
-141.706
0
LINE
8
BLACK
6
CONTINUOUS
10
92.4979
20
-141.706
11
92.355
21
-141.849
0
LINE
8
BLACK
6
CONTINUOUS
10
92.355
20
-141.849
11
92.0693
21
-141.992
0
LINE
8
BLACK
6
CONTINUOUS
10
92.0693
20
-141.992
11
91.7836
21
-141.992
0
LINE
8
BLACK
6
CONTINUOUS
10
91.7836
20
-141.992
11
91.4979
21
-141.849
0
LINE
8
BLACK
6
CONTINUOUS
10
91.4979
20
-141.849
11
91.355
21
-141.706
0
LINE
8
BLACK
6
CONTINUOUS
10
91.355
20
-141.706
11
91.2121
21
-141.421
0
LINE
8
BLACK
6
CONTINUOUS
10
91.2121
20
-141.421
11
91.0693
21
-140.849
0
LINE
8
BLACK
6
CONTINUOUS
10
91.0693
20
-140.849
11
91.0693
21
-140.135
0
LINE
8
BLACK
6
CONTINUOUS
10
91.0693
20
-140.135
11
91.2121
21
-139.564
0
LINE
8
BLACK
6
CONTINUOUS
10
91.2121
20
-139.564
11
91.355
21
-139.278
0
LINE
8
BLACK
6
CONTINUOUS
10
91.355
20
-139.278
11
91.4979
21
-139.135
0
LINE
8
BLACK
6
CONTINUOUS
10
91.4979
20
-139.135
11
91.7836
21
-138.992
0
LINE
8
BLACK
6
CONTINUOUS
10
94.0693
20
-141.992
11
94.0693
21
-139.992
0
LINE
8
BLACK
6
CONTINUOUS
10
94.0693
20
-140.278
11
94.2121
21
-140.135
0
LINE
8
BLACK
6
CONTINUOUS
10
94.2121
20
-140.135
11
94.4979
21
-139.992
0
LINE
8
BLACK
6
CONTINUOUS
10
94.4979
20
-139.992
11
94.9264
21
-139.992
0
LINE
8
BLACK
6
CONTINUOUS
10
94.9264
20
-139.992
11
95.2121
21
-140.135
0
LINE
8
BLACK
6
CONTINUOUS
10
95.2121
20
-140.135
11
95.355
21
-140.421
0
LINE
8
BLACK
6
CONTINUOUS
10
95.355
20
-140.421
11
95.355
21
-141.992
0
LINE
8
BLACK
6
CONTINUOUS
10
95.355
20
-140.421
11
95.4979
21
-140.135
0
LINE
8
BLACK
6
CONTINUOUS
10
95.4979
20
-140.135
11
95.7836
21
-139.992
0
LINE
8
BLACK
6
CONTINUOUS
10
95.7836
20
-139.992
11
96.2121
21
-139.992
0
LINE
8
BLACK
6
CONTINUOUS
10
96.2121
20
-139.992
11
96.4979
21
-140.135
0
LINE
8
BLACK
6
CONTINUOUS
10
96.4979
20
-140.135
11
96.6407
21
-140.421
0
LINE
8
BLACK
6
CONTINUOUS
10
96.6407
20
-140.421
11
96.6407
21
-141.992
0
LINE
8
BLACK
6
CONTINUOUS
10
98.0693
20
-141.992
11
98.0693
21
-139.992
0
LINE
8
BLACK
6
CONTINUOUS
10
98.0693
20
-140.278
11
98.2121
21
-140.135
0
LINE
8
BLACK
6
CONTINUOUS
10
98.2121
20
-140.135
11
98.4979
21
-139.992
0
LINE
8
BLACK
6
CONTINUOUS
10
98.4979
20
-139.992
11
98.9264
21
-139.992
0
LINE
8
BLACK
6
CONTINUOUS
10
98.9264
20
-139.992
11
99.2121
21
-140.135
0
LINE
8
BLACK
6
CONTINUOUS
10
99.2121
20
-140.135
11
99.355
21
-140.421
0
LINE
8
BLACK
6
CONTINUOUS
10
99.355
20
-140.421
11
99.355
21
-141.992
0
LINE
8
BLACK
6
CONTINUOUS
10
99.355
20
-140.421
11
99.4979
21
-140.135
0
LINE
8
BLACK
6
CONTINUOUS
10
99.4979
20
-140.135
11
99.7836
21
-139.992
0
LINE
8
BLACK
6
CONTINUOUS
10
99.7836
20
-139.992
11
100.212
21
-139.992
0
LINE
8
BLACK
6
CONTINUOUS
10
100.212
20
-139.992
11
100.498
21
-140.135
0
LINE
8
BLACK
6
CONTINUOUS
10
100.498
20
-140.135
11
100.641
21
-140.421
0
LINE
8
BLACK
6
CONTINUOUS
10
100.641
20
-140.421
11
100.641
21
-141.992
0
LINE
8
BLACK
6
CONTINUOUS
10
106.498
20
-138.849
11
103.926
21
-142.706
0
LINE
8
BLACK
6
CONTINUOUS
10
110.355
20
-138.992
11
110.641
21
-138.992
0
LINE
8
BLACK
6
CONTINUOUS
10
110.641
20
-138.992
11
110.926
21
-139.135
0
LINE
8
BLACK
6
CONTINUOUS
10
110.926
20
-139.135
11
111.069
21
-139.278
0
LINE
8
BLACK
6
CONTINUOUS
10
111.069
20
-139.278
11
111.212
21
-139.564
0
LINE
8
BLACK
6
CONTINUOUS
10
111.212
20
-139.564
11
111.355
21
-140.135
0
LINE
8
BLACK
6
CONTINUOUS
10
111.355
20
-140.135
11
111.355
21
-140.849
0
LINE
8
BLACK
6
CONTINUOUS
10
111.355
20
-140.849
11
111.212
21
-141.421
0
LINE
8
BLACK
6
CONTINUOUS
10
111.212
20
-141.421
11
111.069
21
-141.706
0
LINE
8
BLACK
6
CONTINUOUS
10
111.069
20
-141.706
11
110.926
21
-141.849
0
LINE
8
BLACK
6
CONTINUOUS
10
110.926
20
-141.849
11
110.641
21
-141.992
0
LINE
8
BLACK
6
CONTINUOUS
10
110.641
20
-141.992
11
110.355
21
-141.992
0
LINE
8
BLACK
6
CONTINUOUS
10
110.355
20
-141.992
11
110.069
21
-141.849
0
LINE
8
BLACK
6
CONTINUOUS
10
110.069
20
-141.849
11
109.926
21
-141.706
0
LINE
8
BLACK
6
CONTINUOUS
10
109.926
20
-141.706
11
109.784
21
-141.421
0
LINE
8
BLACK
6
CONTINUOUS
10
109.784
20
-141.421
11
109.641
21
-140.849
0
LINE
8
BLACK
6
CONTINUOUS
10
109.641
20
-140.849
11
109.641
21
-140.135
0
LINE
8
BLACK
6
CONTINUOUS
10
109.641
20
-140.135
11
109.784
21
-139.564
0
LINE
8
BLACK
6
CONTINUOUS
10
109.784
20
-139.564
11
109.926
21
-139.278
0
LINE
8
BLACK
6
CONTINUOUS
10
109.926
20
-139.278
11
110.069
21
-139.135
0
LINE
8
BLACK
6
CONTINUOUS
10
110.069
20
-139.135
11
110.355
21
-138.992
0
LINE
8
BLACK
6
CONTINUOUS
10
112.641
20
-141.706
11
112.784
21
-141.849
0
LINE
8
BLACK
6
CONTINUOUS
10
112.784
20
-141.849
11
112.641
21
-141.992
0
LINE
8
BLACK
6
CONTINUOUS
10
112.641
20
-141.992
11
112.498
21
-141.849
0
LINE
8
BLACK
6
CONTINUOUS
10
112.498
20
-141.849
11
112.641
21
-141.706
0
LINE
8
BLACK
6
CONTINUOUS
10
112.641
20
-141.706
11
112.641
21
-141.992
0
LINE
8
BLACK
6
CONTINUOUS
10
114.641
20
-138.992
11
114.926
21
-138.992
0
LINE
8
BLACK
6
CONTINUOUS
10
114.926
20
-138.992
11
115.212
21
-139.135
0
LINE
8
BLACK
6
CONTINUOUS
10
115.212
20
-139.135
11
115.355
21
-139.278
0
LINE
8
BLACK
6
CONTINUOUS
10
115.355
20
-139.278
11
115.498
21
-139.564
0
LINE
8
BLACK
6
CONTINUOUS
10
115.498
20
-139.564
11
115.641
21
-140.135
0
LINE
8
BLACK
6
CONTINUOUS
10
115.641
20
-140.135
11
115.641
21
-140.849
0
LINE
8
BLACK
6
CONTINUOUS
10
115.641
20
-140.849
11
115.498
21
-141.421
0
LINE
8
BLACK
6
CONTINUOUS
10
115.498
20
-141.421
11
115.355
21
-141.706
0
LINE
8
BLACK
6
CONTINUOUS
10
115.355
20
-141.706
11
115.212
21
-141.849
0
LINE
8
BLACK
6
CONTINUOUS
10
115.212
20
-141.849
11
114.926
21
-141.992
0
LINE
8
BLACK
6
CONTINUOUS
10
114.926
20
-141.992
11
114.641
21
-141.992
0
LINE
8
BLACK
6
CONTINUOUS
10
114.641
20
-141.992
11
114.355
21
-141.849
0
LINE
8
BLACK
6
CONTINUOUS
10
114.355
20
-141.849
11
114.212
21
-141.706
0
LINE
8
BLACK
6
CONTINUOUS
10
114.212
20
-141.706
11
114.069
21
-141.421
0
LINE
8
BLACK
6
CONTINUOUS
10
114.069
20
-141.421
11
113.926
21
-140.849
0
LINE
8
BLACK
6
CONTINUOUS
10
113.926
20
-140.849
11
113.926
21
-140.135
0
LINE
8
BLACK
6
CONTINUOUS
10
113.926
20
-140.135
11
114.069
21
-139.564
0
LINE
8
BLACK
6
CONTINUOUS
10
114.069
20
-139.564
11
114.212
21
-139.278
0
LINE
8
BLACK
6
CONTINUOUS
10
114.212
20
-139.278
11
114.355
21
-139.135
0
LINE
8
BLACK
6
CONTINUOUS
10
114.355
20
-139.135
11
114.641
21
-138.992
0
LINE
8
BLACK
6
CONTINUOUS
10
116.641
20
-138.992
11
118.498
21
-138.992
0
LINE
8
BLACK
6
CONTINUOUS
10
118.498
20
-138.992
11
117.498
21
-140.135
0
LINE
8
BLACK
6
CONTINUOUS
10
117.498
20
-140.135
11
117.926
21
-140.135
0
LINE
8
BLACK
6
CONTINUOUS
10
117.926
20
-140.135
11
118.212
21
-140.278
0
LINE
8
BLACK
6
CONTINUOUS
10
118.212
20
-140.278
11
118.355
21
-140.421
0
LINE
8
BLACK
6
CONTINUOUS
10
118.355
20
-140.421
11
118.498
21
-140.706
0
LINE
8
BLACK
6
CONTINUOUS
10
118.498
20
-140.706
11
118.498
21
-141.421
0
LINE
8
BLACK
6
CONTINUOUS
10
118.498
20
-141.421
11
118.355
21
-141.706
0
LINE
8
BLACK
6
CONTINUOUS
10
118.355
20
-141.706
11
118.212
21
-141.849
0
LINE
8
BLACK
6
CONTINUOUS
10
118.212
20
-141.849
11
117.926
21
-141.992
0
LINE
8
BLACK
6
CONTINUOUS
10
117.926
20
-141.992
11
117.069
21
-141.992
0
LINE
8
BLACK
6
CONTINUOUS
10
117.069
20
-141.992
11
116.784
21
-141.849
0
LINE
8
BLACK
6
CONTINUOUS
10
116.784
20
-141.849
11
116.641
21
-141.706
0
LINE
8
BLACK
6
CONTINUOUS
10
119.926
20
-141.992
11
120.498
21
-141.992
0
LINE
8
BLACK
6
CONTINUOUS
10
120.498
20
-141.992
11
120.784
21
-141.849
0
LINE
8
BLACK
6
CONTINUOUS
10
120.784
20
-141.849
11
120.926
21
-141.706
0
LINE
8
BLACK
6
CONTINUOUS
10
120.926
20
-141.706
11
121.212
21
-141.278
0
LINE
8
BLACK
6
CONTINUOUS
10
121.212
20
-141.278
11
121.355
21
-140.706
0
LINE
8
BLACK
6
CONTINUOUS
10
121.355
20
-140.706
11
121.355
21
-139.564
0
LINE
8
BLACK
6
CONTINUOUS
10
121.355
20
-139.564
11
121.212
21
-139.278
0
LINE
8
BLACK
6
CONTINUOUS
10
121.212
20
-139.278
11
121.069
21
-139.135
0
LINE
8
BLACK
6
CONTINUOUS
10
121.069
20
-139.135
11
120.784
21
-138.992
0
LINE
8
BLACK
6
CONTINUOUS
10
120.784
20
-138.992
11
120.212
21
-138.992
0
LINE
8
BLACK
6
CONTINUOUS
10
120.212
20
-138.992
11
119.926
21
-139.135
0
LINE
8
BLACK
6
CONTINUOUS
10
119.926
20
-139.135
11
119.784
21
-139.278
0
LINE
8
BLACK
6
CONTINUOUS
10
119.784
20
-139.278
11
119.641
21
-139.564
0
LINE
8
BLACK
6
CONTINUOUS
10
119.641
20
-139.564
11
119.641
21
-140.278
0
LINE
8
BLACK
6
CONTINUOUS
10
119.641
20
-140.278
11
119.784
21
-140.564
0
LINE
8
BLACK
6
CONTINUOUS
10
119.784
20
-140.564
11
119.926
21
-140.706
0
LINE
8
BLACK
6
CONTINUOUS
10
119.926
20
-140.706
11
120.212
21
-140.849
0
LINE
8
BLACK
6
CONTINUOUS
10
120.212
20
-140.849
11
120.784
21
-140.849
0
LINE
8
BLACK
6
CONTINUOUS
10
120.784
20
-140.849
11
121.069
21
-140.706
0
LINE
8
BLACK
6
CONTINUOUS
10
121.069
20
-140.706
11
121.212
21
-140.564
0
LINE
8
BLACK
6
CONTINUOUS
10
121.212
20
-140.564
11
121.355
21
-140.278
0
LINE
8
BLACK
6
CONTINUOUS
10
122.498
20
-138.992
11
122.498
21
-139.564
0
LINE
8
BLACK
6
CONTINUOUS
10
123.641
20
-138.992
11
123.641
21
-139.564
0
LINE
8
BLACK
6
CONTINUOUS
10
128.069
20
-143.135
11
127.926
21
-142.992
0
LINE
8
BLACK
6
CONTINUOUS
10
127.926
20
-142.992
11
127.641
21
-142.564
0
LINE
8
BLACK
6
CONTINUOUS
10
127.641
20
-142.564
11
127.498
21
-142.278
0
LINE
8
BLACK
6
CONTINUOUS
10
127.498
20
-142.278
11
127.355
21
-141.849
0
LINE
8
BLACK
6
CONTINUOUS
10
127.355
20
-141.849
11
127.212
21
-141.135
0
LINE
8
BLACK
6
CONTINUOUS
10
127.212
20
-141.135
11
127.212
21
-140.564
0
LINE
8
BLACK
6
CONTINUOUS
10
127.212
20
-140.564
11
127.355
21
-139.849
0
LINE
8
BLACK
6
CONTINUOUS
10
127.355
20
-139.849
11
127.498
21
-139.421
0
LINE
8
BLACK
6
CONTINUOUS
10
127.498
20
-139.421
11
127.641
21
-139.135
0
LINE
8
BLACK
6
CONTINUOUS
10
127.641
20
-139.135
11
127.926
21
-138.706
0
LINE
8
BLACK
6
CONTINUOUS
10
127.926
20
-138.706
11
128.069
21
-138.564
0
LINE
8
BLACK
6
CONTINUOUS
10
130.498
20
-138.992
11
129.926
21
-138.992
0
LINE
8
BLACK
6
CONTINUOUS
10
129.926
20
-138.992
11
129.641
21
-139.135
0
LINE
8
BLACK
6
CONTINUOUS
10
129.641
20
-139.135
11
129.498
21
-139.278
0
LINE
8
BLACK
6
CONTINUOUS
10
129.498
20
-139.278
11
129.212
21
-139.706
0
LINE
8
BLACK
6
CONTINUOUS
10
129.212
20
-139.706
11
129.069
21
-140.278
0
LINE
8
BLACK
6
CONTINUOUS
10
129.069
20
-140.278
11
129.069
21
-141.421
0
LINE
8
BLACK
6
CONTINUOUS
10
129.069
20
-141.421
11
129.212
21
-141.706
0
LINE
8
BLACK
6
CONTINUOUS
10
129.212
20
-141.706
11
129.355
21
-141.849
0
LINE
8
BLACK
6
CONTINUOUS
10
129.355
20
-141.849
11
129.641
21
-141.992
0
LINE
8
BLACK
6
CONTINUOUS
10
129.641
20
-141.992
11
130.212
21
-141.992
0
LINE
8
BLACK
6
CONTINUOUS
10
130.212
20
-141.992
11
130.498
21
-141.849
0
LINE
8
BLACK
6
CONTINUOUS
10
130.498
20
-141.849
11
130.641
21
-141.706
0
LINE
8
BLACK
6
CONTINUOUS
10
130.641
20
-141.706
11
130.784
21
-141.421
0
LINE
8
BLACK
6
CONTINUOUS
10
130.784
20
-141.421
11
130.784
21
-140.706
0
LINE
8
BLACK
6
CONTINUOUS
10
130.784
20
-140.706
11
130.641
21
-140.421
0
LINE
8
BLACK
6
CONTINUOUS
10
130.641
20
-140.421
11
130.498
21
-140.278
0
LINE
8
BLACK
6
CONTINUOUS
10
130.498
20
-140.278
11
130.212
21
-140.135
0
LINE
8
BLACK
6
CONTINUOUS
10
130.212
20
-140.135
11
129.641
21
-140.135
0
LINE
8
BLACK
6
CONTINUOUS
10
129.641
20
-140.135
11
129.355
21
-140.278
0
LINE
8
BLACK
6
CONTINUOUS
10
129.355
20
-140.278
11
129.212
21
-140.421
0
LINE
8
BLACK
6
CONTINUOUS
10
129.212
20
-140.421
11
129.069
21
-140.706
0
LINE
8
BLACK
6
CONTINUOUS
10
131.926
20
-139.278
11
132.069
21
-139.135
0
LINE
8
BLACK
6
CONTINUOUS
10
132.069
20
-139.135
11
132.355
21
-138.992
0
LINE
8
BLACK
6
CONTINUOUS
10
132.355
20
-138.992
11
133.069
21
-138.992
0
LINE
8
BLACK
6
CONTINUOUS
10
133.069
20
-138.992
11
133.355
21
-139.135
0
LINE
8
BLACK
6
CONTINUOUS
10
133.355
20
-139.135
11
133.498
21
-139.278
0
LINE
8
BLACK
6
CONTINUOUS
10
133.498
20
-139.278
11
133.641
21
-139.564
0
LINE
8
BLACK
6
CONTINUOUS
10
133.641
20
-139.564
11
133.641
21
-139.849
0
LINE
8
BLACK
6
CONTINUOUS
10
133.641
20
-139.849
11
133.498
21
-140.278
0
LINE
8
BLACK
6
CONTINUOUS
10
133.498
20
-140.278
11
131.784
21
-141.992
0
LINE
8
BLACK
6
CONTINUOUS
10
131.784
20
-141.992
11
133.641
21
-141.992
0
LINE
8
BLACK
6
CONTINUOUS
10
137.212
20
-141.992
11
137.212
21
-138.992
0
LINE
8
BLACK
6
CONTINUOUS
10
138.498
20
-141.992
11
138.498
21
-140.421
0
LINE
8
BLACK
6
CONTINUOUS
10
138.498
20
-140.421
11
138.355
21
-140.135
0
LINE
8
BLACK
6
CONTINUOUS
10
138.355
20
-140.135
11
138.069
21
-139.992
0
LINE
8
BLACK
6
CONTINUOUS
10
138.069
20
-139.992
11
137.641
21
-139.992
0
LINE
8
BLACK
6
CONTINUOUS
10
137.641
20
-139.992
11
137.355
21
-140.135
0
LINE
8
BLACK
6
CONTINUOUS
10
137.355
20
-140.135
11
137.212
21
-140.278
0
LINE
8
BLACK
6
CONTINUOUS
10
140.355
20
-141.992
11
140.069
21
-141.849
0
LINE
8
BLACK
6
CONTINUOUS
10
140.069
20
-141.849
11
139.926
21
-141.706
0
LINE
8
BLACK
6
CONTINUOUS
10
139.926
20
-141.706
11
139.784
21
-141.421
0
LINE
8
BLACK
6
CONTINUOUS
10
139.784
20
-141.421
11
139.784
21
-140.564
0
LINE
8
BLACK
6
CONTINUOUS
10
139.784
20
-140.564
11
139.926
21
-140.278
0
LINE
8
BLACK
6
CONTINUOUS
10
139.926
20
-140.278
11
140.069
21
-140.135
0
LINE
8
BLACK
6
CONTINUOUS
10
140.069
20
-140.135
11
140.355
21
-139.992
0
LINE
8
BLACK
6
CONTINUOUS
10
140.355
20
-139.992
11
140.784
21
-139.992
0
LINE
8
BLACK
6
CONTINUOUS
10
140.784
20
-139.992
11
141.069
21
-140.135
0
LINE
8
BLACK
6
CONTINUOUS
10
141.069
20
-140.135
11
141.212
21
-140.278
0
LINE
8
BLACK
6
CONTINUOUS
10
141.212
20
-140.278
11
141.355
21
-140.564
0
LINE
8
BLACK
6
CONTINUOUS
10
141.355
20
-140.564
11
141.355
21
-141.421
0
LINE
8
BLACK
6
CONTINUOUS
10
141.355
20
-141.421
11
141.212
21
-141.706
0
LINE
8
BLACK
6
CONTINUOUS
10
141.212
20
-141.706
11
141.069
21
-141.849
0
LINE
8
BLACK
6
CONTINUOUS
10
141.069
20
-141.849
11
140.784
21
-141.992
0
LINE
8
BLACK
6
CONTINUOUS
10
140.784
20
-141.992
11
140.355
21
-141.992
0
LINE
8
BLACK
6
CONTINUOUS
10
143.069
20
-141.992
11
142.784
21
-141.849
0
LINE
8
BLACK
6
CONTINUOUS
10
142.784
20
-141.849
11
142.641
21
-141.564
0
LINE
8
BLACK
6
CONTINUOUS
10
142.641
20
-141.564
11
142.641
21
-138.992
0
LINE
8
BLACK
6
CONTINUOUS
10
145.355
20
-141.849
11
145.069
21
-141.992
0
LINE
8
BLACK
6
CONTINUOUS
10
145.069
20
-141.992
11
144.498
21
-141.992
0
LINE
8
BLACK
6
CONTINUOUS
10
144.498
20
-141.992
11
144.212
21
-141.849
0
LINE
8
BLACK
6
CONTINUOUS
10
144.212
20
-141.849
11
144.069
21
-141.564
0
LINE
8
BLACK
6
CONTINUOUS
10
144.069
20
-141.564
11
144.069
21
-140.421
0
LINE
8
BLACK
6
CONTINUOUS
10
144.069
20
-140.421
11
144.212
21
-140.135
0
LINE
8
BLACK
6
CONTINUOUS
10
144.212
20
-140.135
11
144.498
21
-139.992
0
LINE
8
BLACK
6
CONTINUOUS
10
144.498
20
-139.992
11
145.069
21
-139.992
0
LINE
8
BLACK
6
CONTINUOUS
10
145.069
20
-139.992
11
145.355
21
-140.135
0
LINE
8
BLACK
6
CONTINUOUS
10
145.355
20
-140.135
11
145.498
21
-140.421
0
LINE
8
BLACK
6
CONTINUOUS
10
145.498
20
-140.421
11
145.498
21
-140.706
0
LINE
8
BLACK
6
CONTINUOUS
10
145.498
20
-140.706
11
144.069
21
-140.992
0
LINE
8
BLACK
6
CONTINUOUS
10
146.641
20
-141.849
11
146.926
21
-141.992
0
LINE
8
BLACK
6
CONTINUOUS
10
146.926
20
-141.992
11
147.498
21
-141.992
0
LINE
8
BLACK
6
CONTINUOUS
10
147.498
20
-141.992
11
147.784
21
-141.849
0
LINE
8
BLACK
6
CONTINUOUS
10
147.784
20
-141.849
11
147.926
21
-141.564
0
LINE
8
BLACK
6
CONTINUOUS
10
147.926
20
-141.564
11
147.926
21
-141.421
0
LINE
8
BLACK
6
CONTINUOUS
10
147.926
20
-141.421
11
147.784
21
-141.135
0
LINE
8
BLACK
6
CONTINUOUS
10
147.784
20
-141.135
11
147.498
21
-140.992
0
LINE
8
BLACK
6
CONTINUOUS
10
147.498
20
-140.992
11
147.069
21
-140.992
0
LINE
8
BLACK
6
CONTINUOUS
10
147.069
20
-140.992
11
146.784
21
-140.849
0
LINE
8
BLACK
6
CONTINUOUS
10
146.784
20
-140.849
11
146.641
21
-140.564
0
LINE
8
BLACK
6
CONTINUOUS
10
146.641
20
-140.564
11
146.641
21
-140.421
0
LINE
8
BLACK
6
CONTINUOUS
10
146.641
20
-140.421
11
146.784
21
-140.135
0
LINE
8
BLACK
6
CONTINUOUS
10
146.784
20
-140.135
11
147.069
21
-139.992
0
LINE
8
BLACK
6
CONTINUOUS
10
147.069
20
-139.992
11
147.498
21
-139.992
0
LINE
8
BLACK
6
CONTINUOUS
10
147.498
20
-139.992
11
147.784
21
-140.135
0
LINE
8
BLACK
6
CONTINUOUS
10
148.926
20
-143.135
11
149.069
21
-142.992
0
LINE
8
BLACK
6
CONTINUOUS
10
149.069
20
-142.992
11
149.355
21
-142.564
0
LINE
8
BLACK
6
CONTINUOUS
10
149.355
20
-142.564
11
149.498
21
-142.278
0
LINE
8
BLACK
6
CONTINUOUS
10
149.498
20
-142.278
11
149.641
21
-141.849
0
LINE
8
BLACK
6
CONTINUOUS
10
149.641
20
-141.849
11
149.784
21
-141.135
0
LINE
8
BLACK
6
CONTINUOUS
10
149.784
20
-141.135
11
149.784
21
-140.564
0
LINE
8
BLACK
6
CONTINUOUS
10
149.784
20
-140.564
11
149.641
21
-139.849
0
LINE
8
BLACK
6
CONTINUOUS
10
149.641
20
-139.849
11
149.498
21
-139.421
0
LINE
8
BLACK
6
CONTINUOUS
10
149.498
20
-139.421
11
149.355
21
-139.135
0
LINE
8
BLACK
6
CONTINUOUS
10
149.355
20
-139.135
11
149.069
21
-138.706
0
LINE
8
BLACK
6
CONTINUOUS
10
149.069
20
-138.706
11
148.926
21
-138.564
0
LINE
8
BLACK
6
CONTINUOUS
10
79.055
20
-142.445
11
79.055
21
-146.745
0
LINE
8
BLACK
6
CONTINUOUS
10
76.905
20
-144.595
11
81.205
21
-144.595
0
LINE
8
BLACK
6
CONTINUOUS
10
85.355
20
-143.952
11
85.355
21
-145.952
0
LINE
8
BLACK
6
CONTINUOUS
10
84.6407
20
-142.809
11
83.9264
21
-144.952
0
LINE
8
BLACK
6
CONTINUOUS
10
83.9264
20
-144.952
11
85.7836
21
-144.952
0
LINE
8
BLACK
6
CONTINUOUS
10
86.9264
20
-145.666
11
87.0693
21
-145.809
0
LINE
8
BLACK
6
CONTINUOUS
10
87.0693
20
-145.809
11
86.9264
21
-145.952
0
LINE
8
BLACK
6
CONTINUOUS
10
86.9264
20
-145.952
11
86.7836
21
-145.809
0
LINE
8
BLACK
6
CONTINUOUS
10
86.7836
20
-145.809
11
86.9264
21
-145.666
0
LINE
8
BLACK
6
CONTINUOUS
10
86.9264
20
-145.666
11
86.9264
21
-145.952
0
LINE
8
BLACK
6
CONTINUOUS
10
88.0693
20
-142.952
11
89.9264
21
-142.952
0
LINE
8
BLACK
6
CONTINUOUS
10
89.9264
20
-142.952
11
88.9264
21
-144.095
0
LINE
8
BLACK
6
CONTINUOUS
10
88.9264
20
-144.095
11
89.355
21
-144.095
0
LINE
8
BLACK
6
CONTINUOUS
10
89.355
20
-144.095
11
89.6407
21
-144.238
0
LINE
8
BLACK
6
CONTINUOUS
10
89.6407
20
-144.238
11
89.7836
21
-144.381
0
LINE
8
BLACK
6
CONTINUOUS
10
89.7836
20
-144.381
11
89.9264
21
-144.666
0
LINE
8
BLACK
6
CONTINUOUS
10
89.9264
20
-144.666
11
89.9264
21
-145.381
0
LINE
8
BLACK
6
CONTINUOUS
10
89.9264
20
-145.381
11
89.7836
21
-145.666
0
LINE
8
BLACK
6
CONTINUOUS
10
89.7836
20
-145.666
11
89.6407
21
-145.809
0
LINE
8
BLACK
6
CONTINUOUS
10
89.6407
20
-145.809
11
89.355
21
-145.952
0
LINE
8
BLACK
6
CONTINUOUS
10
89.355
20
-145.952
11
88.4979
21
-145.952
0
LINE
8
BLACK
6
CONTINUOUS
10
88.4979
20
-145.952
11
88.2121
21
-145.809
0
LINE
8
BLACK
6
CONTINUOUS
10
88.2121
20
-145.809
11
88.0693
21
-145.666
0
LINE
8
BLACK
6
CONTINUOUS
10
91.7836
20
-142.952
11
92.0693
21
-142.952
0
LINE
8
BLACK
6
CONTINUOUS
10
92.0693
20
-142.952
11
92.355
21
-143.095
0
LINE
8
BLACK
6
CONTINUOUS
10
92.355
20
-143.095
11
92.4979
21
-143.238
0
LINE
8
BLACK
6
CONTINUOUS
10
92.4979
20
-143.238
11
92.6407
21
-143.524
0
LINE
8
BLACK
6
CONTINUOUS
10
92.6407
20
-143.524
11
92.7836
21
-144.095
0
LINE
8
BLACK
6
CONTINUOUS
10
92.7836
20
-144.095
11
92.7836
21
-144.809
0
LINE
8
BLACK
6
CONTINUOUS
10
92.7836
20
-144.809
11
92.6407
21
-145.381
0
LINE
8
BLACK
6
CONTINUOUS
10
92.6407
20
-145.381
11
92.4979
21
-145.666
0
LINE
8
BLACK
6
CONTINUOUS
10
92.4979
20
-145.666
11
92.355
21
-145.809
0
LINE
8
BLACK
6
CONTINUOUS
10
92.355
20
-145.809
11
92.0693
21
-145.952
0
LINE
8
BLACK
6
CONTINUOUS
10
92.0693
20
-145.952
11
91.7836
21
-145.952
0
LINE
8
BLACK
6
CONTINUOUS
10
91.7836
20
-145.952
11
91.4979
21
-145.809
0
LINE
8
BLACK
6
CONTINUOUS
10
91.4979
20
-145.809
11
91.355
21
-145.666
0
LINE
8
BLACK
6
CONTINUOUS
10
91.355
20
-145.666
11
91.2121
21
-145.381
0
LINE
8
BLACK
6
CONTINUOUS
10
91.2121
20
-145.381
11
91.0693
21
-144.809
0
LINE
8
BLACK
6
CONTINUOUS
10
91.0693
20
-144.809
11
91.0693
21
-144.095
0
LINE
8
BLACK
6
CONTINUOUS
10
91.0693
20
-144.095
11
91.2121
21
-143.524
0
LINE
8
BLACK
6
CONTINUOUS
10
91.2121
20
-143.524
11
91.355
21
-143.238
0
LINE
8
BLACK
6
CONTINUOUS
10
91.355
20
-143.238
11
91.4979
21
-143.095
0
LINE
8
BLACK
6
CONTINUOUS
10
91.4979
20
-143.095
11
91.7836
21
-142.952
0
LINE
8
BLACK
6
CONTINUOUS
10
94.0693
20
-145.952
11
94.0693
21
-143.952
0
LINE
8
BLACK
6
CONTINUOUS
10
94.0693
20
-144.238
11
94.2121
21
-144.095
0
LINE
8
BLACK
6
CONTINUOUS
10
94.2121
20
-144.095
11
94.4979
21
-143.952
0
LINE
8
BLACK
6
CONTINUOUS
10
94.4979
20
-143.952
11
94.9264
21
-143.952
0
LINE
8
BLACK
6
CONTINUOUS
10
94.9264
20
-143.952
11
95.2121
21
-144.095
0
LINE
8
BLACK
6
CONTINUOUS
10
95.2121
20
-144.095
11
95.355
21
-144.381
0
LINE
8
BLACK
6
CONTINUOUS
10
95.355
20
-144.381
11
95.355
21
-145.952
0
LINE
8
BLACK
6
CONTINUOUS
10
95.355
20
-144.381
11
95.4979
21
-144.095
0
LINE
8
BLACK
6
CONTINUOUS
10
95.4979
20
-144.095
11
95.7836
21
-143.952
0
LINE
8
BLACK
6
CONTINUOUS
10
95.7836
20
-143.952
11
96.2121
21
-143.952
0
LINE
8
BLACK
6
CONTINUOUS
10
96.2121
20
-143.952
11
96.4979
21
-144.095
0
LINE
8
BLACK
6
CONTINUOUS
10
96.4979
20
-144.095
11
96.6407
21
-144.381
0
LINE
8
BLACK
6
CONTINUOUS
10
96.6407
20
-144.381
11
96.6407
21
-145.952
0
LINE
8
BLACK
6
CONTINUOUS
10
98.0693
20
-145.952
11
98.0693
21
-143.952
0
LINE
8
BLACK
6
CONTINUOUS
10
98.0693
20
-144.238
11
98.2121
21
-144.095
0
LINE
8
BLACK
6
CONTINUOUS
10
98.2121
20
-144.095
11
98.4979
21
-143.952
0
LINE
8
BLACK
6
CONTINUOUS
10
98.4979
20
-143.952
11
98.9264
21
-143.952
0
LINE
8
BLACK
6
CONTINUOUS
10
98.9264
20
-143.952
11
99.2121
21
-144.095
0
LINE
8
BLACK
6
CONTINUOUS
10
99.2121
20
-144.095
11
99.355
21
-144.381
0
LINE
8
BLACK
6
CONTINUOUS
10
99.355
20
-144.381
11
99.355
21
-145.952
0
LINE
8
BLACK
6
CONTINUOUS
10
99.355
20
-144.381
11
99.4979
21
-144.095
0
LINE
8
BLACK
6
CONTINUOUS
10
99.4979
20
-144.095
11
99.7836
21
-143.952
0
LINE
8
BLACK
6
CONTINUOUS
10
99.7836
20
-143.952
11
100.212
21
-143.952
0
LINE
8
BLACK
6
CONTINUOUS
10
100.212
20
-143.952
11
100.498
21
-144.095
0
LINE
8
BLACK
6
CONTINUOUS
10
100.498
20
-144.095
11
100.641
21
-144.381
0
LINE
8
BLACK
6
CONTINUOUS
10
100.641
20
-144.381
11
100.641
21
-145.952
0
LINE
8
BLACK
6
CONTINUOUS
10
106.498
20
-142.809
11
103.926
21
-146.666
0
LINE
8
BLACK
6
CONTINUOUS
10
110.355
20
-142.952
11
110.641
21
-142.952
0
LINE
8
BLACK
6
CONTINUOUS
10
110.641
20
-142.952
11
110.926
21
-143.095
0
LINE
8
BLACK
6
CONTINUOUS
10
110.926
20
-143.095
11
111.069
21
-143.238
0
LINE
8
BLACK
6
CONTINUOUS
10
111.069
20
-143.238
11
111.212
21
-143.524
0
LINE
8
BLACK
6
CONTINUOUS
10
111.212
20
-143.524
11
111.355
21
-144.095
0
LINE
8
BLACK
6
CONTINUOUS
10
111.355
20
-144.095
11
111.355
21
-144.809
0
LINE
8
BLACK
6
CONTINUOUS
10
111.355
20
-144.809
11
111.212
21
-145.381
0
LINE
8
BLACK
6
CONTINUOUS
10
111.212
20
-145.381
11
111.069
21
-145.666
0
LINE
8
BLACK
6
CONTINUOUS
10
111.069
20
-145.666
11
110.926
21
-145.809
0
LINE
8
BLACK
6
CONTINUOUS
10
110.926
20
-145.809
11
110.641
21
-145.952
0
LINE
8
BLACK
6
CONTINUOUS
10
110.641
20
-145.952
11
110.355
21
-145.952
0
LINE
8
BLACK
6
CONTINUOUS
10
110.355
20
-145.952
11
110.069
21
-145.809
0
LINE
8
BLACK
6
CONTINUOUS
10
110.069
20
-145.809
11
109.926
21
-145.666
0
LINE
8
BLACK
6
CONTINUOUS
10
109.926
20
-145.666
11
109.784
21
-145.381
0
LINE
8
BLACK
6
CONTINUOUS
10
109.784
20
-145.381
11
109.641
21
-144.809
0
LINE
8
BLACK
6
CONTINUOUS
10
109.641
20
-144.809
11
109.641
21
-144.095
0
LINE
8
BLACK
6
CONTINUOUS
10
109.641
20
-144.095
11
109.784
21
-143.524
0
LINE
8
BLACK
6
CONTINUOUS
10
109.784
20
-143.524
11
109.926
21
-143.238
0
LINE
8
BLACK
6
CONTINUOUS
10
109.926
20
-143.238
11
110.069
21
-143.095
0
LINE
8
BLACK
6
CONTINUOUS
10
110.069
20
-143.095
11
110.355
21
-142.952
0
LINE
8
BLACK
6
CONTINUOUS
10
112.641
20
-145.666
11
112.784
21
-145.809
0
LINE
8
BLACK
6
CONTINUOUS
10
112.784
20
-145.809
11
112.641
21
-145.952
0
LINE
8
BLACK
6
CONTINUOUS
10
112.641
20
-145.952
11
112.498
21
-145.809
0
LINE
8
BLACK
6
CONTINUOUS
10
112.498
20
-145.809
11
112.641
21
-145.666
0
LINE
8
BLACK
6
CONTINUOUS
10
112.641
20
-145.666
11
112.641
21
-145.952
0
LINE
8
BLACK
6
CONTINUOUS
10
115.641
20
-145.952
11
113.926
21
-145.952
0
LINE
8
BLACK
6
CONTINUOUS
10
114.784
20
-145.952
11
114.784
21
-142.952
0
LINE
8
BLACK
6
CONTINUOUS
10
114.784
20
-142.952
11
114.498
21
-143.381
0
LINE
8
BLACK
6
CONTINUOUS
10
114.498
20
-143.381
11
114.212
21
-143.666
0
LINE
8
BLACK
6
CONTINUOUS
10
114.212
20
-143.666
11
113.926
21
-143.809
0
LINE
8
BLACK
6
CONTINUOUS
10
118.212
20
-142.952
11
117.641
21
-142.952
0
LINE
8
BLACK
6
CONTINUOUS
10
117.641
20
-142.952
11
117.355
21
-143.095
0
LINE
8
BLACK
6
CONTINUOUS
10
117.355
20
-143.095
11
117.212
21
-143.238
0
LINE
8
BLACK
6
CONTINUOUS
10
117.212
20
-143.238
11
116.926
21
-143.666
0
LINE
8
BLACK
6
CONTINUOUS
10
116.926
20
-143.666
11
116.784
21
-144.238
0
LINE
8
BLACK
6
CONTINUOUS
10
116.784
20
-144.238
11
116.784
21
-145.381
0
LINE
8
BLACK
6
CONTINUOUS
10
116.784
20
-145.381
11
116.926
21
-145.666
0
LINE
8
BLACK
6
CONTINUOUS
10
116.926
20
-145.666
11
117.069
21
-145.809
0
LINE
8
BLACK
6
CONTINUOUS
10
117.069
20
-145.809
11
117.355
21
-145.952
0
LINE
8
BLACK
6
CONTINUOUS
10
117.355
20
-145.952
11
117.926
21
-145.952
0
LINE
8
BLACK
6
CONTINUOUS
10
117.926
20
-145.952
11
118.212
21
-145.809
0
LINE
8
BLACK
6
CONTINUOUS
10
118.212
20
-145.809
11
118.355
21
-145.666
0
LINE
8
BLACK
6
CONTINUOUS
10
118.355
20
-145.666
11
118.498
21
-145.381
0
LINE
8
BLACK
6
CONTINUOUS
10
118.498
20
-145.381
11
118.498
21
-144.666
0
LINE
8
BLACK
6
CONTINUOUS
10
118.498
20
-144.666
11
118.355
21
-144.381
0
LINE
8
BLACK
6
CONTINUOUS
10
118.355
20
-144.381
11
118.212
21
-144.238
0
LINE
8
BLACK
6
CONTINUOUS
10
118.212
20
-144.238
11
117.926
21
-144.095
0
LINE
8
BLACK
6
CONTINUOUS
10
117.926
20
-144.095
11
117.355
21
-144.095
0
LINE
8
BLACK
6
CONTINUOUS
10
117.355
20
-144.095
11
117.069
21
-144.238
0
LINE
8
BLACK
6
CONTINUOUS
10
117.069
20
-144.238
11
116.926
21
-144.381
0
LINE
8
BLACK
6
CONTINUOUS
10
116.926
20
-144.381
11
116.784
21
-144.666
0
LINE
8
BLACK
6
CONTINUOUS
10
119.926
20
-145.952
11
120.498
21
-145.952
0
LINE
8
BLACK
6
CONTINUOUS
10
120.498
20
-145.952
11
120.784
21
-145.809
0
LINE
8
BLACK
6
CONTINUOUS
10
120.784
20
-145.809
11
120.926
21
-145.666
0
LINE
8
BLACK
6
CONTINUOUS
10
120.926
20
-145.666
11
121.212
21
-145.238
0
LINE
8
BLACK
6
CONTINUOUS
10
121.212
20
-145.238
11
121.355
21
-144.666
0
LINE
8
BLACK
6
CONTINUOUS
10
121.355
20
-144.666
11
121.355
21
-143.524
0
LINE
8
BLACK
6
CONTINUOUS
10
121.355
20
-143.524
11
121.212
21
-143.238
0
LINE
8
BLACK
6
CONTINUOUS
10
121.212
20
-143.238
11
121.069
21
-143.095
0
LINE
8
BLACK
6
CONTINUOUS
10
121.069
20
-143.095
11
120.784
21
-142.952
0
LINE
8
BLACK
6
CONTINUOUS
10
120.784
20
-142.952
11
120.212
21
-142.952
0
LINE
8
BLACK
6
CONTINUOUS
10
120.212
20
-142.952
11
119.926
21
-143.095
0
LINE
8
BLACK
6
CONTINUOUS
10
119.926
20
-143.095
11
119.784
21
-143.238
0
LINE
8
BLACK
6
CONTINUOUS
10
119.784
20
-143.238
11
119.641
21
-143.524
0
LINE
8
BLACK
6
CONTINUOUS
10
119.641
20
-143.524
11
119.641
21
-144.238
0
LINE
8
BLACK
6
CONTINUOUS
10
119.641
20
-144.238
11
119.784
21
-144.524
0
LINE
8
BLACK
6
CONTINUOUS
10
119.784
20
-144.524
11
119.926
21
-144.666
0
LINE
8
BLACK
6
CONTINUOUS
10
119.926
20
-144.666
11
120.212
21
-144.809
0
LINE
8
BLACK
6
CONTINUOUS
10
120.212
20
-144.809
11
120.784
21
-144.809
0
LINE
8
BLACK
6
CONTINUOUS
10
120.784
20
-144.809
11
121.069
21
-144.666
0
LINE
8
BLACK
6
CONTINUOUS
10
121.069
20
-144.666
11
121.212
21
-144.524
0
LINE
8
BLACK
6
CONTINUOUS
10
121.212
20
-144.524
11
121.355
21
-144.238
0
LINE
8
BLACK
6
CONTINUOUS
10
122.498
20
-142.952
11
122.498
21
-143.524
0
LINE
8
BLACK
6
CONTINUOUS
10
123.641
20
-142.952
11
123.641
21
-143.524
0
LINE
8
BLACK
6
CONTINUOUS
10
128.069
20
-147.095
11
127.926
21
-146.952
0
LINE
8
BLACK
6
CONTINUOUS
10
127.926
20
-146.952
11
127.641
21
-146.524
0
LINE
8
BLACK
6
CONTINUOUS
10
127.641
20
-146.524
11
127.498
21
-146.238
0
LINE
8
BLACK
6
CONTINUOUS
10
127.498
20
-146.238
11
127.355
21
-145.809
0
LINE
8
BLACK
6
CONTINUOUS
10
127.355
20
-145.809
11
127.212
21
-145.095
0
LINE
8
BLACK
6
CONTINUOUS
10
127.212
20
-145.095
11
127.212
21
-144.524
0
LINE
8
BLACK
6
CONTINUOUS
10
127.212
20
-144.524
11
127.355
21
-143.809
0
LINE
8
BLACK
6
CONTINUOUS
10
127.355
20
-143.809
11
127.498
21
-143.381
0
LINE
8
BLACK
6
CONTINUOUS
10
127.498
20
-143.381
11
127.641
21
-143.095
0
LINE
8
BLACK
6
CONTINUOUS
10
127.641
20
-143.095
11
127.926
21
-142.666
0
LINE
8
BLACK
6
CONTINUOUS
10
127.926
20
-142.666
11
128.069
21
-142.524
0
LINE
8
BLACK
6
CONTINUOUS
10
130.498
20
-143.952
11
130.498
21
-145.952
0
LINE
8
BLACK
6
CONTINUOUS
10
129.784
20
-142.809
11
129.069
21
-144.952
0
LINE
8
BLACK
6
CONTINUOUS
10
129.069
20
-144.952
11
130.926
21
-144.952
0
LINE
8
BLACK
6
CONTINUOUS
10
134.355
20
-145.952
11
134.355
21
-142.952
0
LINE
8
BLACK
6
CONTINUOUS
10
135.641
20
-145.952
11
135.641
21
-144.381
0
LINE
8
BLACK
6
CONTINUOUS
10
135.641
20
-144.381
11
135.498
21
-144.095
0
LINE
8
BLACK
6
CONTINUOUS
10
135.498
20
-144.095
11
135.212
21
-143.952
0
LINE
8
BLACK
6
CONTINUOUS
10
135.212
20
-143.952
11
134.784
21
-143.952
0
LINE
8
BLACK
6
CONTINUOUS
10
134.784
20
-143.952
11
134.498
21
-144.095
0
LINE
8
BLACK
6
CONTINUOUS
10
134.498
20
-144.095
11
134.355
21
-144.238
0
LINE
8
BLACK
6
CONTINUOUS
10
137.498
20
-145.952
11
137.212
21
-145.809
0
LINE
8
BLACK
6
CONTINUOUS
10
137.212
20
-145.809
11
137.069
21
-145.666
0
LINE
8
BLACK
6
CONTINUOUS
10
137.069
20
-145.666
11
136.926
21
-145.381
0
LINE
8
BLACK
6
CONTINUOUS
10
136.926
20
-145.381
11
136.926
21
-144.524
0
LINE
8
BLACK
6
CONTINUOUS
10
136.926
20
-144.524
11
137.069
21
-144.238
0
LINE
8
BLACK
6
CONTINUOUS
10
137.069
20
-144.238
11
137.212
21
-144.095
0
LINE
8
BLACK
6
CONTINUOUS
10
137.212
20
-144.095
11
137.498
21
-143.952
0
LINE
8
BLACK
6
CONTINUOUS
10
137.498
20
-143.952
11
137.926
21
-143.952
0
LINE
8
BLACK
6
CONTINUOUS
10
137.926
20
-143.952
11
138.212
21
-144.095
0
LINE
8
BLACK
6
CONTINUOUS
10
138.212
20
-144.095
11
138.355
21
-144.238
0
LINE
8
BLACK
6
CONTINUOUS
10
138.355
20
-144.238
11
138.498
21
-144.524
0
LINE
8
BLACK
6
CONTINUOUS
10
138.498
20
-144.524
11
138.498
21
-145.381
0
LINE
8
BLACK
6
CONTINUOUS
10
138.498
20
-145.381
11
138.355
21
-145.666
0
LINE
8
BLACK
6
CONTINUOUS
10
138.355
20
-145.666
11
138.212
21
-145.809
0
LINE
8
BLACK
6
CONTINUOUS
10
138.212
20
-145.809
11
137.926
21
-145.952
0
LINE
8
BLACK
6
CONTINUOUS
10
137.926
20
-145.952
11
137.498
21
-145.952
0
LINE
8
BLACK
6
CONTINUOUS
10
140.212
20
-145.952
11
139.926
21
-145.809
0
LINE
8
BLACK
6
CONTINUOUS
10
139.926
20
-145.809
11
139.784
21
-145.524
0
LINE
8
BLACK
6
CONTINUOUS
10
139.784
20
-145.524
11
139.784
21
-142.952
0
LINE
8
BLACK
6
CONTINUOUS
10
142.498
20
-145.809
11
142.212
21
-145.952
0
LINE
8
BLACK
6
CONTINUOUS
10
142.212
20
-145.952
11
141.641
21
-145.952
0
LINE
8
BLACK
6
CONTINUOUS
10
141.641
20
-145.952
11
141.355
21
-145.809
0
LINE
8
BLACK
6
CONTINUOUS
10
141.355
20
-145.809
11
141.212
21
-145.524
0
LINE
8
BLACK
6
CONTINUOUS
10
141.212
20
-145.524
11
141.212
21
-144.381
0
LINE
8
BLACK
6
CONTINUOUS
10
141.212
20
-144.381
11
141.355
21
-144.095
0
LINE
8
BLACK
6
CONTINUOUS
10
141.355
20
-144.095
11
141.641
21
-143.952
0
LINE
8
BLACK
6
CONTINUOUS
10
141.641
20
-143.952
11
142.212
21
-143.952
0
LINE
8
BLACK
6
CONTINUOUS
10
142.212
20
-143.952
11
142.498
21
-144.095
0
LINE
8
BLACK
6
CONTINUOUS
10
142.498
20
-144.095
11
142.641
21
-144.381
0
LINE
8
BLACK
6
CONTINUOUS
10
142.641
20
-144.381
11
142.641
21
-144.666
0
LINE
8
BLACK
6
CONTINUOUS
10
142.641
20
-144.666
11
141.212
21
-144.952
0
LINE
8
BLACK
6
CONTINUOUS
10
143.784
20
-145.809
11
144.069
21
-145.952
0
LINE
8
BLACK
6
CONTINUOUS
10
144.069
20
-145.952
11
144.641
21
-145.952
0
LINE
8
BLACK
6
CONTINUOUS
10
144.641
20
-145.952
11
144.926
21
-145.809
0
LINE
8
BLACK
6
CONTINUOUS
10
144.926
20
-145.809
11
145.069
21
-145.524
0
LINE
8
BLACK
6
CONTINUOUS
10
145.069
20
-145.524
11
145.069
21
-145.381
0
LINE
8
BLACK
6
CONTINUOUS
10
145.069
20
-145.381
11
144.926
21
-145.095
0
LINE
8
BLACK
6
CONTINUOUS
10
144.926
20
-145.095
11
144.641
21
-144.952
0
LINE
8
BLACK
6
CONTINUOUS
10
144.641
20
-144.952
11
144.212
21
-144.952
0
LINE
8
BLACK
6
CONTINUOUS
10
144.212
20
-144.952
11
143.926
21
-144.809
0
LINE
8
BLACK
6
CONTINUOUS
10
143.926
20
-144.809
11
143.784
21
-144.524
0
LINE
8
BLACK
6
CONTINUOUS
10
143.784
20
-144.524
11
143.784
21
-144.381
0
LINE
8
BLACK
6
CONTINUOUS
10
143.784
20
-144.381
11
143.926
21
-144.095
0
LINE
8
BLACK
6
CONTINUOUS
10
143.926
20
-144.095
11
144.212
21
-143.952
0
LINE
8
BLACK
6
CONTINUOUS
10
144.212
20
-143.952
11
144.641
21
-143.952
0
LINE
8
BLACK
6
CONTINUOUS
10
144.641
20
-143.952
11
144.926
21
-144.095
0
LINE
8
BLACK
6
CONTINUOUS
10
146.069
20
-147.095
11
146.212
21
-146.952
0
LINE
8
BLACK
6
CONTINUOUS
10
146.212
20
-146.952
11
146.498
21
-146.524
0
LINE
8
BLACK
6
CONTINUOUS
10
146.498
20
-146.524
11
146.641
21
-146.238
0
LINE
8
BLACK
6
CONTINUOUS
10
146.641
20
-146.238
11
146.784
21
-145.809
0
LINE
8
BLACK
6
CONTINUOUS
10
146.784
20
-145.809
11
146.926
21
-145.095
0
LINE
8
BLACK
6
CONTINUOUS
10
146.926
20
-145.095
11
146.926
21
-144.524
0
LINE
8
BLACK
6
CONTINUOUS
10
146.926
20
-144.524
11
146.784
21
-143.809
0
LINE
8
BLACK
6
CONTINUOUS
10
146.784
20
-143.809
11
146.641
21
-143.381
0
LINE
8
BLACK
6
CONTINUOUS
10
146.641
20
-143.381
11
146.498
21
-143.095
0
LINE
8
BLACK
6
CONTINUOUS
10
146.498
20
-143.095
11
146.212
21
-142.666
0
LINE
8
BLACK
6
CONTINUOUS
10
146.212
20
-142.666
11
146.069
21
-142.524
  0
ENDSEC
  0
EOF
